%TF.GenerationSoftware,KiCad,Pcbnew,9.0.2*%
%TF.CreationDate,2025-11-26T15:53:52-08:00*%
%TF.ProjectId,ECE411_1,45434534-3131-45f3-912e-6b696361645f,3.0*%
%TF.SameCoordinates,Original*%
%TF.FileFunction,Soldermask,Bot*%
%TF.FilePolarity,Negative*%
%FSLAX46Y46*%
G04 Gerber Fmt 4.6, Leading zero omitted, Abs format (unit mm)*
G04 Created by KiCad (PCBNEW 9.0.2) date 2025-11-26 15:53:52*
%MOMM*%
%LPD*%
G01*
G04 APERTURE LIST*
G04 Aperture macros list*
%AMRoundRect*
0 Rectangle with rounded corners*
0 $1 Rounding radius*
0 $2 $3 $4 $5 $6 $7 $8 $9 X,Y pos of 4 corners*
0 Add a 4 corners polygon primitive as box body*
4,1,4,$2,$3,$4,$5,$6,$7,$8,$9,$2,$3,0*
0 Add four circle primitives for the rounded corners*
1,1,$1+$1,$2,$3*
1,1,$1+$1,$4,$5*
1,1,$1+$1,$6,$7*
1,1,$1+$1,$8,$9*
0 Add four rect primitives between the rounded corners*
20,1,$1+$1,$2,$3,$4,$5,0*
20,1,$1+$1,$4,$5,$6,$7,0*
20,1,$1+$1,$6,$7,$8,$9,0*
20,1,$1+$1,$8,$9,$2,$3,0*%
G04 Aperture macros list end*
%ADD10C,0.650000*%
%ADD11O,1.000000X2.100000*%
%ADD12O,1.000000X1.800000*%
%ADD13RoundRect,0.250000X-0.725000X0.600000X-0.725000X-0.600000X0.725000X-0.600000X0.725000X0.600000X0*%
%ADD14O,1.950000X1.700000*%
%ADD15R,1.800000X1.800000*%
%ADD16C,1.800000*%
%ADD17C,6.000000*%
%ADD18C,2.010000*%
%ADD19R,1.700000X1.700000*%
%ADD20O,1.700000X1.700000*%
%ADD21RoundRect,0.250000X-0.950000X-0.550000X0.950000X-0.550000X0.950000X0.550000X-0.950000X0.550000X0*%
%ADD22O,2.400000X1.600000*%
G04 APERTURE END LIST*
D10*
%TO.C,J4*%
X126390000Y-91605000D03*
X120610000Y-91605000D03*
D11*
X127820000Y-92105000D03*
D12*
X127820000Y-87925000D03*
D11*
X119180000Y-92105000D03*
D12*
X119180000Y-87925000D03*
%TD*%
D13*
%TO.C,J1*%
X130690000Y-114344870D03*
D14*
X130690000Y-116844870D03*
X130690000Y-119344870D03*
X130690000Y-121844870D03*
X130690000Y-124344870D03*
%TD*%
D15*
%TO.C,D1*%
X138308194Y-114491057D03*
D16*
X140848194Y-114491057D03*
%TD*%
D17*
%TO.C,*%
X141000000Y-146000000D03*
%TD*%
D18*
%TO.C,TH1*%
X122450000Y-104400000D03*
X127550000Y-105600000D03*
%TD*%
D17*
%TO.C,J2*%
X106500000Y-88000000D03*
X106500000Y-146000000D03*
D19*
X105230000Y-92870000D03*
D20*
X107770000Y-92870000D03*
X105230000Y-95410000D03*
X107770000Y-95410000D03*
X105230000Y-97950000D03*
X107770000Y-97950000D03*
X105230000Y-100490000D03*
X107770000Y-100490000D03*
X105230000Y-103030000D03*
X107770000Y-103030000D03*
X105230000Y-105570000D03*
X107770000Y-105570000D03*
X105230000Y-108110000D03*
X107770000Y-108110000D03*
X105230000Y-110650000D03*
X107770000Y-110650000D03*
X105230000Y-113190000D03*
X107770000Y-113190000D03*
X105230000Y-115730000D03*
X107770000Y-115730000D03*
X105230000Y-118270000D03*
X107770000Y-118270000D03*
X105230000Y-120810000D03*
X107770000Y-120810000D03*
X105230000Y-123350000D03*
X107770000Y-123350000D03*
X105230000Y-125890000D03*
X107770000Y-125890000D03*
X105230000Y-128430000D03*
X107770000Y-128430000D03*
X105230000Y-130970000D03*
X107770000Y-130970000D03*
X105230000Y-133510000D03*
X107770000Y-133510000D03*
X105230000Y-136050000D03*
X107770000Y-136050000D03*
X105230000Y-138590000D03*
X107770000Y-138590000D03*
X105230000Y-141130000D03*
X107770000Y-141130000D03*
%TD*%
D15*
%TO.C,D3*%
X136000000Y-130960000D03*
D16*
X136000000Y-133500000D03*
%TD*%
D15*
%TO.C,D2*%
X138308194Y-120445636D03*
D16*
X140848194Y-120445636D03*
%TD*%
D17*
%TO.C,*%
X141000000Y-88000000D03*
%TD*%
D15*
%TO.C,D4*%
X130000000Y-130960000D03*
D16*
X130000000Y-133500000D03*
%TD*%
D21*
%TO.C,U1*%
X115380000Y-114300000D03*
D22*
X115380000Y-116840000D03*
X115380000Y-119380000D03*
X115380000Y-121920000D03*
X115380000Y-124460000D03*
X115380000Y-127000000D03*
X115380000Y-129540000D03*
X115380000Y-132080000D03*
X123000000Y-132080000D03*
X123000000Y-129540000D03*
X123000000Y-127000000D03*
X123000000Y-124460000D03*
X123000000Y-121920000D03*
X123000000Y-119380000D03*
X123000000Y-116840000D03*
X123000000Y-114300000D03*
%TD*%
M02*
