%TF.GenerationSoftware,KiCad,Pcbnew,9.0.2*%
%TF.CreationDate,2025-11-26T15:53:52-08:00*%
%TF.ProjectId,ECE411_1,45434534-3131-45f3-912e-6b696361645f,3.0*%
%TF.SameCoordinates,Original*%
%TF.FileFunction,Legend,Top*%
%TF.FilePolarity,Positive*%
%FSLAX46Y46*%
G04 Gerber Fmt 4.6, Leading zero omitted, Abs format (unit mm)*
G04 Created by KiCad (PCBNEW 9.0.2) date 2025-11-26 15:53:52*
%MOMM*%
%LPD*%
G01*
G04 APERTURE LIST*
G04 Aperture macros list*
%AMRoundRect*
0 Rectangle with rounded corners*
0 $1 Rounding radius*
0 $2 $3 $4 $5 $6 $7 $8 $9 X,Y pos of 4 corners*
0 Add a 4 corners polygon primitive as box body*
4,1,4,$2,$3,$4,$5,$6,$7,$8,$9,$2,$3,0*
0 Add four circle primitives for the rounded corners*
1,1,$1+$1,$2,$3*
1,1,$1+$1,$4,$5*
1,1,$1+$1,$6,$7*
1,1,$1+$1,$8,$9*
0 Add four rect primitives between the rounded corners*
20,1,$1+$1,$2,$3,$4,$5,0*
20,1,$1+$1,$4,$5,$6,$7,0*
20,1,$1+$1,$6,$7,$8,$9,0*
20,1,$1+$1,$8,$9,$2,$3,0*%
G04 Aperture macros list end*
%ADD10C,0.300000*%
%ADD11C,0.150000*%
%ADD12C,0.120000*%
%ADD13C,0.650000*%
%ADD14RoundRect,0.150000X0.150000X0.425000X-0.150000X0.425000X-0.150000X-0.425000X0.150000X-0.425000X0*%
%ADD15RoundRect,0.075000X0.075000X0.500000X-0.075000X0.500000X-0.075000X-0.500000X0.075000X-0.500000X0*%
%ADD16O,1.000000X2.100000*%
%ADD17O,1.000000X1.800000*%
%ADD18RoundRect,0.250000X-0.725000X0.600000X-0.725000X-0.600000X0.725000X-0.600000X0.725000X0.600000X0*%
%ADD19O,1.950000X1.700000*%
%ADD20R,1.800000X1.800000*%
%ADD21C,1.800000*%
%ADD22C,6.000000*%
%ADD23C,2.010000*%
%ADD24R,1.700000X1.700000*%
%ADD25O,1.700000X1.700000*%
%ADD26RoundRect,0.250000X-0.337500X-0.475000X0.337500X-0.475000X0.337500X0.475000X-0.337500X0.475000X0*%
%ADD27RoundRect,0.250000X0.450000X-0.350000X0.450000X0.350000X-0.450000X0.350000X-0.450000X-0.350000X0*%
%ADD28RoundRect,0.250000X0.350000X0.450000X-0.350000X0.450000X-0.350000X-0.450000X0.350000X-0.450000X0*%
%ADD29RoundRect,0.250000X-0.950000X-0.550000X0.950000X-0.550000X0.950000X0.550000X-0.950000X0.550000X0*%
%ADD30O,2.400000X1.600000*%
G04 APERTURE END LIST*
D10*
X112840225Y-141055828D02*
X113697368Y-141055828D01*
X113268796Y-142555828D02*
X113268796Y-141055828D01*
X114768796Y-142484400D02*
X114625939Y-142555828D01*
X114625939Y-142555828D02*
X114340225Y-142555828D01*
X114340225Y-142555828D02*
X114197367Y-142484400D01*
X114197367Y-142484400D02*
X114125939Y-142341542D01*
X114125939Y-142341542D02*
X114125939Y-141770114D01*
X114125939Y-141770114D02*
X114197367Y-141627257D01*
X114197367Y-141627257D02*
X114340225Y-141555828D01*
X114340225Y-141555828D02*
X114625939Y-141555828D01*
X114625939Y-141555828D02*
X114768796Y-141627257D01*
X114768796Y-141627257D02*
X114840225Y-141770114D01*
X114840225Y-141770114D02*
X114840225Y-141912971D01*
X114840225Y-141912971D02*
X114125939Y-142055828D01*
X116125939Y-142555828D02*
X116125939Y-141770114D01*
X116125939Y-141770114D02*
X116054510Y-141627257D01*
X116054510Y-141627257D02*
X115911653Y-141555828D01*
X115911653Y-141555828D02*
X115625939Y-141555828D01*
X115625939Y-141555828D02*
X115483081Y-141627257D01*
X116125939Y-142484400D02*
X115983081Y-142555828D01*
X115983081Y-142555828D02*
X115625939Y-142555828D01*
X115625939Y-142555828D02*
X115483081Y-142484400D01*
X115483081Y-142484400D02*
X115411653Y-142341542D01*
X115411653Y-142341542D02*
X115411653Y-142198685D01*
X115411653Y-142198685D02*
X115483081Y-142055828D01*
X115483081Y-142055828D02*
X115625939Y-141984400D01*
X115625939Y-141984400D02*
X115983081Y-141984400D01*
X115983081Y-141984400D02*
X116125939Y-141912971D01*
X116840224Y-142555828D02*
X116840224Y-141555828D01*
X116840224Y-141698685D02*
X116911653Y-141627257D01*
X116911653Y-141627257D02*
X117054510Y-141555828D01*
X117054510Y-141555828D02*
X117268796Y-141555828D01*
X117268796Y-141555828D02*
X117411653Y-141627257D01*
X117411653Y-141627257D02*
X117483082Y-141770114D01*
X117483082Y-141770114D02*
X117483082Y-142555828D01*
X117483082Y-141770114D02*
X117554510Y-141627257D01*
X117554510Y-141627257D02*
X117697367Y-141555828D01*
X117697367Y-141555828D02*
X117911653Y-141555828D01*
X117911653Y-141555828D02*
X118054510Y-141627257D01*
X118054510Y-141627257D02*
X118125939Y-141770114D01*
X118125939Y-141770114D02*
X118125939Y-142555828D01*
X120768796Y-142555828D02*
X119911653Y-142555828D01*
X120340224Y-142555828D02*
X120340224Y-141055828D01*
X120340224Y-141055828D02*
X120197367Y-141270114D01*
X120197367Y-141270114D02*
X120054510Y-141412971D01*
X120054510Y-141412971D02*
X119911653Y-141484400D01*
X122197367Y-142555828D02*
X121340224Y-142555828D01*
X121768795Y-142555828D02*
X121768795Y-141055828D01*
X121768795Y-141055828D02*
X121625938Y-141270114D01*
X121625938Y-141270114D02*
X121483081Y-141412971D01*
X121483081Y-141412971D02*
X121340224Y-141484400D01*
X112840225Y-143470744D02*
X113340225Y-144970744D01*
X113340225Y-144970744D02*
X113840225Y-143470744D01*
X114911653Y-144899316D02*
X114768796Y-144970744D01*
X114768796Y-144970744D02*
X114483082Y-144970744D01*
X114483082Y-144970744D02*
X114340224Y-144899316D01*
X114340224Y-144899316D02*
X114268796Y-144756458D01*
X114268796Y-144756458D02*
X114268796Y-144185030D01*
X114268796Y-144185030D02*
X114340224Y-144042173D01*
X114340224Y-144042173D02*
X114483082Y-143970744D01*
X114483082Y-143970744D02*
X114768796Y-143970744D01*
X114768796Y-143970744D02*
X114911653Y-144042173D01*
X114911653Y-144042173D02*
X114983082Y-144185030D01*
X114983082Y-144185030D02*
X114983082Y-144327887D01*
X114983082Y-144327887D02*
X114268796Y-144470744D01*
X115625938Y-144970744D02*
X115625938Y-143970744D01*
X115625938Y-144256458D02*
X115697367Y-144113601D01*
X115697367Y-144113601D02*
X115768796Y-144042173D01*
X115768796Y-144042173D02*
X115911653Y-143970744D01*
X115911653Y-143970744D02*
X116054510Y-143970744D01*
X116483081Y-144899316D02*
X116625938Y-144970744D01*
X116625938Y-144970744D02*
X116911652Y-144970744D01*
X116911652Y-144970744D02*
X117054509Y-144899316D01*
X117054509Y-144899316D02*
X117125938Y-144756458D01*
X117125938Y-144756458D02*
X117125938Y-144685030D01*
X117125938Y-144685030D02*
X117054509Y-144542173D01*
X117054509Y-144542173D02*
X116911652Y-144470744D01*
X116911652Y-144470744D02*
X116697367Y-144470744D01*
X116697367Y-144470744D02*
X116554509Y-144399316D01*
X116554509Y-144399316D02*
X116483081Y-144256458D01*
X116483081Y-144256458D02*
X116483081Y-144185030D01*
X116483081Y-144185030D02*
X116554509Y-144042173D01*
X116554509Y-144042173D02*
X116697367Y-143970744D01*
X116697367Y-143970744D02*
X116911652Y-143970744D01*
X116911652Y-143970744D02*
X117054509Y-144042173D01*
X117768795Y-144970744D02*
X117768795Y-143970744D01*
X117768795Y-143470744D02*
X117697367Y-143542173D01*
X117697367Y-143542173D02*
X117768795Y-143613601D01*
X117768795Y-143613601D02*
X117840224Y-143542173D01*
X117840224Y-143542173D02*
X117768795Y-143470744D01*
X117768795Y-143470744D02*
X117768795Y-143613601D01*
X118697367Y-144970744D02*
X118554510Y-144899316D01*
X118554510Y-144899316D02*
X118483081Y-144827887D01*
X118483081Y-144827887D02*
X118411653Y-144685030D01*
X118411653Y-144685030D02*
X118411653Y-144256458D01*
X118411653Y-144256458D02*
X118483081Y-144113601D01*
X118483081Y-144113601D02*
X118554510Y-144042173D01*
X118554510Y-144042173D02*
X118697367Y-143970744D01*
X118697367Y-143970744D02*
X118911653Y-143970744D01*
X118911653Y-143970744D02*
X119054510Y-144042173D01*
X119054510Y-144042173D02*
X119125939Y-144113601D01*
X119125939Y-144113601D02*
X119197367Y-144256458D01*
X119197367Y-144256458D02*
X119197367Y-144685030D01*
X119197367Y-144685030D02*
X119125939Y-144827887D01*
X119125939Y-144827887D02*
X119054510Y-144899316D01*
X119054510Y-144899316D02*
X118911653Y-144970744D01*
X118911653Y-144970744D02*
X118697367Y-144970744D01*
X119840224Y-143970744D02*
X119840224Y-144970744D01*
X119840224Y-144113601D02*
X119911653Y-144042173D01*
X119911653Y-144042173D02*
X120054510Y-143970744D01*
X120054510Y-143970744D02*
X120268796Y-143970744D01*
X120268796Y-143970744D02*
X120411653Y-144042173D01*
X120411653Y-144042173D02*
X120483082Y-144185030D01*
X120483082Y-144185030D02*
X120483082Y-144970744D01*
X122197367Y-143470744D02*
X123125939Y-143470744D01*
X123125939Y-143470744D02*
X122625939Y-144042173D01*
X122625939Y-144042173D02*
X122840224Y-144042173D01*
X122840224Y-144042173D02*
X122983082Y-144113601D01*
X122983082Y-144113601D02*
X123054510Y-144185030D01*
X123054510Y-144185030D02*
X123125939Y-144327887D01*
X123125939Y-144327887D02*
X123125939Y-144685030D01*
X123125939Y-144685030D02*
X123054510Y-144827887D01*
X123054510Y-144827887D02*
X122983082Y-144899316D01*
X122983082Y-144899316D02*
X122840224Y-144970744D01*
X122840224Y-144970744D02*
X122411653Y-144970744D01*
X122411653Y-144970744D02*
X122268796Y-144899316D01*
X122268796Y-144899316D02*
X122197367Y-144827887D01*
X123768795Y-144827887D02*
X123840224Y-144899316D01*
X123840224Y-144899316D02*
X123768795Y-144970744D01*
X123768795Y-144970744D02*
X123697367Y-144899316D01*
X123697367Y-144899316D02*
X123768795Y-144827887D01*
X123768795Y-144827887D02*
X123768795Y-144970744D01*
X124768796Y-143470744D02*
X124911653Y-143470744D01*
X124911653Y-143470744D02*
X125054510Y-143542173D01*
X125054510Y-143542173D02*
X125125939Y-143613601D01*
X125125939Y-143613601D02*
X125197367Y-143756458D01*
X125197367Y-143756458D02*
X125268796Y-144042173D01*
X125268796Y-144042173D02*
X125268796Y-144399316D01*
X125268796Y-144399316D02*
X125197367Y-144685030D01*
X125197367Y-144685030D02*
X125125939Y-144827887D01*
X125125939Y-144827887D02*
X125054510Y-144899316D01*
X125054510Y-144899316D02*
X124911653Y-144970744D01*
X124911653Y-144970744D02*
X124768796Y-144970744D01*
X124768796Y-144970744D02*
X124625939Y-144899316D01*
X124625939Y-144899316D02*
X124554510Y-144827887D01*
X124554510Y-144827887D02*
X124483081Y-144685030D01*
X124483081Y-144685030D02*
X124411653Y-144399316D01*
X124411653Y-144399316D02*
X124411653Y-144042173D01*
X124411653Y-144042173D02*
X124483081Y-143756458D01*
X124483081Y-143756458D02*
X124554510Y-143613601D01*
X124554510Y-143613601D02*
X124625939Y-143542173D01*
X124625939Y-143542173D02*
X124768796Y-143470744D01*
X113054510Y-147385660D02*
X113054510Y-145885660D01*
X113054510Y-145885660D02*
X113411653Y-145885660D01*
X113411653Y-145885660D02*
X113625939Y-145957089D01*
X113625939Y-145957089D02*
X113768796Y-146099946D01*
X113768796Y-146099946D02*
X113840225Y-146242803D01*
X113840225Y-146242803D02*
X113911653Y-146528517D01*
X113911653Y-146528517D02*
X113911653Y-146742803D01*
X113911653Y-146742803D02*
X113840225Y-147028517D01*
X113840225Y-147028517D02*
X113768796Y-147171374D01*
X113768796Y-147171374D02*
X113625939Y-147314232D01*
X113625939Y-147314232D02*
X113411653Y-147385660D01*
X113411653Y-147385660D02*
X113054510Y-147385660D01*
X115197368Y-147385660D02*
X115197368Y-146599946D01*
X115197368Y-146599946D02*
X115125939Y-146457089D01*
X115125939Y-146457089D02*
X114983082Y-146385660D01*
X114983082Y-146385660D02*
X114697368Y-146385660D01*
X114697368Y-146385660D02*
X114554510Y-146457089D01*
X115197368Y-147314232D02*
X115054510Y-147385660D01*
X115054510Y-147385660D02*
X114697368Y-147385660D01*
X114697368Y-147385660D02*
X114554510Y-147314232D01*
X114554510Y-147314232D02*
X114483082Y-147171374D01*
X114483082Y-147171374D02*
X114483082Y-147028517D01*
X114483082Y-147028517D02*
X114554510Y-146885660D01*
X114554510Y-146885660D02*
X114697368Y-146814232D01*
X114697368Y-146814232D02*
X115054510Y-146814232D01*
X115054510Y-146814232D02*
X115197368Y-146742803D01*
X115697368Y-146385660D02*
X116268796Y-146385660D01*
X115911653Y-145885660D02*
X115911653Y-147171374D01*
X115911653Y-147171374D02*
X115983082Y-147314232D01*
X115983082Y-147314232D02*
X116125939Y-147385660D01*
X116125939Y-147385660D02*
X116268796Y-147385660D01*
X117340225Y-147314232D02*
X117197368Y-147385660D01*
X117197368Y-147385660D02*
X116911654Y-147385660D01*
X116911654Y-147385660D02*
X116768796Y-147314232D01*
X116768796Y-147314232D02*
X116697368Y-147171374D01*
X116697368Y-147171374D02*
X116697368Y-146599946D01*
X116697368Y-146599946D02*
X116768796Y-146457089D01*
X116768796Y-146457089D02*
X116911654Y-146385660D01*
X116911654Y-146385660D02*
X117197368Y-146385660D01*
X117197368Y-146385660D02*
X117340225Y-146457089D01*
X117340225Y-146457089D02*
X117411654Y-146599946D01*
X117411654Y-146599946D02*
X117411654Y-146742803D01*
X117411654Y-146742803D02*
X116697368Y-146885660D01*
X119983082Y-147385660D02*
X119125939Y-147385660D01*
X119554510Y-147385660D02*
X119554510Y-145885660D01*
X119554510Y-145885660D02*
X119411653Y-146099946D01*
X119411653Y-146099946D02*
X119268796Y-146242803D01*
X119268796Y-146242803D02*
X119125939Y-146314232D01*
X121411653Y-147385660D02*
X120554510Y-147385660D01*
X120983081Y-147385660D02*
X120983081Y-145885660D01*
X120983081Y-145885660D02*
X120840224Y-146099946D01*
X120840224Y-146099946D02*
X120697367Y-146242803D01*
X120697367Y-146242803D02*
X120554510Y-146314232D01*
X123125938Y-145814232D02*
X121840224Y-147742803D01*
X123554510Y-146028517D02*
X123625938Y-145957089D01*
X123625938Y-145957089D02*
X123768796Y-145885660D01*
X123768796Y-145885660D02*
X124125938Y-145885660D01*
X124125938Y-145885660D02*
X124268796Y-145957089D01*
X124268796Y-145957089D02*
X124340224Y-146028517D01*
X124340224Y-146028517D02*
X124411653Y-146171374D01*
X124411653Y-146171374D02*
X124411653Y-146314232D01*
X124411653Y-146314232D02*
X124340224Y-146528517D01*
X124340224Y-146528517D02*
X123483081Y-147385660D01*
X123483081Y-147385660D02*
X124411653Y-147385660D01*
X125697367Y-145885660D02*
X125411652Y-145885660D01*
X125411652Y-145885660D02*
X125268795Y-145957089D01*
X125268795Y-145957089D02*
X125197367Y-146028517D01*
X125197367Y-146028517D02*
X125054509Y-146242803D01*
X125054509Y-146242803D02*
X124983081Y-146528517D01*
X124983081Y-146528517D02*
X124983081Y-147099946D01*
X124983081Y-147099946D02*
X125054509Y-147242803D01*
X125054509Y-147242803D02*
X125125938Y-147314232D01*
X125125938Y-147314232D02*
X125268795Y-147385660D01*
X125268795Y-147385660D02*
X125554509Y-147385660D01*
X125554509Y-147385660D02*
X125697367Y-147314232D01*
X125697367Y-147314232D02*
X125768795Y-147242803D01*
X125768795Y-147242803D02*
X125840224Y-147099946D01*
X125840224Y-147099946D02*
X125840224Y-146742803D01*
X125840224Y-146742803D02*
X125768795Y-146599946D01*
X125768795Y-146599946D02*
X125697367Y-146528517D01*
X125697367Y-146528517D02*
X125554509Y-146457089D01*
X125554509Y-146457089D02*
X125268795Y-146457089D01*
X125268795Y-146457089D02*
X125125938Y-146528517D01*
X125125938Y-146528517D02*
X125054509Y-146599946D01*
X125054509Y-146599946D02*
X124983081Y-146742803D01*
X127554509Y-145814232D02*
X126268795Y-147742803D01*
X127983081Y-146028517D02*
X128054509Y-145957089D01*
X128054509Y-145957089D02*
X128197367Y-145885660D01*
X128197367Y-145885660D02*
X128554509Y-145885660D01*
X128554509Y-145885660D02*
X128697367Y-145957089D01*
X128697367Y-145957089D02*
X128768795Y-146028517D01*
X128768795Y-146028517D02*
X128840224Y-146171374D01*
X128840224Y-146171374D02*
X128840224Y-146314232D01*
X128840224Y-146314232D02*
X128768795Y-146528517D01*
X128768795Y-146528517D02*
X127911652Y-147385660D01*
X127911652Y-147385660D02*
X128840224Y-147385660D01*
X129768795Y-145885660D02*
X129911652Y-145885660D01*
X129911652Y-145885660D02*
X130054509Y-145957089D01*
X130054509Y-145957089D02*
X130125938Y-146028517D01*
X130125938Y-146028517D02*
X130197366Y-146171374D01*
X130197366Y-146171374D02*
X130268795Y-146457089D01*
X130268795Y-146457089D02*
X130268795Y-146814232D01*
X130268795Y-146814232D02*
X130197366Y-147099946D01*
X130197366Y-147099946D02*
X130125938Y-147242803D01*
X130125938Y-147242803D02*
X130054509Y-147314232D01*
X130054509Y-147314232D02*
X129911652Y-147385660D01*
X129911652Y-147385660D02*
X129768795Y-147385660D01*
X129768795Y-147385660D02*
X129625938Y-147314232D01*
X129625938Y-147314232D02*
X129554509Y-147242803D01*
X129554509Y-147242803D02*
X129483080Y-147099946D01*
X129483080Y-147099946D02*
X129411652Y-146814232D01*
X129411652Y-146814232D02*
X129411652Y-146457089D01*
X129411652Y-146457089D02*
X129483080Y-146171374D01*
X129483080Y-146171374D02*
X129554509Y-146028517D01*
X129554509Y-146028517D02*
X129625938Y-145957089D01*
X129625938Y-145957089D02*
X129768795Y-145885660D01*
X130840223Y-146028517D02*
X130911651Y-145957089D01*
X130911651Y-145957089D02*
X131054509Y-145885660D01*
X131054509Y-145885660D02*
X131411651Y-145885660D01*
X131411651Y-145885660D02*
X131554509Y-145957089D01*
X131554509Y-145957089D02*
X131625937Y-146028517D01*
X131625937Y-146028517D02*
X131697366Y-146171374D01*
X131697366Y-146171374D02*
X131697366Y-146314232D01*
X131697366Y-146314232D02*
X131625937Y-146528517D01*
X131625937Y-146528517D02*
X130768794Y-147385660D01*
X130768794Y-147385660D02*
X131697366Y-147385660D01*
X133054508Y-145885660D02*
X132340222Y-145885660D01*
X132340222Y-145885660D02*
X132268794Y-146599946D01*
X132268794Y-146599946D02*
X132340222Y-146528517D01*
X132340222Y-146528517D02*
X132483080Y-146457089D01*
X132483080Y-146457089D02*
X132840222Y-146457089D01*
X132840222Y-146457089D02*
X132983080Y-146528517D01*
X132983080Y-146528517D02*
X133054508Y-146599946D01*
X133054508Y-146599946D02*
X133125937Y-146742803D01*
X133125937Y-146742803D02*
X133125937Y-147099946D01*
X133125937Y-147099946D02*
X133054508Y-147242803D01*
X133054508Y-147242803D02*
X132983080Y-147314232D01*
X132983080Y-147314232D02*
X132840222Y-147385660D01*
X132840222Y-147385660D02*
X132483080Y-147385660D01*
X132483080Y-147385660D02*
X132340222Y-147314232D01*
X132340222Y-147314232D02*
X132268794Y-147242803D01*
D11*
X123833333Y-95045180D02*
X123833333Y-94330895D01*
X123833333Y-94330895D02*
X123880952Y-94188038D01*
X123880952Y-94188038D02*
X123976190Y-94092800D01*
X123976190Y-94092800D02*
X124119047Y-94045180D01*
X124119047Y-94045180D02*
X124214285Y-94045180D01*
X122928571Y-94711847D02*
X122928571Y-94045180D01*
X123166666Y-95092800D02*
X123404761Y-94378514D01*
X123404761Y-94378514D02*
X122785714Y-94378514D01*
X133694819Y-119678203D02*
X134409104Y-119678203D01*
X134409104Y-119678203D02*
X134551961Y-119725822D01*
X134551961Y-119725822D02*
X134647200Y-119821060D01*
X134647200Y-119821060D02*
X134694819Y-119963917D01*
X134694819Y-119963917D02*
X134694819Y-120059155D01*
X134694819Y-118678203D02*
X134694819Y-119249631D01*
X134694819Y-118963917D02*
X133694819Y-118963917D01*
X133694819Y-118963917D02*
X133837676Y-119059155D01*
X133837676Y-119059155D02*
X133932914Y-119154393D01*
X133932914Y-119154393D02*
X133980533Y-119249631D01*
X138840099Y-111985876D02*
X138840099Y-110985876D01*
X138840099Y-110985876D02*
X139078194Y-110985876D01*
X139078194Y-110985876D02*
X139221051Y-111033495D01*
X139221051Y-111033495D02*
X139316289Y-111128733D01*
X139316289Y-111128733D02*
X139363908Y-111223971D01*
X139363908Y-111223971D02*
X139411527Y-111414447D01*
X139411527Y-111414447D02*
X139411527Y-111557304D01*
X139411527Y-111557304D02*
X139363908Y-111747780D01*
X139363908Y-111747780D02*
X139316289Y-111843018D01*
X139316289Y-111843018D02*
X139221051Y-111938257D01*
X139221051Y-111938257D02*
X139078194Y-111985876D01*
X139078194Y-111985876D02*
X138840099Y-111985876D01*
X140363908Y-111985876D02*
X139792480Y-111985876D01*
X140078194Y-111985876D02*
X140078194Y-110985876D01*
X140078194Y-110985876D02*
X139982956Y-111128733D01*
X139982956Y-111128733D02*
X139887718Y-111223971D01*
X139887718Y-111223971D02*
X139792480Y-111271590D01*
X123714286Y-101954819D02*
X124285714Y-101954819D01*
X124000000Y-102954819D02*
X124000000Y-101954819D01*
X124619048Y-102954819D02*
X124619048Y-101954819D01*
X124619048Y-102431009D02*
X125190476Y-102431009D01*
X125190476Y-102954819D02*
X125190476Y-101954819D01*
X126190476Y-102954819D02*
X125619048Y-102954819D01*
X125904762Y-102954819D02*
X125904762Y-101954819D01*
X125904762Y-101954819D02*
X125809524Y-102097676D01*
X125809524Y-102097676D02*
X125714286Y-102192914D01*
X125714286Y-102192914D02*
X125619048Y-102240533D01*
X133454819Y-132968094D02*
X132454819Y-132968094D01*
X132454819Y-132968094D02*
X132454819Y-132729999D01*
X132454819Y-132729999D02*
X132502438Y-132587142D01*
X132502438Y-132587142D02*
X132597676Y-132491904D01*
X132597676Y-132491904D02*
X132692914Y-132444285D01*
X132692914Y-132444285D02*
X132883390Y-132396666D01*
X132883390Y-132396666D02*
X133026247Y-132396666D01*
X133026247Y-132396666D02*
X133216723Y-132444285D01*
X133216723Y-132444285D02*
X133311961Y-132491904D01*
X133311961Y-132491904D02*
X133407200Y-132587142D01*
X133407200Y-132587142D02*
X133454819Y-132729999D01*
X133454819Y-132729999D02*
X133454819Y-132968094D01*
X132454819Y-132063332D02*
X132454819Y-131444285D01*
X132454819Y-131444285D02*
X132835771Y-131777618D01*
X132835771Y-131777618D02*
X132835771Y-131634761D01*
X132835771Y-131634761D02*
X132883390Y-131539523D01*
X132883390Y-131539523D02*
X132931009Y-131491904D01*
X132931009Y-131491904D02*
X133026247Y-131444285D01*
X133026247Y-131444285D02*
X133264342Y-131444285D01*
X133264342Y-131444285D02*
X133359580Y-131491904D01*
X133359580Y-131491904D02*
X133407200Y-131539523D01*
X133407200Y-131539523D02*
X133454819Y-131634761D01*
X133454819Y-131634761D02*
X133454819Y-131920475D01*
X133454819Y-131920475D02*
X133407200Y-132015713D01*
X133407200Y-132015713D02*
X133359580Y-132063332D01*
X138840099Y-117940455D02*
X138840099Y-116940455D01*
X138840099Y-116940455D02*
X139078194Y-116940455D01*
X139078194Y-116940455D02*
X139221051Y-116988074D01*
X139221051Y-116988074D02*
X139316289Y-117083312D01*
X139316289Y-117083312D02*
X139363908Y-117178550D01*
X139363908Y-117178550D02*
X139411527Y-117369026D01*
X139411527Y-117369026D02*
X139411527Y-117511883D01*
X139411527Y-117511883D02*
X139363908Y-117702359D01*
X139363908Y-117702359D02*
X139316289Y-117797597D01*
X139316289Y-117797597D02*
X139221051Y-117892836D01*
X139221051Y-117892836D02*
X139078194Y-117940455D01*
X139078194Y-117940455D02*
X138840099Y-117940455D01*
X139792480Y-117035693D02*
X139840099Y-116988074D01*
X139840099Y-116988074D02*
X139935337Y-116940455D01*
X139935337Y-116940455D02*
X140173432Y-116940455D01*
X140173432Y-116940455D02*
X140268670Y-116988074D01*
X140268670Y-116988074D02*
X140316289Y-117035693D01*
X140316289Y-117035693D02*
X140363908Y-117130931D01*
X140363908Y-117130931D02*
X140363908Y-117226169D01*
X140363908Y-117226169D02*
X140316289Y-117369026D01*
X140316289Y-117369026D02*
X139744861Y-117940455D01*
X139744861Y-117940455D02*
X140363908Y-117940455D01*
X116252611Y-103043302D02*
X116204992Y-103090922D01*
X116204992Y-103090922D02*
X116062135Y-103138541D01*
X116062135Y-103138541D02*
X115966897Y-103138541D01*
X115966897Y-103138541D02*
X115824040Y-103090922D01*
X115824040Y-103090922D02*
X115728802Y-102995683D01*
X115728802Y-102995683D02*
X115681183Y-102900445D01*
X115681183Y-102900445D02*
X115633564Y-102709969D01*
X115633564Y-102709969D02*
X115633564Y-102567112D01*
X115633564Y-102567112D02*
X115681183Y-102376636D01*
X115681183Y-102376636D02*
X115728802Y-102281398D01*
X115728802Y-102281398D02*
X115824040Y-102186160D01*
X115824040Y-102186160D02*
X115966897Y-102138541D01*
X115966897Y-102138541D02*
X116062135Y-102138541D01*
X116062135Y-102138541D02*
X116204992Y-102186160D01*
X116204992Y-102186160D02*
X116252611Y-102233779D01*
X117204992Y-103138541D02*
X116633564Y-103138541D01*
X116919278Y-103138541D02*
X116919278Y-102138541D01*
X116919278Y-102138541D02*
X116824040Y-102281398D01*
X116824040Y-102281398D02*
X116728802Y-102376636D01*
X116728802Y-102376636D02*
X116633564Y-102424255D01*
X140932766Y-140007325D02*
X140456575Y-140340658D01*
X140932766Y-140578753D02*
X139932766Y-140578753D01*
X139932766Y-140578753D02*
X139932766Y-140197801D01*
X139932766Y-140197801D02*
X139980385Y-140102563D01*
X139980385Y-140102563D02*
X140028004Y-140054944D01*
X140028004Y-140054944D02*
X140123242Y-140007325D01*
X140123242Y-140007325D02*
X140266099Y-140007325D01*
X140266099Y-140007325D02*
X140361337Y-140054944D01*
X140361337Y-140054944D02*
X140408956Y-140102563D01*
X140408956Y-140102563D02*
X140456575Y-140197801D01*
X140456575Y-140197801D02*
X140456575Y-140578753D01*
X140932766Y-139054944D02*
X140932766Y-139626372D01*
X140932766Y-139340658D02*
X139932766Y-139340658D01*
X139932766Y-139340658D02*
X140075623Y-139435896D01*
X140075623Y-139435896D02*
X140170861Y-139531134D01*
X140170861Y-139531134D02*
X140218480Y-139626372D01*
X120331035Y-95783835D02*
X119997702Y-95307644D01*
X119759607Y-95783835D02*
X119759607Y-94783835D01*
X119759607Y-94783835D02*
X120140559Y-94783835D01*
X120140559Y-94783835D02*
X120235797Y-94831454D01*
X120235797Y-94831454D02*
X120283416Y-94879073D01*
X120283416Y-94879073D02*
X120331035Y-94974311D01*
X120331035Y-94974311D02*
X120331035Y-95117168D01*
X120331035Y-95117168D02*
X120283416Y-95212406D01*
X120283416Y-95212406D02*
X120235797Y-95260025D01*
X120235797Y-95260025D02*
X120140559Y-95307644D01*
X120140559Y-95307644D02*
X119759607Y-95307644D01*
X121188178Y-94783835D02*
X120997702Y-94783835D01*
X120997702Y-94783835D02*
X120902464Y-94831454D01*
X120902464Y-94831454D02*
X120854845Y-94879073D01*
X120854845Y-94879073D02*
X120759607Y-95021930D01*
X120759607Y-95021930D02*
X120711988Y-95212406D01*
X120711988Y-95212406D02*
X120711988Y-95593358D01*
X120711988Y-95593358D02*
X120759607Y-95688596D01*
X120759607Y-95688596D02*
X120807226Y-95736216D01*
X120807226Y-95736216D02*
X120902464Y-95783835D01*
X120902464Y-95783835D02*
X121092940Y-95783835D01*
X121092940Y-95783835D02*
X121188178Y-95736216D01*
X121188178Y-95736216D02*
X121235797Y-95688596D01*
X121235797Y-95688596D02*
X121283416Y-95593358D01*
X121283416Y-95593358D02*
X121283416Y-95355263D01*
X121283416Y-95355263D02*
X121235797Y-95260025D01*
X121235797Y-95260025D02*
X121188178Y-95212406D01*
X121188178Y-95212406D02*
X121092940Y-95164787D01*
X121092940Y-95164787D02*
X120902464Y-95164787D01*
X120902464Y-95164787D02*
X120807226Y-95212406D01*
X120807226Y-95212406D02*
X120759607Y-95260025D01*
X120759607Y-95260025D02*
X120711988Y-95355263D01*
X136932766Y-140007325D02*
X136456575Y-140340658D01*
X136932766Y-140578753D02*
X135932766Y-140578753D01*
X135932766Y-140578753D02*
X135932766Y-140197801D01*
X135932766Y-140197801D02*
X135980385Y-140102563D01*
X135980385Y-140102563D02*
X136028004Y-140054944D01*
X136028004Y-140054944D02*
X136123242Y-140007325D01*
X136123242Y-140007325D02*
X136266099Y-140007325D01*
X136266099Y-140007325D02*
X136361337Y-140054944D01*
X136361337Y-140054944D02*
X136408956Y-140102563D01*
X136408956Y-140102563D02*
X136456575Y-140197801D01*
X136456575Y-140197801D02*
X136456575Y-140578753D01*
X136028004Y-139626372D02*
X135980385Y-139578753D01*
X135980385Y-139578753D02*
X135932766Y-139483515D01*
X135932766Y-139483515D02*
X135932766Y-139245420D01*
X135932766Y-139245420D02*
X135980385Y-139150182D01*
X135980385Y-139150182D02*
X136028004Y-139102563D01*
X136028004Y-139102563D02*
X136123242Y-139054944D01*
X136123242Y-139054944D02*
X136218480Y-139054944D01*
X136218480Y-139054944D02*
X136361337Y-139102563D01*
X136361337Y-139102563D02*
X136932766Y-139673991D01*
X136932766Y-139673991D02*
X136932766Y-139054944D01*
X123579143Y-99454819D02*
X123245810Y-98978628D01*
X123007715Y-99454819D02*
X123007715Y-98454819D01*
X123007715Y-98454819D02*
X123388667Y-98454819D01*
X123388667Y-98454819D02*
X123483905Y-98502438D01*
X123483905Y-98502438D02*
X123531524Y-98550057D01*
X123531524Y-98550057D02*
X123579143Y-98645295D01*
X123579143Y-98645295D02*
X123579143Y-98788152D01*
X123579143Y-98788152D02*
X123531524Y-98883390D01*
X123531524Y-98883390D02*
X123483905Y-98931009D01*
X123483905Y-98931009D02*
X123388667Y-98978628D01*
X123388667Y-98978628D02*
X123007715Y-98978628D01*
X124483905Y-98454819D02*
X124007715Y-98454819D01*
X124007715Y-98454819D02*
X123960096Y-98931009D01*
X123960096Y-98931009D02*
X124007715Y-98883390D01*
X124007715Y-98883390D02*
X124102953Y-98835771D01*
X124102953Y-98835771D02*
X124341048Y-98835771D01*
X124341048Y-98835771D02*
X124436286Y-98883390D01*
X124436286Y-98883390D02*
X124483905Y-98931009D01*
X124483905Y-98931009D02*
X124531524Y-99026247D01*
X124531524Y-99026247D02*
X124531524Y-99264342D01*
X124531524Y-99264342D02*
X124483905Y-99359580D01*
X124483905Y-99359580D02*
X124436286Y-99407200D01*
X124436286Y-99407200D02*
X124341048Y-99454819D01*
X124341048Y-99454819D02*
X124102953Y-99454819D01*
X124102953Y-99454819D02*
X124007715Y-99407200D01*
X124007715Y-99407200D02*
X123960096Y-99359580D01*
X128779889Y-139911300D02*
X128303698Y-140244633D01*
X128779889Y-140482728D02*
X127779889Y-140482728D01*
X127779889Y-140482728D02*
X127779889Y-140101776D01*
X127779889Y-140101776D02*
X127827508Y-140006538D01*
X127827508Y-140006538D02*
X127875127Y-139958919D01*
X127875127Y-139958919D02*
X127970365Y-139911300D01*
X127970365Y-139911300D02*
X128113222Y-139911300D01*
X128113222Y-139911300D02*
X128208460Y-139958919D01*
X128208460Y-139958919D02*
X128256079Y-140006538D01*
X128256079Y-140006538D02*
X128303698Y-140101776D01*
X128303698Y-140101776D02*
X128303698Y-140482728D01*
X128113222Y-139054157D02*
X128779889Y-139054157D01*
X127732270Y-139292252D02*
X128446555Y-139530347D01*
X128446555Y-139530347D02*
X128446555Y-138911300D01*
X129261905Y-128954819D02*
X129261905Y-127954819D01*
X129261905Y-127954819D02*
X129500000Y-127954819D01*
X129500000Y-127954819D02*
X129642857Y-128002438D01*
X129642857Y-128002438D02*
X129738095Y-128097676D01*
X129738095Y-128097676D02*
X129785714Y-128192914D01*
X129785714Y-128192914D02*
X129833333Y-128383390D01*
X129833333Y-128383390D02*
X129833333Y-128526247D01*
X129833333Y-128526247D02*
X129785714Y-128716723D01*
X129785714Y-128716723D02*
X129738095Y-128811961D01*
X129738095Y-128811961D02*
X129642857Y-128907200D01*
X129642857Y-128907200D02*
X129500000Y-128954819D01*
X129500000Y-128954819D02*
X129261905Y-128954819D01*
X130690476Y-128288152D02*
X130690476Y-128954819D01*
X130452381Y-127907200D02*
X130214286Y-128621485D01*
X130214286Y-128621485D02*
X130833333Y-128621485D01*
X118428095Y-111424819D02*
X118428095Y-112234342D01*
X118428095Y-112234342D02*
X118475714Y-112329580D01*
X118475714Y-112329580D02*
X118523333Y-112377200D01*
X118523333Y-112377200D02*
X118618571Y-112424819D01*
X118618571Y-112424819D02*
X118809047Y-112424819D01*
X118809047Y-112424819D02*
X118904285Y-112377200D01*
X118904285Y-112377200D02*
X118951904Y-112329580D01*
X118951904Y-112329580D02*
X118999523Y-112234342D01*
X118999523Y-112234342D02*
X118999523Y-111424819D01*
X119999523Y-112424819D02*
X119428095Y-112424819D01*
X119713809Y-112424819D02*
X119713809Y-111424819D01*
X119713809Y-111424819D02*
X119618571Y-111567676D01*
X119618571Y-111567676D02*
X119523333Y-111662914D01*
X119523333Y-111662914D02*
X119428095Y-111710533D01*
X132932766Y-140007325D02*
X132456575Y-140340658D01*
X132932766Y-140578753D02*
X131932766Y-140578753D01*
X131932766Y-140578753D02*
X131932766Y-140197801D01*
X131932766Y-140197801D02*
X131980385Y-140102563D01*
X131980385Y-140102563D02*
X132028004Y-140054944D01*
X132028004Y-140054944D02*
X132123242Y-140007325D01*
X132123242Y-140007325D02*
X132266099Y-140007325D01*
X132266099Y-140007325D02*
X132361337Y-140054944D01*
X132361337Y-140054944D02*
X132408956Y-140102563D01*
X132408956Y-140102563D02*
X132456575Y-140197801D01*
X132456575Y-140197801D02*
X132456575Y-140578753D01*
X131932766Y-139673991D02*
X131932766Y-139054944D01*
X131932766Y-139054944D02*
X132313718Y-139388277D01*
X132313718Y-139388277D02*
X132313718Y-139245420D01*
X132313718Y-139245420D02*
X132361337Y-139150182D01*
X132361337Y-139150182D02*
X132408956Y-139102563D01*
X132408956Y-139102563D02*
X132504194Y-139054944D01*
X132504194Y-139054944D02*
X132742289Y-139054944D01*
X132742289Y-139054944D02*
X132837527Y-139102563D01*
X132837527Y-139102563D02*
X132885147Y-139150182D01*
X132885147Y-139150182D02*
X132932766Y-139245420D01*
X132932766Y-139245420D02*
X132932766Y-139531134D01*
X132932766Y-139531134D02*
X132885147Y-139626372D01*
X132885147Y-139626372D02*
X132837527Y-139673991D01*
D12*
%TO.C,J4*%
X118830000Y-89100000D02*
X118830000Y-90800000D01*
X128170000Y-89100000D02*
X128170000Y-90800000D01*
%TO.C,J1*%
X127180000Y-111784870D02*
X127180000Y-126904870D01*
X127180000Y-126904870D02*
X133150000Y-126904870D01*
X127940000Y-112544870D02*
X127940000Y-119344870D01*
X127940000Y-126144870D02*
X127940000Y-119344870D01*
X130890000Y-111794870D02*
X130890000Y-112544870D01*
X130890000Y-112544870D02*
X127940000Y-112544870D01*
X130890000Y-126144870D02*
X127940000Y-126144870D01*
X130890000Y-126894870D02*
X130890000Y-126144870D01*
X132390000Y-111794870D02*
X132390000Y-113594870D01*
X132390000Y-113594870D02*
X133140000Y-113594870D01*
X132390000Y-115094870D02*
X132390000Y-123594870D01*
X132390000Y-123594870D02*
X133140000Y-123594870D01*
X132390000Y-125094870D02*
X132390000Y-126894870D01*
X132390000Y-126894870D02*
X133140000Y-126894870D01*
X133140000Y-111794870D02*
X132390000Y-111794870D01*
X133140000Y-113594870D02*
X133140000Y-111794870D01*
X133140000Y-115094870D02*
X132390000Y-115094870D01*
X133140000Y-123594870D02*
X133140000Y-115094870D01*
X133140000Y-125094870D02*
X132390000Y-125094870D01*
X133140000Y-126894870D02*
X133140000Y-125094870D01*
X133150000Y-111784870D02*
X127180000Y-111784870D01*
X133150000Y-126904870D02*
X133150000Y-111784870D01*
X133440000Y-111494870D02*
X132190000Y-111494870D01*
X133440000Y-112744870D02*
X133440000Y-111494870D01*
%TO.C,D1*%
X138018194Y-113255057D02*
X138018194Y-113411057D01*
X138018194Y-115571057D02*
X138018194Y-115727057D01*
X138018194Y-113255541D02*
G75*
G02*
X141249631Y-113411057I1560000J-1235516D01*
G01*
X138537233Y-113411057D02*
G75*
G02*
X140619155Y-113411057I1040961J-1080000D01*
G01*
X140619155Y-115571057D02*
G75*
G02*
X138537233Y-115571057I-1040961J1080000D01*
G01*
X141249631Y-115571057D02*
G75*
G02*
X138018194Y-115726573I-1671437J1080000D01*
G01*
%TO.C,TH1*%
X120500000Y-103400000D02*
X120500000Y-106600000D01*
X120500000Y-103400000D02*
X121612000Y-103400000D01*
X120500000Y-106600000D02*
X126712000Y-106600000D01*
X123288000Y-103400000D02*
X129500000Y-103400000D01*
X128388000Y-106600000D02*
X129500000Y-106600000D01*
X129500000Y-103400000D02*
X129500000Y-106600000D01*
%TO.C,J2*%
X102940000Y-146500000D02*
X102940000Y-87500000D01*
X103900000Y-91540000D02*
X103900000Y-92870000D01*
X103900000Y-94140000D02*
X103900000Y-142460000D01*
X105230000Y-91540000D02*
X103900000Y-91540000D01*
X106500000Y-91540000D02*
X106500000Y-94140000D01*
X106500000Y-94140000D02*
X103900000Y-94140000D01*
X109100000Y-91540000D02*
X106500000Y-91540000D01*
X109100000Y-91540000D02*
X109100000Y-142460000D01*
X109100000Y-142460000D02*
X103900000Y-142460000D01*
X102940000Y-87500000D02*
G75*
G02*
X106000000Y-84440000I3060000J0D01*
G01*
X106000000Y-149560000D02*
G75*
G02*
X102940000Y-146500000I0J3060000D01*
G01*
%TO.C,D3*%
X134920000Y-130670000D02*
X134764000Y-130670000D01*
X137236000Y-130670000D02*
X137080000Y-130670000D01*
X134920000Y-133270961D02*
G75*
G02*
X134920000Y-131189039I1080000J1040961D01*
G01*
X134920000Y-133901437D02*
G75*
G02*
X134764484Y-130670000I1080000J1671437D01*
G01*
X137080000Y-131189039D02*
G75*
G02*
X137080000Y-133270961I-1080000J-1040961D01*
G01*
X137235516Y-130670000D02*
G75*
G02*
X137080000Y-133901437I-1235516J-1560000D01*
G01*
%TO.C,D2*%
X138018194Y-119209636D02*
X138018194Y-119365636D01*
X138018194Y-121525636D02*
X138018194Y-121681636D01*
X138018194Y-119210120D02*
G75*
G02*
X141249631Y-119365636I1560000J-1235516D01*
G01*
X138537233Y-119365636D02*
G75*
G02*
X140619155Y-119365636I1040961J-1080000D01*
G01*
X140619155Y-121525636D02*
G75*
G02*
X138537233Y-121525636I-1040961J1080000D01*
G01*
X141249631Y-121525636D02*
G75*
G02*
X138018194Y-121681152I-1671437J1080000D01*
G01*
%TO.C,C1*%
X116158026Y-103628722D02*
X116680530Y-103628722D01*
X116158026Y-105098722D02*
X116680530Y-105098722D01*
%TO.C,R1*%
X141392947Y-140067723D02*
X141392947Y-139613595D01*
X142862947Y-140067723D02*
X142862947Y-139613595D01*
%TO.C,R6*%
X120982151Y-96354021D02*
X120528023Y-96354021D01*
X120982151Y-97824021D02*
X120528023Y-97824021D01*
%TO.C,R2*%
X137392947Y-140067723D02*
X137392947Y-139613595D01*
X138862947Y-140067723D02*
X138862947Y-139613595D01*
%TO.C,R5*%
X123972874Y-99765000D02*
X123518746Y-99765000D01*
X123972874Y-101235000D02*
X123518746Y-101235000D01*
%TO.C,R4*%
X129240070Y-139971698D02*
X129240070Y-139517570D01*
X130710070Y-139971698D02*
X130710070Y-139517570D01*
%TO.C,D4*%
X128920000Y-130670000D02*
X128764000Y-130670000D01*
X131236000Y-130670000D02*
X131080000Y-130670000D01*
X128920000Y-133270961D02*
G75*
G02*
X128920000Y-131189039I1080000J1040961D01*
G01*
X128920000Y-133901437D02*
G75*
G02*
X128764484Y-130670000I1080000J1671437D01*
G01*
X131080000Y-131189039D02*
G75*
G02*
X131080000Y-133270961I-1080000J-1040961D01*
G01*
X131235516Y-130670000D02*
G75*
G02*
X131080000Y-133901437I-1235516J-1560000D01*
G01*
%TO.C,U1*%
X116940000Y-112970000D02*
X116940000Y-133410000D01*
X116940000Y-133410000D02*
X121440000Y-133410000D01*
X118190000Y-112970000D02*
X116940000Y-112970000D01*
X121440000Y-112970000D02*
X120190000Y-112970000D01*
X121440000Y-133410000D02*
X121440000Y-112970000D01*
X120190000Y-112970000D02*
G75*
G02*
X118190000Y-112970000I-1000000J0D01*
G01*
%TO.C,R3*%
X133392947Y-140067723D02*
X133392947Y-139613595D01*
X134862947Y-140067723D02*
X134862947Y-139613595D01*
%TD*%
%LPC*%
D13*
%TO.C,J4*%
X126390000Y-91605000D03*
X120610000Y-91605000D03*
D14*
X126700000Y-92680000D03*
X125900000Y-92680000D03*
D15*
X124750000Y-92680000D03*
X123750000Y-92680000D03*
X123250000Y-92680000D03*
X122250000Y-92680000D03*
D14*
X121100000Y-92680000D03*
X120300000Y-92680000D03*
X120300000Y-92680000D03*
X121100000Y-92680000D03*
D15*
X121750000Y-92680000D03*
X122750000Y-92680000D03*
X124250000Y-92680000D03*
X125250000Y-92680000D03*
D14*
X125900000Y-92680000D03*
X126700000Y-92680000D03*
D16*
X127820000Y-92105000D03*
D17*
X127820000Y-87925000D03*
D16*
X119180000Y-92105000D03*
D17*
X119180000Y-87925000D03*
%TD*%
D18*
%TO.C,J1*%
X130690000Y-114344870D03*
D19*
X130690000Y-116844870D03*
X130690000Y-119344870D03*
X130690000Y-121844870D03*
X130690000Y-124344870D03*
%TD*%
D20*
%TO.C,D1*%
X138308194Y-114491057D03*
D21*
X140848194Y-114491057D03*
%TD*%
D22*
%TO.C,*%
X141000000Y-146000000D03*
%TD*%
D23*
%TO.C,TH1*%
X122450000Y-104400000D03*
X127550000Y-105600000D03*
%TD*%
D22*
%TO.C,J2*%
X106500000Y-88000000D03*
X106500000Y-146000000D03*
D24*
X105230000Y-92870000D03*
D25*
X107770000Y-92870000D03*
X105230000Y-95410000D03*
X107770000Y-95410000D03*
X105230000Y-97950000D03*
X107770000Y-97950000D03*
X105230000Y-100490000D03*
X107770000Y-100490000D03*
X105230000Y-103030000D03*
X107770000Y-103030000D03*
X105230000Y-105570000D03*
X107770000Y-105570000D03*
X105230000Y-108110000D03*
X107770000Y-108110000D03*
X105230000Y-110650000D03*
X107770000Y-110650000D03*
X105230000Y-113190000D03*
X107770000Y-113190000D03*
X105230000Y-115730000D03*
X107770000Y-115730000D03*
X105230000Y-118270000D03*
X107770000Y-118270000D03*
X105230000Y-120810000D03*
X107770000Y-120810000D03*
X105230000Y-123350000D03*
X107770000Y-123350000D03*
X105230000Y-125890000D03*
X107770000Y-125890000D03*
X105230000Y-128430000D03*
X107770000Y-128430000D03*
X105230000Y-130970000D03*
X107770000Y-130970000D03*
X105230000Y-133510000D03*
X107770000Y-133510000D03*
X105230000Y-136050000D03*
X107770000Y-136050000D03*
X105230000Y-138590000D03*
X107770000Y-138590000D03*
X105230000Y-141130000D03*
X107770000Y-141130000D03*
%TD*%
D20*
%TO.C,D3*%
X136000000Y-130960000D03*
D21*
X136000000Y-133500000D03*
%TD*%
D20*
%TO.C,D2*%
X138308194Y-120445636D03*
D21*
X140848194Y-120445636D03*
%TD*%
D26*
%TO.C,C1*%
X115381778Y-104363722D03*
X117456778Y-104363722D03*
%TD*%
D22*
%TO.C,*%
X141000000Y-88000000D03*
%TD*%
D27*
%TO.C,R1*%
X142127947Y-140840659D03*
X142127947Y-138840659D03*
%TD*%
D28*
%TO.C,R6*%
X121755087Y-97089021D03*
X119755087Y-97089021D03*
%TD*%
D27*
%TO.C,R2*%
X138127947Y-140840659D03*
X138127947Y-138840659D03*
%TD*%
D28*
%TO.C,R5*%
X124745810Y-100500000D03*
X122745810Y-100500000D03*
%TD*%
D27*
%TO.C,R4*%
X129975070Y-140744634D03*
X129975070Y-138744634D03*
%TD*%
D20*
%TO.C,D4*%
X130000000Y-130960000D03*
D21*
X130000000Y-133500000D03*
%TD*%
D29*
%TO.C,U1*%
X115380000Y-114300000D03*
D30*
X115380000Y-116840000D03*
X115380000Y-119380000D03*
X115380000Y-121920000D03*
X115380000Y-124460000D03*
X115380000Y-127000000D03*
X115380000Y-129540000D03*
X115380000Y-132080000D03*
X123000000Y-132080000D03*
X123000000Y-129540000D03*
X123000000Y-127000000D03*
X123000000Y-124460000D03*
X123000000Y-121920000D03*
X123000000Y-119380000D03*
X123000000Y-116840000D03*
X123000000Y-114300000D03*
%TD*%
D27*
%TO.C,R3*%
X134127947Y-140840659D03*
X134127947Y-138840659D03*
%TD*%
%LPD*%
M02*
