%TF.GenerationSoftware,KiCad,Pcbnew,9.0.2*%
%TF.CreationDate,2025-11-26T15:53:52-08:00*%
%TF.ProjectId,ECE411_1,45434534-3131-45f3-912e-6b696361645f,3.0*%
%TF.SameCoordinates,Original*%
%TF.FileFunction,Copper,L1,Top*%
%TF.FilePolarity,Positive*%
%FSLAX46Y46*%
G04 Gerber Fmt 4.6, Leading zero omitted, Abs format (unit mm)*
G04 Created by KiCad (PCBNEW 9.0.2) date 2025-11-26 15:53:52*
%MOMM*%
%LPD*%
G01*
G04 APERTURE LIST*
G04 Aperture macros list*
%AMRoundRect*
0 Rectangle with rounded corners*
0 $1 Rounding radius*
0 $2 $3 $4 $5 $6 $7 $8 $9 X,Y pos of 4 corners*
0 Add a 4 corners polygon primitive as box body*
4,1,4,$2,$3,$4,$5,$6,$7,$8,$9,$2,$3,0*
0 Add four circle primitives for the rounded corners*
1,1,$1+$1,$2,$3*
1,1,$1+$1,$4,$5*
1,1,$1+$1,$6,$7*
1,1,$1+$1,$8,$9*
0 Add four rect primitives between the rounded corners*
20,1,$1+$1,$2,$3,$4,$5,0*
20,1,$1+$1,$4,$5,$6,$7,0*
20,1,$1+$1,$6,$7,$8,$9,0*
20,1,$1+$1,$8,$9,$2,$3,0*%
G04 Aperture macros list end*
%TA.AperFunction,SMDPad,CuDef*%
%ADD10RoundRect,0.150000X0.150000X0.425000X-0.150000X0.425000X-0.150000X-0.425000X0.150000X-0.425000X0*%
%TD*%
%TA.AperFunction,SMDPad,CuDef*%
%ADD11RoundRect,0.075000X0.075000X0.500000X-0.075000X0.500000X-0.075000X-0.500000X0.075000X-0.500000X0*%
%TD*%
%TA.AperFunction,HeatsinkPad*%
%ADD12O,1.000000X2.100000*%
%TD*%
%TA.AperFunction,HeatsinkPad*%
%ADD13O,1.000000X1.800000*%
%TD*%
%TA.AperFunction,ComponentPad*%
%ADD14RoundRect,0.250000X-0.725000X0.600000X-0.725000X-0.600000X0.725000X-0.600000X0.725000X0.600000X0*%
%TD*%
%TA.AperFunction,ComponentPad*%
%ADD15O,1.950000X1.700000*%
%TD*%
%TA.AperFunction,ComponentPad*%
%ADD16R,1.800000X1.800000*%
%TD*%
%TA.AperFunction,ComponentPad*%
%ADD17C,1.800000*%
%TD*%
%TA.AperFunction,ComponentPad*%
%ADD18C,2.010000*%
%TD*%
%TA.AperFunction,ComponentPad*%
%ADD19R,1.700000X1.700000*%
%TD*%
%TA.AperFunction,ComponentPad*%
%ADD20O,1.700000X1.700000*%
%TD*%
%TA.AperFunction,SMDPad,CuDef*%
%ADD21RoundRect,0.250000X-0.337500X-0.475000X0.337500X-0.475000X0.337500X0.475000X-0.337500X0.475000X0*%
%TD*%
%TA.AperFunction,SMDPad,CuDef*%
%ADD22RoundRect,0.250000X0.450000X-0.350000X0.450000X0.350000X-0.450000X0.350000X-0.450000X-0.350000X0*%
%TD*%
%TA.AperFunction,SMDPad,CuDef*%
%ADD23RoundRect,0.250000X0.350000X0.450000X-0.350000X0.450000X-0.350000X-0.450000X0.350000X-0.450000X0*%
%TD*%
%TA.AperFunction,ComponentPad*%
%ADD24RoundRect,0.250000X-0.950000X-0.550000X0.950000X-0.550000X0.950000X0.550000X-0.950000X0.550000X0*%
%TD*%
%TA.AperFunction,ComponentPad*%
%ADD25O,2.400000X1.600000*%
%TD*%
%TA.AperFunction,ViaPad*%
%ADD26C,0.600000*%
%TD*%
%TA.AperFunction,Conductor*%
%ADD27C,1.000000*%
%TD*%
%TA.AperFunction,Conductor*%
%ADD28C,0.500000*%
%TD*%
%TA.AperFunction,Conductor*%
%ADD29C,0.250000*%
%TD*%
G04 APERTURE END LIST*
D10*
%TO.P,J4,A1,GND*%
%TO.N,GND*%
X126700000Y-92680000D03*
%TO.P,J4,A4,VBUS*%
%TO.N,Net-(J4-VBUS-PadA4)*%
X125900000Y-92680000D03*
D11*
%TO.P,J4,A5,CC1*%
%TO.N,Net-(J4-CC1)*%
X124750000Y-92680000D03*
%TO.P,J4,A6,D+*%
%TO.N,unconnected-(J4-D+-PadA6)*%
X123750000Y-92680000D03*
%TO.P,J4,A7,D-*%
%TO.N,unconnected-(J4-D--PadA7)*%
X123250000Y-92680000D03*
%TO.P,J4,A8,SBU1*%
%TO.N,unconnected-(J4-SBU1-PadA8)*%
X122250000Y-92680000D03*
D10*
%TO.P,J4,A9,VBUS*%
%TO.N,Net-(J4-VBUS-PadA4)*%
X121100000Y-92680000D03*
%TO.P,J4,A12,GND*%
%TO.N,GND*%
X120300000Y-92680000D03*
%TO.P,J4,B1,GND*%
X120300000Y-92680000D03*
%TO.P,J4,B4,VBUS*%
%TO.N,Net-(J4-VBUS-PadA4)*%
X121100000Y-92680000D03*
D11*
%TO.P,J4,B5,CC2*%
%TO.N,Net-(J4-CC2)*%
X121750000Y-92680000D03*
%TO.P,J4,B6,D+*%
%TO.N,unconnected-(J4-D+-PadB6)*%
X122750000Y-92680000D03*
%TO.P,J4,B7,D-*%
%TO.N,unconnected-(J4-D--PadB7)*%
X124250000Y-92680000D03*
%TO.P,J4,B8,SBU2*%
%TO.N,unconnected-(J4-SBU2-PadB8)*%
X125250000Y-92680000D03*
D10*
%TO.P,J4,B9,VBUS*%
%TO.N,Net-(J4-VBUS-PadA4)*%
X125900000Y-92680000D03*
%TO.P,J4,B12,GND*%
%TO.N,GND*%
X126700000Y-92680000D03*
D12*
%TO.P,J4,S1,SHIELD*%
X127820000Y-92105000D03*
D13*
X127820000Y-87925000D03*
D12*
X119180000Y-92105000D03*
D13*
X119180000Y-87925000D03*
%TD*%
D14*
%TO.P,J1,1,Pin_1*%
%TO.N,Net-(D1-K)*%
X130690000Y-114344870D03*
D15*
%TO.P,J1,2,Pin_2*%
%TO.N,Net-(D2-K)*%
X130690000Y-116844870D03*
%TO.P,J1,3,Pin_3*%
%TO.N,Net-(D3-K)*%
X130690000Y-119344870D03*
%TO.P,J1,4,Pin_4*%
%TO.N,Net-(D4-K)*%
X130690000Y-121844870D03*
%TO.P,J1,5,Pin_5*%
%TO.N,/VCC*%
X130690000Y-124344870D03*
%TD*%
D16*
%TO.P,D1,1,K*%
%TO.N,Net-(D1-K)*%
X138308194Y-114491057D03*
D17*
%TO.P,D1,2,A*%
%TO.N,Net-(D1-A)*%
X140848194Y-114491057D03*
%TD*%
D18*
%TO.P,TH1,1*%
%TO.N,/VCC*%
X122450000Y-104400000D03*
%TO.P,TH1,2*%
%TO.N,Net-(J4-VBUS-PadA4)*%
X127550000Y-105600000D03*
%TD*%
D19*
%TO.P,J2,1,3V3*%
%TO.N,unconnected-(J2-3V3-Pad1)_1*%
X105230000Y-92870000D03*
D20*
%TO.P,J2,2,5V*%
%TO.N,/VCC*%
X107770000Y-92870000D03*
%TO.P,J2,3,SDA_I2C1/GPIO02*%
%TO.N,unconnected-(J2-SDA_I2C1{slash}GPIO02-Pad3)*%
X105230000Y-95410000D03*
%TO.P,J2,4,5V*%
%TO.N,/VCC*%
X107770000Y-95410000D03*
%TO.P,J2,5,SCL_I2C1/GPIO03*%
%TO.N,unconnected-(J2-SCL_I2C1{slash}GPIO03-Pad5)*%
X105230000Y-97950000D03*
%TO.P,J2,6,GND*%
%TO.N,GND*%
X107770000Y-97950000D03*
%TO.P,J2,7,GPCLK0/GPIO04*%
%TO.N,unconnected-(J2-GPCLK0{slash}GPIO04-Pad7)*%
X105230000Y-100490000D03*
%TO.P,J2,8,GPIO14/UART_TXD*%
%TO.N,unconnected-(J2-GPIO14{slash}UART_TXD-Pad8)*%
X107770000Y-100490000D03*
%TO.P,J2,9,GND*%
%TO.N,GND*%
X105230000Y-103030000D03*
%TO.P,J2,10,GPIO15/UART_RXD*%
%TO.N,unconnected-(J2-GPIO15{slash}UART_RXD-Pad10)*%
X107770000Y-103030000D03*
%TO.P,J2,11,GPIO17/SPI1_~{CE1}*%
%TO.N,unconnected-(J2-GPIO17{slash}SPI1_~{CE1}-Pad11)*%
X105230000Y-105570000D03*
%TO.P,J2,12,GPIO18/SPI1_~{CE0}/PCM_CLK/PWM0*%
%TO.N,unconnected-(J2-GPIO18{slash}SPI1_~{CE0}{slash}PCM_CLK{slash}PWM0-Pad12)*%
X107770000Y-105570000D03*
%TO.P,J2,13,GPIO27/SDIO_DAT3*%
%TO.N,unconnected-(J2-GPIO27{slash}SDIO_DAT3-Pad13)*%
X105230000Y-108110000D03*
%TO.P,J2,14,GND*%
%TO.N,GND*%
X107770000Y-108110000D03*
%TO.P,J2,15,GPIO22/SDIO_CLK*%
%TO.N,unconnected-(J2-GPIO22{slash}SDIO_CLK-Pad15)*%
X105230000Y-110650000D03*
%TO.P,J2,16,GPIO23/SDIO_CMD*%
%TO.N,IN1*%
X107770000Y-110650000D03*
%TO.P,J2,17,3V3*%
%TO.N,unconnected-(J2-3V3-Pad1)*%
X105230000Y-113190000D03*
%TO.P,J2,18,GPIO24/SDIO_DAT0*%
%TO.N,IN2*%
X107770000Y-113190000D03*
%TO.P,J2,19,MOSI_SPI0/GPIO10*%
%TO.N,unconnected-(J2-MOSI_SPI0{slash}GPIO10-Pad19)*%
X105230000Y-115730000D03*
%TO.P,J2,20,GND*%
%TO.N,GND*%
X107770000Y-115730000D03*
%TO.P,J2,21,MISO_SPI0/GPIO09*%
%TO.N,unconnected-(J2-MISO_SPI0{slash}GPIO09-Pad21)*%
X105230000Y-118270000D03*
%TO.P,J2,22,GPIO25/SDIO_DAT1*%
%TO.N,IN3*%
X107770000Y-118270000D03*
%TO.P,J2,23,SCLK_SPI0/GPIO11*%
%TO.N,unconnected-(J2-SCLK_SPI0{slash}GPIO11-Pad23)*%
X105230000Y-120810000D03*
%TO.P,J2,24,~{CE0}_SPI0/GPIO08*%
%TO.N,unconnected-(J2-~{CE0}_SPI0{slash}GPIO08-Pad24)*%
X107770000Y-120810000D03*
%TO.P,J2,25,GND*%
%TO.N,GND*%
X105230000Y-123350000D03*
%TO.P,J2,26,~{CE1}_SPI0/GPIO07*%
%TO.N,unconnected-(J2-~{CE1}_SPI0{slash}GPIO07-Pad26)*%
X107770000Y-123350000D03*
%TO.P,J2,27,ID_SD_I2C0/GPIO00*%
%TO.N,unconnected-(J2-ID_SD_I2C0{slash}GPIO00-Pad27)*%
X105230000Y-125890000D03*
%TO.P,J2,28,ID_SC_I2C0/GPIO01*%
%TO.N,unconnected-(J2-ID_SC_I2C0{slash}GPIO01-Pad28)*%
X107770000Y-125890000D03*
%TO.P,J2,29,GPCLK1/GPIO05*%
%TO.N,unconnected-(J2-GPCLK1{slash}GPIO05-Pad29)*%
X105230000Y-128430000D03*
%TO.P,J2,30,GND*%
%TO.N,GND*%
X107770000Y-128430000D03*
%TO.P,J2,31,GPCLK2/GPIO06*%
%TO.N,unconnected-(J2-GPCLK2{slash}GPIO06-Pad31)*%
X105230000Y-130970000D03*
%TO.P,J2,32,GPIO12/PWM0*%
%TO.N,unconnected-(J2-GPIO12{slash}PWM0-Pad32)*%
X107770000Y-130970000D03*
%TO.P,J2,33,GPIO13/PWM1*%
%TO.N,unconnected-(J2-GPIO13{slash}PWM1-Pad33)*%
X105230000Y-133510000D03*
%TO.P,J2,34,GND*%
%TO.N,GND*%
X107770000Y-133510000D03*
%TO.P,J2,35,GPIO19/SPI1_MISO/PCM_FS*%
%TO.N,unconnected-(J2-GPIO19{slash}SPI1_MISO{slash}PCM_FS-Pad35)*%
X105230000Y-136050000D03*
%TO.P,J2,36,GPIO16/SPI1_~{CE2}*%
%TO.N,IN4*%
X107770000Y-136050000D03*
%TO.P,J2,37,GPIO26/SDIO_DAT2*%
%TO.N,unconnected-(J2-GPIO26{slash}SDIO_DAT2-Pad37)*%
X105230000Y-138590000D03*
%TO.P,J2,38,GPIO20/SPI1_MOSI/PCM_DIN/PWM1*%
%TO.N,unconnected-(J2-GPIO20{slash}SPI1_MOSI{slash}PCM_DIN{slash}PWM1-Pad38)*%
X107770000Y-138590000D03*
%TO.P,J2,39,GND*%
%TO.N,GND*%
X105230000Y-141130000D03*
%TO.P,J2,40,GPIO21/SPI1_SCLK/PCM_DOUT*%
%TO.N,unconnected-(J2-GPIO21{slash}SPI1_SCLK{slash}PCM_DOUT-Pad40)*%
X107770000Y-141130000D03*
%TD*%
D16*
%TO.P,D3,1,K*%
%TO.N,Net-(D3-K)*%
X136000000Y-130960000D03*
D17*
%TO.P,D3,2,A*%
%TO.N,Net-(D3-A)*%
X136000000Y-133500000D03*
%TD*%
D16*
%TO.P,D2,1,K*%
%TO.N,Net-(D2-K)*%
X138308194Y-120445636D03*
D17*
%TO.P,D2,2,A*%
%TO.N,Net-(D2-A)*%
X140848194Y-120445636D03*
%TD*%
D21*
%TO.P,C1,1*%
%TO.N,GND*%
X115381778Y-104363722D03*
%TO.P,C1,2*%
%TO.N,/VCC*%
X117456778Y-104363722D03*
%TD*%
D22*
%TO.P,R1,1*%
%TO.N,/VCC*%
X142127947Y-140840659D03*
%TO.P,R1,2*%
%TO.N,Net-(D1-A)*%
X142127947Y-138840659D03*
%TD*%
D23*
%TO.P,R6,1*%
%TO.N,Net-(J4-CC2)*%
X121755087Y-97089021D03*
%TO.P,R6,2*%
%TO.N,GND*%
X119755087Y-97089021D03*
%TD*%
D22*
%TO.P,R2,1*%
%TO.N,/VCC*%
X138127947Y-140840659D03*
%TO.P,R2,2*%
%TO.N,Net-(D2-A)*%
X138127947Y-138840659D03*
%TD*%
D23*
%TO.P,R5,1*%
%TO.N,Net-(J4-CC1)*%
X124745810Y-100500000D03*
%TO.P,R5,2*%
%TO.N,GND*%
X122745810Y-100500000D03*
%TD*%
D22*
%TO.P,R4,1*%
%TO.N,/VCC*%
X129975070Y-140744634D03*
%TO.P,R4,2*%
%TO.N,Net-(D4-A)*%
X129975070Y-138744634D03*
%TD*%
D16*
%TO.P,D4,1,K*%
%TO.N,Net-(D4-K)*%
X130000000Y-130960000D03*
D17*
%TO.P,D4,2,A*%
%TO.N,Net-(D4-A)*%
X130000000Y-133500000D03*
%TD*%
D24*
%TO.P,U1,1,I1*%
%TO.N,IN1*%
X115380000Y-114300000D03*
D25*
%TO.P,U1,2,I2*%
%TO.N,IN2*%
X115380000Y-116840000D03*
%TO.P,U1,3,I3*%
%TO.N,IN3*%
X115380000Y-119380000D03*
%TO.P,U1,4,I4*%
%TO.N,IN4*%
X115380000Y-121920000D03*
%TO.P,U1,5,I5*%
%TO.N,unconnected-(U1-I5-Pad5)*%
X115380000Y-124460000D03*
%TO.P,U1,6,I6*%
%TO.N,unconnected-(U1-I6-Pad6)*%
X115380000Y-127000000D03*
%TO.P,U1,7,I7*%
%TO.N,unconnected-(U1-I7-Pad7)*%
X115380000Y-129540000D03*
%TO.P,U1,8,GND*%
%TO.N,GND*%
X115380000Y-132080000D03*
%TO.P,U1,9,COM*%
%TO.N,/VCC*%
X123000000Y-132080000D03*
%TO.P,U1,10,O7*%
%TO.N,unconnected-(U1-O7-Pad10)*%
X123000000Y-129540000D03*
%TO.P,U1,11,O6*%
%TO.N,unconnected-(U1-O6-Pad11)*%
X123000000Y-127000000D03*
%TO.P,U1,12,O5*%
%TO.N,unconnected-(U1-O5-Pad12)*%
X123000000Y-124460000D03*
%TO.P,U1,13,O4*%
%TO.N,Net-(D4-K)*%
X123000000Y-121920000D03*
%TO.P,U1,14,O3*%
%TO.N,Net-(D3-K)*%
X123000000Y-119380000D03*
%TO.P,U1,15,O2*%
%TO.N,Net-(D2-K)*%
X123000000Y-116840000D03*
%TO.P,U1,16,O1*%
%TO.N,Net-(D1-K)*%
X123000000Y-114300000D03*
%TD*%
D22*
%TO.P,R3,1*%
%TO.N,/VCC*%
X134127947Y-140840659D03*
%TO.P,R3,2*%
%TO.N,Net-(D3-A)*%
X134127947Y-138840659D03*
%TD*%
D26*
%TO.N,Net-(J4-VBUS-PadA4)*%
X125750000Y-95250000D03*
X121099005Y-94911128D03*
%TD*%
D27*
%TO.N,/VCC*%
X110500000Y-93500000D02*
X110500000Y-95410000D01*
X110500000Y-95410000D02*
X110585803Y-95410000D01*
X110585803Y-95410000D02*
X117456778Y-102280975D01*
X107770000Y-92870000D02*
X109870000Y-92870000D01*
X117493056Y-104400000D02*
X117456778Y-104363722D01*
X107770000Y-95410000D02*
X110500000Y-95410000D01*
X138127947Y-140840659D02*
X142127947Y-140840659D01*
X129275070Y-140744634D02*
X129975070Y-140744634D01*
X134031922Y-140744634D02*
X134127947Y-140840659D01*
X117456778Y-104363722D02*
X117456778Y-103000000D01*
X122450000Y-104400000D02*
X117493056Y-104400000D01*
X109870000Y-92870000D02*
X110500000Y-93500000D01*
X123000000Y-132080000D02*
X123000000Y-134469564D01*
X123000000Y-134469564D02*
X129275070Y-140744634D01*
X117456778Y-102280975D02*
X117456778Y-103000000D01*
X129975070Y-140744634D02*
X134031922Y-140744634D01*
X134127947Y-140840659D02*
X138127947Y-140840659D01*
D28*
%TO.N,Net-(D1-K)*%
X138153324Y-114645927D02*
X138308194Y-114491057D01*
X138117934Y-114300797D02*
X138308194Y-114491057D01*
X123000000Y-114300000D02*
X130645130Y-114300000D01*
X138162007Y-114344870D02*
X138308194Y-114491057D01*
X130690000Y-114344870D02*
X138162007Y-114344870D01*
X130645130Y-114300000D02*
X130690000Y-114344870D01*
%TO.N,Net-(D1-A)*%
X142127947Y-138840659D02*
X142247947Y-138840659D01*
X142923707Y-116566570D02*
X142923707Y-138044899D01*
X142923707Y-138044899D02*
X142127947Y-138840659D01*
X140848194Y-114491057D02*
X142923707Y-116566570D01*
%TO.N,Net-(D2-K)*%
X134707428Y-116844870D02*
X138308194Y-120445636D01*
X123000000Y-116840000D02*
X130685130Y-116840000D01*
X130685130Y-116840000D02*
X130690000Y-116844870D01*
X130690000Y-116844870D02*
X134707428Y-116844870D01*
%TO.N,Net-(D2-A)*%
X140848194Y-136120412D02*
X138127947Y-138840659D01*
X140848194Y-120445636D02*
X140848194Y-136120412D01*
%TO.N,Net-(D3-A)*%
X136000000Y-133500000D02*
X134127947Y-135372053D01*
X134127947Y-135372053D02*
X134127947Y-138840659D01*
%TO.N,Net-(D3-K)*%
X123000000Y-119380000D02*
X130654870Y-119380000D01*
X136000000Y-122602793D02*
X132742077Y-119344870D01*
X130654870Y-119380000D02*
X130690000Y-119344870D01*
X130690000Y-119344870D02*
X132742077Y-119344870D01*
X136000000Y-130960000D02*
X136000000Y-122602793D01*
%TO.N,Net-(D4-A)*%
X130000000Y-133500000D02*
X130000000Y-138719704D01*
X130000000Y-138719704D02*
X129975070Y-138744634D01*
%TO.N,Net-(D4-K)*%
X134500000Y-127500000D02*
X131040000Y-130960000D01*
X130690000Y-121844870D02*
X133844870Y-121844870D01*
X123000000Y-121920000D02*
X130614870Y-121920000D01*
X131040000Y-130960000D02*
X130000000Y-130960000D01*
X133844870Y-121844870D02*
X134500000Y-122500000D01*
X134500000Y-122500000D02*
X134500000Y-127500000D01*
%TO.N,IN2*%
X107770000Y-113190000D02*
X111420000Y-116840000D01*
X111420000Y-116840000D02*
X115380000Y-116840000D01*
%TO.N,IN4*%
X107770000Y-136050000D02*
X107950000Y-136050000D01*
X110500000Y-126800000D02*
X115380000Y-121920000D01*
X107950000Y-136050000D02*
X110500000Y-133500000D01*
X110500000Y-133500000D02*
X110500000Y-126800000D01*
%TO.N,IN1*%
X111420000Y-114300000D02*
X115380000Y-114300000D01*
X107770000Y-110650000D02*
X111420000Y-114300000D01*
%TO.N,IN3*%
X107770000Y-118270000D02*
X108880000Y-119380000D01*
X108880000Y-119380000D02*
X115380000Y-119380000D01*
%TO.N,Net-(J4-VBUS-PadA4)*%
X121100000Y-94926000D02*
X121099005Y-94925005D01*
X121100000Y-92680000D02*
X121100000Y-94926000D01*
X127550000Y-97050000D02*
X125900000Y-95400000D01*
X121099005Y-94925005D02*
X121099005Y-94911128D01*
X125900000Y-92680000D02*
X125900000Y-95400000D01*
X127550000Y-105600000D02*
X127550000Y-97050000D01*
D29*
%TO.N,Net-(J4-CC2)*%
X121750000Y-97083934D02*
X121755087Y-97089021D01*
X121750000Y-92680000D02*
X121750000Y-97083934D01*
%TO.N,Net-(J4-CC1)*%
X124750000Y-100495810D02*
X124745810Y-100500000D01*
X124750000Y-92680000D02*
X124750000Y-100495810D01*
%TD*%
%TA.AperFunction,Conductor*%
%TO.N,GND*%
G36*
X144442539Y-84020185D02*
G01*
X144488294Y-84072989D01*
X144499500Y-84124500D01*
X144499500Y-149875500D01*
X144479815Y-149942539D01*
X144427011Y-149988294D01*
X144375500Y-149999500D01*
X103119858Y-149999500D01*
X103052819Y-149979815D01*
X103007064Y-149927011D01*
X102995861Y-149876425D01*
X102966018Y-145877573D01*
X104944500Y-145877573D01*
X104944500Y-146122426D01*
X104982800Y-146364243D01*
X104982801Y-146364247D01*
X105058462Y-146597105D01*
X105169617Y-146815260D01*
X105313531Y-147013340D01*
X105486660Y-147186469D01*
X105684740Y-147330383D01*
X105902895Y-147441538D01*
X106135753Y-147517199D01*
X106226437Y-147531561D01*
X106377574Y-147555500D01*
X106377579Y-147555500D01*
X106622426Y-147555500D01*
X106756768Y-147534221D01*
X106864247Y-147517199D01*
X107097105Y-147441538D01*
X107315260Y-147330383D01*
X107513340Y-147186469D01*
X107686469Y-147013340D01*
X107830383Y-146815260D01*
X107941538Y-146597105D01*
X108017199Y-146364247D01*
X108034221Y-146256768D01*
X108055500Y-146122426D01*
X108055500Y-145877573D01*
X139444500Y-145877573D01*
X139444500Y-146122426D01*
X139482800Y-146364243D01*
X139482801Y-146364247D01*
X139558462Y-146597105D01*
X139669617Y-146815260D01*
X139813531Y-147013340D01*
X139986660Y-147186469D01*
X140184740Y-147330383D01*
X140402895Y-147441538D01*
X140635753Y-147517199D01*
X140726437Y-147531561D01*
X140877574Y-147555500D01*
X140877579Y-147555500D01*
X141122426Y-147555500D01*
X141256768Y-147534221D01*
X141364247Y-147517199D01*
X141597105Y-147441538D01*
X141815260Y-147330383D01*
X142013340Y-147186469D01*
X142186469Y-147013340D01*
X142330383Y-146815260D01*
X142441538Y-146597105D01*
X142517199Y-146364247D01*
X142534221Y-146256768D01*
X142555500Y-146122426D01*
X142555500Y-145877573D01*
X142517199Y-145635756D01*
X142517199Y-145635753D01*
X142441538Y-145402895D01*
X142330383Y-145184740D01*
X142186469Y-144986660D01*
X142013340Y-144813531D01*
X141815260Y-144669617D01*
X141597105Y-144558462D01*
X141364247Y-144482801D01*
X141364245Y-144482800D01*
X141364243Y-144482800D01*
X141122426Y-144444500D01*
X141122421Y-144444500D01*
X140877579Y-144444500D01*
X140877574Y-144444500D01*
X140635756Y-144482800D01*
X140402892Y-144558463D01*
X140184739Y-144669617D01*
X140071727Y-144751725D01*
X139986660Y-144813531D01*
X139986658Y-144813533D01*
X139986657Y-144813533D01*
X139813533Y-144986657D01*
X139813533Y-144986658D01*
X139813531Y-144986660D01*
X139751725Y-145071727D01*
X139669617Y-145184739D01*
X139558463Y-145402892D01*
X139482800Y-145635756D01*
X139444500Y-145877573D01*
X108055500Y-145877573D01*
X108017199Y-145635756D01*
X108017199Y-145635753D01*
X107941538Y-145402895D01*
X107830383Y-145184740D01*
X107686469Y-144986660D01*
X107513340Y-144813531D01*
X107315260Y-144669617D01*
X107097105Y-144558462D01*
X106864247Y-144482801D01*
X106864245Y-144482800D01*
X106864243Y-144482800D01*
X106622426Y-144444500D01*
X106622421Y-144444500D01*
X106377579Y-144444500D01*
X106377574Y-144444500D01*
X106135756Y-144482800D01*
X105902892Y-144558463D01*
X105684739Y-144669617D01*
X105571727Y-144751725D01*
X105486660Y-144813531D01*
X105486658Y-144813533D01*
X105486657Y-144813533D01*
X105313533Y-144986657D01*
X105313533Y-144986658D01*
X105313531Y-144986660D01*
X105251725Y-145071727D01*
X105169617Y-145184739D01*
X105058463Y-145402892D01*
X104982800Y-145635756D01*
X104944500Y-145877573D01*
X102966018Y-145877573D01*
X102965989Y-145873632D01*
X102932185Y-141343862D01*
X102929778Y-141021368D01*
X102929007Y-140917988D01*
X102928724Y-140880000D01*
X104054638Y-140880000D01*
X104796988Y-140880000D01*
X104764075Y-140937007D01*
X104730000Y-141064174D01*
X104730000Y-141195826D01*
X104764075Y-141322993D01*
X104796988Y-141380000D01*
X104054638Y-141380000D01*
X104059548Y-141411002D01*
X104117914Y-141590637D01*
X104203670Y-141758940D01*
X104314685Y-141911741D01*
X104314689Y-141911746D01*
X104448253Y-142045310D01*
X104448258Y-142045314D01*
X104601059Y-142156329D01*
X104769362Y-142242085D01*
X104948997Y-142300451D01*
X104980000Y-142305362D01*
X104980000Y-141563012D01*
X105037007Y-141595925D01*
X105164174Y-141630000D01*
X105295826Y-141630000D01*
X105422993Y-141595925D01*
X105480000Y-141563012D01*
X105480000Y-142305361D01*
X105511002Y-142300451D01*
X105690637Y-142242085D01*
X105858940Y-142156329D01*
X106011741Y-142045314D01*
X106011746Y-142045310D01*
X106145310Y-141911746D01*
X106145314Y-141911741D01*
X106256329Y-141758940D01*
X106342085Y-141590637D01*
X106400451Y-141411002D01*
X106405362Y-141380000D01*
X105663012Y-141380000D01*
X105695925Y-141322993D01*
X105730000Y-141195826D01*
X105730000Y-141064174D01*
X105719913Y-141026530D01*
X106719500Y-141026530D01*
X106719500Y-141233469D01*
X106759868Y-141436412D01*
X106759870Y-141436420D01*
X106839058Y-141627596D01*
X106954024Y-141799657D01*
X107100342Y-141945975D01*
X107100345Y-141945977D01*
X107272402Y-142060941D01*
X107463580Y-142140130D01*
X107666530Y-142180499D01*
X107666534Y-142180500D01*
X107666535Y-142180500D01*
X107873466Y-142180500D01*
X107873467Y-142180499D01*
X108076420Y-142140130D01*
X108267598Y-142060941D01*
X108439655Y-141945977D01*
X108585977Y-141799655D01*
X108700941Y-141627598D01*
X108780130Y-141436420D01*
X108820500Y-141233465D01*
X108820500Y-141026535D01*
X108780130Y-140823580D01*
X108700941Y-140632402D01*
X108585977Y-140460345D01*
X108585975Y-140460342D01*
X108439657Y-140314024D01*
X108290984Y-140214685D01*
X108267598Y-140199059D01*
X108124776Y-140139900D01*
X108076420Y-140119870D01*
X108076412Y-140119868D01*
X107873469Y-140079500D01*
X107873465Y-140079500D01*
X107666535Y-140079500D01*
X107666530Y-140079500D01*
X107463587Y-140119868D01*
X107463579Y-140119870D01*
X107272403Y-140199058D01*
X107100342Y-140314024D01*
X106954024Y-140460342D01*
X106839058Y-140632403D01*
X106759870Y-140823579D01*
X106759868Y-140823587D01*
X106719500Y-141026530D01*
X105719913Y-141026530D01*
X105695925Y-140937007D01*
X105663012Y-140880000D01*
X106405362Y-140880000D01*
X106400451Y-140848997D01*
X106342085Y-140669362D01*
X106256329Y-140501059D01*
X106145314Y-140348258D01*
X106145310Y-140348253D01*
X106011746Y-140214689D01*
X106011741Y-140214685D01*
X105858940Y-140103670D01*
X105690635Y-140017913D01*
X105511004Y-139959549D01*
X105510995Y-139959547D01*
X105480000Y-139954637D01*
X105480000Y-140696988D01*
X105422993Y-140664075D01*
X105295826Y-140630000D01*
X105164174Y-140630000D01*
X105037007Y-140664075D01*
X104980000Y-140696988D01*
X104980000Y-139954637D01*
X104979999Y-139954637D01*
X104949004Y-139959547D01*
X104948995Y-139959549D01*
X104769364Y-140017913D01*
X104601059Y-140103670D01*
X104448258Y-140214685D01*
X104448253Y-140214689D01*
X104314689Y-140348253D01*
X104314685Y-140348258D01*
X104203670Y-140501059D01*
X104117914Y-140669362D01*
X104059548Y-140848997D01*
X104054638Y-140880000D01*
X102928724Y-140880000D01*
X102910862Y-138486530D01*
X104179500Y-138486530D01*
X104179500Y-138693469D01*
X104219868Y-138896412D01*
X104219870Y-138896420D01*
X104299058Y-139087596D01*
X104414024Y-139259657D01*
X104560342Y-139405975D01*
X104560345Y-139405977D01*
X104732402Y-139520941D01*
X104923580Y-139600130D01*
X105115500Y-139638305D01*
X105126530Y-139640499D01*
X105126534Y-139640500D01*
X105126535Y-139640500D01*
X105333466Y-139640500D01*
X105333467Y-139640499D01*
X105536420Y-139600130D01*
X105727598Y-139520941D01*
X105899655Y-139405977D01*
X106045977Y-139259655D01*
X106160941Y-139087598D01*
X106240130Y-138896420D01*
X106280500Y-138693465D01*
X106280500Y-138486535D01*
X106280499Y-138486530D01*
X106719500Y-138486530D01*
X106719500Y-138693469D01*
X106759868Y-138896412D01*
X106759870Y-138896420D01*
X106839058Y-139087596D01*
X106954024Y-139259657D01*
X107100342Y-139405975D01*
X107100345Y-139405977D01*
X107272402Y-139520941D01*
X107463580Y-139600130D01*
X107655500Y-139638305D01*
X107666530Y-139640499D01*
X107666534Y-139640500D01*
X107666535Y-139640500D01*
X107873466Y-139640500D01*
X107873467Y-139640499D01*
X108076420Y-139600130D01*
X108267598Y-139520941D01*
X108439655Y-139405977D01*
X108585977Y-139259655D01*
X108700941Y-139087598D01*
X108780130Y-138896420D01*
X108820500Y-138693465D01*
X108820500Y-138486535D01*
X108780130Y-138283580D01*
X108700941Y-138092402D01*
X108585977Y-137920345D01*
X108585975Y-137920342D01*
X108439657Y-137774024D01*
X108353626Y-137716541D01*
X108267598Y-137659059D01*
X108076420Y-137579870D01*
X108076412Y-137579868D01*
X107873469Y-137539500D01*
X107873465Y-137539500D01*
X107666535Y-137539500D01*
X107666530Y-137539500D01*
X107463587Y-137579868D01*
X107463579Y-137579870D01*
X107272403Y-137659058D01*
X107100342Y-137774024D01*
X106954024Y-137920342D01*
X106839058Y-138092403D01*
X106759870Y-138283579D01*
X106759868Y-138283587D01*
X106719500Y-138486530D01*
X106280499Y-138486530D01*
X106240130Y-138283580D01*
X106160941Y-138092402D01*
X106045977Y-137920345D01*
X106045975Y-137920342D01*
X105899657Y-137774024D01*
X105813626Y-137716541D01*
X105727598Y-137659059D01*
X105536420Y-137579870D01*
X105536412Y-137579868D01*
X105333469Y-137539500D01*
X105333465Y-137539500D01*
X105126535Y-137539500D01*
X105126530Y-137539500D01*
X104923587Y-137579868D01*
X104923579Y-137579870D01*
X104732403Y-137659058D01*
X104560342Y-137774024D01*
X104414024Y-137920342D01*
X104299058Y-138092403D01*
X104219870Y-138283579D01*
X104219868Y-138283587D01*
X104179500Y-138486530D01*
X102910862Y-138486530D01*
X102910823Y-138481368D01*
X102891907Y-135946530D01*
X104179500Y-135946530D01*
X104179500Y-136153469D01*
X104219868Y-136356412D01*
X104219870Y-136356420D01*
X104299058Y-136547596D01*
X104414024Y-136719657D01*
X104560342Y-136865975D01*
X104560345Y-136865977D01*
X104732402Y-136980941D01*
X104923580Y-137060130D01*
X105126530Y-137100499D01*
X105126534Y-137100500D01*
X105126535Y-137100500D01*
X105333466Y-137100500D01*
X105333467Y-137100499D01*
X105536420Y-137060130D01*
X105727598Y-136980941D01*
X105899655Y-136865977D01*
X106045977Y-136719655D01*
X106160941Y-136547598D01*
X106240130Y-136356420D01*
X106280500Y-136153465D01*
X106280500Y-135946535D01*
X106280499Y-135946530D01*
X106719500Y-135946530D01*
X106719500Y-136153469D01*
X106759868Y-136356412D01*
X106759870Y-136356420D01*
X106839058Y-136547596D01*
X106954024Y-136719657D01*
X107100342Y-136865975D01*
X107100345Y-136865977D01*
X107272402Y-136980941D01*
X107463580Y-137060130D01*
X107666530Y-137100499D01*
X107666534Y-137100500D01*
X107666535Y-137100500D01*
X107873466Y-137100500D01*
X107873467Y-137100499D01*
X108076420Y-137060130D01*
X108267598Y-136980941D01*
X108439655Y-136865977D01*
X108585977Y-136719655D01*
X108700941Y-136547598D01*
X108780130Y-136356420D01*
X108820500Y-136153465D01*
X108820500Y-135946535D01*
X108811873Y-135903164D01*
X108818100Y-135833575D01*
X108845807Y-135791295D01*
X110860490Y-133776614D01*
X110919799Y-133673886D01*
X110950500Y-133559309D01*
X110950500Y-131830000D01*
X113855261Y-131830000D01*
X115064314Y-131830000D01*
X115059920Y-131834394D01*
X115007259Y-131925606D01*
X114980000Y-132027339D01*
X114980000Y-132132661D01*
X115007259Y-132234394D01*
X115059920Y-132325606D01*
X115064314Y-132330000D01*
X113855261Y-132330000D01*
X113858315Y-132349285D01*
X113858318Y-132349295D01*
X113914250Y-132521441D01*
X113914252Y-132521447D01*
X113996434Y-132682734D01*
X114102823Y-132829169D01*
X114230830Y-132957176D01*
X114377265Y-133063565D01*
X114538552Y-133145747D01*
X114538555Y-133145748D01*
X114710706Y-133201682D01*
X114889494Y-133230000D01*
X115130000Y-133230000D01*
X115130000Y-132395686D01*
X115134394Y-132400080D01*
X115225606Y-132452741D01*
X115327339Y-132480000D01*
X115432661Y-132480000D01*
X115534394Y-132452741D01*
X115625606Y-132400080D01*
X115630000Y-132395686D01*
X115630000Y-133230000D01*
X115870506Y-133230000D01*
X116049293Y-133201682D01*
X116221444Y-133145748D01*
X116221447Y-133145747D01*
X116382734Y-133063565D01*
X116529169Y-132957176D01*
X116657176Y-132829169D01*
X116763565Y-132682734D01*
X116845747Y-132521447D01*
X116845749Y-132521441D01*
X116901681Y-132349295D01*
X116901684Y-132349285D01*
X116904739Y-132330000D01*
X115695686Y-132330000D01*
X115700080Y-132325606D01*
X115752741Y-132234394D01*
X115767706Y-132178543D01*
X121599499Y-132178543D01*
X121637947Y-132371829D01*
X121637950Y-132371839D01*
X121713364Y-132553907D01*
X121713371Y-132553920D01*
X121822860Y-132717781D01*
X121822863Y-132717785D01*
X121962217Y-132857139D01*
X122061103Y-132923212D01*
X122126086Y-132966632D01*
X122222953Y-133006755D01*
X122277355Y-133050594D01*
X122299421Y-133116888D01*
X122299500Y-133121315D01*
X122299500Y-134400570D01*
X122299500Y-134538558D01*
X122299500Y-134538560D01*
X122299499Y-134538560D01*
X122326418Y-134673886D01*
X122326421Y-134673896D01*
X122379222Y-134801371D01*
X122455887Y-134916109D01*
X128828524Y-141288746D01*
X128943262Y-141365411D01*
X129070737Y-141418212D01*
X129070742Y-141418214D01*
X129070746Y-141418214D01*
X129070747Y-141418215D01*
X129206073Y-141445134D01*
X129212136Y-141445731D01*
X129211866Y-141448462D01*
X129267569Y-141464819D01*
X129274163Y-141469364D01*
X129312183Y-141497424D01*
X129312185Y-141497425D01*
X129312188Y-141497427D01*
X129354915Y-141512378D01*
X129440369Y-141542280D01*
X129470800Y-141545134D01*
X129470804Y-141545134D01*
X130479340Y-141545134D01*
X130509769Y-141542280D01*
X130509771Y-141542280D01*
X130573860Y-141519853D01*
X130637952Y-141497427D01*
X130641113Y-141495093D01*
X130675977Y-141469364D01*
X130741606Y-141445393D01*
X130749610Y-141445134D01*
X133243253Y-141445134D01*
X133310292Y-141464819D01*
X133343023Y-141495501D01*
X133355795Y-141512807D01*
X133355796Y-141512807D01*
X133355797Y-141512809D01*
X133465065Y-141593452D01*
X133507792Y-141608403D01*
X133593246Y-141638305D01*
X133623677Y-141641159D01*
X133623681Y-141641159D01*
X134632217Y-141641159D01*
X134662646Y-141638305D01*
X134662648Y-141638305D01*
X134726737Y-141615878D01*
X134790829Y-141593452D01*
X134794643Y-141590637D01*
X134828854Y-141565389D01*
X134894483Y-141541418D01*
X134902487Y-141541159D01*
X137353407Y-141541159D01*
X137420446Y-141560844D01*
X137427040Y-141565389D01*
X137465060Y-141593449D01*
X137465062Y-141593450D01*
X137465065Y-141593452D01*
X137507792Y-141608403D01*
X137593246Y-141638305D01*
X137623677Y-141641159D01*
X137623681Y-141641159D01*
X138632217Y-141641159D01*
X138662646Y-141638305D01*
X138662648Y-141638305D01*
X138726737Y-141615878D01*
X138790829Y-141593452D01*
X138794643Y-141590637D01*
X138828854Y-141565389D01*
X138894483Y-141541418D01*
X138902487Y-141541159D01*
X141353407Y-141541159D01*
X141420446Y-141560844D01*
X141427040Y-141565389D01*
X141465060Y-141593449D01*
X141465062Y-141593450D01*
X141465065Y-141593452D01*
X141507792Y-141608403D01*
X141593246Y-141638305D01*
X141623677Y-141641159D01*
X141623681Y-141641159D01*
X142632217Y-141641159D01*
X142662646Y-141638305D01*
X142662648Y-141638305D01*
X142726737Y-141615878D01*
X142790829Y-141593452D01*
X142900097Y-141512809D01*
X142980740Y-141403541D01*
X143020908Y-141288748D01*
X143025593Y-141275360D01*
X143025593Y-141275358D01*
X143028447Y-141244928D01*
X143028447Y-140436389D01*
X143025593Y-140405959D01*
X143025593Y-140405957D01*
X142980740Y-140277778D01*
X142980739Y-140277776D01*
X142934176Y-140214685D01*
X142900097Y-140168509D01*
X142790829Y-140087866D01*
X142790827Y-140087865D01*
X142662647Y-140043012D01*
X142632217Y-140040159D01*
X142632213Y-140040159D01*
X141623681Y-140040159D01*
X141623677Y-140040159D01*
X141593247Y-140043012D01*
X141593245Y-140043012D01*
X141465066Y-140087865D01*
X141465060Y-140087868D01*
X141427040Y-140115929D01*
X141361411Y-140139900D01*
X141353407Y-140140159D01*
X138902487Y-140140159D01*
X138835448Y-140120474D01*
X138828854Y-140115929D01*
X138790833Y-140087868D01*
X138790827Y-140087865D01*
X138662647Y-140043012D01*
X138632217Y-140040159D01*
X138632213Y-140040159D01*
X137623681Y-140040159D01*
X137623677Y-140040159D01*
X137593247Y-140043012D01*
X137593245Y-140043012D01*
X137465066Y-140087865D01*
X137465060Y-140087868D01*
X137427040Y-140115929D01*
X137361411Y-140139900D01*
X137353407Y-140140159D01*
X134902487Y-140140159D01*
X134835448Y-140120474D01*
X134828854Y-140115929D01*
X134790833Y-140087868D01*
X134790827Y-140087865D01*
X134662647Y-140043012D01*
X134632217Y-140040159D01*
X134632213Y-140040159D01*
X133623681Y-140040159D01*
X133623678Y-140040159D01*
X133587070Y-140043592D01*
X133575492Y-140044134D01*
X130749610Y-140044134D01*
X130682571Y-140024449D01*
X130675977Y-140019904D01*
X130637956Y-139991843D01*
X130637950Y-139991840D01*
X130509770Y-139946987D01*
X130479340Y-139944134D01*
X130479336Y-139944134D01*
X129516589Y-139944134D01*
X129449550Y-139924449D01*
X129428908Y-139907815D01*
X129244605Y-139723512D01*
X129211120Y-139662189D01*
X129216104Y-139592497D01*
X129257976Y-139536564D01*
X129323440Y-139512147D01*
X129373239Y-139518789D01*
X129440371Y-139542280D01*
X129440370Y-139542280D01*
X129470800Y-139545134D01*
X129470804Y-139545134D01*
X130479340Y-139545134D01*
X130509769Y-139542280D01*
X130509771Y-139542280D01*
X130576900Y-139518790D01*
X130637952Y-139497427D01*
X130747220Y-139416784D01*
X130827863Y-139307516D01*
X130850289Y-139243424D01*
X130872716Y-139179335D01*
X130872716Y-139179333D01*
X130875570Y-139148903D01*
X130875570Y-138436389D01*
X133227447Y-138436389D01*
X133227447Y-139244928D01*
X133230300Y-139275358D01*
X133230300Y-139275360D01*
X133275153Y-139403539D01*
X133275154Y-139403541D01*
X133355797Y-139512809D01*
X133465065Y-139593452D01*
X133484147Y-139600129D01*
X133593246Y-139638305D01*
X133623677Y-139641159D01*
X133623681Y-139641159D01*
X134632217Y-139641159D01*
X134662646Y-139638305D01*
X134662648Y-139638305D01*
X134726737Y-139615878D01*
X134790829Y-139593452D01*
X134900097Y-139512809D01*
X134980740Y-139403541D01*
X135003166Y-139339449D01*
X135025593Y-139275360D01*
X135025593Y-139275358D01*
X135028447Y-139244928D01*
X135028447Y-138436389D01*
X137227447Y-138436389D01*
X137227447Y-139244928D01*
X137230300Y-139275358D01*
X137230300Y-139275360D01*
X137275153Y-139403539D01*
X137275154Y-139403541D01*
X137355797Y-139512809D01*
X137465065Y-139593452D01*
X137484147Y-139600129D01*
X137593246Y-139638305D01*
X137623677Y-139641159D01*
X137623681Y-139641159D01*
X138632217Y-139641159D01*
X138662646Y-139638305D01*
X138662648Y-139638305D01*
X138726737Y-139615878D01*
X138790829Y-139593452D01*
X138900097Y-139512809D01*
X138980740Y-139403541D01*
X139003166Y-139339449D01*
X139025593Y-139275360D01*
X139025593Y-139275358D01*
X139028447Y-139244928D01*
X139028447Y-138628624D01*
X139048132Y-138561585D01*
X139064766Y-138540943D01*
X140066209Y-137539500D01*
X141208683Y-136397026D01*
X141267993Y-136294299D01*
X141278703Y-136254328D01*
X141298694Y-136179721D01*
X141298694Y-121527201D01*
X141318379Y-121460162D01*
X141366398Y-121416717D01*
X141424982Y-121386868D01*
X141565122Y-121285050D01*
X141687608Y-121162564D01*
X141789426Y-121022424D01*
X141868067Y-120868081D01*
X141921596Y-120703337D01*
X141948694Y-120532247D01*
X141948694Y-120359025D01*
X141921596Y-120187935D01*
X141868067Y-120023191D01*
X141789426Y-119868848D01*
X141687608Y-119728708D01*
X141565122Y-119606222D01*
X141424982Y-119504404D01*
X141270639Y-119425763D01*
X141105895Y-119372234D01*
X141105893Y-119372233D01*
X141105892Y-119372233D01*
X140974465Y-119351417D01*
X140934805Y-119345136D01*
X140761583Y-119345136D01*
X140721922Y-119351417D01*
X140590496Y-119372233D01*
X140425746Y-119425764D01*
X140271405Y-119504404D01*
X140191450Y-119562495D01*
X140131266Y-119606222D01*
X140131264Y-119606224D01*
X140131263Y-119606224D01*
X140008782Y-119728705D01*
X140008782Y-119728706D01*
X140008780Y-119728708D01*
X140000223Y-119740486D01*
X139906962Y-119868847D01*
X139828322Y-120023188D01*
X139774791Y-120187938D01*
X139762327Y-120266635D01*
X139747694Y-120359025D01*
X139747694Y-120532247D01*
X139774792Y-120703337D01*
X139828321Y-120868081D01*
X139906962Y-121022424D01*
X140008780Y-121162564D01*
X140131266Y-121285050D01*
X140162298Y-121307596D01*
X140271401Y-121386865D01*
X140271405Y-121386867D01*
X140271406Y-121386868D01*
X140329989Y-121416717D01*
X140380784Y-121464689D01*
X140397694Y-121527201D01*
X140397694Y-135882447D01*
X140378009Y-135949486D01*
X140361375Y-135970128D01*
X138327663Y-138003840D01*
X138266340Y-138037325D01*
X138239982Y-138040159D01*
X137623677Y-138040159D01*
X137593247Y-138043012D01*
X137593245Y-138043012D01*
X137465066Y-138087865D01*
X137465064Y-138087866D01*
X137355797Y-138168509D01*
X137275154Y-138277776D01*
X137275153Y-138277778D01*
X137230300Y-138405957D01*
X137230300Y-138405959D01*
X137227447Y-138436389D01*
X135028447Y-138436389D01*
X135025593Y-138405959D01*
X135025593Y-138405957D01*
X134982773Y-138283587D01*
X134980740Y-138277777D01*
X134900097Y-138168509D01*
X134790829Y-138087866D01*
X134746870Y-138072484D01*
X134661491Y-138042608D01*
X134604716Y-138001886D01*
X134578969Y-137936933D01*
X134578447Y-137925567D01*
X134578447Y-135610017D01*
X134598132Y-135542978D01*
X134614761Y-135522340D01*
X135553770Y-134583331D01*
X135615091Y-134549848D01*
X135679764Y-134553082D01*
X135742299Y-134573402D01*
X135913389Y-134600500D01*
X135913390Y-134600500D01*
X136086610Y-134600500D01*
X136086611Y-134600500D01*
X136257701Y-134573402D01*
X136422445Y-134519873D01*
X136576788Y-134441232D01*
X136716928Y-134339414D01*
X136839414Y-134216928D01*
X136941232Y-134076788D01*
X137019873Y-133922445D01*
X137073402Y-133757701D01*
X137100500Y-133586611D01*
X137100500Y-133413389D01*
X137073402Y-133242299D01*
X137019873Y-133077555D01*
X136941232Y-132923212D01*
X136839414Y-132783072D01*
X136716928Y-132660586D01*
X136576788Y-132558768D01*
X136422445Y-132480127D01*
X136257701Y-132426598D01*
X136257699Y-132426597D01*
X136257698Y-132426597D01*
X136126271Y-132405781D01*
X136086611Y-132399500D01*
X135913389Y-132399500D01*
X135873728Y-132405781D01*
X135742302Y-132426597D01*
X135577552Y-132480128D01*
X135423211Y-132558768D01*
X135373771Y-132594689D01*
X135283072Y-132660586D01*
X135283070Y-132660588D01*
X135283069Y-132660588D01*
X135160588Y-132783069D01*
X135160588Y-132783070D01*
X135160586Y-132783072D01*
X135118977Y-132840342D01*
X135058768Y-132923211D01*
X134980128Y-133077552D01*
X134926597Y-133242302D01*
X134899500Y-133413389D01*
X134899500Y-133586610D01*
X134926597Y-133757698D01*
X134926598Y-133757702D01*
X134946915Y-133820232D01*
X134948910Y-133890073D01*
X134916665Y-133946230D01*
X133767460Y-135095436D01*
X133767456Y-135095442D01*
X133708148Y-135198165D01*
X133708147Y-135198170D01*
X133677447Y-135312744D01*
X133677447Y-137925567D01*
X133657762Y-137992606D01*
X133604958Y-138038361D01*
X133594403Y-138042608D01*
X133465064Y-138087866D01*
X133355797Y-138168509D01*
X133275154Y-138277776D01*
X133275153Y-138277778D01*
X133230300Y-138405957D01*
X133230300Y-138405959D01*
X133227447Y-138436389D01*
X130875570Y-138436389D01*
X130875570Y-138340364D01*
X130872716Y-138309934D01*
X130872716Y-138309932D01*
X130827863Y-138181753D01*
X130827862Y-138181751D01*
X130818087Y-138168506D01*
X130747220Y-138072484D01*
X130637952Y-137991841D01*
X130637949Y-137991840D01*
X130533544Y-137955306D01*
X130476768Y-137914584D01*
X130451022Y-137849631D01*
X130450500Y-137838265D01*
X130450500Y-134581565D01*
X130470185Y-134514526D01*
X130518204Y-134471081D01*
X130576788Y-134441232D01*
X130716928Y-134339414D01*
X130839414Y-134216928D01*
X130941232Y-134076788D01*
X131019873Y-133922445D01*
X131073402Y-133757701D01*
X131100500Y-133586611D01*
X131100500Y-133413389D01*
X131073402Y-133242299D01*
X131019873Y-133077555D01*
X130941232Y-132923212D01*
X130839414Y-132783072D01*
X130716928Y-132660586D01*
X130576788Y-132558768D01*
X130422445Y-132480127D01*
X130257701Y-132426598D01*
X130257699Y-132426597D01*
X130257698Y-132426597D01*
X130126271Y-132405781D01*
X130086611Y-132399500D01*
X129913389Y-132399500D01*
X129873728Y-132405781D01*
X129742302Y-132426597D01*
X129577552Y-132480128D01*
X129423211Y-132558768D01*
X129373771Y-132594689D01*
X129283072Y-132660586D01*
X129283070Y-132660588D01*
X129283069Y-132660588D01*
X129160588Y-132783069D01*
X129160588Y-132783070D01*
X129160586Y-132783072D01*
X129118977Y-132840342D01*
X129058768Y-132923211D01*
X128980128Y-133077552D01*
X128926597Y-133242302D01*
X128899500Y-133413389D01*
X128899500Y-133586610D01*
X128926597Y-133757697D01*
X128926597Y-133757699D01*
X128926598Y-133757701D01*
X128980127Y-133922445D01*
X129058768Y-134076788D01*
X129160586Y-134216928D01*
X129283072Y-134339414D01*
X129362186Y-134396894D01*
X129423207Y-134441229D01*
X129423211Y-134441231D01*
X129423212Y-134441232D01*
X129481795Y-134471081D01*
X129532590Y-134519053D01*
X129549500Y-134581565D01*
X129549500Y-137823838D01*
X129529815Y-137890877D01*
X129477011Y-137936632D01*
X129447548Y-137944501D01*
X129447740Y-137945378D01*
X129440368Y-137946987D01*
X129312189Y-137991840D01*
X129312187Y-137991841D01*
X129202920Y-138072484D01*
X129122277Y-138181751D01*
X129122276Y-138181753D01*
X129077423Y-138309932D01*
X129077423Y-138309934D01*
X129074570Y-138340364D01*
X129074570Y-139148903D01*
X129077423Y-139179333D01*
X129077423Y-139179335D01*
X129100913Y-139246462D01*
X129104475Y-139316241D01*
X129069747Y-139376868D01*
X129007754Y-139409096D01*
X128938178Y-139402691D01*
X128896191Y-139375098D01*
X123736819Y-134215726D01*
X123703334Y-134154403D01*
X123700500Y-134128045D01*
X123700500Y-133121315D01*
X123720185Y-133054276D01*
X123772989Y-133008521D01*
X123777002Y-133006773D01*
X123873914Y-132966632D01*
X124037782Y-132857139D01*
X124177139Y-132717782D01*
X124286632Y-132553914D01*
X124362051Y-132371835D01*
X124400500Y-132178541D01*
X124400500Y-131981459D01*
X124400500Y-131981456D01*
X124362052Y-131788170D01*
X124362051Y-131788169D01*
X124362051Y-131788165D01*
X124317248Y-131680000D01*
X124286635Y-131606092D01*
X124286628Y-131606079D01*
X124177139Y-131442218D01*
X124177136Y-131442214D01*
X124037785Y-131302863D01*
X124037781Y-131302860D01*
X123873920Y-131193371D01*
X123873907Y-131193364D01*
X123691839Y-131117950D01*
X123691829Y-131117947D01*
X123498543Y-131079500D01*
X123498541Y-131079500D01*
X122501459Y-131079500D01*
X122501457Y-131079500D01*
X122308170Y-131117947D01*
X122308160Y-131117950D01*
X122126092Y-131193364D01*
X122126079Y-131193371D01*
X121962218Y-131302860D01*
X121962214Y-131302863D01*
X121822863Y-131442214D01*
X121822860Y-131442218D01*
X121713371Y-131606079D01*
X121713364Y-131606092D01*
X121637950Y-131788160D01*
X121637947Y-131788170D01*
X121599500Y-131981456D01*
X121599500Y-131981459D01*
X121599500Y-132178541D01*
X121599500Y-132178543D01*
X121599499Y-132178543D01*
X115767706Y-132178543D01*
X115780000Y-132132661D01*
X115780000Y-132027339D01*
X115752741Y-131925606D01*
X115700080Y-131834394D01*
X115695686Y-131830000D01*
X116904739Y-131830000D01*
X116901684Y-131810714D01*
X116901681Y-131810704D01*
X116845749Y-131638558D01*
X116845747Y-131638552D01*
X116763565Y-131477265D01*
X116657176Y-131330830D01*
X116529169Y-131202823D01*
X116382734Y-131096434D01*
X116221447Y-131014252D01*
X116221444Y-131014251D01*
X116049293Y-130958317D01*
X115870506Y-130930000D01*
X115630000Y-130930000D01*
X115630000Y-131764314D01*
X115625606Y-131759920D01*
X115534394Y-131707259D01*
X115432661Y-131680000D01*
X115327339Y-131680000D01*
X115225606Y-131707259D01*
X115134394Y-131759920D01*
X115130000Y-131764314D01*
X115130000Y-130930000D01*
X114889494Y-130930000D01*
X114710706Y-130958317D01*
X114538555Y-131014251D01*
X114538552Y-131014252D01*
X114377265Y-131096434D01*
X114230830Y-131202823D01*
X114102823Y-131330830D01*
X113996434Y-131477265D01*
X113914252Y-131638552D01*
X113914250Y-131638558D01*
X113858318Y-131810704D01*
X113858315Y-131810714D01*
X113855261Y-131830000D01*
X110950500Y-131830000D01*
X110950500Y-129638543D01*
X113979499Y-129638543D01*
X114017947Y-129831829D01*
X114017950Y-129831839D01*
X114093364Y-130013907D01*
X114093371Y-130013920D01*
X114202860Y-130177781D01*
X114202863Y-130177785D01*
X114342214Y-130317136D01*
X114342218Y-130317139D01*
X114506079Y-130426628D01*
X114506092Y-130426635D01*
X114688160Y-130502049D01*
X114688165Y-130502051D01*
X114688169Y-130502051D01*
X114688170Y-130502052D01*
X114881456Y-130540500D01*
X114881459Y-130540500D01*
X115878543Y-130540500D01*
X116008582Y-130514632D01*
X116071835Y-130502051D01*
X116253914Y-130426632D01*
X116417782Y-130317139D01*
X116557139Y-130177782D01*
X116666632Y-130013914D01*
X116742051Y-129831835D01*
X116754632Y-129768582D01*
X116780500Y-129638543D01*
X121599499Y-129638543D01*
X121637947Y-129831829D01*
X121637950Y-129831839D01*
X121713364Y-130013907D01*
X121713371Y-130013920D01*
X121822860Y-130177781D01*
X121822863Y-130177785D01*
X121962214Y-130317136D01*
X121962218Y-130317139D01*
X122126079Y-130426628D01*
X122126092Y-130426635D01*
X122308160Y-130502049D01*
X122308165Y-130502051D01*
X122308169Y-130502051D01*
X122308170Y-130502052D01*
X122501456Y-130540500D01*
X122501459Y-130540500D01*
X123498543Y-130540500D01*
X123628582Y-130514632D01*
X123691835Y-130502051D01*
X123873914Y-130426632D01*
X124037782Y-130317139D01*
X124177139Y-130177782D01*
X124286632Y-130013914D01*
X124362051Y-129831835D01*
X124374632Y-129768582D01*
X124400500Y-129638543D01*
X124400500Y-129441456D01*
X124362052Y-129248170D01*
X124362051Y-129248169D01*
X124362051Y-129248165D01*
X124346964Y-129211741D01*
X124286635Y-129066092D01*
X124286628Y-129066079D01*
X124177139Y-128902218D01*
X124177136Y-128902214D01*
X124037785Y-128762863D01*
X124037781Y-128762860D01*
X123873920Y-128653371D01*
X123873907Y-128653364D01*
X123691839Y-128577950D01*
X123691829Y-128577947D01*
X123498543Y-128539500D01*
X123498541Y-128539500D01*
X122501459Y-128539500D01*
X122501457Y-128539500D01*
X122308170Y-128577947D01*
X122308160Y-128577950D01*
X122126092Y-128653364D01*
X122126079Y-128653371D01*
X121962218Y-128762860D01*
X121962214Y-128762863D01*
X121822863Y-128902214D01*
X121822860Y-128902218D01*
X121713371Y-129066079D01*
X121713364Y-129066092D01*
X121637950Y-129248160D01*
X121637947Y-129248170D01*
X121599500Y-129441456D01*
X121599500Y-129441459D01*
X121599500Y-129638541D01*
X121599500Y-129638543D01*
X121599499Y-129638543D01*
X116780500Y-129638543D01*
X116780500Y-129441456D01*
X116742052Y-129248170D01*
X116742051Y-129248169D01*
X116742051Y-129248165D01*
X116726964Y-129211741D01*
X116666635Y-129066092D01*
X116666628Y-129066079D01*
X116557139Y-128902218D01*
X116557136Y-128902214D01*
X116417785Y-128762863D01*
X116417781Y-128762860D01*
X116253920Y-128653371D01*
X116253907Y-128653364D01*
X116071839Y-128577950D01*
X116071829Y-128577947D01*
X115878543Y-128539500D01*
X115878541Y-128539500D01*
X114881459Y-128539500D01*
X114881457Y-128539500D01*
X114688170Y-128577947D01*
X114688160Y-128577950D01*
X114506092Y-128653364D01*
X114506079Y-128653371D01*
X114342218Y-128762860D01*
X114342214Y-128762863D01*
X114202863Y-128902214D01*
X114202860Y-128902218D01*
X114093371Y-129066079D01*
X114093364Y-129066092D01*
X114017950Y-129248160D01*
X114017947Y-129248170D01*
X113979500Y-129441456D01*
X113979500Y-129441459D01*
X113979500Y-129638541D01*
X113979500Y-129638543D01*
X113979499Y-129638543D01*
X110950500Y-129638543D01*
X110950500Y-127098543D01*
X113979499Y-127098543D01*
X114017947Y-127291829D01*
X114017950Y-127291839D01*
X114093364Y-127473907D01*
X114093371Y-127473920D01*
X114202860Y-127637781D01*
X114202863Y-127637785D01*
X114342214Y-127777136D01*
X114342218Y-127777139D01*
X114506079Y-127886628D01*
X114506092Y-127886635D01*
X114688160Y-127962049D01*
X114688165Y-127962051D01*
X114688169Y-127962051D01*
X114688170Y-127962052D01*
X114881456Y-128000500D01*
X114881459Y-128000500D01*
X115878543Y-128000500D01*
X116008582Y-127974632D01*
X116071835Y-127962051D01*
X116253914Y-127886632D01*
X116417782Y-127777139D01*
X116557139Y-127637782D01*
X116666632Y-127473914D01*
X116742051Y-127291835D01*
X116780500Y-127098543D01*
X121599499Y-127098543D01*
X121637947Y-127291829D01*
X121637950Y-127291839D01*
X121713364Y-127473907D01*
X121713371Y-127473920D01*
X121822860Y-127637781D01*
X121822863Y-127637785D01*
X121962214Y-127777136D01*
X121962218Y-127777139D01*
X122126079Y-127886628D01*
X122126092Y-127886635D01*
X122308160Y-127962049D01*
X122308165Y-127962051D01*
X122308169Y-127962051D01*
X122308170Y-127962052D01*
X122501456Y-128000500D01*
X122501459Y-128000500D01*
X123498543Y-128000500D01*
X123628582Y-127974632D01*
X123691835Y-127962051D01*
X123873914Y-127886632D01*
X124037782Y-127777139D01*
X124177139Y-127637782D01*
X124286632Y-127473914D01*
X124362051Y-127291835D01*
X124400500Y-127098541D01*
X124400500Y-126901459D01*
X124400500Y-126901456D01*
X124362052Y-126708170D01*
X124362051Y-126708169D01*
X124362051Y-126708165D01*
X124361144Y-126705975D01*
X124286635Y-126526092D01*
X124286628Y-126526079D01*
X124177139Y-126362218D01*
X124177136Y-126362214D01*
X124037785Y-126222863D01*
X124037781Y-126222860D01*
X123873920Y-126113371D01*
X123873907Y-126113364D01*
X123691839Y-126037950D01*
X123691829Y-126037947D01*
X123498543Y-125999500D01*
X123498541Y-125999500D01*
X122501459Y-125999500D01*
X122501457Y-125999500D01*
X122308170Y-126037947D01*
X122308160Y-126037950D01*
X122126092Y-126113364D01*
X122126079Y-126113371D01*
X121962218Y-126222860D01*
X121962214Y-126222863D01*
X121822863Y-126362214D01*
X121822860Y-126362218D01*
X121713371Y-126526079D01*
X121713364Y-126526092D01*
X121637950Y-126708160D01*
X121637947Y-126708170D01*
X121599500Y-126901456D01*
X121599500Y-126901459D01*
X121599500Y-127098541D01*
X121599500Y-127098543D01*
X121599499Y-127098543D01*
X116780500Y-127098543D01*
X116780500Y-127098541D01*
X116780500Y-126901459D01*
X116780500Y-126901456D01*
X116742052Y-126708170D01*
X116742051Y-126708169D01*
X116742051Y-126708165D01*
X116741144Y-126705975D01*
X116666635Y-126526092D01*
X116666628Y-126526079D01*
X116557139Y-126362218D01*
X116557136Y-126362214D01*
X116417785Y-126222863D01*
X116417781Y-126222860D01*
X116253920Y-126113371D01*
X116253907Y-126113364D01*
X116071839Y-126037950D01*
X116071829Y-126037947D01*
X115878543Y-125999500D01*
X115878541Y-125999500D01*
X114881459Y-125999500D01*
X114881457Y-125999500D01*
X114688170Y-126037947D01*
X114688160Y-126037950D01*
X114506092Y-126113364D01*
X114506079Y-126113371D01*
X114342218Y-126222860D01*
X114342214Y-126222863D01*
X114202863Y-126362214D01*
X114202860Y-126362218D01*
X114093371Y-126526079D01*
X114093364Y-126526092D01*
X114017950Y-126708160D01*
X114017947Y-126708170D01*
X113979500Y-126901456D01*
X113979500Y-126901459D01*
X113979500Y-127098541D01*
X113979500Y-127098543D01*
X113979499Y-127098543D01*
X110950500Y-127098543D01*
X110950500Y-127037965D01*
X110959144Y-127008524D01*
X110965668Y-126978538D01*
X110969422Y-126973522D01*
X110970185Y-126970926D01*
X110986819Y-126950284D01*
X111129417Y-126807686D01*
X112353524Y-125583579D01*
X113790734Y-124146368D01*
X113852055Y-124112885D01*
X113921747Y-124117869D01*
X113977680Y-124159741D01*
X114002097Y-124225205D01*
X114000030Y-124258242D01*
X113979500Y-124361454D01*
X113979500Y-124361459D01*
X113979500Y-124558541D01*
X113979500Y-124558543D01*
X113979499Y-124558543D01*
X114017947Y-124751829D01*
X114017950Y-124751839D01*
X114093364Y-124933907D01*
X114093371Y-124933920D01*
X114202860Y-125097781D01*
X114202863Y-125097785D01*
X114342214Y-125237136D01*
X114342218Y-125237139D01*
X114506079Y-125346628D01*
X114506092Y-125346635D01*
X114688160Y-125422049D01*
X114688165Y-125422051D01*
X114688169Y-125422051D01*
X114688170Y-125422052D01*
X114881456Y-125460500D01*
X114881459Y-125460500D01*
X115878543Y-125460500D01*
X116008582Y-125434632D01*
X116071835Y-125422051D01*
X116253914Y-125346632D01*
X116417782Y-125237139D01*
X116557139Y-125097782D01*
X116666632Y-124933914D01*
X116742051Y-124751835D01*
X116762051Y-124651290D01*
X116780500Y-124558543D01*
X121599499Y-124558543D01*
X121637947Y-124751829D01*
X121637950Y-124751839D01*
X121713364Y-124933907D01*
X121713371Y-124933920D01*
X121822860Y-125097781D01*
X121822863Y-125097785D01*
X121962214Y-125237136D01*
X121962218Y-125237139D01*
X122126079Y-125346628D01*
X122126092Y-125346635D01*
X122308160Y-125422049D01*
X122308165Y-125422051D01*
X122308169Y-125422051D01*
X122308170Y-125422052D01*
X122501456Y-125460500D01*
X122501459Y-125460500D01*
X123498543Y-125460500D01*
X123628582Y-125434632D01*
X123691835Y-125422051D01*
X123873914Y-125346632D01*
X124037782Y-125237139D01*
X124177139Y-125097782D01*
X124286632Y-124933914D01*
X124362051Y-124751835D01*
X124382051Y-124651290D01*
X124400500Y-124558543D01*
X124400500Y-124361456D01*
X124380220Y-124259505D01*
X124380220Y-124259504D01*
X124376619Y-124241400D01*
X129514500Y-124241400D01*
X129514500Y-124448339D01*
X129554868Y-124651282D01*
X129554870Y-124651290D01*
X129634058Y-124842466D01*
X129749024Y-125014527D01*
X129895342Y-125160845D01*
X129895345Y-125160847D01*
X130067402Y-125275811D01*
X130258580Y-125355000D01*
X130446614Y-125392402D01*
X130461530Y-125395369D01*
X130461534Y-125395370D01*
X130461535Y-125395370D01*
X130918466Y-125395370D01*
X130918467Y-125395369D01*
X131121420Y-125355000D01*
X131312598Y-125275811D01*
X131484655Y-125160847D01*
X131630977Y-125014525D01*
X131745941Y-124842468D01*
X131825130Y-124651290D01*
X131865500Y-124448335D01*
X131865500Y-124241405D01*
X131825130Y-124038450D01*
X131745941Y-123847272D01*
X131630977Y-123675215D01*
X131630975Y-123675212D01*
X131484657Y-123528894D01*
X131315437Y-123415826D01*
X131312598Y-123413929D01*
X131194594Y-123365050D01*
X131121420Y-123334740D01*
X131121412Y-123334738D01*
X130918469Y-123294370D01*
X130918465Y-123294370D01*
X130461535Y-123294370D01*
X130461530Y-123294370D01*
X130258587Y-123334738D01*
X130258579Y-123334740D01*
X130067403Y-123413928D01*
X129895342Y-123528894D01*
X129749024Y-123675212D01*
X129634058Y-123847273D01*
X129554870Y-124038449D01*
X129554868Y-124038457D01*
X129514500Y-124241400D01*
X124376619Y-124241400D01*
X124362052Y-124168172D01*
X124362052Y-124168170D01*
X124362051Y-124168165D01*
X124341218Y-124117869D01*
X124286635Y-123986092D01*
X124286628Y-123986079D01*
X124177139Y-123822218D01*
X124177136Y-123822214D01*
X124037785Y-123682863D01*
X124037781Y-123682860D01*
X123873920Y-123573371D01*
X123873907Y-123573364D01*
X123691839Y-123497950D01*
X123691829Y-123497947D01*
X123498543Y-123459500D01*
X123498541Y-123459500D01*
X122501459Y-123459500D01*
X122501457Y-123459500D01*
X122308170Y-123497947D01*
X122308160Y-123497950D01*
X122126092Y-123573364D01*
X122126079Y-123573371D01*
X121962218Y-123682860D01*
X121962214Y-123682863D01*
X121822863Y-123822214D01*
X121822860Y-123822218D01*
X121713371Y-123986079D01*
X121713364Y-123986092D01*
X121637950Y-124168160D01*
X121637947Y-124168170D01*
X121599500Y-124361456D01*
X121599500Y-124361459D01*
X121599500Y-124558541D01*
X121599500Y-124558543D01*
X121599499Y-124558543D01*
X116780500Y-124558543D01*
X116780500Y-124361456D01*
X116742052Y-124168170D01*
X116742051Y-124168169D01*
X116742051Y-124168165D01*
X116721218Y-124117869D01*
X116666635Y-123986092D01*
X116666628Y-123986079D01*
X116557139Y-123822218D01*
X116557136Y-123822214D01*
X116417785Y-123682863D01*
X116417781Y-123682860D01*
X116253920Y-123573371D01*
X116253907Y-123573364D01*
X116071839Y-123497950D01*
X116071829Y-123497947D01*
X115878543Y-123459500D01*
X115878541Y-123459500D01*
X114881459Y-123459500D01*
X114881454Y-123459500D01*
X114778242Y-123480030D01*
X114708650Y-123473803D01*
X114653473Y-123430939D01*
X114630229Y-123365050D01*
X114646297Y-123297053D01*
X114666366Y-123270736D01*
X114980284Y-122956819D01*
X115041607Y-122923334D01*
X115067965Y-122920500D01*
X115878543Y-122920500D01*
X116008582Y-122894632D01*
X116071835Y-122882051D01*
X116253914Y-122806632D01*
X116417782Y-122697139D01*
X116557139Y-122557782D01*
X116666632Y-122393914D01*
X116742051Y-122211835D01*
X116780500Y-122018541D01*
X116780500Y-121821459D01*
X116780500Y-121821456D01*
X116742052Y-121628170D01*
X116742051Y-121628169D01*
X116742051Y-121628165D01*
X116708074Y-121546136D01*
X116666635Y-121446092D01*
X116666628Y-121446079D01*
X116557139Y-121282218D01*
X116557136Y-121282214D01*
X116417785Y-121142863D01*
X116417781Y-121142860D01*
X116253920Y-121033371D01*
X116253907Y-121033364D01*
X116071839Y-120957950D01*
X116071829Y-120957947D01*
X115878543Y-120919500D01*
X115878541Y-120919500D01*
X114881459Y-120919500D01*
X114881457Y-120919500D01*
X114688170Y-120957947D01*
X114688160Y-120957950D01*
X114506092Y-121033364D01*
X114506079Y-121033371D01*
X114342218Y-121142860D01*
X114342214Y-121142863D01*
X114202863Y-121282214D01*
X114202860Y-121282218D01*
X114093371Y-121446079D01*
X114093364Y-121446092D01*
X114017950Y-121628160D01*
X114017947Y-121628170D01*
X113979500Y-121821456D01*
X113979500Y-121821459D01*
X113979500Y-122018541D01*
X113979500Y-122018543D01*
X113979499Y-122018543D01*
X114017947Y-122211829D01*
X114017950Y-122211839D01*
X114093366Y-122393912D01*
X114107173Y-122414576D01*
X114128049Y-122481254D01*
X114109563Y-122548633D01*
X114091750Y-122571145D01*
X110139513Y-126523383D01*
X110139511Y-126523386D01*
X110080200Y-126626113D01*
X110080199Y-126626116D01*
X110073712Y-126650324D01*
X110073713Y-126650325D01*
X110049500Y-126740691D01*
X110049500Y-133262033D01*
X110029815Y-133329072D01*
X110013181Y-133349714D01*
X108309382Y-135053512D01*
X108248059Y-135086997D01*
X108178367Y-135082013D01*
X108174260Y-135080396D01*
X108076420Y-135039870D01*
X108076412Y-135039868D01*
X107873469Y-134999500D01*
X107873465Y-134999500D01*
X107666535Y-134999500D01*
X107666530Y-134999500D01*
X107463587Y-135039868D01*
X107463579Y-135039870D01*
X107272403Y-135119058D01*
X107100342Y-135234024D01*
X106954024Y-135380342D01*
X106839058Y-135552403D01*
X106759870Y-135743579D01*
X106759868Y-135743587D01*
X106719500Y-135946530D01*
X106280499Y-135946530D01*
X106240130Y-135743580D01*
X106160941Y-135552402D01*
X106045977Y-135380345D01*
X106045975Y-135380342D01*
X105899657Y-135234024D01*
X105813626Y-135176541D01*
X105727598Y-135119059D01*
X105710795Y-135112099D01*
X105536420Y-135039870D01*
X105536412Y-135039868D01*
X105333469Y-134999500D01*
X105333465Y-134999500D01*
X105126535Y-134999500D01*
X105126530Y-134999500D01*
X104923587Y-135039868D01*
X104923579Y-135039870D01*
X104732403Y-135119058D01*
X104560342Y-135234024D01*
X104414024Y-135380342D01*
X104299058Y-135552403D01*
X104219870Y-135743579D01*
X104219868Y-135743587D01*
X104179500Y-135946530D01*
X102891907Y-135946530D01*
X102891868Y-135941368D01*
X102878720Y-134179655D01*
X102872950Y-133406530D01*
X104179500Y-133406530D01*
X104179500Y-133613469D01*
X104219868Y-133816412D01*
X104219870Y-133816420D01*
X104299058Y-134007596D01*
X104414024Y-134179657D01*
X104560342Y-134325975D01*
X104560345Y-134325977D01*
X104732402Y-134440941D01*
X104923580Y-134520130D01*
X105089247Y-134553083D01*
X105126530Y-134560499D01*
X105126534Y-134560500D01*
X105126535Y-134560500D01*
X105333466Y-134560500D01*
X105333467Y-134560499D01*
X105536420Y-134520130D01*
X105727598Y-134440941D01*
X105899655Y-134325977D01*
X106045977Y-134179655D01*
X106160941Y-134007598D01*
X106240130Y-133816420D01*
X106280500Y-133613465D01*
X106280500Y-133406535D01*
X106251353Y-133260000D01*
X106594638Y-133260000D01*
X107336988Y-133260000D01*
X107304075Y-133317007D01*
X107270000Y-133444174D01*
X107270000Y-133575826D01*
X107304075Y-133702993D01*
X107336988Y-133760000D01*
X106594638Y-133760000D01*
X106599548Y-133791002D01*
X106657914Y-133970637D01*
X106743670Y-134138940D01*
X106854685Y-134291741D01*
X106854689Y-134291746D01*
X106988253Y-134425310D01*
X106988258Y-134425314D01*
X107141059Y-134536329D01*
X107309362Y-134622085D01*
X107488997Y-134680451D01*
X107520000Y-134685362D01*
X107520000Y-133943012D01*
X107577007Y-133975925D01*
X107704174Y-134010000D01*
X107835826Y-134010000D01*
X107962993Y-133975925D01*
X108020000Y-133943012D01*
X108020000Y-134685361D01*
X108051002Y-134680451D01*
X108230637Y-134622085D01*
X108398940Y-134536329D01*
X108551741Y-134425314D01*
X108551746Y-134425310D01*
X108685310Y-134291746D01*
X108685314Y-134291741D01*
X108796329Y-134138940D01*
X108882085Y-133970637D01*
X108940451Y-133791002D01*
X108945362Y-133760000D01*
X108203012Y-133760000D01*
X108235925Y-133702993D01*
X108270000Y-133575826D01*
X108270000Y-133444174D01*
X108235925Y-133317007D01*
X108203012Y-133260000D01*
X108945362Y-133260000D01*
X108940451Y-133228997D01*
X108882085Y-133049362D01*
X108796329Y-132881059D01*
X108685314Y-132728258D01*
X108685310Y-132728253D01*
X108551746Y-132594689D01*
X108551741Y-132594685D01*
X108398940Y-132483670D01*
X108230635Y-132397913D01*
X108051004Y-132339549D01*
X108050995Y-132339547D01*
X108020000Y-132334637D01*
X108020000Y-133076988D01*
X107962993Y-133044075D01*
X107835826Y-133010000D01*
X107704174Y-133010000D01*
X107577007Y-133044075D01*
X107520000Y-133076988D01*
X107520000Y-132334637D01*
X107519999Y-132334637D01*
X107489004Y-132339547D01*
X107488995Y-132339549D01*
X107309364Y-132397913D01*
X107141059Y-132483670D01*
X106988258Y-132594685D01*
X106988253Y-132594689D01*
X106854689Y-132728253D01*
X106854685Y-132728258D01*
X106743670Y-132881059D01*
X106657914Y-133049362D01*
X106599548Y-133228997D01*
X106594638Y-133260000D01*
X106251353Y-133260000D01*
X106240130Y-133203580D01*
X106160941Y-133012402D01*
X106045977Y-132840345D01*
X106045975Y-132840342D01*
X105899657Y-132694024D01*
X105750984Y-132594685D01*
X105727598Y-132579059D01*
X105678611Y-132558768D01*
X105536420Y-132499870D01*
X105536412Y-132499868D01*
X105333469Y-132459500D01*
X105333465Y-132459500D01*
X105126535Y-132459500D01*
X105126530Y-132459500D01*
X104923587Y-132499868D01*
X104923579Y-132499870D01*
X104732403Y-132579058D01*
X104560342Y-132694024D01*
X104414024Y-132840342D01*
X104299058Y-133012403D01*
X104219870Y-133203579D01*
X104219868Y-133203587D01*
X104179500Y-133406530D01*
X102872950Y-133406530D01*
X102853995Y-130866530D01*
X104179500Y-130866530D01*
X104179500Y-131073469D01*
X104219868Y-131276412D01*
X104219870Y-131276420D01*
X104288544Y-131442214D01*
X104299059Y-131467598D01*
X104324269Y-131505328D01*
X104414024Y-131639657D01*
X104560342Y-131785975D01*
X104560345Y-131785977D01*
X104732402Y-131900941D01*
X104923580Y-131980130D01*
X105126530Y-132020499D01*
X105126534Y-132020500D01*
X105126535Y-132020500D01*
X105333466Y-132020500D01*
X105333467Y-132020499D01*
X105536420Y-131980130D01*
X105727598Y-131900941D01*
X105899655Y-131785977D01*
X106045977Y-131639655D01*
X106160941Y-131467598D01*
X106240130Y-131276420D01*
X106280500Y-131073465D01*
X106280500Y-130866535D01*
X106280499Y-130866530D01*
X106719500Y-130866530D01*
X106719500Y-131073469D01*
X106759868Y-131276412D01*
X106759870Y-131276420D01*
X106828544Y-131442214D01*
X106839059Y-131467598D01*
X106864269Y-131505328D01*
X106954024Y-131639657D01*
X107100342Y-131785975D01*
X107100345Y-131785977D01*
X107272402Y-131900941D01*
X107463580Y-131980130D01*
X107666530Y-132020499D01*
X107666534Y-132020500D01*
X107666535Y-132020500D01*
X107873466Y-132020500D01*
X107873467Y-132020499D01*
X108076420Y-131980130D01*
X108267598Y-131900941D01*
X108439655Y-131785977D01*
X108585977Y-131639655D01*
X108700941Y-131467598D01*
X108780130Y-131276420D01*
X108820500Y-131073465D01*
X108820500Y-130866535D01*
X108780130Y-130663580D01*
X108700941Y-130472402D01*
X108585977Y-130300345D01*
X108585975Y-130300342D01*
X108439657Y-130154024D01*
X108343839Y-130090001D01*
X108267598Y-130039059D01*
X108206907Y-130013920D01*
X108076420Y-129959870D01*
X108076412Y-129959868D01*
X107873469Y-129919500D01*
X107873465Y-129919500D01*
X107666535Y-129919500D01*
X107666530Y-129919500D01*
X107463587Y-129959868D01*
X107463579Y-129959870D01*
X107272403Y-130039058D01*
X107100342Y-130154024D01*
X106954024Y-130300342D01*
X106839058Y-130472403D01*
X106759870Y-130663579D01*
X106759868Y-130663587D01*
X106719500Y-130866530D01*
X106280499Y-130866530D01*
X106240130Y-130663580D01*
X106160941Y-130472402D01*
X106045977Y-130300345D01*
X106045975Y-130300342D01*
X105899657Y-130154024D01*
X105803839Y-130090001D01*
X105727598Y-130039059D01*
X105666907Y-130013920D01*
X105536420Y-129959870D01*
X105536412Y-129959868D01*
X105333469Y-129919500D01*
X105333465Y-129919500D01*
X105126535Y-129919500D01*
X105126530Y-129919500D01*
X104923587Y-129959868D01*
X104923579Y-129959870D01*
X104732403Y-130039058D01*
X104560342Y-130154024D01*
X104414024Y-130300342D01*
X104299058Y-130472403D01*
X104219870Y-130663579D01*
X104219868Y-130663587D01*
X104179500Y-130866530D01*
X102853995Y-130866530D01*
X102846055Y-129802539D01*
X102835040Y-128326530D01*
X104179500Y-128326530D01*
X104179500Y-128533469D01*
X104219868Y-128736412D01*
X104219870Y-128736420D01*
X104299058Y-128927596D01*
X104414024Y-129099657D01*
X104560342Y-129245975D01*
X104560345Y-129245977D01*
X104732402Y-129360941D01*
X104923580Y-129440130D01*
X105126530Y-129480499D01*
X105126534Y-129480500D01*
X105126535Y-129480500D01*
X105333466Y-129480500D01*
X105333467Y-129480499D01*
X105536420Y-129440130D01*
X105727598Y-129360941D01*
X105899655Y-129245977D01*
X106045977Y-129099655D01*
X106160941Y-128927598D01*
X106240130Y-128736420D01*
X106280500Y-128533465D01*
X106280500Y-128326535D01*
X106251353Y-128180000D01*
X106594638Y-128180000D01*
X107336988Y-128180000D01*
X107304075Y-128237007D01*
X107270000Y-128364174D01*
X107270000Y-128495826D01*
X107304075Y-128622993D01*
X107336988Y-128680000D01*
X106594638Y-128680000D01*
X106599548Y-128711002D01*
X106657914Y-128890637D01*
X106743670Y-129058940D01*
X106854685Y-129211741D01*
X106854689Y-129211746D01*
X106988253Y-129345310D01*
X106988258Y-129345314D01*
X107141059Y-129456329D01*
X107309362Y-129542085D01*
X107488997Y-129600451D01*
X107520000Y-129605362D01*
X107520000Y-128863012D01*
X107577007Y-128895925D01*
X107704174Y-128930000D01*
X107835826Y-128930000D01*
X107962993Y-128895925D01*
X108020000Y-128863012D01*
X108020000Y-129605361D01*
X108051002Y-129600451D01*
X108230637Y-129542085D01*
X108398940Y-129456329D01*
X108551741Y-129345314D01*
X108551746Y-129345310D01*
X108685310Y-129211746D01*
X108685314Y-129211741D01*
X108796329Y-129058940D01*
X108882085Y-128890637D01*
X108940451Y-128711002D01*
X108945362Y-128680000D01*
X108203012Y-128680000D01*
X108235925Y-128622993D01*
X108270000Y-128495826D01*
X108270000Y-128364174D01*
X108235925Y-128237007D01*
X108203012Y-128180000D01*
X108945362Y-128180000D01*
X108940451Y-128148997D01*
X108882085Y-127969362D01*
X108796329Y-127801059D01*
X108685314Y-127648258D01*
X108685310Y-127648253D01*
X108551746Y-127514689D01*
X108551741Y-127514685D01*
X108398940Y-127403670D01*
X108230635Y-127317913D01*
X108051004Y-127259549D01*
X108050995Y-127259547D01*
X108020000Y-127254637D01*
X108020000Y-127996988D01*
X107962993Y-127964075D01*
X107835826Y-127930000D01*
X107704174Y-127930000D01*
X107577007Y-127964075D01*
X107520000Y-127996988D01*
X107520000Y-127254637D01*
X107519999Y-127254637D01*
X107489004Y-127259547D01*
X107488995Y-127259549D01*
X107309364Y-127317913D01*
X107141059Y-127403670D01*
X106988258Y-127514685D01*
X106988253Y-127514689D01*
X106854689Y-127648253D01*
X106854685Y-127648258D01*
X106743670Y-127801059D01*
X106657914Y-127969362D01*
X106599548Y-128148997D01*
X106594638Y-128180000D01*
X106251353Y-128180000D01*
X106240130Y-128123580D01*
X106160941Y-127932402D01*
X106045977Y-127760345D01*
X106045975Y-127760342D01*
X105899658Y-127614025D01*
X105899655Y-127614023D01*
X105750984Y-127514685D01*
X105727598Y-127499059D01*
X105666907Y-127473920D01*
X105536420Y-127419870D01*
X105536412Y-127419868D01*
X105333469Y-127379500D01*
X105333465Y-127379500D01*
X105126535Y-127379500D01*
X105126530Y-127379500D01*
X104923587Y-127419868D01*
X104923579Y-127419870D01*
X104732403Y-127499058D01*
X104560345Y-127614023D01*
X104560341Y-127614025D01*
X104414024Y-127760342D01*
X104299058Y-127932403D01*
X104219870Y-128123579D01*
X104219868Y-128123587D01*
X104179500Y-128326530D01*
X102835040Y-128326530D01*
X102816086Y-125786530D01*
X104179500Y-125786530D01*
X104179500Y-125993469D01*
X104219868Y-126196412D01*
X104219870Y-126196420D01*
X104299058Y-126387596D01*
X104414024Y-126559657D01*
X104560342Y-126705975D01*
X104560345Y-126705977D01*
X104732402Y-126820941D01*
X104923580Y-126900130D01*
X105126530Y-126940499D01*
X105126534Y-126940500D01*
X105126535Y-126940500D01*
X105333466Y-126940500D01*
X105333467Y-126940499D01*
X105536420Y-126900130D01*
X105727598Y-126820941D01*
X105899655Y-126705977D01*
X106045977Y-126559655D01*
X106160941Y-126387598D01*
X106240130Y-126196420D01*
X106280500Y-125993465D01*
X106280500Y-125786535D01*
X106280499Y-125786530D01*
X106719500Y-125786530D01*
X106719500Y-125993469D01*
X106759868Y-126196412D01*
X106759870Y-126196420D01*
X106839058Y-126387596D01*
X106954024Y-126559657D01*
X107100342Y-126705975D01*
X107100345Y-126705977D01*
X107272402Y-126820941D01*
X107463580Y-126900130D01*
X107666530Y-126940499D01*
X107666534Y-126940500D01*
X107666535Y-126940500D01*
X107873466Y-126940500D01*
X107873467Y-126940499D01*
X108076420Y-126900130D01*
X108267598Y-126820941D01*
X108439655Y-126705977D01*
X108585977Y-126559655D01*
X108700941Y-126387598D01*
X108780130Y-126196420D01*
X108820500Y-125993465D01*
X108820500Y-125786535D01*
X108780130Y-125583580D01*
X108700941Y-125392402D01*
X108585977Y-125220345D01*
X108585975Y-125220342D01*
X108439657Y-125074024D01*
X108350609Y-125014525D01*
X108267598Y-124959059D01*
X108206907Y-124933920D01*
X108076420Y-124879870D01*
X108076412Y-124879868D01*
X107873469Y-124839500D01*
X107873465Y-124839500D01*
X107666535Y-124839500D01*
X107666530Y-124839500D01*
X107463587Y-124879868D01*
X107463579Y-124879870D01*
X107272403Y-124959058D01*
X107100342Y-125074024D01*
X106954024Y-125220342D01*
X106839058Y-125392403D01*
X106759870Y-125583579D01*
X106759868Y-125583587D01*
X106719500Y-125786530D01*
X106280499Y-125786530D01*
X106240130Y-125583580D01*
X106160941Y-125392402D01*
X106045977Y-125220345D01*
X106045975Y-125220342D01*
X105899657Y-125074024D01*
X105810609Y-125014525D01*
X105727598Y-124959059D01*
X105666907Y-124933920D01*
X105536420Y-124879870D01*
X105536412Y-124879868D01*
X105333469Y-124839500D01*
X105333465Y-124839500D01*
X105126535Y-124839500D01*
X105126530Y-124839500D01*
X104923587Y-124879868D01*
X104923579Y-124879870D01*
X104732403Y-124959058D01*
X104560342Y-125074024D01*
X104414024Y-125220342D01*
X104299058Y-125392403D01*
X104219870Y-125583579D01*
X104219868Y-125583587D01*
X104179500Y-125786530D01*
X102816086Y-125786530D01*
X102816047Y-125781368D01*
X102799498Y-123563862D01*
X102797487Y-123294370D01*
X102796036Y-123100000D01*
X104054638Y-123100000D01*
X104796988Y-123100000D01*
X104764075Y-123157007D01*
X104730000Y-123284174D01*
X104730000Y-123415826D01*
X104764075Y-123542993D01*
X104796988Y-123600000D01*
X104054638Y-123600000D01*
X104059548Y-123631002D01*
X104117914Y-123810637D01*
X104203670Y-123978940D01*
X104314685Y-124131741D01*
X104314689Y-124131746D01*
X104448253Y-124265310D01*
X104448258Y-124265314D01*
X104601059Y-124376329D01*
X104769362Y-124462085D01*
X104948997Y-124520451D01*
X104980000Y-124525362D01*
X104980000Y-123783012D01*
X105037007Y-123815925D01*
X105164174Y-123850000D01*
X105295826Y-123850000D01*
X105422993Y-123815925D01*
X105480000Y-123783012D01*
X105480000Y-124525361D01*
X105511002Y-124520451D01*
X105690637Y-124462085D01*
X105858940Y-124376329D01*
X106011741Y-124265314D01*
X106011746Y-124265310D01*
X106145310Y-124131746D01*
X106145314Y-124131741D01*
X106256329Y-123978940D01*
X106342085Y-123810637D01*
X106400451Y-123631002D01*
X106405362Y-123600000D01*
X105663012Y-123600000D01*
X105695925Y-123542993D01*
X105730000Y-123415826D01*
X105730000Y-123284174D01*
X105719913Y-123246530D01*
X106719500Y-123246530D01*
X106719500Y-123453469D01*
X106759868Y-123656412D01*
X106759870Y-123656420D01*
X106839058Y-123847596D01*
X106954024Y-124019657D01*
X107100342Y-124165975D01*
X107100345Y-124165977D01*
X107272402Y-124280941D01*
X107463580Y-124360130D01*
X107666530Y-124400499D01*
X107666534Y-124400500D01*
X107666535Y-124400500D01*
X107873466Y-124400500D01*
X107873467Y-124400499D01*
X108076420Y-124360130D01*
X108267598Y-124280941D01*
X108439655Y-124165977D01*
X108585977Y-124019655D01*
X108700941Y-123847598D01*
X108780130Y-123656420D01*
X108820500Y-123453465D01*
X108820500Y-123246535D01*
X108780130Y-123043580D01*
X108700941Y-122852402D01*
X108585977Y-122680345D01*
X108585975Y-122680342D01*
X108439657Y-122534024D01*
X108353626Y-122476541D01*
X108267598Y-122419059D01*
X108256775Y-122414576D01*
X108076420Y-122339870D01*
X108076412Y-122339868D01*
X107873469Y-122299500D01*
X107873465Y-122299500D01*
X107666535Y-122299500D01*
X107666530Y-122299500D01*
X107463587Y-122339868D01*
X107463579Y-122339870D01*
X107272403Y-122419058D01*
X107100342Y-122534024D01*
X106954024Y-122680342D01*
X106839058Y-122852403D01*
X106759870Y-123043579D01*
X106759868Y-123043587D01*
X106719500Y-123246530D01*
X105719913Y-123246530D01*
X105695925Y-123157007D01*
X105663012Y-123100000D01*
X106405362Y-123100000D01*
X106400451Y-123068997D01*
X106342085Y-122889362D01*
X106256329Y-122721059D01*
X106145314Y-122568258D01*
X106145310Y-122568253D01*
X106011746Y-122434689D01*
X106011741Y-122434685D01*
X105858940Y-122323670D01*
X105690635Y-122237913D01*
X105511004Y-122179549D01*
X105510995Y-122179547D01*
X105480000Y-122174637D01*
X105480000Y-122916988D01*
X105422993Y-122884075D01*
X105295826Y-122850000D01*
X105164174Y-122850000D01*
X105037007Y-122884075D01*
X104980000Y-122916988D01*
X104980000Y-122174637D01*
X104979999Y-122174637D01*
X104949004Y-122179547D01*
X104948995Y-122179549D01*
X104769364Y-122237913D01*
X104601059Y-122323670D01*
X104448258Y-122434685D01*
X104448253Y-122434689D01*
X104314689Y-122568253D01*
X104314685Y-122568258D01*
X104203670Y-122721059D01*
X104117914Y-122889362D01*
X104059548Y-123068997D01*
X104054638Y-123100000D01*
X102796036Y-123100000D01*
X102785053Y-121628170D01*
X102778175Y-120706530D01*
X104179500Y-120706530D01*
X104179500Y-120913469D01*
X104219868Y-121116412D01*
X104219870Y-121116420D01*
X104288544Y-121282214D01*
X104299059Y-121307598D01*
X104337673Y-121365388D01*
X104414024Y-121479657D01*
X104560342Y-121625975D01*
X104560345Y-121625977D01*
X104732402Y-121740941D01*
X104923580Y-121820130D01*
X105126530Y-121860499D01*
X105126534Y-121860500D01*
X105126535Y-121860500D01*
X105333466Y-121860500D01*
X105333467Y-121860499D01*
X105536420Y-121820130D01*
X105727598Y-121740941D01*
X105899655Y-121625977D01*
X106045977Y-121479655D01*
X106160941Y-121307598D01*
X106240130Y-121116420D01*
X106280500Y-120913465D01*
X106280500Y-120706535D01*
X106280499Y-120706530D01*
X106719500Y-120706530D01*
X106719500Y-120913469D01*
X106759868Y-121116412D01*
X106759870Y-121116420D01*
X106828544Y-121282214D01*
X106839059Y-121307598D01*
X106877673Y-121365388D01*
X106954024Y-121479657D01*
X107100342Y-121625975D01*
X107100345Y-121625977D01*
X107272402Y-121740941D01*
X107463580Y-121820130D01*
X107666530Y-121860499D01*
X107666534Y-121860500D01*
X107666535Y-121860500D01*
X107873466Y-121860500D01*
X107873467Y-121860499D01*
X108076420Y-121820130D01*
X108267598Y-121740941D01*
X108439655Y-121625977D01*
X108585977Y-121479655D01*
X108700941Y-121307598D01*
X108780130Y-121116420D01*
X108820500Y-120913465D01*
X108820500Y-120706535D01*
X108780130Y-120503580D01*
X108700941Y-120312402D01*
X108585977Y-120140345D01*
X108585975Y-120140342D01*
X108439657Y-119994024D01*
X108277402Y-119885610D01*
X108267598Y-119879059D01*
X108242944Y-119868847D01*
X108076420Y-119799870D01*
X108076412Y-119799868D01*
X107873469Y-119759500D01*
X107873465Y-119759500D01*
X107666535Y-119759500D01*
X107666530Y-119759500D01*
X107463587Y-119799868D01*
X107463579Y-119799870D01*
X107272403Y-119879058D01*
X107100342Y-119994024D01*
X106954024Y-120140342D01*
X106839058Y-120312403D01*
X106759870Y-120503579D01*
X106759868Y-120503587D01*
X106719500Y-120706530D01*
X106280499Y-120706530D01*
X106240130Y-120503580D01*
X106160941Y-120312402D01*
X106045977Y-120140345D01*
X106045975Y-120140342D01*
X105899657Y-119994024D01*
X105737402Y-119885610D01*
X105727598Y-119879059D01*
X105702944Y-119868847D01*
X105536420Y-119799870D01*
X105536412Y-119799868D01*
X105333469Y-119759500D01*
X105333465Y-119759500D01*
X105126535Y-119759500D01*
X105126530Y-119759500D01*
X104923587Y-119799868D01*
X104923579Y-119799870D01*
X104732403Y-119879058D01*
X104560342Y-119994024D01*
X104414024Y-120140342D01*
X104299058Y-120312403D01*
X104219870Y-120503579D01*
X104219868Y-120503587D01*
X104179500Y-120706530D01*
X102778175Y-120706530D01*
X102760475Y-118334738D01*
X102759220Y-118166530D01*
X104179500Y-118166530D01*
X104179500Y-118373469D01*
X104219868Y-118576412D01*
X104219870Y-118576420D01*
X104299058Y-118767596D01*
X104414024Y-118939657D01*
X104560342Y-119085975D01*
X104560345Y-119085977D01*
X104732402Y-119200941D01*
X104923580Y-119280130D01*
X105126530Y-119320499D01*
X105126534Y-119320500D01*
X105126535Y-119320500D01*
X105333466Y-119320500D01*
X105333467Y-119320499D01*
X105536420Y-119280130D01*
X105727598Y-119200941D01*
X105899655Y-119085977D01*
X106045977Y-118939655D01*
X106160941Y-118767598D01*
X106240130Y-118576420D01*
X106280500Y-118373465D01*
X106280500Y-118166535D01*
X106280499Y-118166530D01*
X106719500Y-118166530D01*
X106719500Y-118373469D01*
X106759868Y-118576412D01*
X106759870Y-118576420D01*
X106839058Y-118767596D01*
X106954024Y-118939657D01*
X107100342Y-119085975D01*
X107100345Y-119085977D01*
X107272402Y-119200941D01*
X107463580Y-119280130D01*
X107666530Y-119320499D01*
X107666534Y-119320500D01*
X107666535Y-119320500D01*
X107873466Y-119320500D01*
X107873467Y-119320499D01*
X107932200Y-119308817D01*
X108066971Y-119282010D01*
X108136563Y-119288237D01*
X108178843Y-119315946D01*
X108603386Y-119740489D01*
X108706113Y-119799799D01*
X108730321Y-119806284D01*
X108730324Y-119806286D01*
X108730325Y-119806286D01*
X108760447Y-119814357D01*
X108820691Y-119830500D01*
X114011444Y-119830500D01*
X114078483Y-119850185D01*
X114114546Y-119885610D01*
X114202857Y-120017777D01*
X114202863Y-120017785D01*
X114342214Y-120157136D01*
X114342218Y-120157139D01*
X114506079Y-120266628D01*
X114506092Y-120266635D01*
X114688160Y-120342049D01*
X114688165Y-120342051D01*
X114688169Y-120342051D01*
X114688170Y-120342052D01*
X114881456Y-120380500D01*
X114881459Y-120380500D01*
X115878543Y-120380500D01*
X116008582Y-120354632D01*
X116071835Y-120342051D01*
X116253914Y-120266632D01*
X116417782Y-120157139D01*
X116557139Y-120017782D01*
X116666632Y-119853914D01*
X116742051Y-119671835D01*
X116771083Y-119525883D01*
X116780500Y-119478543D01*
X121599499Y-119478543D01*
X121637947Y-119671829D01*
X121637950Y-119671839D01*
X121713364Y-119853907D01*
X121713371Y-119853920D01*
X121822860Y-120017781D01*
X121822863Y-120017785D01*
X121962214Y-120157136D01*
X121962218Y-120157139D01*
X122126079Y-120266628D01*
X122126092Y-120266635D01*
X122308160Y-120342049D01*
X122308165Y-120342051D01*
X122308169Y-120342051D01*
X122308170Y-120342052D01*
X122501456Y-120380500D01*
X122501459Y-120380500D01*
X123498543Y-120380500D01*
X123628582Y-120354632D01*
X123691835Y-120342051D01*
X123873914Y-120266632D01*
X124037782Y-120157139D01*
X124177139Y-120017782D01*
X124225156Y-119945920D01*
X124265454Y-119885610D01*
X124319066Y-119840804D01*
X124368556Y-119830500D01*
X129559783Y-119830500D01*
X129626822Y-119850185D01*
X129662884Y-119885608D01*
X129703183Y-119945920D01*
X129749024Y-120014527D01*
X129895342Y-120160845D01*
X129895345Y-120160847D01*
X130067402Y-120275811D01*
X130258580Y-120355000D01*
X130461530Y-120395369D01*
X130461534Y-120395370D01*
X130461535Y-120395370D01*
X130918466Y-120395370D01*
X130918467Y-120395369D01*
X131121420Y-120355000D01*
X131312598Y-120275811D01*
X131484655Y-120160847D01*
X131630977Y-120014525D01*
X131728315Y-119868848D01*
X131740589Y-119850479D01*
X131794201Y-119805674D01*
X131843691Y-119795370D01*
X132504112Y-119795370D01*
X132571151Y-119815055D01*
X132591793Y-119831689D01*
X133942793Y-121182689D01*
X133976278Y-121244012D01*
X133971294Y-121313704D01*
X133929422Y-121369637D01*
X133863958Y-121394054D01*
X133855112Y-121394370D01*
X131843691Y-121394370D01*
X131776652Y-121374685D01*
X131740589Y-121339261D01*
X131630977Y-121175214D01*
X131484657Y-121028894D01*
X131398626Y-120971411D01*
X131312598Y-120913929D01*
X131311487Y-120913469D01*
X131121420Y-120834740D01*
X131121412Y-120834738D01*
X130918469Y-120794370D01*
X130918465Y-120794370D01*
X130461535Y-120794370D01*
X130461530Y-120794370D01*
X130258587Y-120834738D01*
X130258579Y-120834740D01*
X130067403Y-120913928D01*
X129895342Y-121028894D01*
X129749024Y-121175212D01*
X129634057Y-121347273D01*
X129615137Y-121392953D01*
X129571296Y-121447356D01*
X129505002Y-121469421D01*
X129500576Y-121469500D01*
X124368556Y-121469500D01*
X124301517Y-121449815D01*
X124265454Y-121414390D01*
X124177142Y-121282222D01*
X124177136Y-121282214D01*
X124037785Y-121142863D01*
X124037781Y-121142860D01*
X123873920Y-121033371D01*
X123873907Y-121033364D01*
X123691839Y-120957950D01*
X123691829Y-120957947D01*
X123498543Y-120919500D01*
X123498541Y-120919500D01*
X122501459Y-120919500D01*
X122501457Y-120919500D01*
X122308170Y-120957947D01*
X122308160Y-120957950D01*
X122126092Y-121033364D01*
X122126079Y-121033371D01*
X121962218Y-121142860D01*
X121962214Y-121142863D01*
X121822863Y-121282214D01*
X121822860Y-121282218D01*
X121713371Y-121446079D01*
X121713364Y-121446092D01*
X121637950Y-121628160D01*
X121637947Y-121628170D01*
X121599500Y-121821456D01*
X121599500Y-121821459D01*
X121599500Y-122018541D01*
X121599500Y-122018543D01*
X121599499Y-122018543D01*
X121637947Y-122211829D01*
X121637950Y-122211839D01*
X121713364Y-122393907D01*
X121713371Y-122393920D01*
X121822860Y-122557781D01*
X121822863Y-122557785D01*
X121962214Y-122697136D01*
X121962218Y-122697139D01*
X122126079Y-122806628D01*
X122126092Y-122806635D01*
X122308160Y-122882049D01*
X122308165Y-122882051D01*
X122308169Y-122882051D01*
X122308170Y-122882052D01*
X122501456Y-122920500D01*
X122501459Y-122920500D01*
X123498543Y-122920500D01*
X123628582Y-122894632D01*
X123691835Y-122882051D01*
X123873914Y-122806632D01*
X124037782Y-122697139D01*
X124177139Y-122557782D01*
X124222591Y-122489758D01*
X124265454Y-122425610D01*
X124319066Y-122380804D01*
X124368556Y-122370500D01*
X129586510Y-122370500D01*
X129653549Y-122390185D01*
X129689610Y-122425607D01*
X129726792Y-122481254D01*
X129749024Y-122514527D01*
X129895342Y-122660845D01*
X129895345Y-122660847D01*
X130067402Y-122775811D01*
X130258580Y-122855000D01*
X130404751Y-122884075D01*
X130461530Y-122895369D01*
X130461534Y-122895370D01*
X130461535Y-122895370D01*
X130918466Y-122895370D01*
X130918467Y-122895369D01*
X131121420Y-122855000D01*
X131312598Y-122775811D01*
X131484655Y-122660847D01*
X131630977Y-122514525D01*
X131740589Y-122350479D01*
X131794201Y-122305674D01*
X131843691Y-122295370D01*
X133606905Y-122295370D01*
X133673944Y-122315055D01*
X133694586Y-122331689D01*
X134013181Y-122650284D01*
X134046666Y-122711607D01*
X134049500Y-122737965D01*
X134049500Y-127262035D01*
X134029815Y-127329074D01*
X134013181Y-127349716D01*
X131301396Y-130061500D01*
X131240073Y-130094985D01*
X131170381Y-130090001D01*
X131114448Y-130048129D01*
X131092097Y-129998009D01*
X131088867Y-129981769D01*
X131047260Y-129919500D01*
X131044552Y-129915447D01*
X130978230Y-129871132D01*
X130978229Y-129871131D01*
X130919752Y-129859500D01*
X130919748Y-129859500D01*
X129080252Y-129859500D01*
X129080247Y-129859500D01*
X129021770Y-129871131D01*
X129021769Y-129871132D01*
X128955447Y-129915447D01*
X128911132Y-129981769D01*
X128911131Y-129981770D01*
X128899500Y-130040247D01*
X128899500Y-131879752D01*
X128911131Y-131938229D01*
X128911132Y-131938230D01*
X128955447Y-132004552D01*
X129021769Y-132048867D01*
X129021770Y-132048868D01*
X129080247Y-132060499D01*
X129080250Y-132060500D01*
X129080252Y-132060500D01*
X130919750Y-132060500D01*
X130919751Y-132060499D01*
X130934568Y-132057552D01*
X130978229Y-132048868D01*
X130978229Y-132048867D01*
X130978231Y-132048867D01*
X131044552Y-132004552D01*
X131088867Y-131938231D01*
X131088867Y-131938229D01*
X131088868Y-131938229D01*
X131100499Y-131879752D01*
X131100500Y-131879750D01*
X131100500Y-131505328D01*
X131120185Y-131438289D01*
X131172989Y-131392534D01*
X131192410Y-131385552D01*
X131213887Y-131379799D01*
X131316614Y-131320489D01*
X134860489Y-127776614D01*
X134919799Y-127673887D01*
X134926666Y-127648258D01*
X134935839Y-127614025D01*
X134935839Y-127614023D01*
X134950500Y-127559309D01*
X134950500Y-122489758D01*
X134970185Y-122422719D01*
X135022989Y-122376964D01*
X135092147Y-122367020D01*
X135155703Y-122396045D01*
X135162181Y-122402077D01*
X135513181Y-122753077D01*
X135546666Y-122814400D01*
X135549500Y-122840758D01*
X135549500Y-129735500D01*
X135529815Y-129802539D01*
X135477011Y-129848294D01*
X135425500Y-129859500D01*
X135080247Y-129859500D01*
X135021770Y-129871131D01*
X135021769Y-129871132D01*
X134955447Y-129915447D01*
X134911132Y-129981769D01*
X134911131Y-129981770D01*
X134899500Y-130040247D01*
X134899500Y-131879752D01*
X134911131Y-131938229D01*
X134911132Y-131938230D01*
X134955447Y-132004552D01*
X135021769Y-132048867D01*
X135021770Y-132048868D01*
X135080247Y-132060499D01*
X135080250Y-132060500D01*
X135080252Y-132060500D01*
X136919750Y-132060500D01*
X136919751Y-132060499D01*
X136934568Y-132057552D01*
X136978229Y-132048868D01*
X136978229Y-132048867D01*
X136978231Y-132048867D01*
X137044552Y-132004552D01*
X137088867Y-131938231D01*
X137088867Y-131938229D01*
X137088868Y-131938229D01*
X137100499Y-131879752D01*
X137100500Y-131879750D01*
X137100500Y-130040249D01*
X137100499Y-130040247D01*
X137088868Y-129981770D01*
X137088867Y-129981769D01*
X137044552Y-129915447D01*
X136978230Y-129871132D01*
X136978229Y-129871131D01*
X136919752Y-129859500D01*
X136919748Y-129859500D01*
X136574500Y-129859500D01*
X136507461Y-129839815D01*
X136461706Y-129787011D01*
X136450500Y-129735500D01*
X136450500Y-122543486D01*
X136450500Y-122543484D01*
X136419799Y-122428907D01*
X136419799Y-122428906D01*
X136360489Y-122326179D01*
X133018691Y-118984381D01*
X132967327Y-118954726D01*
X132915965Y-118925071D01*
X132903857Y-118921827D01*
X132891750Y-118918583D01*
X132891747Y-118918582D01*
X132845133Y-118906092D01*
X132801386Y-118894370D01*
X132801385Y-118894370D01*
X131843691Y-118894370D01*
X131776652Y-118874685D01*
X131740589Y-118839261D01*
X131630977Y-118675214D01*
X131484657Y-118528894D01*
X131398626Y-118471411D01*
X131312598Y-118413929D01*
X131121420Y-118334740D01*
X131121412Y-118334738D01*
X130918469Y-118294370D01*
X130918465Y-118294370D01*
X130461535Y-118294370D01*
X130461530Y-118294370D01*
X130258587Y-118334738D01*
X130258579Y-118334740D01*
X130067403Y-118413928D01*
X129895342Y-118528894D01*
X129749024Y-118675212D01*
X129634057Y-118847274D01*
X129631707Y-118852950D01*
X129587868Y-118907354D01*
X129521574Y-118929421D01*
X129517145Y-118929500D01*
X124368556Y-118929500D01*
X124301517Y-118909815D01*
X124265454Y-118874390D01*
X124177142Y-118742222D01*
X124177136Y-118742214D01*
X124037785Y-118602863D01*
X124037781Y-118602860D01*
X123873920Y-118493371D01*
X123873907Y-118493364D01*
X123691839Y-118417950D01*
X123691829Y-118417947D01*
X123498543Y-118379500D01*
X123498541Y-118379500D01*
X122501459Y-118379500D01*
X122501457Y-118379500D01*
X122308170Y-118417947D01*
X122308160Y-118417950D01*
X122126092Y-118493364D01*
X122126079Y-118493371D01*
X121962218Y-118602860D01*
X121962214Y-118602863D01*
X121822863Y-118742214D01*
X121822860Y-118742218D01*
X121713371Y-118906079D01*
X121713364Y-118906092D01*
X121637950Y-119088160D01*
X121637947Y-119088170D01*
X121599500Y-119281456D01*
X121599500Y-119281459D01*
X121599500Y-119478541D01*
X121599500Y-119478543D01*
X121599499Y-119478543D01*
X116780500Y-119478543D01*
X116780500Y-119281456D01*
X116742052Y-119088170D01*
X116742051Y-119088169D01*
X116742051Y-119088165D01*
X116741144Y-119085975D01*
X116666635Y-118906092D01*
X116666628Y-118906079D01*
X116557139Y-118742218D01*
X116557136Y-118742214D01*
X116417785Y-118602863D01*
X116417781Y-118602860D01*
X116253920Y-118493371D01*
X116253907Y-118493364D01*
X116071839Y-118417950D01*
X116071829Y-118417947D01*
X115878543Y-118379500D01*
X115878541Y-118379500D01*
X114881459Y-118379500D01*
X114881457Y-118379500D01*
X114688170Y-118417947D01*
X114688160Y-118417950D01*
X114506092Y-118493364D01*
X114506079Y-118493371D01*
X114342218Y-118602860D01*
X114342214Y-118602863D01*
X114202863Y-118742214D01*
X114202857Y-118742222D01*
X114114546Y-118874390D01*
X114060934Y-118919196D01*
X114011444Y-118929500D01*
X109117965Y-118929500D01*
X109050926Y-118909815D01*
X109030284Y-118893181D01*
X108815946Y-118678843D01*
X108782461Y-118617520D01*
X108782010Y-118566971D01*
X108812451Y-118413928D01*
X108820500Y-118373465D01*
X108820500Y-118166535D01*
X108780130Y-117963580D01*
X108700941Y-117772402D01*
X108585977Y-117600345D01*
X108585975Y-117600342D01*
X108439657Y-117454024D01*
X108277402Y-117345610D01*
X108267598Y-117339059D01*
X108249805Y-117331689D01*
X108076420Y-117259870D01*
X108076412Y-117259868D01*
X107873469Y-117219500D01*
X107873465Y-117219500D01*
X107666535Y-117219500D01*
X107666530Y-117219500D01*
X107463587Y-117259868D01*
X107463579Y-117259870D01*
X107272403Y-117339058D01*
X107100342Y-117454024D01*
X106954024Y-117600342D01*
X106839058Y-117772403D01*
X106759870Y-117963579D01*
X106759868Y-117963587D01*
X106719500Y-118166530D01*
X106280499Y-118166530D01*
X106240130Y-117963580D01*
X106160941Y-117772402D01*
X106045977Y-117600345D01*
X106045975Y-117600342D01*
X105899657Y-117454024D01*
X105737402Y-117345610D01*
X105727598Y-117339059D01*
X105709805Y-117331689D01*
X105536420Y-117259870D01*
X105536412Y-117259868D01*
X105333469Y-117219500D01*
X105333465Y-117219500D01*
X105126535Y-117219500D01*
X105126530Y-117219500D01*
X104923587Y-117259868D01*
X104923579Y-117259870D01*
X104732403Y-117339058D01*
X104560342Y-117454024D01*
X104414024Y-117600342D01*
X104299058Y-117772403D01*
X104219870Y-117963579D01*
X104219868Y-117963587D01*
X104179500Y-118166530D01*
X102759220Y-118166530D01*
X102759181Y-118161368D01*
X102755446Y-117660845D01*
X102740264Y-115626530D01*
X104179500Y-115626530D01*
X104179500Y-115833469D01*
X104219868Y-116036412D01*
X104219870Y-116036420D01*
X104299058Y-116227596D01*
X104414024Y-116399657D01*
X104560342Y-116545975D01*
X104560345Y-116545977D01*
X104732402Y-116660941D01*
X104923580Y-116740130D01*
X105126530Y-116780499D01*
X105126534Y-116780500D01*
X105126535Y-116780500D01*
X105333466Y-116780500D01*
X105333467Y-116780499D01*
X105536420Y-116740130D01*
X105727598Y-116660941D01*
X105899655Y-116545977D01*
X106045977Y-116399655D01*
X106160941Y-116227598D01*
X106240130Y-116036420D01*
X106280500Y-115833465D01*
X106280500Y-115626535D01*
X106274090Y-115594313D01*
X106263537Y-115541254D01*
X106251352Y-115480000D01*
X106594638Y-115480000D01*
X107336988Y-115480000D01*
X107304075Y-115537007D01*
X107270000Y-115664174D01*
X107270000Y-115795826D01*
X107304075Y-115922993D01*
X107336988Y-115980000D01*
X106594638Y-115980000D01*
X106599548Y-116011002D01*
X106657914Y-116190637D01*
X106743670Y-116358940D01*
X106854685Y-116511741D01*
X106854689Y-116511746D01*
X106988253Y-116645310D01*
X106988258Y-116645314D01*
X107141059Y-116756329D01*
X107309362Y-116842085D01*
X107488997Y-116900451D01*
X107520000Y-116905362D01*
X107520000Y-116163012D01*
X107577007Y-116195925D01*
X107704174Y-116230000D01*
X107835826Y-116230000D01*
X107962993Y-116195925D01*
X108020000Y-116163012D01*
X108020000Y-116905361D01*
X108051002Y-116900451D01*
X108230637Y-116842085D01*
X108398940Y-116756329D01*
X108551741Y-116645314D01*
X108551746Y-116645310D01*
X108685310Y-116511746D01*
X108685314Y-116511741D01*
X108796329Y-116358940D01*
X108882085Y-116190637D01*
X108940451Y-116011002D01*
X108945362Y-115980000D01*
X108203012Y-115980000D01*
X108235925Y-115922993D01*
X108270000Y-115795826D01*
X108270000Y-115664174D01*
X108235925Y-115537007D01*
X108203012Y-115480000D01*
X108945362Y-115480000D01*
X108940451Y-115448997D01*
X108882777Y-115271491D01*
X108880782Y-115201650D01*
X108916863Y-115141817D01*
X108979564Y-115110989D01*
X109048978Y-115118954D01*
X109088389Y-115145492D01*
X111143387Y-117200490D01*
X111143389Y-117200491D01*
X111143393Y-117200494D01*
X111246107Y-117259795D01*
X111246114Y-117259799D01*
X111360691Y-117290500D01*
X114011444Y-117290500D01*
X114078483Y-117310185D01*
X114114546Y-117345610D01*
X114202857Y-117477777D01*
X114202863Y-117477785D01*
X114342214Y-117617136D01*
X114342218Y-117617139D01*
X114506079Y-117726628D01*
X114506092Y-117726635D01*
X114688160Y-117802049D01*
X114688165Y-117802051D01*
X114688169Y-117802051D01*
X114688170Y-117802052D01*
X114881456Y-117840500D01*
X114881459Y-117840500D01*
X115878543Y-117840500D01*
X116008582Y-117814632D01*
X116071835Y-117802051D01*
X116253914Y-117726632D01*
X116417782Y-117617139D01*
X116557139Y-117477782D01*
X116666632Y-117313914D01*
X116742051Y-117131835D01*
X116780500Y-116938543D01*
X121599499Y-116938543D01*
X121637947Y-117131829D01*
X121637950Y-117131839D01*
X121713364Y-117313907D01*
X121713371Y-117313920D01*
X121822860Y-117477781D01*
X121822863Y-117477785D01*
X121962214Y-117617136D01*
X121962218Y-117617139D01*
X122126079Y-117726628D01*
X122126092Y-117726635D01*
X122308160Y-117802049D01*
X122308165Y-117802051D01*
X122308169Y-117802051D01*
X122308170Y-117802052D01*
X122501456Y-117840500D01*
X122501459Y-117840500D01*
X123498543Y-117840500D01*
X123628582Y-117814632D01*
X123691835Y-117802051D01*
X123873914Y-117726632D01*
X124037782Y-117617139D01*
X124177139Y-117477782D01*
X124210143Y-117428387D01*
X124265454Y-117345610D01*
X124319066Y-117300804D01*
X124368556Y-117290500D01*
X129533056Y-117290500D01*
X129600095Y-117310185D01*
X129636157Y-117345608D01*
X129639412Y-117350479D01*
X129749024Y-117514527D01*
X129895342Y-117660845D01*
X129895345Y-117660847D01*
X130067402Y-117775811D01*
X130258580Y-117855000D01*
X130461530Y-117895369D01*
X130461534Y-117895370D01*
X130461535Y-117895370D01*
X130918466Y-117895370D01*
X130918467Y-117895369D01*
X131121420Y-117855000D01*
X131312598Y-117775811D01*
X131484655Y-117660847D01*
X131630977Y-117514525D01*
X131655528Y-117477782D01*
X131740589Y-117350479D01*
X131794201Y-117305674D01*
X131843691Y-117295370D01*
X134469463Y-117295370D01*
X134536502Y-117315055D01*
X134557144Y-117331689D01*
X137171375Y-119945920D01*
X137204860Y-120007243D01*
X137207694Y-120033601D01*
X137207694Y-121365388D01*
X137219325Y-121423865D01*
X137219326Y-121423866D01*
X137263641Y-121490188D01*
X137329963Y-121534503D01*
X137329964Y-121534504D01*
X137388441Y-121546135D01*
X137388444Y-121546136D01*
X137388446Y-121546136D01*
X139227944Y-121546136D01*
X139227945Y-121546135D01*
X139242762Y-121543188D01*
X139286423Y-121534504D01*
X139286423Y-121534503D01*
X139286425Y-121534503D01*
X139352746Y-121490188D01*
X139397061Y-121423867D01*
X139397061Y-121423865D01*
X139397062Y-121423865D01*
X139408693Y-121365388D01*
X139408694Y-121365386D01*
X139408694Y-119525885D01*
X139408693Y-119525883D01*
X139397062Y-119467406D01*
X139397061Y-119467405D01*
X139352746Y-119401083D01*
X139286424Y-119356768D01*
X139286423Y-119356767D01*
X139227946Y-119345136D01*
X139227942Y-119345136D01*
X137896159Y-119345136D01*
X137829120Y-119325451D01*
X137808478Y-119308817D01*
X134984044Y-116484383D01*
X134984042Y-116484381D01*
X134932678Y-116454726D01*
X134881316Y-116425071D01*
X134869208Y-116421827D01*
X134857101Y-116418583D01*
X134857098Y-116418582D01*
X134786468Y-116399657D01*
X134766737Y-116394370D01*
X134766736Y-116394370D01*
X131843691Y-116394370D01*
X131776652Y-116374685D01*
X131740589Y-116339261D01*
X131630977Y-116175214D01*
X131484657Y-116028894D01*
X131398626Y-115971411D01*
X131312598Y-115913929D01*
X131225730Y-115877947D01*
X131121420Y-115834740D01*
X131121412Y-115834738D01*
X130918469Y-115794370D01*
X130918465Y-115794370D01*
X130461535Y-115794370D01*
X130461530Y-115794370D01*
X130258587Y-115834738D01*
X130258579Y-115834740D01*
X130067403Y-115913928D01*
X129895342Y-116028894D01*
X129749022Y-116175214D01*
X129642665Y-116334391D01*
X129589053Y-116379196D01*
X129539563Y-116389500D01*
X124368556Y-116389500D01*
X124301517Y-116369815D01*
X124265454Y-116334390D01*
X124177142Y-116202222D01*
X124177136Y-116202214D01*
X124037785Y-116062863D01*
X124037781Y-116062860D01*
X123873920Y-115953371D01*
X123873907Y-115953364D01*
X123691839Y-115877950D01*
X123691829Y-115877947D01*
X123498543Y-115839500D01*
X123498541Y-115839500D01*
X122501459Y-115839500D01*
X122501457Y-115839500D01*
X122308170Y-115877947D01*
X122308160Y-115877950D01*
X122126092Y-115953364D01*
X122126079Y-115953371D01*
X121962218Y-116062860D01*
X121962214Y-116062863D01*
X121822863Y-116202214D01*
X121822860Y-116202218D01*
X121713371Y-116366079D01*
X121713364Y-116366092D01*
X121637950Y-116548160D01*
X121637947Y-116548170D01*
X121599500Y-116741456D01*
X121599500Y-116741459D01*
X121599500Y-116938541D01*
X121599500Y-116938543D01*
X121599499Y-116938543D01*
X116780500Y-116938543D01*
X116780500Y-116938541D01*
X116780500Y-116741459D01*
X116780500Y-116741456D01*
X116742052Y-116548170D01*
X116742051Y-116548169D01*
X116742051Y-116548165D01*
X116715631Y-116484381D01*
X116666635Y-116366092D01*
X116666628Y-116366079D01*
X116557139Y-116202218D01*
X116557136Y-116202214D01*
X116417785Y-116062863D01*
X116417781Y-116062860D01*
X116253920Y-115953371D01*
X116253907Y-115953364D01*
X116071839Y-115877950D01*
X116071829Y-115877947D01*
X115878543Y-115839500D01*
X115878541Y-115839500D01*
X114881459Y-115839500D01*
X114881457Y-115839500D01*
X114688170Y-115877947D01*
X114688160Y-115877950D01*
X114506092Y-115953364D01*
X114506079Y-115953371D01*
X114342218Y-116062860D01*
X114342214Y-116062863D01*
X114202863Y-116202214D01*
X114202857Y-116202222D01*
X114114546Y-116334390D01*
X114060934Y-116379196D01*
X114011444Y-116389500D01*
X111657965Y-116389500D01*
X111590926Y-116369815D01*
X111570284Y-116353181D01*
X108815946Y-113598843D01*
X108782461Y-113537520D01*
X108782010Y-113486971D01*
X108818732Y-113302353D01*
X108820500Y-113293465D01*
X108820500Y-113086535D01*
X108780130Y-112883580D01*
X108700941Y-112692402D01*
X108585977Y-112520345D01*
X108585975Y-112520342D01*
X108439657Y-112374024D01*
X108353626Y-112316541D01*
X108267598Y-112259059D01*
X108076420Y-112179870D01*
X108076412Y-112179868D01*
X107873469Y-112139500D01*
X107873465Y-112139500D01*
X107666535Y-112139500D01*
X107666530Y-112139500D01*
X107463587Y-112179868D01*
X107463579Y-112179870D01*
X107272403Y-112259058D01*
X107100342Y-112374024D01*
X106954024Y-112520342D01*
X106839058Y-112692403D01*
X106759870Y-112883579D01*
X106759868Y-112883587D01*
X106719500Y-113086530D01*
X106719500Y-113293469D01*
X106759868Y-113496412D01*
X106759870Y-113496420D01*
X106828544Y-113662214D01*
X106839059Y-113687598D01*
X106864384Y-113725500D01*
X106954024Y-113859657D01*
X107100342Y-114005975D01*
X107100345Y-114005977D01*
X107272402Y-114120941D01*
X107463580Y-114200130D01*
X107666530Y-114240499D01*
X107666534Y-114240500D01*
X107666535Y-114240500D01*
X107873466Y-114240500D01*
X107873467Y-114240499D01*
X107930490Y-114229156D01*
X108066971Y-114202010D01*
X108074877Y-114202717D01*
X108082316Y-114199943D01*
X108109178Y-114205786D01*
X108136563Y-114208237D01*
X108144572Y-114213486D01*
X108150589Y-114214795D01*
X108178843Y-114235946D01*
X108354507Y-114411610D01*
X108387992Y-114472933D01*
X108383008Y-114542625D01*
X108341136Y-114598558D01*
X108275672Y-114622975D01*
X108228509Y-114617222D01*
X108051004Y-114559549D01*
X108050995Y-114559547D01*
X108020000Y-114554637D01*
X108020000Y-115296988D01*
X107962993Y-115264075D01*
X107835826Y-115230000D01*
X107704174Y-115230000D01*
X107577007Y-115264075D01*
X107520000Y-115296988D01*
X107520000Y-114554637D01*
X107519999Y-114554637D01*
X107489004Y-114559547D01*
X107488995Y-114559549D01*
X107309364Y-114617913D01*
X107141059Y-114703670D01*
X106988258Y-114814685D01*
X106988253Y-114814689D01*
X106854689Y-114948253D01*
X106854685Y-114948258D01*
X106743670Y-115101059D01*
X106657914Y-115269362D01*
X106599548Y-115448997D01*
X106594638Y-115480000D01*
X106251352Y-115480000D01*
X106249221Y-115469286D01*
X106240130Y-115423580D01*
X106160941Y-115232402D01*
X106045977Y-115060345D01*
X106045975Y-115060342D01*
X105899657Y-114914024D01*
X105737402Y-114805610D01*
X105727598Y-114799059D01*
X105666907Y-114773920D01*
X105536420Y-114719870D01*
X105536412Y-114719868D01*
X105333469Y-114679500D01*
X105333465Y-114679500D01*
X105126535Y-114679500D01*
X105126530Y-114679500D01*
X104923587Y-114719868D01*
X104923579Y-114719870D01*
X104732403Y-114799058D01*
X104560342Y-114914024D01*
X104414024Y-115060342D01*
X104299058Y-115232403D01*
X104219870Y-115423579D01*
X104219868Y-115423587D01*
X104179500Y-115626530D01*
X102740264Y-115626530D01*
X102721309Y-113086530D01*
X104179500Y-113086530D01*
X104179500Y-113293469D01*
X104219868Y-113496412D01*
X104219870Y-113496420D01*
X104288544Y-113662214D01*
X104299059Y-113687598D01*
X104324384Y-113725500D01*
X104414024Y-113859657D01*
X104560342Y-114005975D01*
X104560345Y-114005977D01*
X104732402Y-114120941D01*
X104923580Y-114200130D01*
X105126530Y-114240499D01*
X105126534Y-114240500D01*
X105126535Y-114240500D01*
X105333466Y-114240500D01*
X105333467Y-114240499D01*
X105536420Y-114200130D01*
X105727598Y-114120941D01*
X105899655Y-114005977D01*
X106045977Y-113859655D01*
X106160941Y-113687598D01*
X106240130Y-113496420D01*
X106280500Y-113293465D01*
X106280500Y-113086535D01*
X106240130Y-112883580D01*
X106160941Y-112692402D01*
X106045977Y-112520345D01*
X106045975Y-112520342D01*
X105899657Y-112374024D01*
X105813626Y-112316541D01*
X105727598Y-112259059D01*
X105536420Y-112179870D01*
X105536412Y-112179868D01*
X105333469Y-112139500D01*
X105333465Y-112139500D01*
X105126535Y-112139500D01*
X105126530Y-112139500D01*
X104923587Y-112179868D01*
X104923579Y-112179870D01*
X104732403Y-112259058D01*
X104560342Y-112374024D01*
X104414024Y-112520342D01*
X104299058Y-112692403D01*
X104219870Y-112883579D01*
X104219868Y-112883587D01*
X104179500Y-113086530D01*
X102721309Y-113086530D01*
X102702354Y-110546530D01*
X104179500Y-110546530D01*
X104179500Y-110753469D01*
X104219868Y-110956412D01*
X104219870Y-110956420D01*
X104299058Y-111147596D01*
X104414024Y-111319657D01*
X104560342Y-111465975D01*
X104560345Y-111465977D01*
X104732402Y-111580941D01*
X104923580Y-111660130D01*
X105126530Y-111700499D01*
X105126534Y-111700500D01*
X105126535Y-111700500D01*
X105333466Y-111700500D01*
X105333467Y-111700499D01*
X105536420Y-111660130D01*
X105727598Y-111580941D01*
X105899655Y-111465977D01*
X106045977Y-111319655D01*
X106160941Y-111147598D01*
X106240130Y-110956420D01*
X106280500Y-110753465D01*
X106280500Y-110546535D01*
X106280499Y-110546530D01*
X106719500Y-110546530D01*
X106719500Y-110753469D01*
X106759868Y-110956412D01*
X106759870Y-110956420D01*
X106839058Y-111147596D01*
X106954024Y-111319657D01*
X107100342Y-111465975D01*
X107100345Y-111465977D01*
X107272402Y-111580941D01*
X107463580Y-111660130D01*
X107666530Y-111700499D01*
X107666534Y-111700500D01*
X107666535Y-111700500D01*
X107873466Y-111700500D01*
X107873467Y-111700499D01*
X107930490Y-111689156D01*
X108066971Y-111662010D01*
X108136563Y-111668237D01*
X108178843Y-111695946D01*
X111143387Y-114660490D01*
X111220890Y-114705236D01*
X111246114Y-114719799D01*
X111360691Y-114750500D01*
X113855500Y-114750500D01*
X113922539Y-114770185D01*
X113968294Y-114822989D01*
X113979500Y-114874500D01*
X113979500Y-114904269D01*
X113982353Y-114934699D01*
X113982353Y-114934701D01*
X114026318Y-115060342D01*
X114027207Y-115062882D01*
X114107850Y-115172150D01*
X114217118Y-115252793D01*
X114243576Y-115262051D01*
X114345299Y-115297646D01*
X114375730Y-115300500D01*
X114375734Y-115300500D01*
X116384270Y-115300500D01*
X116414699Y-115297646D01*
X116414701Y-115297646D01*
X116502226Y-115267019D01*
X116542882Y-115252793D01*
X116652150Y-115172150D01*
X116732793Y-115062882D01*
X116772902Y-114948258D01*
X116777646Y-114934701D01*
X116777646Y-114934699D01*
X116780500Y-114904269D01*
X116780500Y-114398543D01*
X121599499Y-114398543D01*
X121637947Y-114591829D01*
X121637950Y-114591839D01*
X121713364Y-114773907D01*
X121713371Y-114773920D01*
X121822860Y-114937781D01*
X121822863Y-114937785D01*
X121962214Y-115077136D01*
X121962218Y-115077139D01*
X122126079Y-115186628D01*
X122126092Y-115186635D01*
X122285814Y-115252793D01*
X122308165Y-115262051D01*
X122308169Y-115262051D01*
X122308170Y-115262052D01*
X122501456Y-115300500D01*
X122501459Y-115300500D01*
X123498543Y-115300500D01*
X123644377Y-115271491D01*
X123691835Y-115262051D01*
X123873914Y-115186632D01*
X124037782Y-115077139D01*
X124177139Y-114937782D01*
X124213372Y-114883556D01*
X124265454Y-114805610D01*
X124319066Y-114760804D01*
X124368556Y-114750500D01*
X129390500Y-114750500D01*
X129457539Y-114770185D01*
X129503294Y-114822989D01*
X129514500Y-114874500D01*
X129514500Y-114999139D01*
X129517353Y-115029569D01*
X129517353Y-115029571D01*
X129556631Y-115141817D01*
X129562207Y-115157752D01*
X129642850Y-115267020D01*
X129752118Y-115347663D01*
X129794845Y-115362614D01*
X129880299Y-115392516D01*
X129910730Y-115395370D01*
X129910734Y-115395370D01*
X131469270Y-115395370D01*
X131499699Y-115392516D01*
X131499701Y-115392516D01*
X131563790Y-115370089D01*
X131627882Y-115347663D01*
X131737150Y-115267020D01*
X131817793Y-115157752D01*
X131849253Y-115067845D01*
X131862646Y-115029571D01*
X131862646Y-115029569D01*
X131865500Y-114999139D01*
X131865500Y-114919370D01*
X131885185Y-114852331D01*
X131937989Y-114806576D01*
X131989500Y-114795370D01*
X137083694Y-114795370D01*
X137150733Y-114815055D01*
X137196488Y-114867859D01*
X137207694Y-114919370D01*
X137207694Y-115410809D01*
X137219325Y-115469286D01*
X137219326Y-115469287D01*
X137263641Y-115535609D01*
X137329963Y-115579924D01*
X137329964Y-115579925D01*
X137388441Y-115591556D01*
X137388444Y-115591557D01*
X137388446Y-115591557D01*
X139227944Y-115591557D01*
X139227945Y-115591556D01*
X139242762Y-115588609D01*
X139286423Y-115579925D01*
X139286423Y-115579924D01*
X139286425Y-115579924D01*
X139352746Y-115535609D01*
X139397061Y-115469288D01*
X139397061Y-115469286D01*
X139397062Y-115469286D01*
X139405746Y-115425625D01*
X139408694Y-115410805D01*
X139408694Y-114404446D01*
X139747694Y-114404446D01*
X139747694Y-114577668D01*
X139751003Y-114598558D01*
X139774791Y-114748754D01*
X139774791Y-114748756D01*
X139774792Y-114748758D01*
X139828321Y-114913502D01*
X139906962Y-115067845D01*
X140008780Y-115207985D01*
X140131266Y-115330471D01*
X140271406Y-115432289D01*
X140425749Y-115510930D01*
X140590493Y-115564459D01*
X140761583Y-115591557D01*
X140761584Y-115591557D01*
X140934804Y-115591557D01*
X140934805Y-115591557D01*
X141105895Y-115564459D01*
X141168425Y-115544140D01*
X141238264Y-115542144D01*
X141294424Y-115574390D01*
X142436888Y-116716854D01*
X142470373Y-116778177D01*
X142473207Y-116804535D01*
X142473207Y-137806933D01*
X142464562Y-137836373D01*
X142458039Y-137866360D01*
X142454284Y-137871375D01*
X142453522Y-137873972D01*
X142436888Y-137894614D01*
X142327662Y-138003840D01*
X142266339Y-138037325D01*
X142239981Y-138040159D01*
X141623677Y-138040159D01*
X141593247Y-138043012D01*
X141593245Y-138043012D01*
X141465066Y-138087865D01*
X141465064Y-138087866D01*
X141355797Y-138168509D01*
X141275154Y-138277776D01*
X141275153Y-138277778D01*
X141230300Y-138405957D01*
X141230300Y-138405959D01*
X141227447Y-138436389D01*
X141227447Y-139244928D01*
X141230300Y-139275358D01*
X141230300Y-139275360D01*
X141275153Y-139403539D01*
X141275154Y-139403541D01*
X141355797Y-139512809D01*
X141465065Y-139593452D01*
X141484147Y-139600129D01*
X141593246Y-139638305D01*
X141623677Y-139641159D01*
X141623681Y-139641159D01*
X142632217Y-139641159D01*
X142662646Y-139638305D01*
X142662648Y-139638305D01*
X142726737Y-139615878D01*
X142790829Y-139593452D01*
X142900097Y-139512809D01*
X142980740Y-139403541D01*
X143003166Y-139339449D01*
X143025593Y-139275360D01*
X143025593Y-139275358D01*
X143028447Y-139244928D01*
X143028447Y-138628624D01*
X143048132Y-138561585D01*
X143064766Y-138540943D01*
X143124341Y-138481368D01*
X143284197Y-138321513D01*
X143343506Y-138218785D01*
X143356977Y-138168509D01*
X143374207Y-138104208D01*
X143374207Y-116507261D01*
X143343506Y-116392684D01*
X143341668Y-116389500D01*
X143284197Y-116289956D01*
X141931526Y-114937286D01*
X141898042Y-114875964D01*
X141901277Y-114811288D01*
X141921596Y-114748758D01*
X141948694Y-114577668D01*
X141948694Y-114404446D01*
X141921596Y-114233356D01*
X141868067Y-114068612D01*
X141789426Y-113914269D01*
X141687608Y-113774129D01*
X141565122Y-113651643D01*
X141424982Y-113549825D01*
X141270639Y-113471184D01*
X141105895Y-113417655D01*
X141105893Y-113417654D01*
X141105892Y-113417654D01*
X140974465Y-113396838D01*
X140934805Y-113390557D01*
X140761583Y-113390557D01*
X140721922Y-113396838D01*
X140590496Y-113417654D01*
X140425746Y-113471185D01*
X140271405Y-113549825D01*
X140203939Y-113598843D01*
X140131266Y-113651643D01*
X140131264Y-113651645D01*
X140131263Y-113651645D01*
X140008782Y-113774126D01*
X140008782Y-113774127D01*
X140008780Y-113774129D01*
X139980407Y-113813181D01*
X139906962Y-113914268D01*
X139828322Y-114068609D01*
X139774791Y-114233359D01*
X139748629Y-114398541D01*
X139747694Y-114404446D01*
X139408694Y-114404446D01*
X139408694Y-113571309D01*
X139408694Y-113571306D01*
X139408693Y-113571304D01*
X139397062Y-113512827D01*
X139397061Y-113512826D01*
X139352746Y-113446504D01*
X139286424Y-113402189D01*
X139286423Y-113402188D01*
X139227946Y-113390557D01*
X139227942Y-113390557D01*
X137388446Y-113390557D01*
X137388441Y-113390557D01*
X137329964Y-113402188D01*
X137329963Y-113402189D01*
X137263641Y-113446504D01*
X137219326Y-113512826D01*
X137219325Y-113512827D01*
X137207694Y-113571304D01*
X137207694Y-113770370D01*
X137188009Y-113837409D01*
X137135205Y-113883164D01*
X137083694Y-113894370D01*
X131989500Y-113894370D01*
X131922461Y-113874685D01*
X131876706Y-113821881D01*
X131865500Y-113770370D01*
X131865500Y-113690600D01*
X131862646Y-113660170D01*
X131862646Y-113660168D01*
X131824034Y-113549825D01*
X131817793Y-113531988D01*
X131737150Y-113422720D01*
X131627882Y-113342077D01*
X131627880Y-113342076D01*
X131499700Y-113297223D01*
X131469270Y-113294370D01*
X131469266Y-113294370D01*
X129910734Y-113294370D01*
X129910730Y-113294370D01*
X129880300Y-113297223D01*
X129880298Y-113297223D01*
X129752119Y-113342076D01*
X129752117Y-113342077D01*
X129642850Y-113422720D01*
X129562207Y-113531987D01*
X129562206Y-113531989D01*
X129517353Y-113660168D01*
X129517353Y-113660170D01*
X129514500Y-113690600D01*
X129514500Y-113725500D01*
X129494815Y-113792539D01*
X129442011Y-113838294D01*
X129390500Y-113849500D01*
X124368556Y-113849500D01*
X124301517Y-113829815D01*
X124265454Y-113794390D01*
X124177142Y-113662222D01*
X124177136Y-113662214D01*
X124037785Y-113522863D01*
X124037781Y-113522860D01*
X123873920Y-113413371D01*
X123873907Y-113413364D01*
X123691839Y-113337950D01*
X123691829Y-113337947D01*
X123498543Y-113299500D01*
X123498541Y-113299500D01*
X122501459Y-113299500D01*
X122501457Y-113299500D01*
X122308170Y-113337947D01*
X122308160Y-113337950D01*
X122126092Y-113413364D01*
X122126079Y-113413371D01*
X121962218Y-113522860D01*
X121962214Y-113522863D01*
X121822863Y-113662214D01*
X121822860Y-113662218D01*
X121713371Y-113826079D01*
X121713364Y-113826092D01*
X121637950Y-114008160D01*
X121637947Y-114008170D01*
X121599500Y-114201456D01*
X121599500Y-114201459D01*
X121599500Y-114398541D01*
X121599500Y-114398543D01*
X121599499Y-114398543D01*
X116780500Y-114398543D01*
X116780500Y-113695730D01*
X116777646Y-113665300D01*
X116777646Y-113665298D01*
X116735032Y-113543518D01*
X116732793Y-113537118D01*
X116652150Y-113427850D01*
X116542882Y-113347207D01*
X116542880Y-113347206D01*
X116414700Y-113302353D01*
X116384270Y-113299500D01*
X116384266Y-113299500D01*
X114375734Y-113299500D01*
X114375730Y-113299500D01*
X114345300Y-113302353D01*
X114345298Y-113302353D01*
X114217119Y-113347206D01*
X114217117Y-113347207D01*
X114107850Y-113427850D01*
X114027207Y-113537117D01*
X114027206Y-113537119D01*
X113982353Y-113665298D01*
X113982353Y-113665300D01*
X113979500Y-113695730D01*
X113979500Y-113725500D01*
X113959815Y-113792539D01*
X113907011Y-113838294D01*
X113855500Y-113849500D01*
X111657965Y-113849500D01*
X111590926Y-113829815D01*
X111570284Y-113813181D01*
X108815946Y-111058843D01*
X108782461Y-110997520D01*
X108782010Y-110946971D01*
X108820499Y-110753469D01*
X108820500Y-110753466D01*
X108820500Y-110546534D01*
X108820499Y-110546530D01*
X108780131Y-110343587D01*
X108780130Y-110343580D01*
X108700941Y-110152402D01*
X108585977Y-109980345D01*
X108585975Y-109980342D01*
X108439657Y-109834024D01*
X108353626Y-109776541D01*
X108267598Y-109719059D01*
X108076420Y-109639870D01*
X108076412Y-109639868D01*
X107873469Y-109599500D01*
X107873465Y-109599500D01*
X107666535Y-109599500D01*
X107666530Y-109599500D01*
X107463587Y-109639868D01*
X107463579Y-109639870D01*
X107272403Y-109719058D01*
X107100342Y-109834024D01*
X106954024Y-109980342D01*
X106839058Y-110152403D01*
X106759870Y-110343579D01*
X106759868Y-110343587D01*
X106719500Y-110546530D01*
X106280499Y-110546530D01*
X106240130Y-110343580D01*
X106160941Y-110152402D01*
X106045977Y-109980345D01*
X106045975Y-109980342D01*
X105899657Y-109834024D01*
X105813626Y-109776541D01*
X105727598Y-109719059D01*
X105536420Y-109639870D01*
X105536412Y-109639868D01*
X105333469Y-109599500D01*
X105333465Y-109599500D01*
X105126535Y-109599500D01*
X105126530Y-109599500D01*
X104923587Y-109639868D01*
X104923579Y-109639870D01*
X104732403Y-109719058D01*
X104560342Y-109834024D01*
X104414024Y-109980342D01*
X104299058Y-110152403D01*
X104219870Y-110343579D01*
X104219868Y-110343587D01*
X104179500Y-110546530D01*
X102702354Y-110546530D01*
X102683399Y-108006530D01*
X104179500Y-108006530D01*
X104179500Y-108213469D01*
X104219868Y-108416412D01*
X104219870Y-108416420D01*
X104299058Y-108607596D01*
X104414024Y-108779657D01*
X104560342Y-108925975D01*
X104560345Y-108925977D01*
X104732402Y-109040941D01*
X104923580Y-109120130D01*
X105126530Y-109160499D01*
X105126534Y-109160500D01*
X105126535Y-109160500D01*
X105333466Y-109160500D01*
X105333467Y-109160499D01*
X105536420Y-109120130D01*
X105727598Y-109040941D01*
X105899655Y-108925977D01*
X106045977Y-108779655D01*
X106160941Y-108607598D01*
X106240130Y-108416420D01*
X106280500Y-108213465D01*
X106280500Y-108006535D01*
X106251353Y-107860000D01*
X106594638Y-107860000D01*
X107336988Y-107860000D01*
X107304075Y-107917007D01*
X107270000Y-108044174D01*
X107270000Y-108175826D01*
X107304075Y-108302993D01*
X107336988Y-108360000D01*
X106594638Y-108360000D01*
X106599548Y-108391002D01*
X106657914Y-108570637D01*
X106743670Y-108738940D01*
X106854685Y-108891741D01*
X106854689Y-108891746D01*
X106988253Y-109025310D01*
X106988258Y-109025314D01*
X107141059Y-109136329D01*
X107309362Y-109222085D01*
X107488997Y-109280451D01*
X107520000Y-109285362D01*
X107520000Y-108543012D01*
X107577007Y-108575925D01*
X107704174Y-108610000D01*
X107835826Y-108610000D01*
X107962993Y-108575925D01*
X108020000Y-108543012D01*
X108020000Y-109285361D01*
X108051002Y-109280451D01*
X108230637Y-109222085D01*
X108398940Y-109136329D01*
X108551741Y-109025314D01*
X108551746Y-109025310D01*
X108685310Y-108891746D01*
X108685314Y-108891741D01*
X108796329Y-108738940D01*
X108882085Y-108570637D01*
X108940451Y-108391002D01*
X108945362Y-108360000D01*
X108203012Y-108360000D01*
X108235925Y-108302993D01*
X108270000Y-108175826D01*
X108270000Y-108044174D01*
X108235925Y-107917007D01*
X108203012Y-107860000D01*
X108945362Y-107860000D01*
X108940451Y-107828997D01*
X108882085Y-107649362D01*
X108796329Y-107481059D01*
X108685314Y-107328258D01*
X108685310Y-107328253D01*
X108551746Y-107194689D01*
X108551741Y-107194685D01*
X108398940Y-107083670D01*
X108230635Y-106997913D01*
X108051004Y-106939549D01*
X108050995Y-106939547D01*
X108020000Y-106934637D01*
X108020000Y-107676988D01*
X107962993Y-107644075D01*
X107835826Y-107610000D01*
X107704174Y-107610000D01*
X107577007Y-107644075D01*
X107520000Y-107676988D01*
X107520000Y-106934637D01*
X107519999Y-106934637D01*
X107489004Y-106939547D01*
X107488995Y-106939549D01*
X107309364Y-106997913D01*
X107141059Y-107083670D01*
X106988258Y-107194685D01*
X106988253Y-107194689D01*
X106854689Y-107328253D01*
X106854685Y-107328258D01*
X106743670Y-107481059D01*
X106657914Y-107649362D01*
X106599548Y-107828997D01*
X106594638Y-107860000D01*
X106251353Y-107860000D01*
X106240130Y-107803580D01*
X106160941Y-107612402D01*
X106045977Y-107440345D01*
X106045975Y-107440342D01*
X105899657Y-107294024D01*
X105750984Y-107194685D01*
X105727598Y-107179059D01*
X105536420Y-107099870D01*
X105536412Y-107099868D01*
X105333469Y-107059500D01*
X105333465Y-107059500D01*
X105126535Y-107059500D01*
X105126530Y-107059500D01*
X104923587Y-107099868D01*
X104923579Y-107099870D01*
X104732403Y-107179058D01*
X104560342Y-107294024D01*
X104414024Y-107440342D01*
X104299058Y-107612403D01*
X104219870Y-107803579D01*
X104219868Y-107803587D01*
X104179500Y-108006530D01*
X102683399Y-108006530D01*
X102670213Y-106239655D01*
X102664444Y-105466530D01*
X104179500Y-105466530D01*
X104179500Y-105673469D01*
X104219868Y-105876412D01*
X104219870Y-105876420D01*
X104299058Y-106067596D01*
X104414024Y-106239657D01*
X104560342Y-106385975D01*
X104560345Y-106385977D01*
X104732402Y-106500941D01*
X104923580Y-106580130D01*
X105126530Y-106620499D01*
X105126534Y-106620500D01*
X105126535Y-106620500D01*
X105333466Y-106620500D01*
X105333467Y-106620499D01*
X105536420Y-106580130D01*
X105727598Y-106500941D01*
X105899655Y-106385977D01*
X106045977Y-106239655D01*
X106160941Y-106067598D01*
X106240130Y-105876420D01*
X106280500Y-105673465D01*
X106280500Y-105466535D01*
X106280499Y-105466530D01*
X106719500Y-105466530D01*
X106719500Y-105673469D01*
X106759868Y-105876412D01*
X106759870Y-105876420D01*
X106839058Y-106067596D01*
X106954024Y-106239657D01*
X107100342Y-106385975D01*
X107100345Y-106385977D01*
X107272402Y-106500941D01*
X107463580Y-106580130D01*
X107666530Y-106620499D01*
X107666534Y-106620500D01*
X107666535Y-106620500D01*
X107873466Y-106620500D01*
X107873467Y-106620499D01*
X108076420Y-106580130D01*
X108267598Y-106500941D01*
X108439655Y-106385977D01*
X108585977Y-106239655D01*
X108700941Y-106067598D01*
X108780130Y-105876420D01*
X108820500Y-105673465D01*
X108820500Y-105466535D01*
X108780130Y-105263580D01*
X108700941Y-105072402D01*
X108585977Y-104900345D01*
X108585975Y-104900342D01*
X108563679Y-104878046D01*
X114444279Y-104878046D01*
X114459720Y-104995350D01*
X114459722Y-104995355D01*
X114520177Y-105141307D01*
X114616353Y-105266646D01*
X114741691Y-105362822D01*
X114887643Y-105423276D01*
X114887647Y-105423277D01*
X115004955Y-105438721D01*
X115131777Y-105438721D01*
X115631778Y-105438721D01*
X115758602Y-105438721D01*
X115875906Y-105423279D01*
X115875911Y-105423277D01*
X116021863Y-105362822D01*
X116147202Y-105266646D01*
X116243378Y-105141308D01*
X116303832Y-104995356D01*
X116303833Y-104995352D01*
X116319277Y-104878052D01*
X116319278Y-104878038D01*
X116319278Y-104613722D01*
X115631778Y-104613722D01*
X115631778Y-105438721D01*
X115131777Y-105438721D01*
X115131778Y-105438720D01*
X115131778Y-104613722D01*
X114444279Y-104613722D01*
X114444279Y-104878046D01*
X108563679Y-104878046D01*
X108439657Y-104754024D01*
X108382190Y-104715626D01*
X108267598Y-104639059D01*
X108267599Y-104639059D01*
X108267597Y-104639058D01*
X108076420Y-104559870D01*
X108076412Y-104559868D01*
X107873469Y-104519500D01*
X107873465Y-104519500D01*
X107666535Y-104519500D01*
X107666530Y-104519500D01*
X107463587Y-104559868D01*
X107463579Y-104559870D01*
X107272403Y-104639058D01*
X107100342Y-104754024D01*
X106954024Y-104900342D01*
X106839058Y-105072403D01*
X106759870Y-105263579D01*
X106759868Y-105263587D01*
X106719500Y-105466530D01*
X106280499Y-105466530D01*
X106240130Y-105263580D01*
X106160941Y-105072402D01*
X106045977Y-104900345D01*
X106045975Y-104900342D01*
X105899657Y-104754024D01*
X105789604Y-104680490D01*
X105727598Y-104639059D01*
X105666429Y-104613722D01*
X105536420Y-104559870D01*
X105536412Y-104559868D01*
X105333469Y-104519500D01*
X105333465Y-104519500D01*
X105126535Y-104519500D01*
X105126530Y-104519500D01*
X104923587Y-104559868D01*
X104923579Y-104559870D01*
X104732403Y-104639058D01*
X104560342Y-104754024D01*
X104414024Y-104900342D01*
X104299058Y-105072403D01*
X104219870Y-105263579D01*
X104219868Y-105263587D01*
X104179500Y-105466530D01*
X102664444Y-105466530D01*
X102664405Y-105461368D01*
X102653919Y-104056329D01*
X102644394Y-102780000D01*
X104054638Y-102780000D01*
X104796988Y-102780000D01*
X104764075Y-102837007D01*
X104730000Y-102964174D01*
X104730000Y-103095826D01*
X104764075Y-103222993D01*
X104796988Y-103280000D01*
X104054638Y-103280000D01*
X104059548Y-103311002D01*
X104117914Y-103490637D01*
X104203670Y-103658940D01*
X104314685Y-103811741D01*
X104314689Y-103811746D01*
X104448253Y-103945310D01*
X104448258Y-103945314D01*
X104601059Y-104056329D01*
X104769362Y-104142085D01*
X104948997Y-104200451D01*
X104980000Y-104205362D01*
X104980000Y-103463012D01*
X105037007Y-103495925D01*
X105164174Y-103530000D01*
X105295826Y-103530000D01*
X105422993Y-103495925D01*
X105480000Y-103463012D01*
X105480000Y-104205361D01*
X105511002Y-104200451D01*
X105690637Y-104142085D01*
X105858940Y-104056329D01*
X106011741Y-103945314D01*
X106011746Y-103945310D01*
X106145310Y-103811746D01*
X106145314Y-103811741D01*
X106256329Y-103658940D01*
X106342085Y-103490637D01*
X106400451Y-103311002D01*
X106405362Y-103280000D01*
X105663012Y-103280000D01*
X105695925Y-103222993D01*
X105730000Y-103095826D01*
X105730000Y-102964174D01*
X105719913Y-102926530D01*
X106719500Y-102926530D01*
X106719500Y-103133469D01*
X106759868Y-103336412D01*
X106759870Y-103336420D01*
X106839058Y-103527596D01*
X106954024Y-103699657D01*
X107100342Y-103845975D01*
X107100345Y-103845977D01*
X107272402Y-103960941D01*
X107463580Y-104040130D01*
X107666530Y-104080499D01*
X107666534Y-104080500D01*
X107666535Y-104080500D01*
X107873466Y-104080500D01*
X107873467Y-104080499D01*
X108076420Y-104040130D01*
X108267598Y-103960941D01*
X108434546Y-103849391D01*
X114444278Y-103849391D01*
X114444278Y-104113722D01*
X115131778Y-104113722D01*
X115631778Y-104113722D01*
X116319277Y-104113722D01*
X116319277Y-103849397D01*
X116303835Y-103732093D01*
X116303833Y-103732088D01*
X116243378Y-103586136D01*
X116147202Y-103460797D01*
X116021864Y-103364621D01*
X115875912Y-103304167D01*
X115875908Y-103304166D01*
X115758608Y-103288722D01*
X115631778Y-103288722D01*
X115631778Y-104113722D01*
X115131778Y-104113722D01*
X115131778Y-103288722D01*
X115004954Y-103288722D01*
X114887649Y-103304164D01*
X114887644Y-103304166D01*
X114741692Y-103364621D01*
X114616353Y-103460797D01*
X114520177Y-103586135D01*
X114459723Y-103732087D01*
X114459722Y-103732091D01*
X114444278Y-103849391D01*
X108434546Y-103849391D01*
X108439655Y-103845977D01*
X108481612Y-103804020D01*
X108527974Y-103757659D01*
X108585974Y-103699658D01*
X108585975Y-103699657D01*
X108585977Y-103699655D01*
X108700941Y-103527598D01*
X108780130Y-103336420D01*
X108820500Y-103133465D01*
X108820500Y-102926535D01*
X108780130Y-102723580D01*
X108700941Y-102532402D01*
X108585977Y-102360345D01*
X108585975Y-102360342D01*
X108439657Y-102214024D01*
X108290984Y-102114685D01*
X108267598Y-102099059D01*
X108076420Y-102019870D01*
X108076412Y-102019868D01*
X107873469Y-101979500D01*
X107873465Y-101979500D01*
X107666535Y-101979500D01*
X107666530Y-101979500D01*
X107463587Y-102019868D01*
X107463579Y-102019870D01*
X107272403Y-102099058D01*
X107100342Y-102214024D01*
X106954024Y-102360342D01*
X106839058Y-102532403D01*
X106759870Y-102723579D01*
X106759868Y-102723587D01*
X106719500Y-102926530D01*
X105719913Y-102926530D01*
X105695925Y-102837007D01*
X105663012Y-102780000D01*
X106405362Y-102780000D01*
X106400451Y-102748997D01*
X106342085Y-102569362D01*
X106256329Y-102401059D01*
X106145314Y-102248258D01*
X106145310Y-102248253D01*
X106011746Y-102114689D01*
X106011741Y-102114685D01*
X105858940Y-102003670D01*
X105690635Y-101917913D01*
X105511004Y-101859549D01*
X105510995Y-101859547D01*
X105480000Y-101854637D01*
X105480000Y-102596988D01*
X105422993Y-102564075D01*
X105295826Y-102530000D01*
X105164174Y-102530000D01*
X105037007Y-102564075D01*
X104980000Y-102596988D01*
X104980000Y-101854637D01*
X104979999Y-101854637D01*
X104949004Y-101859547D01*
X104948995Y-101859549D01*
X104769364Y-101917913D01*
X104601059Y-102003670D01*
X104448258Y-102114685D01*
X104448253Y-102114689D01*
X104314689Y-102248253D01*
X104314685Y-102248258D01*
X104203670Y-102401059D01*
X104117914Y-102569362D01*
X104059548Y-102748997D01*
X104054638Y-102780000D01*
X102644394Y-102780000D01*
X102626532Y-100386530D01*
X104179500Y-100386530D01*
X104179500Y-100593469D01*
X104219868Y-100796412D01*
X104219870Y-100796420D01*
X104299059Y-100987598D01*
X104310196Y-101004266D01*
X104414024Y-101159657D01*
X104560342Y-101305975D01*
X104560345Y-101305977D01*
X104732402Y-101420941D01*
X104923580Y-101500130D01*
X105126530Y-101540499D01*
X105126534Y-101540500D01*
X105126535Y-101540500D01*
X105333466Y-101540500D01*
X105333467Y-101540499D01*
X105536420Y-101500130D01*
X105727598Y-101420941D01*
X105899655Y-101305977D01*
X106045977Y-101159655D01*
X106160941Y-100987598D01*
X106240130Y-100796420D01*
X106280500Y-100593465D01*
X106280500Y-100386535D01*
X106280499Y-100386530D01*
X106719500Y-100386530D01*
X106719500Y-100593469D01*
X106759868Y-100796412D01*
X106759870Y-100796420D01*
X106839059Y-100987598D01*
X106850196Y-101004266D01*
X106954024Y-101159657D01*
X107100342Y-101305975D01*
X107100345Y-101305977D01*
X107272402Y-101420941D01*
X107463580Y-101500130D01*
X107666530Y-101540499D01*
X107666534Y-101540500D01*
X107666535Y-101540500D01*
X107873466Y-101540500D01*
X107873467Y-101540499D01*
X108076420Y-101500130D01*
X108267598Y-101420941D01*
X108439655Y-101305977D01*
X108585977Y-101159655D01*
X108700941Y-100987598D01*
X108780130Y-100796420D01*
X108820500Y-100593465D01*
X108820500Y-100386535D01*
X108780130Y-100183580D01*
X108700941Y-99992402D01*
X108585977Y-99820345D01*
X108585975Y-99820342D01*
X108439657Y-99674024D01*
X108332394Y-99602354D01*
X108267598Y-99559059D01*
X108076420Y-99479870D01*
X108076412Y-99479868D01*
X107873469Y-99439500D01*
X107873465Y-99439500D01*
X107666535Y-99439500D01*
X107666530Y-99439500D01*
X107463587Y-99479868D01*
X107463579Y-99479870D01*
X107272403Y-99559058D01*
X107100342Y-99674024D01*
X106954024Y-99820342D01*
X106839058Y-99992403D01*
X106759870Y-100183579D01*
X106759868Y-100183587D01*
X106719500Y-100386530D01*
X106280499Y-100386530D01*
X106240130Y-100183580D01*
X106160941Y-99992402D01*
X106045977Y-99820345D01*
X106045975Y-99820342D01*
X105899657Y-99674024D01*
X105792394Y-99602354D01*
X105727598Y-99559059D01*
X105536420Y-99479870D01*
X105536412Y-99479868D01*
X105333469Y-99439500D01*
X105333465Y-99439500D01*
X105126535Y-99439500D01*
X105126530Y-99439500D01*
X104923587Y-99479868D01*
X104923579Y-99479870D01*
X104732403Y-99559058D01*
X104560342Y-99674024D01*
X104414024Y-99820342D01*
X104299058Y-99992403D01*
X104219870Y-100183579D01*
X104219868Y-100183587D01*
X104179500Y-100386530D01*
X102626532Y-100386530D01*
X102607577Y-97846530D01*
X104179500Y-97846530D01*
X104179500Y-98053469D01*
X104219868Y-98256412D01*
X104219870Y-98256420D01*
X104299058Y-98447596D01*
X104414024Y-98619657D01*
X104560342Y-98765975D01*
X104560345Y-98765977D01*
X104732402Y-98880941D01*
X104923580Y-98960130D01*
X105126530Y-99000499D01*
X105126534Y-99000500D01*
X105126535Y-99000500D01*
X105333466Y-99000500D01*
X105333467Y-99000499D01*
X105536420Y-98960130D01*
X105727598Y-98880941D01*
X105899655Y-98765977D01*
X106045977Y-98619655D01*
X106160941Y-98447598D01*
X106240130Y-98256420D01*
X106263482Y-98139020D01*
X106263537Y-98138746D01*
X106280499Y-98053468D01*
X106280500Y-98053466D01*
X106280500Y-97846534D01*
X106280499Y-97846531D01*
X106279519Y-97841606D01*
X106261676Y-97751901D01*
X106251352Y-97700000D01*
X106594638Y-97700000D01*
X107336988Y-97700000D01*
X107304075Y-97757007D01*
X107270000Y-97884174D01*
X107270000Y-98015826D01*
X107304075Y-98142993D01*
X107336988Y-98200000D01*
X106594638Y-98200000D01*
X106599548Y-98231002D01*
X106657914Y-98410637D01*
X106743670Y-98578940D01*
X106854685Y-98731741D01*
X106854689Y-98731746D01*
X106988253Y-98865310D01*
X106988258Y-98865314D01*
X107141059Y-98976329D01*
X107309362Y-99062085D01*
X107488997Y-99120451D01*
X107520000Y-99125362D01*
X107520000Y-98383012D01*
X107577007Y-98415925D01*
X107704174Y-98450000D01*
X107835826Y-98450000D01*
X107962993Y-98415925D01*
X108020000Y-98383012D01*
X108020000Y-99125361D01*
X108051002Y-99120451D01*
X108230637Y-99062085D01*
X108398940Y-98976329D01*
X108551741Y-98865314D01*
X108551746Y-98865310D01*
X108685310Y-98731746D01*
X108685314Y-98731741D01*
X108796329Y-98578940D01*
X108882085Y-98410637D01*
X108940451Y-98231002D01*
X108945362Y-98200000D01*
X108203012Y-98200000D01*
X108235925Y-98142993D01*
X108270000Y-98015826D01*
X108270000Y-97884174D01*
X108235925Y-97757007D01*
X108203012Y-97700000D01*
X108945362Y-97700000D01*
X108940451Y-97668997D01*
X108882085Y-97489362D01*
X108796329Y-97321059D01*
X108685314Y-97168258D01*
X108685310Y-97168253D01*
X108551746Y-97034689D01*
X108551741Y-97034685D01*
X108398940Y-96923670D01*
X108230635Y-96837913D01*
X108051004Y-96779549D01*
X108050995Y-96779547D01*
X108020000Y-96774637D01*
X108020000Y-97516988D01*
X107962993Y-97484075D01*
X107835826Y-97450000D01*
X107704174Y-97450000D01*
X107577007Y-97484075D01*
X107520000Y-97516988D01*
X107520000Y-96774637D01*
X107519999Y-96774637D01*
X107489004Y-96779547D01*
X107488995Y-96779549D01*
X107309364Y-96837913D01*
X107141059Y-96923670D01*
X106988258Y-97034685D01*
X106988253Y-97034689D01*
X106854689Y-97168253D01*
X106854685Y-97168258D01*
X106743670Y-97321059D01*
X106657914Y-97489362D01*
X106599548Y-97668997D01*
X106594638Y-97700000D01*
X106251352Y-97700000D01*
X106250487Y-97695649D01*
X106240130Y-97643580D01*
X106160941Y-97452402D01*
X106045977Y-97280345D01*
X106045975Y-97280342D01*
X105899657Y-97134024D01*
X105750984Y-97034685D01*
X105727598Y-97019059D01*
X105536420Y-96939870D01*
X105536412Y-96939868D01*
X105333469Y-96899500D01*
X105333465Y-96899500D01*
X105126535Y-96899500D01*
X105126530Y-96899500D01*
X104923587Y-96939868D01*
X104923579Y-96939870D01*
X104732403Y-97019058D01*
X104560342Y-97134024D01*
X104414024Y-97280342D01*
X104299058Y-97452403D01*
X104219870Y-97643579D01*
X104219868Y-97643587D01*
X104179500Y-97846530D01*
X102607577Y-97846530D01*
X102597934Y-96554319D01*
X102588623Y-95306530D01*
X104179500Y-95306530D01*
X104179500Y-95513469D01*
X104219868Y-95716412D01*
X104219870Y-95716420D01*
X104299058Y-95907596D01*
X104414024Y-96079657D01*
X104560342Y-96225975D01*
X104560345Y-96225977D01*
X104732402Y-96340941D01*
X104923580Y-96420130D01*
X105126530Y-96460499D01*
X105126534Y-96460500D01*
X105126535Y-96460500D01*
X105333466Y-96460500D01*
X105333467Y-96460499D01*
X105536420Y-96420130D01*
X105727598Y-96340941D01*
X105899655Y-96225977D01*
X106045977Y-96079655D01*
X106160941Y-95907598D01*
X106240130Y-95716420D01*
X106280500Y-95513465D01*
X106280500Y-95306535D01*
X106240130Y-95103580D01*
X106160941Y-94912402D01*
X106045977Y-94740345D01*
X106045975Y-94740342D01*
X105899657Y-94594024D01*
X105813626Y-94536541D01*
X105727598Y-94479059D01*
X105536420Y-94399870D01*
X105536412Y-94399868D01*
X105333469Y-94359500D01*
X105333465Y-94359500D01*
X105126535Y-94359500D01*
X105126530Y-94359500D01*
X104923587Y-94399868D01*
X104923579Y-94399870D01*
X104732403Y-94479058D01*
X104560342Y-94594024D01*
X104414024Y-94740342D01*
X104299058Y-94912403D01*
X104219870Y-95103579D01*
X104219868Y-95103587D01*
X104179500Y-95306530D01*
X102588623Y-95306530D01*
X102588584Y-95301368D01*
X102571840Y-93057628D01*
X102563949Y-92000247D01*
X104179500Y-92000247D01*
X104179500Y-93739752D01*
X104191131Y-93798229D01*
X104191132Y-93798230D01*
X104235447Y-93864552D01*
X104301769Y-93908867D01*
X104301770Y-93908868D01*
X104360247Y-93920499D01*
X104360250Y-93920500D01*
X104360252Y-93920500D01*
X106099750Y-93920500D01*
X106099751Y-93920499D01*
X106114568Y-93917552D01*
X106158229Y-93908868D01*
X106158229Y-93908867D01*
X106158231Y-93908867D01*
X106224552Y-93864552D01*
X106268867Y-93798231D01*
X106268867Y-93798229D01*
X106268868Y-93798229D01*
X106280499Y-93739752D01*
X106280500Y-93739750D01*
X106280500Y-92766530D01*
X106719500Y-92766530D01*
X106719500Y-92973469D01*
X106758234Y-93168195D01*
X106759870Y-93176420D01*
X106839059Y-93367598D01*
X106896541Y-93453626D01*
X106954024Y-93539657D01*
X107100342Y-93685975D01*
X107100345Y-93685977D01*
X107272402Y-93800941D01*
X107463580Y-93880130D01*
X107608052Y-93908867D01*
X107666530Y-93920499D01*
X107666534Y-93920500D01*
X107666535Y-93920500D01*
X107873466Y-93920500D01*
X107873467Y-93920499D01*
X108076420Y-93880130D01*
X108267598Y-93800941D01*
X108439655Y-93685977D01*
X108518814Y-93606817D01*
X108580135Y-93573334D01*
X108606494Y-93570500D01*
X109528481Y-93570500D01*
X109557921Y-93579144D01*
X109587908Y-93585668D01*
X109592923Y-93589422D01*
X109595520Y-93590185D01*
X109616162Y-93606819D01*
X109763181Y-93753838D01*
X109796666Y-93815161D01*
X109799500Y-93841519D01*
X109799500Y-94585500D01*
X109779815Y-94652539D01*
X109727011Y-94698294D01*
X109675500Y-94709500D01*
X108606494Y-94709500D01*
X108539455Y-94689815D01*
X108518817Y-94673185D01*
X108439655Y-94594023D01*
X108267598Y-94479059D01*
X108076420Y-94399870D01*
X108076412Y-94399868D01*
X107873469Y-94359500D01*
X107873465Y-94359500D01*
X107666535Y-94359500D01*
X107666530Y-94359500D01*
X107463587Y-94399868D01*
X107463579Y-94399870D01*
X107272403Y-94479058D01*
X107100342Y-94594024D01*
X106954024Y-94740342D01*
X106839058Y-94912403D01*
X106759870Y-95103579D01*
X106759868Y-95103587D01*
X106719500Y-95306530D01*
X106719500Y-95513469D01*
X106759868Y-95716412D01*
X106759870Y-95716420D01*
X106839058Y-95907596D01*
X106954024Y-96079657D01*
X107100342Y-96225975D01*
X107100345Y-96225977D01*
X107272402Y-96340941D01*
X107463580Y-96420130D01*
X107666530Y-96460499D01*
X107666534Y-96460500D01*
X107666535Y-96460500D01*
X107873466Y-96460500D01*
X107873467Y-96460499D01*
X108076420Y-96420130D01*
X108267598Y-96340941D01*
X108439655Y-96225977D01*
X108518814Y-96146817D01*
X108580135Y-96113334D01*
X108606494Y-96110500D01*
X110244284Y-96110500D01*
X110311323Y-96130185D01*
X110331965Y-96146819D01*
X116719959Y-102534813D01*
X116753444Y-102596136D01*
X116756278Y-102622494D01*
X116756278Y-103581119D01*
X116736593Y-103648158D01*
X116732048Y-103654752D01*
X116716487Y-103675835D01*
X116716484Y-103675841D01*
X116671631Y-103804020D01*
X116671631Y-103804022D01*
X116668778Y-103834452D01*
X116668778Y-104892991D01*
X116671631Y-104923421D01*
X116671631Y-104923423D01*
X116709562Y-105031820D01*
X116716485Y-105051604D01*
X116797128Y-105160872D01*
X116906396Y-105241515D01*
X116949123Y-105256466D01*
X117034577Y-105286368D01*
X117065008Y-105289222D01*
X117065012Y-105289222D01*
X117848548Y-105289222D01*
X117878977Y-105286368D01*
X117878979Y-105286368D01*
X117944104Y-105263579D01*
X118007160Y-105241515D01*
X118116428Y-105160872D01*
X118123813Y-105150865D01*
X118179458Y-105108616D01*
X118223582Y-105100500D01*
X121405681Y-105100500D01*
X121472720Y-105120185D01*
X121505999Y-105151615D01*
X121530490Y-105185324D01*
X121530494Y-105185329D01*
X121664670Y-105319505D01*
X121664675Y-105319509D01*
X121724291Y-105362822D01*
X121818180Y-105431036D01*
X121925907Y-105485925D01*
X121987243Y-105517179D01*
X121987245Y-105517179D01*
X121987248Y-105517181D01*
X122083980Y-105548611D01*
X122167710Y-105575817D01*
X122355120Y-105605500D01*
X122355125Y-105605500D01*
X122544880Y-105605500D01*
X122732289Y-105575817D01*
X122912752Y-105517181D01*
X123081820Y-105431036D01*
X123235331Y-105319504D01*
X123369504Y-105185331D01*
X123481036Y-105031820D01*
X123567181Y-104862752D01*
X123625817Y-104682289D01*
X123636677Y-104613722D01*
X123655500Y-104494880D01*
X123655500Y-104305119D01*
X123625817Y-104117710D01*
X123574879Y-103960941D01*
X123567181Y-103937248D01*
X123567179Y-103937245D01*
X123567179Y-103937243D01*
X123520674Y-103845974D01*
X123481036Y-103768180D01*
X123424999Y-103691051D01*
X123369509Y-103614675D01*
X123369505Y-103614670D01*
X123235329Y-103480494D01*
X123235324Y-103480490D01*
X123081823Y-103368966D01*
X123081822Y-103368965D01*
X123081820Y-103368964D01*
X123017934Y-103336412D01*
X122912756Y-103282820D01*
X122732289Y-103224182D01*
X122544880Y-103194500D01*
X122544875Y-103194500D01*
X122355125Y-103194500D01*
X122355120Y-103194500D01*
X122167710Y-103224182D01*
X121987243Y-103282820D01*
X121818176Y-103368966D01*
X121664675Y-103480490D01*
X121664670Y-103480494D01*
X121530494Y-103614670D01*
X121530490Y-103614675D01*
X121505999Y-103648385D01*
X121450669Y-103691051D01*
X121405681Y-103699500D01*
X118281278Y-103699500D01*
X118214239Y-103679815D01*
X118168484Y-103627011D01*
X118157278Y-103575500D01*
X118157278Y-102211979D01*
X118130359Y-102076652D01*
X118130358Y-102076651D01*
X118130358Y-102076647D01*
X118130356Y-102076642D01*
X118077555Y-101949167D01*
X118000890Y-101834429D01*
X117155785Y-100989324D01*
X121795811Y-100989324D01*
X121811252Y-101106628D01*
X121811254Y-101106633D01*
X121871709Y-101252585D01*
X121967885Y-101377924D01*
X122093223Y-101474100D01*
X122239175Y-101534554D01*
X122239179Y-101534555D01*
X122356486Y-101549999D01*
X122495809Y-101549999D01*
X122995810Y-101549999D01*
X123135134Y-101549999D01*
X123252438Y-101534557D01*
X123252443Y-101534555D01*
X123398395Y-101474100D01*
X123523734Y-101377924D01*
X123619910Y-101252586D01*
X123680364Y-101106634D01*
X123680365Y-101106630D01*
X123695809Y-100989330D01*
X123695810Y-100989316D01*
X123695810Y-100750000D01*
X122995810Y-100750000D01*
X122995810Y-101549999D01*
X122495809Y-101549999D01*
X122495810Y-101549998D01*
X122495810Y-100750000D01*
X121795811Y-100750000D01*
X121795811Y-100989324D01*
X117155785Y-100989324D01*
X116177130Y-100010669D01*
X121795810Y-100010669D01*
X121795810Y-100250000D01*
X122495810Y-100250000D01*
X122995810Y-100250000D01*
X123695809Y-100250000D01*
X123695809Y-100010675D01*
X123680367Y-99893371D01*
X123680365Y-99893366D01*
X123619910Y-99747414D01*
X123523734Y-99622075D01*
X123398396Y-99525899D01*
X123252444Y-99465445D01*
X123252440Y-99465444D01*
X123135140Y-99450000D01*
X122995810Y-99450000D01*
X122995810Y-100250000D01*
X122495810Y-100250000D01*
X122495810Y-99450000D01*
X122356486Y-99450000D01*
X122239181Y-99465442D01*
X122239176Y-99465444D01*
X122093224Y-99525899D01*
X121967885Y-99622075D01*
X121871709Y-99747413D01*
X121811255Y-99893365D01*
X121811254Y-99893369D01*
X121795810Y-100010669D01*
X116177130Y-100010669D01*
X113744806Y-97578345D01*
X118805088Y-97578345D01*
X118820529Y-97695649D01*
X118820531Y-97695654D01*
X118880986Y-97841606D01*
X118977162Y-97966945D01*
X119102500Y-98063121D01*
X119248452Y-98123575D01*
X119248456Y-98123576D01*
X119365763Y-98139020D01*
X119505086Y-98139020D01*
X120005087Y-98139020D01*
X120144411Y-98139020D01*
X120261715Y-98123578D01*
X120261720Y-98123576D01*
X120407672Y-98063121D01*
X120533011Y-97966945D01*
X120629187Y-97841607D01*
X120689641Y-97695655D01*
X120689642Y-97695651D01*
X120705086Y-97578351D01*
X120705087Y-97578337D01*
X120705087Y-97339021D01*
X120005087Y-97339021D01*
X120005087Y-98139020D01*
X119505086Y-98139020D01*
X119505087Y-98139019D01*
X119505087Y-97339021D01*
X118805088Y-97339021D01*
X118805088Y-97578345D01*
X113744806Y-97578345D01*
X112766151Y-96599690D01*
X118805087Y-96599690D01*
X118805087Y-96839021D01*
X119505087Y-96839021D01*
X120005087Y-96839021D01*
X120705086Y-96839021D01*
X120705086Y-96599696D01*
X120689644Y-96482392D01*
X120689642Y-96482387D01*
X120629187Y-96336435D01*
X120533011Y-96211096D01*
X120407673Y-96114920D01*
X120261721Y-96054466D01*
X120261717Y-96054465D01*
X120144417Y-96039021D01*
X120005087Y-96039021D01*
X120005087Y-96839021D01*
X119505087Y-96839021D01*
X119505087Y-96039021D01*
X119365763Y-96039021D01*
X119248458Y-96054463D01*
X119248453Y-96054465D01*
X119102501Y-96114920D01*
X118977162Y-96211096D01*
X118880986Y-96336434D01*
X118820532Y-96482386D01*
X118820531Y-96482390D01*
X118805087Y-96599690D01*
X112766151Y-96599690D01*
X111236819Y-95070358D01*
X111203334Y-95009035D01*
X111200500Y-94982677D01*
X111200500Y-93431004D01*
X111173581Y-93295677D01*
X111173580Y-93295676D01*
X111173580Y-93295672D01*
X111136599Y-93206391D01*
X111120778Y-93168195D01*
X111120776Y-93168191D01*
X111120775Y-93168189D01*
X111058059Y-93074328D01*
X111058059Y-93074327D01*
X111044115Y-93053458D01*
X111044112Y-93053455D01*
X110381977Y-92391319D01*
X110316545Y-92325887D01*
X110201807Y-92249222D01*
X110074332Y-92196421D01*
X110074322Y-92196418D01*
X109938996Y-92169500D01*
X109938994Y-92169500D01*
X109938993Y-92169500D01*
X108606494Y-92169500D01*
X108539455Y-92149815D01*
X108518817Y-92133185D01*
X108439655Y-92054023D01*
X108267598Y-91939059D01*
X108228642Y-91922923D01*
X108076420Y-91859870D01*
X108076412Y-91859868D01*
X107873469Y-91819500D01*
X107873465Y-91819500D01*
X107666535Y-91819500D01*
X107666530Y-91819500D01*
X107463587Y-91859868D01*
X107463579Y-91859870D01*
X107272403Y-91939058D01*
X107100342Y-92054024D01*
X106954024Y-92200342D01*
X106839058Y-92372403D01*
X106759870Y-92563579D01*
X106759868Y-92563587D01*
X106719500Y-92766530D01*
X106280500Y-92766530D01*
X106280500Y-92000249D01*
X106280499Y-92000247D01*
X106268868Y-91941770D01*
X106268867Y-91941769D01*
X106224552Y-91875447D01*
X106158230Y-91831132D01*
X106158229Y-91831131D01*
X106099752Y-91819500D01*
X106099748Y-91819500D01*
X104360252Y-91819500D01*
X104360247Y-91819500D01*
X104301770Y-91831131D01*
X104301769Y-91831132D01*
X104235447Y-91875447D01*
X104191132Y-91941769D01*
X104191131Y-91941770D01*
X104179500Y-92000247D01*
X102563949Y-92000247D01*
X102560001Y-91471277D01*
X118330000Y-91471277D01*
X118330000Y-91855000D01*
X118880000Y-91855000D01*
X118880000Y-92355000D01*
X118330000Y-92355000D01*
X118330000Y-92738722D01*
X118362663Y-92902928D01*
X118362665Y-92902936D01*
X118426740Y-93057627D01*
X118426740Y-93057628D01*
X118519758Y-93196839D01*
X118519764Y-93196847D01*
X118638152Y-93315235D01*
X118638160Y-93315241D01*
X118777372Y-93408259D01*
X118929999Y-93471479D01*
X118930000Y-93471479D01*
X118930000Y-92821988D01*
X118939940Y-92839205D01*
X118995795Y-92895060D01*
X119064204Y-92934556D01*
X119140504Y-92955000D01*
X119219496Y-92955000D01*
X119295796Y-92934556D01*
X119364205Y-92895060D01*
X119420060Y-92839205D01*
X119430000Y-92821988D01*
X119430000Y-93471479D01*
X119582623Y-93408261D01*
X119582630Y-93408257D01*
X119598093Y-93397925D01*
X119664770Y-93377045D01*
X119732150Y-93395528D01*
X119766252Y-93426712D01*
X119792811Y-93462189D01*
X119792812Y-93462190D01*
X119907906Y-93548350D01*
X119907913Y-93548354D01*
X120042624Y-93598598D01*
X120042627Y-93598599D01*
X120049998Y-93599390D01*
X120050000Y-93599389D01*
X120050000Y-92930000D01*
X119644000Y-92930000D01*
X119576961Y-92910315D01*
X119531206Y-92857511D01*
X119520000Y-92806000D01*
X119520000Y-92554000D01*
X119539685Y-92486961D01*
X119592489Y-92441206D01*
X119644000Y-92430000D01*
X120176000Y-92430000D01*
X120243039Y-92449685D01*
X120288794Y-92502489D01*
X120300000Y-92554000D01*
X120300000Y-92680000D01*
X120426000Y-92680000D01*
X120493039Y-92699685D01*
X120538794Y-92752489D01*
X120550000Y-92804000D01*
X120550000Y-93599389D01*
X120565138Y-93612988D01*
X120581018Y-93615856D01*
X120632150Y-93663473D01*
X120649500Y-93726733D01*
X120649500Y-94655467D01*
X120634869Y-94710078D01*
X120635724Y-94710433D01*
X120633035Y-94716924D01*
X120632892Y-94717459D01*
X120632615Y-94717938D01*
X120632613Y-94717943D01*
X120598505Y-94845236D01*
X120598505Y-94977019D01*
X120632613Y-95104315D01*
X120665559Y-95161378D01*
X120698505Y-95218442D01*
X120791691Y-95311628D01*
X120905819Y-95377520D01*
X121033113Y-95411628D01*
X121033115Y-95411628D01*
X121164894Y-95411628D01*
X121164897Y-95411628D01*
X121268409Y-95383892D01*
X121338256Y-95385555D01*
X121396119Y-95424717D01*
X121423623Y-95488946D01*
X121424500Y-95503667D01*
X121424500Y-96068795D01*
X121404815Y-96135834D01*
X121352011Y-96181589D01*
X121326961Y-96189939D01*
X121320383Y-96191375D01*
X121192206Y-96236227D01*
X121192204Y-96236228D01*
X121082937Y-96316871D01*
X121002294Y-96426138D01*
X121002293Y-96426140D01*
X120957440Y-96554319D01*
X120957440Y-96554321D01*
X120954587Y-96584751D01*
X120954587Y-97593290D01*
X120957440Y-97623720D01*
X120957440Y-97623722D01*
X120984132Y-97700000D01*
X121002294Y-97751903D01*
X121082937Y-97861171D01*
X121192205Y-97941814D01*
X121234932Y-97956765D01*
X121320386Y-97986667D01*
X121350817Y-97989521D01*
X121350821Y-97989521D01*
X122159357Y-97989521D01*
X122189786Y-97986667D01*
X122189788Y-97986667D01*
X122253877Y-97964240D01*
X122317969Y-97941814D01*
X122427237Y-97861171D01*
X122507880Y-97751903D01*
X122536890Y-97668997D01*
X122552733Y-97623722D01*
X122552733Y-97623720D01*
X122555587Y-97593290D01*
X122555587Y-96584751D01*
X122552733Y-96554321D01*
X122552733Y-96554319D01*
X122507880Y-96426140D01*
X122507879Y-96426138D01*
X122445001Y-96340941D01*
X122427237Y-96316871D01*
X122317969Y-96236228D01*
X122317967Y-96236227D01*
X122189788Y-96191374D01*
X122189780Y-96191373D01*
X122187913Y-96191198D01*
X122186621Y-96190683D01*
X122182417Y-96189765D01*
X122182569Y-96189068D01*
X122123006Y-96165335D01*
X122082386Y-96108487D01*
X122075500Y-96067741D01*
X122075500Y-93579499D01*
X122095185Y-93512460D01*
X122147989Y-93466705D01*
X122199496Y-93455499D01*
X122352132Y-93455499D01*
X122432495Y-93439515D01*
X122432498Y-93439512D01*
X122443778Y-93434841D01*
X122444376Y-93436286D01*
X122497782Y-93419563D01*
X122555943Y-93435516D01*
X122556223Y-93434842D01*
X122561590Y-93437065D01*
X122565162Y-93438045D01*
X122567351Y-93439451D01*
X122567506Y-93439516D01*
X122620957Y-93450147D01*
X122647867Y-93455500D01*
X122852132Y-93455499D01*
X122932495Y-93439515D01*
X122932498Y-93439512D01*
X122943778Y-93434841D01*
X122944376Y-93436286D01*
X122997782Y-93419563D01*
X123055943Y-93435516D01*
X123056223Y-93434842D01*
X123061590Y-93437065D01*
X123065162Y-93438045D01*
X123067351Y-93439451D01*
X123067506Y-93439516D01*
X123120957Y-93450147D01*
X123147867Y-93455500D01*
X123352132Y-93455499D01*
X123432495Y-93439515D01*
X123432498Y-93439512D01*
X123443778Y-93434841D01*
X123444376Y-93436286D01*
X123497782Y-93419563D01*
X123555943Y-93435516D01*
X123556223Y-93434842D01*
X123561590Y-93437065D01*
X123565162Y-93438045D01*
X123567351Y-93439451D01*
X123567506Y-93439516D01*
X123620957Y-93450147D01*
X123647867Y-93455500D01*
X123852132Y-93455499D01*
X123932495Y-93439515D01*
X123932498Y-93439512D01*
X123943778Y-93434841D01*
X123944376Y-93436286D01*
X123997782Y-93419563D01*
X124055943Y-93435516D01*
X124056223Y-93434842D01*
X124061590Y-93437065D01*
X124065162Y-93438045D01*
X124067351Y-93439451D01*
X124067506Y-93439516D01*
X124120957Y-93450147D01*
X124147867Y-93455500D01*
X124300499Y-93455499D01*
X124367539Y-93475183D01*
X124413294Y-93527987D01*
X124424500Y-93579499D01*
X124424500Y-99478804D01*
X124404815Y-99545843D01*
X124352011Y-99591598D01*
X124318440Y-99600564D01*
X124318480Y-99600744D01*
X124314582Y-99601595D01*
X124312090Y-99602261D01*
X124311115Y-99602352D01*
X124311108Y-99602353D01*
X124182929Y-99647206D01*
X124182927Y-99647207D01*
X124073660Y-99727850D01*
X123993017Y-99837117D01*
X123993016Y-99837119D01*
X123948163Y-99965298D01*
X123948163Y-99965300D01*
X123945310Y-99995730D01*
X123945310Y-101004269D01*
X123948163Y-101034699D01*
X123948163Y-101034701D01*
X123993016Y-101162880D01*
X123993017Y-101162882D01*
X124073660Y-101272150D01*
X124182928Y-101352793D01*
X124225655Y-101367744D01*
X124311109Y-101397646D01*
X124341540Y-101400500D01*
X124341544Y-101400500D01*
X125150080Y-101400500D01*
X125180509Y-101397646D01*
X125180511Y-101397646D01*
X125244600Y-101375219D01*
X125308692Y-101352793D01*
X125417960Y-101272150D01*
X125498603Y-101162882D01*
X125521029Y-101098790D01*
X125543456Y-101034701D01*
X125543456Y-101034699D01*
X125546310Y-101004269D01*
X125546310Y-99995730D01*
X125543456Y-99965300D01*
X125543456Y-99965298D01*
X125498603Y-99837119D01*
X125498602Y-99837117D01*
X125486224Y-99820345D01*
X125417960Y-99727850D01*
X125308692Y-99647207D01*
X125308690Y-99647206D01*
X125180511Y-99602353D01*
X125173140Y-99600744D01*
X125173828Y-99597589D01*
X125122316Y-99576640D01*
X125082100Y-99519505D01*
X125075500Y-99479590D01*
X125075500Y-95545506D01*
X125095185Y-95478467D01*
X125147989Y-95432712D01*
X125217147Y-95422768D01*
X125280703Y-95451793D01*
X125306886Y-95483505D01*
X125349500Y-95557314D01*
X125442686Y-95650500D01*
X125556814Y-95716392D01*
X125556816Y-95716392D01*
X125564326Y-95719504D01*
X125563771Y-95720841D01*
X125611010Y-95748113D01*
X127063181Y-97200284D01*
X127096666Y-97261607D01*
X127099500Y-97287965D01*
X127099500Y-104400589D01*
X127079815Y-104467628D01*
X127031795Y-104511074D01*
X126918176Y-104568966D01*
X126764675Y-104680490D01*
X126764670Y-104680494D01*
X126630494Y-104814670D01*
X126630490Y-104814675D01*
X126518966Y-104968176D01*
X126432820Y-105137243D01*
X126374182Y-105317710D01*
X126344500Y-105505119D01*
X126344500Y-105694880D01*
X126374182Y-105882289D01*
X126432820Y-106062756D01*
X126518966Y-106231823D01*
X126630490Y-106385324D01*
X126630494Y-106385329D01*
X126764670Y-106519505D01*
X126764675Y-106519509D01*
X126848115Y-106580131D01*
X126918180Y-106631036D01*
X127025907Y-106685925D01*
X127087243Y-106717179D01*
X127087245Y-106717179D01*
X127087248Y-106717181D01*
X127183980Y-106748611D01*
X127267710Y-106775817D01*
X127455120Y-106805500D01*
X127455125Y-106805500D01*
X127644880Y-106805500D01*
X127832289Y-106775817D01*
X128012752Y-106717181D01*
X128181820Y-106631036D01*
X128335331Y-106519504D01*
X128469504Y-106385331D01*
X128581036Y-106231820D01*
X128667181Y-106062752D01*
X128725817Y-105882289D01*
X128726748Y-105876412D01*
X128755500Y-105694880D01*
X128755500Y-105505119D01*
X128725817Y-105317710D01*
X128674857Y-105160872D01*
X128667181Y-105137248D01*
X128667179Y-105137245D01*
X128667179Y-105137243D01*
X128613462Y-105031820D01*
X128581036Y-104968180D01*
X128526406Y-104892988D01*
X128469509Y-104814675D01*
X128469505Y-104814670D01*
X128335329Y-104680494D01*
X128335324Y-104680490D01*
X128181823Y-104568966D01*
X128181822Y-104568965D01*
X128181820Y-104568964D01*
X128068204Y-104511073D01*
X128017409Y-104463099D01*
X128000500Y-104400589D01*
X128000500Y-96990693D01*
X128000500Y-96990691D01*
X127969799Y-96876114D01*
X127914663Y-96780616D01*
X127910489Y-96773386D01*
X127910488Y-96773385D01*
X127910487Y-96773383D01*
X126386819Y-95249715D01*
X126353334Y-95188392D01*
X126350500Y-95162034D01*
X126350500Y-93317052D01*
X126363099Y-93262592D01*
X126390573Y-93206393D01*
X126400500Y-93138260D01*
X126400500Y-92221740D01*
X126400500Y-92220666D01*
X126420185Y-92153627D01*
X126472989Y-92107872D01*
X126492397Y-92100894D01*
X126585116Y-92076051D01*
X126700384Y-92009501D01*
X126794501Y-91915384D01*
X126800040Y-91905789D01*
X126850604Y-91857575D01*
X126919210Y-91844350D01*
X126945815Y-91855000D01*
X127520000Y-91855000D01*
X127520000Y-92355000D01*
X126970000Y-92355000D01*
X126970000Y-92738722D01*
X127002663Y-92902928D01*
X127002665Y-92902936D01*
X127066740Y-93057627D01*
X127066740Y-93057628D01*
X127159758Y-93196839D01*
X127159764Y-93196847D01*
X127278152Y-93315235D01*
X127278160Y-93315241D01*
X127417372Y-93408259D01*
X127569999Y-93471479D01*
X127570000Y-93471479D01*
X127570000Y-92821988D01*
X127579940Y-92839205D01*
X127635795Y-92895060D01*
X127704204Y-92934556D01*
X127780504Y-92955000D01*
X127859496Y-92955000D01*
X127935796Y-92934556D01*
X128004205Y-92895060D01*
X128060060Y-92839205D01*
X128070000Y-92821988D01*
X128070000Y-93471479D01*
X128222627Y-93408259D01*
X128222628Y-93408259D01*
X128361839Y-93315241D01*
X128361847Y-93315235D01*
X128480235Y-93196847D01*
X128480241Y-93196839D01*
X128573259Y-93057628D01*
X128573259Y-93057627D01*
X128637334Y-92902936D01*
X128637336Y-92902928D01*
X128669999Y-92738722D01*
X128670000Y-92738720D01*
X128670000Y-92355000D01*
X128120000Y-92355000D01*
X128120000Y-91855000D01*
X128670000Y-91855000D01*
X128670000Y-91471279D01*
X128669999Y-91471277D01*
X128637336Y-91307071D01*
X128637334Y-91307063D01*
X128573259Y-91152372D01*
X128573259Y-91152371D01*
X128480241Y-91013160D01*
X128480235Y-91013152D01*
X128361844Y-90894761D01*
X128222632Y-90801743D01*
X128222622Y-90801738D01*
X128070000Y-90738519D01*
X128070000Y-91388011D01*
X128060060Y-91370795D01*
X128004205Y-91314940D01*
X127935796Y-91275444D01*
X127859496Y-91255000D01*
X127780504Y-91255000D01*
X127704204Y-91275444D01*
X127635795Y-91314940D01*
X127579940Y-91370795D01*
X127570000Y-91388011D01*
X127570000Y-90738519D01*
X127417377Y-90801738D01*
X127417367Y-90801743D01*
X127278155Y-90894761D01*
X127159764Y-91013152D01*
X127159758Y-91013160D01*
X127066741Y-91152370D01*
X127014933Y-91277445D01*
X126971091Y-91331848D01*
X126904797Y-91353912D01*
X126837098Y-91336632D01*
X126800873Y-91299971D01*
X126799449Y-91301065D01*
X126794503Y-91294619D01*
X126794501Y-91294616D01*
X126700384Y-91200499D01*
X126585116Y-91133949D01*
X126456550Y-91099500D01*
X126323450Y-91099500D01*
X126194884Y-91133949D01*
X126194881Y-91133950D01*
X126079619Y-91200497D01*
X126079613Y-91200501D01*
X125985501Y-91294613D01*
X125985497Y-91294619D01*
X125918950Y-91409881D01*
X125918949Y-91409884D01*
X125884500Y-91538450D01*
X125884500Y-91671549D01*
X125905094Y-91748407D01*
X125903431Y-91818257D01*
X125864268Y-91876119D01*
X125800040Y-91903623D01*
X125785319Y-91904500D01*
X125716739Y-91904500D01*
X125648608Y-91914426D01*
X125582630Y-91946681D01*
X125513757Y-91958439D01*
X125459280Y-91938382D01*
X125439490Y-91925159D01*
X125432494Y-91920484D01*
X125432490Y-91920483D01*
X125352135Y-91904500D01*
X125147870Y-91904500D01*
X125093156Y-91915383D01*
X125067505Y-91920485D01*
X125067504Y-91920485D01*
X125067501Y-91920486D01*
X125056220Y-91925159D01*
X125055621Y-91923714D01*
X125002204Y-91940436D01*
X124944061Y-91924481D01*
X124943781Y-91925159D01*
X124938383Y-91922923D01*
X124934825Y-91921947D01*
X124932648Y-91920547D01*
X124932494Y-91920484D01*
X124852135Y-91904500D01*
X124647870Y-91904500D01*
X124593156Y-91915383D01*
X124567505Y-91920485D01*
X124567504Y-91920485D01*
X124567501Y-91920486D01*
X124556220Y-91925159D01*
X124555621Y-91923714D01*
X124502204Y-91940436D01*
X124444061Y-91924481D01*
X124443781Y-91925159D01*
X124438383Y-91922923D01*
X124434825Y-91921947D01*
X124432648Y-91920547D01*
X124432494Y-91920484D01*
X124352135Y-91904500D01*
X124147870Y-91904500D01*
X124093156Y-91915383D01*
X124067505Y-91920485D01*
X124067504Y-91920485D01*
X124067501Y-91920486D01*
X124056220Y-91925159D01*
X124055621Y-91923714D01*
X124002204Y-91940436D01*
X123944061Y-91924481D01*
X123943781Y-91925159D01*
X123938383Y-91922923D01*
X123934825Y-91921947D01*
X123932648Y-91920547D01*
X123932494Y-91920484D01*
X123852135Y-91904500D01*
X123647870Y-91904500D01*
X123593156Y-91915383D01*
X123567505Y-91920485D01*
X123567504Y-91920485D01*
X123567501Y-91920486D01*
X123556220Y-91925159D01*
X123555621Y-91923714D01*
X123502204Y-91940436D01*
X123444061Y-91924481D01*
X123443781Y-91925159D01*
X123438383Y-91922923D01*
X123434825Y-91921947D01*
X123432648Y-91920547D01*
X123432494Y-91920484D01*
X123352135Y-91904500D01*
X123147870Y-91904500D01*
X123093156Y-91915383D01*
X123067505Y-91920485D01*
X123067504Y-91920485D01*
X123067501Y-91920486D01*
X123056220Y-91925159D01*
X123055621Y-91923714D01*
X123002204Y-91940436D01*
X122944061Y-91924481D01*
X122943781Y-91925159D01*
X122938383Y-91922923D01*
X122934825Y-91921947D01*
X122932648Y-91920547D01*
X122932494Y-91920484D01*
X122852135Y-91904500D01*
X122647870Y-91904500D01*
X122593156Y-91915383D01*
X122567505Y-91920485D01*
X122567504Y-91920485D01*
X122567501Y-91920486D01*
X122556220Y-91925159D01*
X122555621Y-91923714D01*
X122502204Y-91940436D01*
X122444061Y-91924481D01*
X122443781Y-91925159D01*
X122438383Y-91922923D01*
X122434825Y-91921947D01*
X122432648Y-91920547D01*
X122432494Y-91920484D01*
X122352135Y-91904500D01*
X122147870Y-91904500D01*
X122093156Y-91915383D01*
X122067505Y-91920485D01*
X122067504Y-91920485D01*
X122067501Y-91920486D01*
X122056220Y-91925159D01*
X122055621Y-91923714D01*
X122002204Y-91940436D01*
X121944061Y-91924481D01*
X121943781Y-91925159D01*
X121938383Y-91922923D01*
X121934825Y-91921947D01*
X121932648Y-91920547D01*
X121932494Y-91920484D01*
X121852135Y-91904500D01*
X121647870Y-91904500D01*
X121567504Y-91920485D01*
X121540719Y-91938383D01*
X121474041Y-91959260D01*
X121417369Y-91946680D01*
X121351395Y-91914427D01*
X121351392Y-91914426D01*
X121283261Y-91904500D01*
X121283260Y-91904500D01*
X121214681Y-91904500D01*
X121147642Y-91884815D01*
X121101887Y-91832011D01*
X121091943Y-91762853D01*
X121094906Y-91748407D01*
X121115500Y-91671550D01*
X121115500Y-91538450D01*
X121081051Y-91409884D01*
X121014501Y-91294616D01*
X120920384Y-91200499D01*
X120805116Y-91133949D01*
X120676550Y-91099500D01*
X120543450Y-91099500D01*
X120414884Y-91133949D01*
X120414881Y-91133950D01*
X120299619Y-91200497D01*
X120299613Y-91200501D01*
X120205501Y-91294613D01*
X120200551Y-91301065D01*
X120198861Y-91299768D01*
X120156436Y-91340212D01*
X120087828Y-91353428D01*
X120022966Y-91327454D01*
X119985066Y-91277444D01*
X119933259Y-91152372D01*
X119933259Y-91152371D01*
X119840241Y-91013160D01*
X119840235Y-91013152D01*
X119721844Y-90894761D01*
X119582632Y-90801743D01*
X119582622Y-90801738D01*
X119430000Y-90738519D01*
X119430000Y-91388011D01*
X119420060Y-91370795D01*
X119364205Y-91314940D01*
X119295796Y-91275444D01*
X119219496Y-91255000D01*
X119140504Y-91255000D01*
X119064204Y-91275444D01*
X118995795Y-91314940D01*
X118939940Y-91370795D01*
X118930000Y-91388011D01*
X118930000Y-90738519D01*
X118777377Y-90801738D01*
X118777367Y-90801743D01*
X118638155Y-90894761D01*
X118519764Y-91013152D01*
X118519758Y-91013160D01*
X118426740Y-91152371D01*
X118426740Y-91152372D01*
X118362665Y-91307063D01*
X118362663Y-91307071D01*
X118330000Y-91471277D01*
X102560001Y-91471277D01*
X102533182Y-87877573D01*
X104944500Y-87877573D01*
X104944500Y-88122426D01*
X104982800Y-88364243D01*
X104982801Y-88364247D01*
X105058462Y-88597105D01*
X105169617Y-88815260D01*
X105313531Y-89013340D01*
X105486660Y-89186469D01*
X105684740Y-89330383D01*
X105902895Y-89441538D01*
X106135753Y-89517199D01*
X106226437Y-89531561D01*
X106377574Y-89555500D01*
X106377579Y-89555500D01*
X106622426Y-89555500D01*
X106756768Y-89534221D01*
X106864247Y-89517199D01*
X107097105Y-89441538D01*
X107315260Y-89330383D01*
X107513340Y-89186469D01*
X107686469Y-89013340D01*
X107830383Y-88815260D01*
X107941538Y-88597105D01*
X108017199Y-88364247D01*
X108034221Y-88256768D01*
X108055500Y-88122426D01*
X108055500Y-87877573D01*
X108023415Y-87675000D01*
X108017199Y-87635753D01*
X107954009Y-87441277D01*
X118330000Y-87441277D01*
X118330000Y-87675000D01*
X118880000Y-87675000D01*
X118880000Y-88175000D01*
X118330000Y-88175000D01*
X118330000Y-88408722D01*
X118362663Y-88572928D01*
X118362665Y-88572936D01*
X118426740Y-88727627D01*
X118426740Y-88727628D01*
X118519758Y-88866839D01*
X118519764Y-88866847D01*
X118638152Y-88985235D01*
X118638160Y-88985241D01*
X118777372Y-89078259D01*
X118929999Y-89141479D01*
X118930000Y-89141479D01*
X118930000Y-88491988D01*
X118939940Y-88509205D01*
X118995795Y-88565060D01*
X119064204Y-88604556D01*
X119140504Y-88625000D01*
X119219496Y-88625000D01*
X119295796Y-88604556D01*
X119364205Y-88565060D01*
X119420060Y-88509205D01*
X119430000Y-88491988D01*
X119430000Y-89141479D01*
X119582627Y-89078259D01*
X119582628Y-89078259D01*
X119721839Y-88985241D01*
X119721847Y-88985235D01*
X119840235Y-88866847D01*
X119840241Y-88866839D01*
X119933259Y-88727628D01*
X119933259Y-88727627D01*
X119997334Y-88572936D01*
X119997336Y-88572928D01*
X120029999Y-88408722D01*
X120030000Y-88408720D01*
X120030000Y-88175000D01*
X119480000Y-88175000D01*
X119480000Y-87675000D01*
X120030000Y-87675000D01*
X120030000Y-87441279D01*
X120029999Y-87441277D01*
X126970000Y-87441277D01*
X126970000Y-87675000D01*
X127520000Y-87675000D01*
X127520000Y-88175000D01*
X126970000Y-88175000D01*
X126970000Y-88408722D01*
X127002663Y-88572928D01*
X127002665Y-88572936D01*
X127066740Y-88727627D01*
X127066740Y-88727628D01*
X127159758Y-88866839D01*
X127159764Y-88866847D01*
X127278152Y-88985235D01*
X127278160Y-88985241D01*
X127417372Y-89078259D01*
X127569999Y-89141479D01*
X127570000Y-89141479D01*
X127570000Y-88491988D01*
X127579940Y-88509205D01*
X127635795Y-88565060D01*
X127704204Y-88604556D01*
X127780504Y-88625000D01*
X127859496Y-88625000D01*
X127935796Y-88604556D01*
X128004205Y-88565060D01*
X128060060Y-88509205D01*
X128070000Y-88491988D01*
X128070000Y-89141479D01*
X128222627Y-89078259D01*
X128222628Y-89078259D01*
X128361839Y-88985241D01*
X128361847Y-88985235D01*
X128480235Y-88866847D01*
X128480241Y-88866839D01*
X128573259Y-88727628D01*
X128573259Y-88727627D01*
X128637334Y-88572936D01*
X128637336Y-88572928D01*
X128669999Y-88408722D01*
X128670000Y-88408720D01*
X128670000Y-88175000D01*
X128120000Y-88175000D01*
X128120000Y-87877573D01*
X139444500Y-87877573D01*
X139444500Y-88122426D01*
X139482800Y-88364243D01*
X139482801Y-88364247D01*
X139558462Y-88597105D01*
X139669617Y-88815260D01*
X139813531Y-89013340D01*
X139986660Y-89186469D01*
X140184740Y-89330383D01*
X140402895Y-89441538D01*
X140635753Y-89517199D01*
X140726437Y-89531561D01*
X140877574Y-89555500D01*
X140877579Y-89555500D01*
X141122426Y-89555500D01*
X141256768Y-89534221D01*
X141364247Y-89517199D01*
X141597105Y-89441538D01*
X141815260Y-89330383D01*
X142013340Y-89186469D01*
X142186469Y-89013340D01*
X142330383Y-88815260D01*
X142441538Y-88597105D01*
X142517199Y-88364247D01*
X142534221Y-88256768D01*
X142555500Y-88122426D01*
X142555500Y-87877573D01*
X142523415Y-87675000D01*
X142517199Y-87635753D01*
X142441538Y-87402895D01*
X142330383Y-87184740D01*
X142186469Y-86986660D01*
X142013340Y-86813531D01*
X141815260Y-86669617D01*
X141597105Y-86558462D01*
X141364247Y-86482801D01*
X141364245Y-86482800D01*
X141364243Y-86482800D01*
X141122426Y-86444500D01*
X141122421Y-86444500D01*
X140877579Y-86444500D01*
X140877574Y-86444500D01*
X140635756Y-86482800D01*
X140402892Y-86558463D01*
X140184739Y-86669617D01*
X140131196Y-86708519D01*
X139986660Y-86813531D01*
X139986658Y-86813533D01*
X139986657Y-86813533D01*
X139813533Y-86986657D01*
X139813533Y-86986658D01*
X139813531Y-86986660D01*
X139751725Y-87071727D01*
X139669617Y-87184739D01*
X139558463Y-87402892D01*
X139482800Y-87635756D01*
X139444500Y-87877573D01*
X128120000Y-87877573D01*
X128120000Y-87675000D01*
X128670000Y-87675000D01*
X128670000Y-87441279D01*
X128669999Y-87441277D01*
X128637336Y-87277071D01*
X128637334Y-87277063D01*
X128573259Y-87122372D01*
X128573259Y-87122371D01*
X128480241Y-86983160D01*
X128480235Y-86983152D01*
X128361844Y-86864761D01*
X128222632Y-86771743D01*
X128222622Y-86771738D01*
X128070000Y-86708519D01*
X128070000Y-87358011D01*
X128060060Y-87340795D01*
X128004205Y-87284940D01*
X127935796Y-87245444D01*
X127859496Y-87225000D01*
X127780504Y-87225000D01*
X127704204Y-87245444D01*
X127635795Y-87284940D01*
X127579940Y-87340795D01*
X127570000Y-87358011D01*
X127570000Y-86708519D01*
X127417377Y-86771738D01*
X127417367Y-86771743D01*
X127278155Y-86864761D01*
X127159764Y-86983152D01*
X127159758Y-86983160D01*
X127066740Y-87122371D01*
X127066740Y-87122372D01*
X127002665Y-87277063D01*
X127002663Y-87277071D01*
X126970000Y-87441277D01*
X120029999Y-87441277D01*
X119997336Y-87277071D01*
X119997334Y-87277063D01*
X119933259Y-87122372D01*
X119933259Y-87122371D01*
X119840241Y-86983160D01*
X119840235Y-86983152D01*
X119721844Y-86864761D01*
X119582632Y-86771743D01*
X119582622Y-86771738D01*
X119430000Y-86708519D01*
X119430000Y-87358011D01*
X119420060Y-87340795D01*
X119364205Y-87284940D01*
X119295796Y-87245444D01*
X119219496Y-87225000D01*
X119140504Y-87225000D01*
X119064204Y-87245444D01*
X118995795Y-87284940D01*
X118939940Y-87340795D01*
X118930000Y-87358011D01*
X118930000Y-86708519D01*
X118777377Y-86771738D01*
X118777367Y-86771743D01*
X118638155Y-86864761D01*
X118519764Y-86983152D01*
X118519758Y-86983160D01*
X118426740Y-87122371D01*
X118426740Y-87122372D01*
X118362665Y-87277063D01*
X118362663Y-87277071D01*
X118330000Y-87441277D01*
X107954009Y-87441277D01*
X107941538Y-87402895D01*
X107830383Y-87184740D01*
X107686469Y-86986660D01*
X107513340Y-86813531D01*
X107315260Y-86669617D01*
X107097105Y-86558462D01*
X106864247Y-86482801D01*
X106864245Y-86482800D01*
X106864243Y-86482800D01*
X106622426Y-86444500D01*
X106622421Y-86444500D01*
X106377579Y-86444500D01*
X106377574Y-86444500D01*
X106135756Y-86482800D01*
X105902892Y-86558463D01*
X105684739Y-86669617D01*
X105631196Y-86708519D01*
X105486660Y-86813531D01*
X105486658Y-86813533D01*
X105486657Y-86813533D01*
X105313533Y-86986657D01*
X105313533Y-86986658D01*
X105313531Y-86986660D01*
X105251725Y-87071727D01*
X105169617Y-87184739D01*
X105058463Y-87402892D01*
X104982800Y-87635756D01*
X104944500Y-87877573D01*
X102533182Y-87877573D01*
X102505181Y-84125424D01*
X102524365Y-84058241D01*
X102576826Y-84012093D01*
X102629178Y-84000500D01*
X144375500Y-84000500D01*
X144442539Y-84020185D01*
G37*
%TD.AperFunction*%
%TD*%
M02*
