M48
; DRILL file {KiCad 9.0.2} date 2025-11-26T15:54:03-0800
; FORMAT={-:-/ absolute / metric / decimal}
; #@! TF.CreationDate,2025-11-26T15:54:03-08:00
; #@! TF.GenerationSoftware,Kicad,Pcbnew,9.0.2
; #@! TF.FileFunction,Plated,1,2,PTH
FMAT,2
METRIC
; #@! TA.AperFunction,Plated,PTH,ViaDrill
T1C0.300
; #@! TA.AperFunction,Plated,PTH,ComponentDrill
T2C0.600
; #@! TA.AperFunction,Plated,PTH,ComponentDrill
T3C0.800
; #@! TA.AperFunction,Plated,PTH,ComponentDrill
T4C0.900
; #@! TA.AperFunction,Plated,PTH,ComponentDrill
T5C0.950
; #@! TA.AperFunction,Plated,PTH,ComponentDrill
T6C1.000
; #@! TA.AperFunction,Plated,PTH,ComponentDrill
T7C1.010
%
G90
G05
T1
X121.099Y-94.911
X125.75Y-95.25
T3
X115.38Y-114.3
X115.38Y-116.84
X115.38Y-119.38
X115.38Y-121.92
X115.38Y-124.46
X115.38Y-127.0
X115.38Y-129.54
X115.38Y-132.08
X123.0Y-114.3
X123.0Y-116.84
X123.0Y-119.38
X123.0Y-121.92
X123.0Y-124.46
X123.0Y-127.0
X123.0Y-129.54
X123.0Y-132.08
T4
X130.0Y-130.96
X130.0Y-133.5
X136.0Y-130.96
X136.0Y-133.5
X138.308Y-114.491
X138.308Y-120.446
X140.848Y-114.491
X140.848Y-120.446
T5
X130.69Y-114.345
X130.69Y-116.845
X130.69Y-119.345
X130.69Y-121.845
X130.69Y-124.345
T6
X105.23Y-92.87
X105.23Y-95.41
X105.23Y-97.95
X105.23Y-100.49
X105.23Y-103.03
X105.23Y-105.57
X105.23Y-108.11
X105.23Y-110.65
X105.23Y-113.19
X105.23Y-115.73
X105.23Y-118.27
X105.23Y-120.81
X105.23Y-123.35
X105.23Y-125.89
X105.23Y-128.43
X105.23Y-130.97
X105.23Y-133.51
X105.23Y-136.05
X105.23Y-138.59
X105.23Y-141.13
X107.77Y-92.87
X107.77Y-95.41
X107.77Y-97.95
X107.77Y-100.49
X107.77Y-103.03
X107.77Y-105.57
X107.77Y-108.11
X107.77Y-110.65
X107.77Y-113.19
X107.77Y-115.73
X107.77Y-118.27
X107.77Y-120.81
X107.77Y-123.35
X107.77Y-125.89
X107.77Y-128.43
X107.77Y-130.97
X107.77Y-133.51
X107.77Y-136.05
X107.77Y-138.59
X107.77Y-141.13
T7
X122.45Y-104.4
X127.55Y-105.6
T2
G00X119.18Y-88.325
M15
G01X119.18Y-87.525
M16
G05
G00X119.18Y-92.655
M15
G01X119.18Y-91.555
M16
G05
G00X127.82Y-88.325
M15
G01X127.82Y-87.525
M16
G05
G00X127.82Y-92.655
M15
G01X127.82Y-91.555
M16
G05
M30
