%TF.GenerationSoftware,KiCad,Pcbnew,9.0.2*%
%TF.CreationDate,2025-11-26T15:53:52-08:00*%
%TF.ProjectId,ECE411_1,45434534-3131-45f3-912e-6b696361645f,3.0*%
%TF.SameCoordinates,Original*%
%TF.FileFunction,Copper,L2,Bot*%
%TF.FilePolarity,Positive*%
%FSLAX46Y46*%
G04 Gerber Fmt 4.6, Leading zero omitted, Abs format (unit mm)*
G04 Created by KiCad (PCBNEW 9.0.2) date 2025-11-26 15:53:52*
%MOMM*%
%LPD*%
G01*
G04 APERTURE LIST*
G04 Aperture macros list*
%AMRoundRect*
0 Rectangle with rounded corners*
0 $1 Rounding radius*
0 $2 $3 $4 $5 $6 $7 $8 $9 X,Y pos of 4 corners*
0 Add a 4 corners polygon primitive as box body*
4,1,4,$2,$3,$4,$5,$6,$7,$8,$9,$2,$3,0*
0 Add four circle primitives for the rounded corners*
1,1,$1+$1,$2,$3*
1,1,$1+$1,$4,$5*
1,1,$1+$1,$6,$7*
1,1,$1+$1,$8,$9*
0 Add four rect primitives between the rounded corners*
20,1,$1+$1,$2,$3,$4,$5,0*
20,1,$1+$1,$4,$5,$6,$7,0*
20,1,$1+$1,$6,$7,$8,$9,0*
20,1,$1+$1,$8,$9,$2,$3,0*%
G04 Aperture macros list end*
%TA.AperFunction,HeatsinkPad*%
%ADD10O,1.000000X2.100000*%
%TD*%
%TA.AperFunction,HeatsinkPad*%
%ADD11O,1.000000X1.800000*%
%TD*%
%TA.AperFunction,ComponentPad*%
%ADD12RoundRect,0.250000X-0.725000X0.600000X-0.725000X-0.600000X0.725000X-0.600000X0.725000X0.600000X0*%
%TD*%
%TA.AperFunction,ComponentPad*%
%ADD13O,1.950000X1.700000*%
%TD*%
%TA.AperFunction,ComponentPad*%
%ADD14R,1.800000X1.800000*%
%TD*%
%TA.AperFunction,ComponentPad*%
%ADD15C,1.800000*%
%TD*%
%TA.AperFunction,ComponentPad*%
%ADD16C,2.010000*%
%TD*%
%TA.AperFunction,ComponentPad*%
%ADD17R,1.700000X1.700000*%
%TD*%
%TA.AperFunction,ComponentPad*%
%ADD18O,1.700000X1.700000*%
%TD*%
%TA.AperFunction,ComponentPad*%
%ADD19RoundRect,0.250000X-0.950000X-0.550000X0.950000X-0.550000X0.950000X0.550000X-0.950000X0.550000X0*%
%TD*%
%TA.AperFunction,ComponentPad*%
%ADD20O,2.400000X1.600000*%
%TD*%
%TA.AperFunction,ViaPad*%
%ADD21C,0.600000*%
%TD*%
%TA.AperFunction,Conductor*%
%ADD22C,1.000000*%
%TD*%
%TA.AperFunction,Conductor*%
%ADD23C,0.500000*%
%TD*%
G04 APERTURE END LIST*
D10*
%TO.P,J4,S1,SHIELD*%
%TO.N,GND*%
X127820000Y-92105000D03*
D11*
X127820000Y-87925000D03*
D10*
X119180000Y-92105000D03*
D11*
X119180000Y-87925000D03*
%TD*%
D12*
%TO.P,J1,1,Pin_1*%
%TO.N,Net-(D1-K)*%
X130690000Y-114344870D03*
D13*
%TO.P,J1,2,Pin_2*%
%TO.N,Net-(D2-K)*%
X130690000Y-116844870D03*
%TO.P,J1,3,Pin_3*%
%TO.N,Net-(D3-K)*%
X130690000Y-119344870D03*
%TO.P,J1,4,Pin_4*%
%TO.N,Net-(D4-K)*%
X130690000Y-121844870D03*
%TO.P,J1,5,Pin_5*%
%TO.N,/VCC*%
X130690000Y-124344870D03*
%TD*%
D14*
%TO.P,D1,1,K*%
%TO.N,Net-(D1-K)*%
X138308194Y-114491057D03*
D15*
%TO.P,D1,2,A*%
%TO.N,Net-(D1-A)*%
X140848194Y-114491057D03*
%TD*%
D16*
%TO.P,TH1,1*%
%TO.N,/VCC*%
X122450000Y-104400000D03*
%TO.P,TH1,2*%
%TO.N,Net-(J4-VBUS-PadA4)*%
X127550000Y-105600000D03*
%TD*%
D17*
%TO.P,J2,1,3V3*%
%TO.N,unconnected-(J2-3V3-Pad1)_1*%
X105230000Y-92870000D03*
D18*
%TO.P,J2,2,5V*%
%TO.N,/VCC*%
X107770000Y-92870000D03*
%TO.P,J2,3,SDA_I2C1/GPIO02*%
%TO.N,unconnected-(J2-SDA_I2C1{slash}GPIO02-Pad3)*%
X105230000Y-95410000D03*
%TO.P,J2,4,5V*%
%TO.N,/VCC*%
X107770000Y-95410000D03*
%TO.P,J2,5,SCL_I2C1/GPIO03*%
%TO.N,unconnected-(J2-SCL_I2C1{slash}GPIO03-Pad5)*%
X105230000Y-97950000D03*
%TO.P,J2,6,GND*%
%TO.N,GND*%
X107770000Y-97950000D03*
%TO.P,J2,7,GPCLK0/GPIO04*%
%TO.N,unconnected-(J2-GPCLK0{slash}GPIO04-Pad7)*%
X105230000Y-100490000D03*
%TO.P,J2,8,GPIO14/UART_TXD*%
%TO.N,unconnected-(J2-GPIO14{slash}UART_TXD-Pad8)*%
X107770000Y-100490000D03*
%TO.P,J2,9,GND*%
%TO.N,GND*%
X105230000Y-103030000D03*
%TO.P,J2,10,GPIO15/UART_RXD*%
%TO.N,unconnected-(J2-GPIO15{slash}UART_RXD-Pad10)*%
X107770000Y-103030000D03*
%TO.P,J2,11,GPIO17/SPI1_~{CE1}*%
%TO.N,unconnected-(J2-GPIO17{slash}SPI1_~{CE1}-Pad11)*%
X105230000Y-105570000D03*
%TO.P,J2,12,GPIO18/SPI1_~{CE0}/PCM_CLK/PWM0*%
%TO.N,unconnected-(J2-GPIO18{slash}SPI1_~{CE0}{slash}PCM_CLK{slash}PWM0-Pad12)*%
X107770000Y-105570000D03*
%TO.P,J2,13,GPIO27/SDIO_DAT3*%
%TO.N,unconnected-(J2-GPIO27{slash}SDIO_DAT3-Pad13)*%
X105230000Y-108110000D03*
%TO.P,J2,14,GND*%
%TO.N,GND*%
X107770000Y-108110000D03*
%TO.P,J2,15,GPIO22/SDIO_CLK*%
%TO.N,unconnected-(J2-GPIO22{slash}SDIO_CLK-Pad15)*%
X105230000Y-110650000D03*
%TO.P,J2,16,GPIO23/SDIO_CMD*%
%TO.N,IN1*%
X107770000Y-110650000D03*
%TO.P,J2,17,3V3*%
%TO.N,unconnected-(J2-3V3-Pad1)*%
X105230000Y-113190000D03*
%TO.P,J2,18,GPIO24/SDIO_DAT0*%
%TO.N,IN2*%
X107770000Y-113190000D03*
%TO.P,J2,19,MOSI_SPI0/GPIO10*%
%TO.N,unconnected-(J2-MOSI_SPI0{slash}GPIO10-Pad19)*%
X105230000Y-115730000D03*
%TO.P,J2,20,GND*%
%TO.N,GND*%
X107770000Y-115730000D03*
%TO.P,J2,21,MISO_SPI0/GPIO09*%
%TO.N,unconnected-(J2-MISO_SPI0{slash}GPIO09-Pad21)*%
X105230000Y-118270000D03*
%TO.P,J2,22,GPIO25/SDIO_DAT1*%
%TO.N,IN3*%
X107770000Y-118270000D03*
%TO.P,J2,23,SCLK_SPI0/GPIO11*%
%TO.N,unconnected-(J2-SCLK_SPI0{slash}GPIO11-Pad23)*%
X105230000Y-120810000D03*
%TO.P,J2,24,~{CE0}_SPI0/GPIO08*%
%TO.N,unconnected-(J2-~{CE0}_SPI0{slash}GPIO08-Pad24)*%
X107770000Y-120810000D03*
%TO.P,J2,25,GND*%
%TO.N,GND*%
X105230000Y-123350000D03*
%TO.P,J2,26,~{CE1}_SPI0/GPIO07*%
%TO.N,unconnected-(J2-~{CE1}_SPI0{slash}GPIO07-Pad26)*%
X107770000Y-123350000D03*
%TO.P,J2,27,ID_SD_I2C0/GPIO00*%
%TO.N,unconnected-(J2-ID_SD_I2C0{slash}GPIO00-Pad27)*%
X105230000Y-125890000D03*
%TO.P,J2,28,ID_SC_I2C0/GPIO01*%
%TO.N,unconnected-(J2-ID_SC_I2C0{slash}GPIO01-Pad28)*%
X107770000Y-125890000D03*
%TO.P,J2,29,GPCLK1/GPIO05*%
%TO.N,unconnected-(J2-GPCLK1{slash}GPIO05-Pad29)*%
X105230000Y-128430000D03*
%TO.P,J2,30,GND*%
%TO.N,GND*%
X107770000Y-128430000D03*
%TO.P,J2,31,GPCLK2/GPIO06*%
%TO.N,unconnected-(J2-GPCLK2{slash}GPIO06-Pad31)*%
X105230000Y-130970000D03*
%TO.P,J2,32,GPIO12/PWM0*%
%TO.N,unconnected-(J2-GPIO12{slash}PWM0-Pad32)*%
X107770000Y-130970000D03*
%TO.P,J2,33,GPIO13/PWM1*%
%TO.N,unconnected-(J2-GPIO13{slash}PWM1-Pad33)*%
X105230000Y-133510000D03*
%TO.P,J2,34,GND*%
%TO.N,GND*%
X107770000Y-133510000D03*
%TO.P,J2,35,GPIO19/SPI1_MISO/PCM_FS*%
%TO.N,unconnected-(J2-GPIO19{slash}SPI1_MISO{slash}PCM_FS-Pad35)*%
X105230000Y-136050000D03*
%TO.P,J2,36,GPIO16/SPI1_~{CE2}*%
%TO.N,IN4*%
X107770000Y-136050000D03*
%TO.P,J2,37,GPIO26/SDIO_DAT2*%
%TO.N,unconnected-(J2-GPIO26{slash}SDIO_DAT2-Pad37)*%
X105230000Y-138590000D03*
%TO.P,J2,38,GPIO20/SPI1_MOSI/PCM_DIN/PWM1*%
%TO.N,unconnected-(J2-GPIO20{slash}SPI1_MOSI{slash}PCM_DIN{slash}PWM1-Pad38)*%
X107770000Y-138590000D03*
%TO.P,J2,39,GND*%
%TO.N,GND*%
X105230000Y-141130000D03*
%TO.P,J2,40,GPIO21/SPI1_SCLK/PCM_DOUT*%
%TO.N,unconnected-(J2-GPIO21{slash}SPI1_SCLK{slash}PCM_DOUT-Pad40)*%
X107770000Y-141130000D03*
%TD*%
D14*
%TO.P,D3,1,K*%
%TO.N,Net-(D3-K)*%
X136000000Y-130960000D03*
D15*
%TO.P,D3,2,A*%
%TO.N,Net-(D3-A)*%
X136000000Y-133500000D03*
%TD*%
D14*
%TO.P,D2,1,K*%
%TO.N,Net-(D2-K)*%
X138308194Y-120445636D03*
D15*
%TO.P,D2,2,A*%
%TO.N,Net-(D2-A)*%
X140848194Y-120445636D03*
%TD*%
D14*
%TO.P,D4,1,K*%
%TO.N,Net-(D4-K)*%
X130000000Y-130960000D03*
D15*
%TO.P,D4,2,A*%
%TO.N,Net-(D4-A)*%
X130000000Y-133500000D03*
%TD*%
D19*
%TO.P,U1,1,I1*%
%TO.N,IN1*%
X115380000Y-114300000D03*
D20*
%TO.P,U1,2,I2*%
%TO.N,IN2*%
X115380000Y-116840000D03*
%TO.P,U1,3,I3*%
%TO.N,IN3*%
X115380000Y-119380000D03*
%TO.P,U1,4,I4*%
%TO.N,IN4*%
X115380000Y-121920000D03*
%TO.P,U1,5,I5*%
%TO.N,unconnected-(U1-I5-Pad5)*%
X115380000Y-124460000D03*
%TO.P,U1,6,I6*%
%TO.N,unconnected-(U1-I6-Pad6)*%
X115380000Y-127000000D03*
%TO.P,U1,7,I7*%
%TO.N,unconnected-(U1-I7-Pad7)*%
X115380000Y-129540000D03*
%TO.P,U1,8,GND*%
%TO.N,GND*%
X115380000Y-132080000D03*
%TO.P,U1,9,COM*%
%TO.N,/VCC*%
X123000000Y-132080000D03*
%TO.P,U1,10,O7*%
%TO.N,unconnected-(U1-O7-Pad10)*%
X123000000Y-129540000D03*
%TO.P,U1,11,O6*%
%TO.N,unconnected-(U1-O6-Pad11)*%
X123000000Y-127000000D03*
%TO.P,U1,12,O5*%
%TO.N,unconnected-(U1-O5-Pad12)*%
X123000000Y-124460000D03*
%TO.P,U1,13,O4*%
%TO.N,Net-(D4-K)*%
X123000000Y-121920000D03*
%TO.P,U1,14,O3*%
%TO.N,Net-(D3-K)*%
X123000000Y-119380000D03*
%TO.P,U1,15,O2*%
%TO.N,Net-(D2-K)*%
X123000000Y-116840000D03*
%TO.P,U1,16,O1*%
%TO.N,Net-(D1-K)*%
X123000000Y-114300000D03*
%TD*%
D21*
%TO.N,Net-(J4-VBUS-PadA4)*%
X125750000Y-95250000D03*
X121099005Y-94911128D03*
%TD*%
D22*
%TO.N,/VCC*%
X118000000Y-106276035D02*
X118000000Y-127917854D01*
X127000000Y-108950000D02*
X127000000Y-120654870D01*
X119895871Y-104400000D02*
X119885953Y-104390082D01*
X122162146Y-132080000D02*
X123000000Y-132080000D01*
X118000000Y-127917854D02*
X122162146Y-132080000D01*
X122450000Y-104400000D02*
X127000000Y-108950000D01*
X127000000Y-120654870D02*
X130690000Y-124344870D01*
X122450000Y-104400000D02*
X119895871Y-104400000D01*
X119885953Y-104390082D02*
X118000000Y-106276035D01*
D23*
%TO.N,Net-(J4-VBUS-PadA4)*%
X125411128Y-94911128D02*
X125750000Y-95250000D01*
X121099005Y-94911128D02*
X125411128Y-94911128D01*
%TD*%
%TA.AperFunction,Conductor*%
%TO.N,GND*%
G36*
X144442539Y-84020185D02*
G01*
X144488294Y-84072989D01*
X144499500Y-84124500D01*
X144499500Y-149875500D01*
X144479815Y-149942539D01*
X144427011Y-149988294D01*
X144375500Y-149999500D01*
X103119858Y-149999500D01*
X103052819Y-149979815D01*
X103007064Y-149927011D01*
X102995861Y-149876425D01*
X102966018Y-145877573D01*
X104944500Y-145877573D01*
X104944500Y-146122426D01*
X104982800Y-146364243D01*
X104982801Y-146364247D01*
X105058462Y-146597105D01*
X105169617Y-146815260D01*
X105313531Y-147013340D01*
X105486660Y-147186469D01*
X105684740Y-147330383D01*
X105902895Y-147441538D01*
X106135753Y-147517199D01*
X106226437Y-147531561D01*
X106377574Y-147555500D01*
X106377579Y-147555500D01*
X106622426Y-147555500D01*
X106756768Y-147534221D01*
X106864247Y-147517199D01*
X107097105Y-147441538D01*
X107315260Y-147330383D01*
X107513340Y-147186469D01*
X107686469Y-147013340D01*
X107830383Y-146815260D01*
X107941538Y-146597105D01*
X108017199Y-146364247D01*
X108034221Y-146256768D01*
X108055500Y-146122426D01*
X108055500Y-145877573D01*
X139444500Y-145877573D01*
X139444500Y-146122426D01*
X139482800Y-146364243D01*
X139482801Y-146364247D01*
X139558462Y-146597105D01*
X139669617Y-146815260D01*
X139813531Y-147013340D01*
X139986660Y-147186469D01*
X140184740Y-147330383D01*
X140402895Y-147441538D01*
X140635753Y-147517199D01*
X140726437Y-147531561D01*
X140877574Y-147555500D01*
X140877579Y-147555500D01*
X141122426Y-147555500D01*
X141256768Y-147534221D01*
X141364247Y-147517199D01*
X141597105Y-147441538D01*
X141815260Y-147330383D01*
X142013340Y-147186469D01*
X142186469Y-147013340D01*
X142330383Y-146815260D01*
X142441538Y-146597105D01*
X142517199Y-146364247D01*
X142534221Y-146256768D01*
X142555500Y-146122426D01*
X142555500Y-145877573D01*
X142517199Y-145635756D01*
X142517199Y-145635753D01*
X142441538Y-145402895D01*
X142330383Y-145184740D01*
X142186469Y-144986660D01*
X142013340Y-144813531D01*
X141815260Y-144669617D01*
X141597105Y-144558462D01*
X141364247Y-144482801D01*
X141364245Y-144482800D01*
X141364243Y-144482800D01*
X141122426Y-144444500D01*
X141122421Y-144444500D01*
X140877579Y-144444500D01*
X140877574Y-144444500D01*
X140635756Y-144482800D01*
X140402892Y-144558463D01*
X140184739Y-144669617D01*
X140071727Y-144751725D01*
X139986660Y-144813531D01*
X139986658Y-144813533D01*
X139986657Y-144813533D01*
X139813533Y-144986657D01*
X139813533Y-144986658D01*
X139813531Y-144986660D01*
X139751725Y-145071727D01*
X139669617Y-145184739D01*
X139558463Y-145402892D01*
X139482800Y-145635756D01*
X139444500Y-145877573D01*
X108055500Y-145877573D01*
X108017199Y-145635756D01*
X108017199Y-145635753D01*
X107941538Y-145402895D01*
X107830383Y-145184740D01*
X107686469Y-144986660D01*
X107513340Y-144813531D01*
X107315260Y-144669617D01*
X107097105Y-144558462D01*
X106864247Y-144482801D01*
X106864245Y-144482800D01*
X106864243Y-144482800D01*
X106622426Y-144444500D01*
X106622421Y-144444500D01*
X106377579Y-144444500D01*
X106377574Y-144444500D01*
X106135756Y-144482800D01*
X105902892Y-144558463D01*
X105684739Y-144669617D01*
X105571727Y-144751725D01*
X105486660Y-144813531D01*
X105486658Y-144813533D01*
X105486657Y-144813533D01*
X105313533Y-144986657D01*
X105313533Y-144986658D01*
X105313531Y-144986660D01*
X105251725Y-145071727D01*
X105169617Y-145184739D01*
X105058463Y-145402892D01*
X104982800Y-145635756D01*
X104944500Y-145877573D01*
X102966018Y-145877573D01*
X102965989Y-145873632D01*
X102932185Y-141343862D01*
X102929778Y-141021368D01*
X102929007Y-140917988D01*
X102928724Y-140880000D01*
X104054638Y-140880000D01*
X104796988Y-140880000D01*
X104764075Y-140937007D01*
X104730000Y-141064174D01*
X104730000Y-141195826D01*
X104764075Y-141322993D01*
X104796988Y-141380000D01*
X104054638Y-141380000D01*
X104059548Y-141411002D01*
X104117914Y-141590637D01*
X104203670Y-141758940D01*
X104314685Y-141911741D01*
X104314689Y-141911746D01*
X104448253Y-142045310D01*
X104448258Y-142045314D01*
X104601059Y-142156329D01*
X104769362Y-142242085D01*
X104948997Y-142300451D01*
X104980000Y-142305362D01*
X104980000Y-141563012D01*
X105037007Y-141595925D01*
X105164174Y-141630000D01*
X105295826Y-141630000D01*
X105422993Y-141595925D01*
X105480000Y-141563012D01*
X105480000Y-142305361D01*
X105511002Y-142300451D01*
X105690637Y-142242085D01*
X105858940Y-142156329D01*
X106011741Y-142045314D01*
X106011746Y-142045310D01*
X106145310Y-141911746D01*
X106145314Y-141911741D01*
X106256329Y-141758940D01*
X106342085Y-141590637D01*
X106400451Y-141411002D01*
X106405362Y-141380000D01*
X105663012Y-141380000D01*
X105695925Y-141322993D01*
X105730000Y-141195826D01*
X105730000Y-141064174D01*
X105719913Y-141026530D01*
X106719500Y-141026530D01*
X106719500Y-141233469D01*
X106759868Y-141436412D01*
X106759870Y-141436420D01*
X106839058Y-141627596D01*
X106954024Y-141799657D01*
X107100342Y-141945975D01*
X107100345Y-141945977D01*
X107272402Y-142060941D01*
X107463580Y-142140130D01*
X107666530Y-142180499D01*
X107666534Y-142180500D01*
X107666535Y-142180500D01*
X107873466Y-142180500D01*
X107873467Y-142180499D01*
X108076420Y-142140130D01*
X108267598Y-142060941D01*
X108439655Y-141945977D01*
X108585977Y-141799655D01*
X108700941Y-141627598D01*
X108780130Y-141436420D01*
X108820500Y-141233465D01*
X108820500Y-141026535D01*
X108780130Y-140823580D01*
X108700941Y-140632402D01*
X108585977Y-140460345D01*
X108585975Y-140460342D01*
X108439657Y-140314024D01*
X108290984Y-140214685D01*
X108267598Y-140199059D01*
X108076420Y-140119870D01*
X108076412Y-140119868D01*
X107873469Y-140079500D01*
X107873465Y-140079500D01*
X107666535Y-140079500D01*
X107666530Y-140079500D01*
X107463587Y-140119868D01*
X107463579Y-140119870D01*
X107272403Y-140199058D01*
X107100342Y-140314024D01*
X106954024Y-140460342D01*
X106839058Y-140632403D01*
X106759870Y-140823579D01*
X106759868Y-140823587D01*
X106719500Y-141026530D01*
X105719913Y-141026530D01*
X105695925Y-140937007D01*
X105663012Y-140880000D01*
X106405362Y-140880000D01*
X106400451Y-140848997D01*
X106342085Y-140669362D01*
X106256329Y-140501059D01*
X106145314Y-140348258D01*
X106145310Y-140348253D01*
X106011746Y-140214689D01*
X106011741Y-140214685D01*
X105858940Y-140103670D01*
X105690635Y-140017913D01*
X105511004Y-139959549D01*
X105510995Y-139959547D01*
X105480000Y-139954637D01*
X105480000Y-140696988D01*
X105422993Y-140664075D01*
X105295826Y-140630000D01*
X105164174Y-140630000D01*
X105037007Y-140664075D01*
X104980000Y-140696988D01*
X104980000Y-139954637D01*
X104979999Y-139954637D01*
X104949004Y-139959547D01*
X104948995Y-139959549D01*
X104769364Y-140017913D01*
X104601059Y-140103670D01*
X104448258Y-140214685D01*
X104448253Y-140214689D01*
X104314689Y-140348253D01*
X104314685Y-140348258D01*
X104203670Y-140501059D01*
X104117914Y-140669362D01*
X104059548Y-140848997D01*
X104054638Y-140880000D01*
X102928724Y-140880000D01*
X102910862Y-138486530D01*
X104179500Y-138486530D01*
X104179500Y-138693469D01*
X104219868Y-138896412D01*
X104219870Y-138896420D01*
X104299058Y-139087596D01*
X104414024Y-139259657D01*
X104560342Y-139405975D01*
X104560345Y-139405977D01*
X104732402Y-139520941D01*
X104923580Y-139600130D01*
X105126530Y-139640499D01*
X105126534Y-139640500D01*
X105126535Y-139640500D01*
X105333466Y-139640500D01*
X105333467Y-139640499D01*
X105536420Y-139600130D01*
X105727598Y-139520941D01*
X105899655Y-139405977D01*
X106045977Y-139259655D01*
X106160941Y-139087598D01*
X106240130Y-138896420D01*
X106280500Y-138693465D01*
X106280500Y-138486535D01*
X106280499Y-138486530D01*
X106719500Y-138486530D01*
X106719500Y-138693469D01*
X106759868Y-138896412D01*
X106759870Y-138896420D01*
X106839058Y-139087596D01*
X106954024Y-139259657D01*
X107100342Y-139405975D01*
X107100345Y-139405977D01*
X107272402Y-139520941D01*
X107463580Y-139600130D01*
X107666530Y-139640499D01*
X107666534Y-139640500D01*
X107666535Y-139640500D01*
X107873466Y-139640500D01*
X107873467Y-139640499D01*
X108076420Y-139600130D01*
X108267598Y-139520941D01*
X108439655Y-139405977D01*
X108585977Y-139259655D01*
X108700941Y-139087598D01*
X108780130Y-138896420D01*
X108820500Y-138693465D01*
X108820500Y-138486535D01*
X108780130Y-138283580D01*
X108700941Y-138092402D01*
X108585977Y-137920345D01*
X108585975Y-137920342D01*
X108439657Y-137774024D01*
X108353626Y-137716541D01*
X108267598Y-137659059D01*
X108076420Y-137579870D01*
X108076412Y-137579868D01*
X107873469Y-137539500D01*
X107873465Y-137539500D01*
X107666535Y-137539500D01*
X107666530Y-137539500D01*
X107463587Y-137579868D01*
X107463579Y-137579870D01*
X107272403Y-137659058D01*
X107100342Y-137774024D01*
X106954024Y-137920342D01*
X106839058Y-138092403D01*
X106759870Y-138283579D01*
X106759868Y-138283587D01*
X106719500Y-138486530D01*
X106280499Y-138486530D01*
X106240130Y-138283580D01*
X106160941Y-138092402D01*
X106045977Y-137920345D01*
X106045975Y-137920342D01*
X105899657Y-137774024D01*
X105813626Y-137716541D01*
X105727598Y-137659059D01*
X105536420Y-137579870D01*
X105536412Y-137579868D01*
X105333469Y-137539500D01*
X105333465Y-137539500D01*
X105126535Y-137539500D01*
X105126530Y-137539500D01*
X104923587Y-137579868D01*
X104923579Y-137579870D01*
X104732403Y-137659058D01*
X104560342Y-137774024D01*
X104414024Y-137920342D01*
X104299058Y-138092403D01*
X104219870Y-138283579D01*
X104219868Y-138283587D01*
X104179500Y-138486530D01*
X102910862Y-138486530D01*
X102910823Y-138481368D01*
X102891907Y-135946530D01*
X104179500Y-135946530D01*
X104179500Y-136153469D01*
X104219868Y-136356412D01*
X104219870Y-136356420D01*
X104299058Y-136547596D01*
X104414024Y-136719657D01*
X104560342Y-136865975D01*
X104560345Y-136865977D01*
X104732402Y-136980941D01*
X104923580Y-137060130D01*
X105126530Y-137100499D01*
X105126534Y-137100500D01*
X105126535Y-137100500D01*
X105333466Y-137100500D01*
X105333467Y-137100499D01*
X105536420Y-137060130D01*
X105727598Y-136980941D01*
X105899655Y-136865977D01*
X106045977Y-136719655D01*
X106160941Y-136547598D01*
X106240130Y-136356420D01*
X106280500Y-136153465D01*
X106280500Y-135946535D01*
X106280499Y-135946530D01*
X106719500Y-135946530D01*
X106719500Y-136153469D01*
X106759868Y-136356412D01*
X106759870Y-136356420D01*
X106839058Y-136547596D01*
X106954024Y-136719657D01*
X107100342Y-136865975D01*
X107100345Y-136865977D01*
X107272402Y-136980941D01*
X107463580Y-137060130D01*
X107666530Y-137100499D01*
X107666534Y-137100500D01*
X107666535Y-137100500D01*
X107873466Y-137100500D01*
X107873467Y-137100499D01*
X108076420Y-137060130D01*
X108267598Y-136980941D01*
X108439655Y-136865977D01*
X108585977Y-136719655D01*
X108700941Y-136547598D01*
X108780130Y-136356420D01*
X108820500Y-136153465D01*
X108820500Y-135946535D01*
X108780130Y-135743580D01*
X108700941Y-135552402D01*
X108585977Y-135380345D01*
X108585975Y-135380342D01*
X108439657Y-135234024D01*
X108353626Y-135176541D01*
X108267598Y-135119059D01*
X108076420Y-135039870D01*
X108076412Y-135039868D01*
X107873469Y-134999500D01*
X107873465Y-134999500D01*
X107666535Y-134999500D01*
X107666530Y-134999500D01*
X107463587Y-135039868D01*
X107463579Y-135039870D01*
X107272403Y-135119058D01*
X107100342Y-135234024D01*
X106954024Y-135380342D01*
X106839058Y-135552403D01*
X106759870Y-135743579D01*
X106759868Y-135743587D01*
X106719500Y-135946530D01*
X106280499Y-135946530D01*
X106240130Y-135743580D01*
X106160941Y-135552402D01*
X106045977Y-135380345D01*
X106045975Y-135380342D01*
X105899657Y-135234024D01*
X105813626Y-135176541D01*
X105727598Y-135119059D01*
X105536420Y-135039870D01*
X105536412Y-135039868D01*
X105333469Y-134999500D01*
X105333465Y-134999500D01*
X105126535Y-134999500D01*
X105126530Y-134999500D01*
X104923587Y-135039868D01*
X104923579Y-135039870D01*
X104732403Y-135119058D01*
X104560342Y-135234024D01*
X104414024Y-135380342D01*
X104299058Y-135552403D01*
X104219870Y-135743579D01*
X104219868Y-135743587D01*
X104179500Y-135946530D01*
X102891907Y-135946530D01*
X102891868Y-135941368D01*
X102878720Y-134179655D01*
X102872951Y-133406530D01*
X104179500Y-133406530D01*
X104179500Y-133613469D01*
X104219868Y-133816412D01*
X104219870Y-133816420D01*
X104299058Y-134007596D01*
X104414024Y-134179657D01*
X104560342Y-134325975D01*
X104560345Y-134325977D01*
X104732402Y-134440941D01*
X104923580Y-134520130D01*
X105126530Y-134560499D01*
X105126534Y-134560500D01*
X105126535Y-134560500D01*
X105333466Y-134560500D01*
X105333467Y-134560499D01*
X105536420Y-134520130D01*
X105727598Y-134440941D01*
X105899655Y-134325977D01*
X106045977Y-134179655D01*
X106160941Y-134007598D01*
X106240130Y-133816420D01*
X106280500Y-133613465D01*
X106280500Y-133406535D01*
X106251353Y-133260000D01*
X106594638Y-133260000D01*
X107336988Y-133260000D01*
X107304075Y-133317007D01*
X107270000Y-133444174D01*
X107270000Y-133575826D01*
X107304075Y-133702993D01*
X107336988Y-133760000D01*
X106594638Y-133760000D01*
X106599548Y-133791002D01*
X106657914Y-133970637D01*
X106743670Y-134138940D01*
X106854685Y-134291741D01*
X106854689Y-134291746D01*
X106988253Y-134425310D01*
X106988258Y-134425314D01*
X107141059Y-134536329D01*
X107309362Y-134622085D01*
X107488997Y-134680451D01*
X107520000Y-134685362D01*
X107520000Y-133943012D01*
X107577007Y-133975925D01*
X107704174Y-134010000D01*
X107835826Y-134010000D01*
X107962993Y-133975925D01*
X108020000Y-133943012D01*
X108020000Y-134685361D01*
X108051002Y-134680451D01*
X108230637Y-134622085D01*
X108398940Y-134536329D01*
X108551741Y-134425314D01*
X108551746Y-134425310D01*
X108685310Y-134291746D01*
X108685314Y-134291741D01*
X108796329Y-134138940D01*
X108882085Y-133970637D01*
X108940451Y-133791002D01*
X108945362Y-133760000D01*
X108203012Y-133760000D01*
X108235925Y-133702993D01*
X108270000Y-133575826D01*
X108270000Y-133444174D01*
X108261751Y-133413389D01*
X128899500Y-133413389D01*
X128899500Y-133586611D01*
X128926598Y-133757701D01*
X128980127Y-133922445D01*
X129058768Y-134076788D01*
X129160586Y-134216928D01*
X129283072Y-134339414D01*
X129423212Y-134441232D01*
X129577555Y-134519873D01*
X129742299Y-134573402D01*
X129913389Y-134600500D01*
X129913390Y-134600500D01*
X130086610Y-134600500D01*
X130086611Y-134600500D01*
X130257701Y-134573402D01*
X130422445Y-134519873D01*
X130576788Y-134441232D01*
X130716928Y-134339414D01*
X130839414Y-134216928D01*
X130941232Y-134076788D01*
X131019873Y-133922445D01*
X131073402Y-133757701D01*
X131100500Y-133586611D01*
X131100500Y-133413389D01*
X134899500Y-133413389D01*
X134899500Y-133586611D01*
X134926598Y-133757701D01*
X134980127Y-133922445D01*
X135058768Y-134076788D01*
X135160586Y-134216928D01*
X135283072Y-134339414D01*
X135423212Y-134441232D01*
X135577555Y-134519873D01*
X135742299Y-134573402D01*
X135913389Y-134600500D01*
X135913390Y-134600500D01*
X136086610Y-134600500D01*
X136086611Y-134600500D01*
X136257701Y-134573402D01*
X136422445Y-134519873D01*
X136576788Y-134441232D01*
X136716928Y-134339414D01*
X136839414Y-134216928D01*
X136941232Y-134076788D01*
X137019873Y-133922445D01*
X137073402Y-133757701D01*
X137100500Y-133586611D01*
X137100500Y-133413389D01*
X137073402Y-133242299D01*
X137019873Y-133077555D01*
X136941232Y-132923212D01*
X136839414Y-132783072D01*
X136716928Y-132660586D01*
X136576788Y-132558768D01*
X136422445Y-132480127D01*
X136257701Y-132426598D01*
X136257699Y-132426597D01*
X136257698Y-132426597D01*
X136111386Y-132403424D01*
X136086611Y-132399500D01*
X135913389Y-132399500D01*
X135888614Y-132403424D01*
X135742302Y-132426597D01*
X135577552Y-132480128D01*
X135423211Y-132558768D01*
X135373771Y-132594689D01*
X135283072Y-132660586D01*
X135283070Y-132660588D01*
X135283069Y-132660588D01*
X135160588Y-132783069D01*
X135160588Y-132783070D01*
X135160586Y-132783072D01*
X135118977Y-132840342D01*
X135058768Y-132923211D01*
X134980128Y-133077552D01*
X134926597Y-133242302D01*
X134901404Y-133401368D01*
X134899500Y-133413389D01*
X131100500Y-133413389D01*
X131073402Y-133242299D01*
X131019873Y-133077555D01*
X130941232Y-132923212D01*
X130839414Y-132783072D01*
X130716928Y-132660586D01*
X130576788Y-132558768D01*
X130422445Y-132480127D01*
X130257701Y-132426598D01*
X130257699Y-132426597D01*
X130257698Y-132426597D01*
X130111386Y-132403424D01*
X130086611Y-132399500D01*
X129913389Y-132399500D01*
X129888614Y-132403424D01*
X129742302Y-132426597D01*
X129577552Y-132480128D01*
X129423211Y-132558768D01*
X129373771Y-132594689D01*
X129283072Y-132660586D01*
X129283070Y-132660588D01*
X129283069Y-132660588D01*
X129160588Y-132783069D01*
X129160588Y-132783070D01*
X129160586Y-132783072D01*
X129118977Y-132840342D01*
X129058768Y-132923211D01*
X128980128Y-133077552D01*
X128926597Y-133242302D01*
X128901404Y-133401368D01*
X128899500Y-133413389D01*
X108261751Y-133413389D01*
X108235925Y-133317007D01*
X108203012Y-133260000D01*
X108945362Y-133260000D01*
X108940451Y-133228997D01*
X108882085Y-133049362D01*
X108796329Y-132881059D01*
X108685314Y-132728258D01*
X108685310Y-132728253D01*
X108551746Y-132594689D01*
X108551741Y-132594685D01*
X108398940Y-132483670D01*
X108241450Y-132403424D01*
X108241448Y-132403422D01*
X108230639Y-132397914D01*
X108230636Y-132397913D01*
X108051004Y-132339549D01*
X108050995Y-132339547D01*
X108020000Y-132334637D01*
X108020000Y-133076988D01*
X107962993Y-133044075D01*
X107835826Y-133010000D01*
X107704174Y-133010000D01*
X107577007Y-133044075D01*
X107520000Y-133076988D01*
X107520000Y-132334637D01*
X107519999Y-132334637D01*
X107489004Y-132339547D01*
X107488995Y-132339549D01*
X107309364Y-132397913D01*
X107141059Y-132483670D01*
X106988258Y-132594685D01*
X106988253Y-132594689D01*
X106854689Y-132728253D01*
X106854685Y-132728258D01*
X106743670Y-132881059D01*
X106657914Y-133049362D01*
X106599548Y-133228997D01*
X106594638Y-133260000D01*
X106251353Y-133260000D01*
X106240130Y-133203580D01*
X106160941Y-133012402D01*
X106045977Y-132840345D01*
X106045975Y-132840342D01*
X105899657Y-132694024D01*
X105750984Y-132594685D01*
X105727598Y-132579059D01*
X105678611Y-132558768D01*
X105536420Y-132499870D01*
X105536412Y-132499868D01*
X105333469Y-132459500D01*
X105333465Y-132459500D01*
X105126535Y-132459500D01*
X105126530Y-132459500D01*
X104923587Y-132499868D01*
X104923579Y-132499870D01*
X104732403Y-132579058D01*
X104560342Y-132694024D01*
X104414024Y-132840342D01*
X104299058Y-133012403D01*
X104219870Y-133203579D01*
X104219868Y-133203587D01*
X104179500Y-133406530D01*
X102872951Y-133406530D01*
X102853996Y-130866530D01*
X104179500Y-130866530D01*
X104179500Y-131073469D01*
X104219868Y-131276412D01*
X104219870Y-131276420D01*
X104288544Y-131442214D01*
X104299059Y-131467598D01*
X104356541Y-131553626D01*
X104414024Y-131639657D01*
X104560342Y-131785975D01*
X104560345Y-131785977D01*
X104732402Y-131900941D01*
X104923580Y-131980130D01*
X105126530Y-132020499D01*
X105126534Y-132020500D01*
X105126535Y-132020500D01*
X105333466Y-132020500D01*
X105333467Y-132020499D01*
X105536420Y-131980130D01*
X105727598Y-131900941D01*
X105899655Y-131785977D01*
X106045977Y-131639655D01*
X106160941Y-131467598D01*
X106240130Y-131276420D01*
X106280500Y-131073465D01*
X106280500Y-130866535D01*
X106280499Y-130866530D01*
X106719500Y-130866530D01*
X106719500Y-131073469D01*
X106759868Y-131276412D01*
X106759870Y-131276420D01*
X106828544Y-131442214D01*
X106839059Y-131467598D01*
X106896541Y-131553626D01*
X106954024Y-131639657D01*
X107100342Y-131785975D01*
X107100345Y-131785977D01*
X107272402Y-131900941D01*
X107463580Y-131980130D01*
X107666530Y-132020499D01*
X107666534Y-132020500D01*
X107666535Y-132020500D01*
X107873466Y-132020500D01*
X107873467Y-132020499D01*
X108076420Y-131980130D01*
X108267598Y-131900941D01*
X108373769Y-131830000D01*
X113855261Y-131830000D01*
X115064314Y-131830000D01*
X115059920Y-131834394D01*
X115007259Y-131925606D01*
X114980000Y-132027339D01*
X114980000Y-132132661D01*
X115007259Y-132234394D01*
X115059920Y-132325606D01*
X115064314Y-132330000D01*
X113855261Y-132330000D01*
X113858315Y-132349285D01*
X113858318Y-132349295D01*
X113914250Y-132521441D01*
X113914252Y-132521447D01*
X113996434Y-132682734D01*
X114102823Y-132829169D01*
X114230830Y-132957176D01*
X114377265Y-133063565D01*
X114538552Y-133145747D01*
X114538555Y-133145748D01*
X114710706Y-133201682D01*
X114889494Y-133230000D01*
X115130000Y-133230000D01*
X115130000Y-132395686D01*
X115134394Y-132400080D01*
X115225606Y-132452741D01*
X115327339Y-132480000D01*
X115432661Y-132480000D01*
X115534394Y-132452741D01*
X115625606Y-132400080D01*
X115630000Y-132395686D01*
X115630000Y-133230000D01*
X115870506Y-133230000D01*
X116049293Y-133201682D01*
X116221444Y-133145748D01*
X116221447Y-133145747D01*
X116382734Y-133063565D01*
X116529169Y-132957176D01*
X116657176Y-132829169D01*
X116763565Y-132682734D01*
X116845747Y-132521447D01*
X116845749Y-132521441D01*
X116901681Y-132349295D01*
X116901684Y-132349285D01*
X116904739Y-132330000D01*
X115695686Y-132330000D01*
X115700080Y-132325606D01*
X115752741Y-132234394D01*
X115780000Y-132132661D01*
X115780000Y-132027339D01*
X115752741Y-131925606D01*
X115700080Y-131834394D01*
X115695686Y-131830000D01*
X116904739Y-131830000D01*
X116901684Y-131810714D01*
X116901681Y-131810704D01*
X116845749Y-131638558D01*
X116845747Y-131638552D01*
X116763565Y-131477265D01*
X116657176Y-131330830D01*
X116529169Y-131202823D01*
X116382734Y-131096434D01*
X116221447Y-131014252D01*
X116221444Y-131014251D01*
X116049293Y-130958317D01*
X115870506Y-130930000D01*
X115630000Y-130930000D01*
X115630000Y-131764314D01*
X115625606Y-131759920D01*
X115534394Y-131707259D01*
X115432661Y-131680000D01*
X115327339Y-131680000D01*
X115225606Y-131707259D01*
X115134394Y-131759920D01*
X115130000Y-131764314D01*
X115130000Y-130930000D01*
X114889494Y-130930000D01*
X114710706Y-130958317D01*
X114538555Y-131014251D01*
X114538552Y-131014252D01*
X114377265Y-131096434D01*
X114230830Y-131202823D01*
X114102823Y-131330830D01*
X113996434Y-131477265D01*
X113914252Y-131638552D01*
X113914250Y-131638558D01*
X113858318Y-131810704D01*
X113858315Y-131810714D01*
X113855261Y-131830000D01*
X108373769Y-131830000D01*
X108439655Y-131785977D01*
X108439658Y-131785974D01*
X108446253Y-131779380D01*
X108585974Y-131639658D01*
X108585975Y-131639657D01*
X108585977Y-131639655D01*
X108700941Y-131467598D01*
X108780130Y-131276420D01*
X108820500Y-131073465D01*
X108820500Y-130866535D01*
X108780130Y-130663580D01*
X108700941Y-130472402D01*
X108585977Y-130300345D01*
X108585975Y-130300342D01*
X108439657Y-130154024D01*
X108269383Y-130040252D01*
X108267598Y-130039059D01*
X108206907Y-130013920D01*
X108076420Y-129959870D01*
X108076412Y-129959868D01*
X107873469Y-129919500D01*
X107873465Y-129919500D01*
X107666535Y-129919500D01*
X107666530Y-129919500D01*
X107463587Y-129959868D01*
X107463579Y-129959870D01*
X107272403Y-130039058D01*
X107100342Y-130154024D01*
X106954024Y-130300342D01*
X106839058Y-130472403D01*
X106759870Y-130663579D01*
X106759868Y-130663587D01*
X106719500Y-130866530D01*
X106280499Y-130866530D01*
X106240130Y-130663580D01*
X106160941Y-130472402D01*
X106045977Y-130300345D01*
X106045975Y-130300342D01*
X105899657Y-130154024D01*
X105729383Y-130040252D01*
X105727598Y-130039059D01*
X105666907Y-130013920D01*
X105536420Y-129959870D01*
X105536412Y-129959868D01*
X105333469Y-129919500D01*
X105333465Y-129919500D01*
X105126535Y-129919500D01*
X105126530Y-129919500D01*
X104923587Y-129959868D01*
X104923579Y-129959870D01*
X104732403Y-130039058D01*
X104560342Y-130154024D01*
X104414024Y-130300342D01*
X104299058Y-130472403D01*
X104219870Y-130663579D01*
X104219868Y-130663587D01*
X104179500Y-130866530D01*
X102853996Y-130866530D01*
X102844832Y-129638543D01*
X113979499Y-129638543D01*
X114017947Y-129831829D01*
X114017950Y-129831839D01*
X114093364Y-130013907D01*
X114093371Y-130013920D01*
X114202860Y-130177781D01*
X114202863Y-130177785D01*
X114342214Y-130317136D01*
X114342218Y-130317139D01*
X114506079Y-130426628D01*
X114506092Y-130426635D01*
X114688160Y-130502049D01*
X114688165Y-130502051D01*
X114688169Y-130502051D01*
X114688170Y-130502052D01*
X114881456Y-130540500D01*
X114881459Y-130540500D01*
X115878543Y-130540500D01*
X116008582Y-130514632D01*
X116071835Y-130502051D01*
X116253914Y-130426632D01*
X116417782Y-130317139D01*
X116557139Y-130177782D01*
X116666632Y-130013914D01*
X116742051Y-129831835D01*
X116780500Y-129638541D01*
X116780500Y-129441459D01*
X116780500Y-129441456D01*
X116742052Y-129248170D01*
X116742051Y-129248169D01*
X116742051Y-129248165D01*
X116726964Y-129211741D01*
X116666635Y-129066092D01*
X116666628Y-129066079D01*
X116557139Y-128902218D01*
X116557136Y-128902214D01*
X116417785Y-128762863D01*
X116417781Y-128762860D01*
X116253920Y-128653371D01*
X116253907Y-128653364D01*
X116071839Y-128577950D01*
X116071829Y-128577947D01*
X115878543Y-128539500D01*
X115878541Y-128539500D01*
X114881459Y-128539500D01*
X114881457Y-128539500D01*
X114688170Y-128577947D01*
X114688160Y-128577950D01*
X114506092Y-128653364D01*
X114506079Y-128653371D01*
X114342218Y-128762860D01*
X114342214Y-128762863D01*
X114202863Y-128902214D01*
X114202860Y-128902218D01*
X114093371Y-129066079D01*
X114093364Y-129066092D01*
X114017950Y-129248160D01*
X114017947Y-129248170D01*
X113979500Y-129441456D01*
X113979500Y-129441459D01*
X113979500Y-129638541D01*
X113979500Y-129638543D01*
X113979499Y-129638543D01*
X102844832Y-129638543D01*
X102835041Y-128326530D01*
X104179500Y-128326530D01*
X104179500Y-128533469D01*
X104219868Y-128736412D01*
X104219870Y-128736420D01*
X104299058Y-128927596D01*
X104414024Y-129099657D01*
X104560342Y-129245975D01*
X104560345Y-129245977D01*
X104732402Y-129360941D01*
X104923580Y-129440130D01*
X105126530Y-129480499D01*
X105126534Y-129480500D01*
X105126535Y-129480500D01*
X105333466Y-129480500D01*
X105333467Y-129480499D01*
X105536420Y-129440130D01*
X105727598Y-129360941D01*
X105899655Y-129245977D01*
X106045977Y-129099655D01*
X106160941Y-128927598D01*
X106240130Y-128736420D01*
X106280500Y-128533465D01*
X106280500Y-128326535D01*
X106251353Y-128180000D01*
X106594638Y-128180000D01*
X107336988Y-128180000D01*
X107304075Y-128237007D01*
X107270000Y-128364174D01*
X107270000Y-128495826D01*
X107304075Y-128622993D01*
X107336988Y-128680000D01*
X106594638Y-128680000D01*
X106599548Y-128711002D01*
X106657914Y-128890637D01*
X106743670Y-129058940D01*
X106854685Y-129211741D01*
X106854689Y-129211746D01*
X106988253Y-129345310D01*
X106988258Y-129345314D01*
X107141059Y-129456329D01*
X107309362Y-129542085D01*
X107488997Y-129600451D01*
X107520000Y-129605362D01*
X107520000Y-128863012D01*
X107577007Y-128895925D01*
X107704174Y-128930000D01*
X107835826Y-128930000D01*
X107962993Y-128895925D01*
X108020000Y-128863012D01*
X108020000Y-129605361D01*
X108051002Y-129600451D01*
X108230637Y-129542085D01*
X108398940Y-129456329D01*
X108551741Y-129345314D01*
X108551746Y-129345310D01*
X108685310Y-129211746D01*
X108685314Y-129211741D01*
X108796329Y-129058940D01*
X108882085Y-128890637D01*
X108940451Y-128711002D01*
X108945362Y-128680000D01*
X108203012Y-128680000D01*
X108235925Y-128622993D01*
X108270000Y-128495826D01*
X108270000Y-128364174D01*
X108235925Y-128237007D01*
X108203012Y-128180000D01*
X108945362Y-128180000D01*
X108940451Y-128148997D01*
X108882085Y-127969362D01*
X108796329Y-127801059D01*
X108685314Y-127648258D01*
X108685310Y-127648253D01*
X108551746Y-127514689D01*
X108551741Y-127514685D01*
X108398940Y-127403670D01*
X108230635Y-127317913D01*
X108051004Y-127259549D01*
X108050995Y-127259547D01*
X108020000Y-127254637D01*
X108020000Y-127996988D01*
X107962993Y-127964075D01*
X107835826Y-127930000D01*
X107704174Y-127930000D01*
X107577007Y-127964075D01*
X107520000Y-127996988D01*
X107520000Y-127254637D01*
X107519999Y-127254637D01*
X107489004Y-127259547D01*
X107488995Y-127259549D01*
X107309364Y-127317913D01*
X107141059Y-127403670D01*
X106988258Y-127514685D01*
X106988253Y-127514689D01*
X106854689Y-127648253D01*
X106854685Y-127648258D01*
X106743670Y-127801059D01*
X106657914Y-127969362D01*
X106599548Y-128148997D01*
X106594638Y-128180000D01*
X106251353Y-128180000D01*
X106240130Y-128123580D01*
X106160941Y-127932402D01*
X106045977Y-127760345D01*
X106045975Y-127760342D01*
X105899657Y-127614024D01*
X105750984Y-127514685D01*
X105727598Y-127499059D01*
X105666907Y-127473920D01*
X105536420Y-127419870D01*
X105536412Y-127419868D01*
X105333469Y-127379500D01*
X105333465Y-127379500D01*
X105126535Y-127379500D01*
X105126530Y-127379500D01*
X104923587Y-127419868D01*
X104923579Y-127419870D01*
X104732403Y-127499058D01*
X104560342Y-127614024D01*
X104414024Y-127760342D01*
X104299058Y-127932403D01*
X104219870Y-128123579D01*
X104219868Y-128123587D01*
X104179500Y-128326530D01*
X102835041Y-128326530D01*
X102825877Y-127098543D01*
X113979499Y-127098543D01*
X114017947Y-127291829D01*
X114017950Y-127291839D01*
X114093364Y-127473907D01*
X114093371Y-127473920D01*
X114202860Y-127637781D01*
X114202863Y-127637785D01*
X114342214Y-127777136D01*
X114342218Y-127777139D01*
X114506079Y-127886628D01*
X114506092Y-127886635D01*
X114688160Y-127962049D01*
X114688165Y-127962051D01*
X114688169Y-127962051D01*
X114688170Y-127962052D01*
X114881456Y-128000500D01*
X114881459Y-128000500D01*
X115878543Y-128000500D01*
X115947162Y-127986850D01*
X117299499Y-127986850D01*
X117326418Y-128122176D01*
X117326421Y-128122186D01*
X117379222Y-128249661D01*
X117455887Y-128364399D01*
X117455888Y-128364400D01*
X120697569Y-131606079D01*
X121618032Y-132526542D01*
X121715604Y-132624114D01*
X121782279Y-132668665D01*
X121788174Y-132673780D01*
X121793422Y-132681960D01*
X121810005Y-132698543D01*
X121822857Y-132717777D01*
X121822863Y-132717785D01*
X121962214Y-132857136D01*
X121962218Y-132857139D01*
X122126079Y-132966628D01*
X122126092Y-132966635D01*
X122308160Y-133042049D01*
X122308165Y-133042051D01*
X122308169Y-133042051D01*
X122308170Y-133042052D01*
X122501456Y-133080500D01*
X122501459Y-133080500D01*
X123498543Y-133080500D01*
X123628582Y-133054632D01*
X123691835Y-133042051D01*
X123873914Y-132966632D01*
X124037782Y-132857139D01*
X124177139Y-132717782D01*
X124286632Y-132553914D01*
X124362051Y-132371835D01*
X124400500Y-132178541D01*
X124400500Y-131981459D01*
X124400500Y-131981456D01*
X124362052Y-131788170D01*
X124362051Y-131788169D01*
X124362051Y-131788165D01*
X124361144Y-131785975D01*
X124286635Y-131606092D01*
X124286628Y-131606079D01*
X124177139Y-131442218D01*
X124177136Y-131442214D01*
X124037785Y-131302863D01*
X124037781Y-131302860D01*
X123873920Y-131193371D01*
X123873907Y-131193364D01*
X123691839Y-131117950D01*
X123691829Y-131117947D01*
X123498543Y-131079500D01*
X123498541Y-131079500D01*
X122501459Y-131079500D01*
X122501457Y-131079500D01*
X122308166Y-131117948D01*
X122308160Y-131117950D01*
X122301680Y-131120634D01*
X122232210Y-131128098D01*
X122169733Y-131096820D01*
X122166553Y-131093751D01*
X120711345Y-129638543D01*
X121599499Y-129638543D01*
X121637947Y-129831829D01*
X121637950Y-129831839D01*
X121713364Y-130013907D01*
X121713371Y-130013920D01*
X121822860Y-130177781D01*
X121822863Y-130177785D01*
X121962214Y-130317136D01*
X121962218Y-130317139D01*
X122126079Y-130426628D01*
X122126092Y-130426635D01*
X122308160Y-130502049D01*
X122308165Y-130502051D01*
X122308169Y-130502051D01*
X122308170Y-130502052D01*
X122501456Y-130540500D01*
X122501459Y-130540500D01*
X123498543Y-130540500D01*
X123628582Y-130514632D01*
X123691835Y-130502051D01*
X123873914Y-130426632D01*
X124037782Y-130317139D01*
X124177139Y-130177782D01*
X124269037Y-130040247D01*
X128899500Y-130040247D01*
X128899500Y-131879752D01*
X128911131Y-131938229D01*
X128911132Y-131938230D01*
X128955447Y-132004552D01*
X129021769Y-132048867D01*
X129021770Y-132048868D01*
X129080247Y-132060499D01*
X129080250Y-132060500D01*
X129080252Y-132060500D01*
X130919750Y-132060500D01*
X130919751Y-132060499D01*
X130934568Y-132057552D01*
X130978229Y-132048868D01*
X130978229Y-132048867D01*
X130978231Y-132048867D01*
X131044552Y-132004552D01*
X131088867Y-131938231D01*
X131088867Y-131938229D01*
X131088868Y-131938229D01*
X131100499Y-131879752D01*
X131100500Y-131879750D01*
X131100500Y-130040249D01*
X131100499Y-130040247D01*
X134899500Y-130040247D01*
X134899500Y-131879752D01*
X134911131Y-131938229D01*
X134911132Y-131938230D01*
X134955447Y-132004552D01*
X135021769Y-132048867D01*
X135021770Y-132048868D01*
X135080247Y-132060499D01*
X135080250Y-132060500D01*
X135080252Y-132060500D01*
X136919750Y-132060500D01*
X136919751Y-132060499D01*
X136934568Y-132057552D01*
X136978229Y-132048868D01*
X136978229Y-132048867D01*
X136978231Y-132048867D01*
X137044552Y-132004552D01*
X137088867Y-131938231D01*
X137088867Y-131938229D01*
X137088868Y-131938229D01*
X137100499Y-131879752D01*
X137100500Y-131879750D01*
X137100500Y-130040249D01*
X137100499Y-130040247D01*
X137088868Y-129981770D01*
X137088867Y-129981769D01*
X137044552Y-129915447D01*
X136978230Y-129871132D01*
X136978229Y-129871131D01*
X136919752Y-129859500D01*
X136919748Y-129859500D01*
X135080252Y-129859500D01*
X135080247Y-129859500D01*
X135021770Y-129871131D01*
X135021769Y-129871132D01*
X134955447Y-129915447D01*
X134911132Y-129981769D01*
X134911131Y-129981770D01*
X134899500Y-130040247D01*
X131100499Y-130040247D01*
X131088868Y-129981770D01*
X131088867Y-129981769D01*
X131044552Y-129915447D01*
X130978230Y-129871132D01*
X130978229Y-129871131D01*
X130919752Y-129859500D01*
X130919748Y-129859500D01*
X129080252Y-129859500D01*
X129080247Y-129859500D01*
X129021770Y-129871131D01*
X129021769Y-129871132D01*
X128955447Y-129915447D01*
X128911132Y-129981769D01*
X128911131Y-129981770D01*
X128899500Y-130040247D01*
X124269037Y-130040247D01*
X124286632Y-130013914D01*
X124362051Y-129831835D01*
X124400500Y-129638541D01*
X124400500Y-129441459D01*
X124400500Y-129441456D01*
X124362052Y-129248170D01*
X124362051Y-129248169D01*
X124362051Y-129248165D01*
X124346964Y-129211741D01*
X124286635Y-129066092D01*
X124286628Y-129066079D01*
X124177139Y-128902218D01*
X124177136Y-128902214D01*
X124037785Y-128762863D01*
X124037781Y-128762860D01*
X123873920Y-128653371D01*
X123873907Y-128653364D01*
X123691839Y-128577950D01*
X123691829Y-128577947D01*
X123498543Y-128539500D01*
X123498541Y-128539500D01*
X122501459Y-128539500D01*
X122501457Y-128539500D01*
X122308170Y-128577947D01*
X122308160Y-128577950D01*
X122126092Y-128653364D01*
X122126079Y-128653371D01*
X121962218Y-128762860D01*
X121962214Y-128762863D01*
X121822863Y-128902214D01*
X121822860Y-128902218D01*
X121713371Y-129066079D01*
X121713364Y-129066092D01*
X121637950Y-129248160D01*
X121637947Y-129248170D01*
X121599500Y-129441456D01*
X121599500Y-129441459D01*
X121599500Y-129638541D01*
X121599500Y-129638543D01*
X121599499Y-129638543D01*
X120711345Y-129638543D01*
X120595850Y-129523048D01*
X120433743Y-129360941D01*
X118736819Y-127664016D01*
X118703334Y-127602693D01*
X118700500Y-127576335D01*
X118700500Y-127098543D01*
X121599499Y-127098543D01*
X121637947Y-127291829D01*
X121637950Y-127291839D01*
X121713364Y-127473907D01*
X121713371Y-127473920D01*
X121822860Y-127637781D01*
X121822863Y-127637785D01*
X121962214Y-127777136D01*
X121962218Y-127777139D01*
X122126079Y-127886628D01*
X122126092Y-127886635D01*
X122308160Y-127962049D01*
X122308165Y-127962051D01*
X122308169Y-127962051D01*
X122308170Y-127962052D01*
X122501456Y-128000500D01*
X122501459Y-128000500D01*
X123498543Y-128000500D01*
X123628582Y-127974632D01*
X123691835Y-127962051D01*
X123873914Y-127886632D01*
X124037782Y-127777139D01*
X124177139Y-127637782D01*
X124286632Y-127473914D01*
X124362051Y-127291835D01*
X124400500Y-127098541D01*
X124400500Y-126901459D01*
X124400500Y-126901456D01*
X124362052Y-126708170D01*
X124362051Y-126708169D01*
X124362051Y-126708165D01*
X124361144Y-126705975D01*
X124286635Y-126526092D01*
X124286628Y-126526079D01*
X124177139Y-126362218D01*
X124177136Y-126362214D01*
X124037785Y-126222863D01*
X124037781Y-126222860D01*
X123873920Y-126113371D01*
X123873907Y-126113364D01*
X123691839Y-126037950D01*
X123691829Y-126037947D01*
X123498543Y-125999500D01*
X123498541Y-125999500D01*
X122501459Y-125999500D01*
X122501457Y-125999500D01*
X122308170Y-126037947D01*
X122308160Y-126037950D01*
X122126092Y-126113364D01*
X122126079Y-126113371D01*
X121962218Y-126222860D01*
X121962214Y-126222863D01*
X121822863Y-126362214D01*
X121822860Y-126362218D01*
X121713371Y-126526079D01*
X121713364Y-126526092D01*
X121637950Y-126708160D01*
X121637947Y-126708170D01*
X121599500Y-126901456D01*
X121599500Y-126901459D01*
X121599500Y-127098541D01*
X121599500Y-127098543D01*
X121599499Y-127098543D01*
X118700500Y-127098543D01*
X118700500Y-124558543D01*
X121599499Y-124558543D01*
X121637947Y-124751829D01*
X121637950Y-124751839D01*
X121713364Y-124933907D01*
X121713371Y-124933920D01*
X121822860Y-125097781D01*
X121822863Y-125097785D01*
X121962214Y-125237136D01*
X121962218Y-125237139D01*
X122126079Y-125346628D01*
X122126092Y-125346635D01*
X122308160Y-125422049D01*
X122308165Y-125422051D01*
X122308169Y-125422051D01*
X122308170Y-125422052D01*
X122501456Y-125460500D01*
X122501459Y-125460500D01*
X123498543Y-125460500D01*
X123628582Y-125434632D01*
X123691835Y-125422051D01*
X123873914Y-125346632D01*
X124037782Y-125237139D01*
X124177139Y-125097782D01*
X124286632Y-124933914D01*
X124362051Y-124751835D01*
X124382051Y-124651290D01*
X124400500Y-124558543D01*
X124400500Y-124361456D01*
X124362052Y-124168170D01*
X124362051Y-124168169D01*
X124362051Y-124168165D01*
X124308322Y-124038450D01*
X124286635Y-123986092D01*
X124286628Y-123986079D01*
X124177139Y-123822218D01*
X124177136Y-123822214D01*
X124037785Y-123682863D01*
X124037781Y-123682860D01*
X123873920Y-123573371D01*
X123873907Y-123573364D01*
X123691839Y-123497950D01*
X123691829Y-123497947D01*
X123498543Y-123459500D01*
X123498541Y-123459500D01*
X122501459Y-123459500D01*
X122501457Y-123459500D01*
X122308170Y-123497947D01*
X122308160Y-123497950D01*
X122126092Y-123573364D01*
X122126079Y-123573371D01*
X121962218Y-123682860D01*
X121962214Y-123682863D01*
X121822863Y-123822214D01*
X121822860Y-123822218D01*
X121713371Y-123986079D01*
X121713364Y-123986092D01*
X121637950Y-124168160D01*
X121637947Y-124168170D01*
X121599500Y-124361456D01*
X121599500Y-124361459D01*
X121599500Y-124558541D01*
X121599500Y-124558543D01*
X121599499Y-124558543D01*
X118700500Y-124558543D01*
X118700500Y-122018543D01*
X121599499Y-122018543D01*
X121637947Y-122211829D01*
X121637950Y-122211839D01*
X121713364Y-122393907D01*
X121713371Y-122393920D01*
X121822860Y-122557781D01*
X121822863Y-122557785D01*
X121962214Y-122697136D01*
X121962218Y-122697139D01*
X122126079Y-122806628D01*
X122126092Y-122806635D01*
X122308160Y-122882049D01*
X122308165Y-122882051D01*
X122308169Y-122882051D01*
X122308170Y-122882052D01*
X122501456Y-122920500D01*
X122501459Y-122920500D01*
X123498543Y-122920500D01*
X123628582Y-122894632D01*
X123691835Y-122882051D01*
X123873914Y-122806632D01*
X124037782Y-122697139D01*
X124177139Y-122557782D01*
X124286632Y-122393914D01*
X124362051Y-122211835D01*
X124400500Y-122018541D01*
X124400500Y-121821459D01*
X124400500Y-121821456D01*
X124362052Y-121628170D01*
X124362051Y-121628169D01*
X124362051Y-121628165D01*
X124328074Y-121546136D01*
X124286635Y-121446092D01*
X124286628Y-121446079D01*
X124177139Y-121282218D01*
X124177136Y-121282214D01*
X124037785Y-121142863D01*
X124037781Y-121142860D01*
X123873920Y-121033371D01*
X123873907Y-121033364D01*
X123691839Y-120957950D01*
X123691829Y-120957947D01*
X123498543Y-120919500D01*
X123498541Y-120919500D01*
X122501459Y-120919500D01*
X122501457Y-120919500D01*
X122308170Y-120957947D01*
X122308160Y-120957950D01*
X122126092Y-121033364D01*
X122126079Y-121033371D01*
X121962218Y-121142860D01*
X121962214Y-121142863D01*
X121822863Y-121282214D01*
X121822860Y-121282218D01*
X121713371Y-121446079D01*
X121713364Y-121446092D01*
X121637950Y-121628160D01*
X121637947Y-121628170D01*
X121599500Y-121821456D01*
X121599500Y-121821459D01*
X121599500Y-122018541D01*
X121599500Y-122018543D01*
X121599499Y-122018543D01*
X118700500Y-122018543D01*
X118700500Y-119478543D01*
X121599499Y-119478543D01*
X121637947Y-119671829D01*
X121637950Y-119671839D01*
X121713364Y-119853907D01*
X121713371Y-119853920D01*
X121822860Y-120017781D01*
X121822863Y-120017785D01*
X121962214Y-120157136D01*
X121962218Y-120157139D01*
X122126079Y-120266628D01*
X122126092Y-120266635D01*
X122302511Y-120339709D01*
X122308165Y-120342051D01*
X122308169Y-120342051D01*
X122308170Y-120342052D01*
X122501456Y-120380500D01*
X122501459Y-120380500D01*
X123498543Y-120380500D01*
X123628582Y-120354632D01*
X123691835Y-120342051D01*
X123873914Y-120266632D01*
X124037782Y-120157139D01*
X124177139Y-120017782D01*
X124286632Y-119853914D01*
X124362051Y-119671835D01*
X124391083Y-119525883D01*
X124400500Y-119478543D01*
X124400500Y-119281456D01*
X124362052Y-119088170D01*
X124362051Y-119088169D01*
X124362051Y-119088165D01*
X124361144Y-119085975D01*
X124286635Y-118906092D01*
X124286628Y-118906079D01*
X124177139Y-118742218D01*
X124177136Y-118742214D01*
X124037785Y-118602863D01*
X124037781Y-118602860D01*
X123873920Y-118493371D01*
X123873907Y-118493364D01*
X123691839Y-118417950D01*
X123691829Y-118417947D01*
X123498543Y-118379500D01*
X123498541Y-118379500D01*
X122501459Y-118379500D01*
X122501457Y-118379500D01*
X122308170Y-118417947D01*
X122308160Y-118417950D01*
X122126092Y-118493364D01*
X122126079Y-118493371D01*
X121962218Y-118602860D01*
X121962214Y-118602863D01*
X121822863Y-118742214D01*
X121822860Y-118742218D01*
X121713371Y-118906079D01*
X121713364Y-118906092D01*
X121637950Y-119088160D01*
X121637947Y-119088170D01*
X121599500Y-119281456D01*
X121599500Y-119281459D01*
X121599500Y-119478541D01*
X121599500Y-119478543D01*
X121599499Y-119478543D01*
X118700500Y-119478543D01*
X118700500Y-116938543D01*
X121599499Y-116938543D01*
X121637947Y-117131829D01*
X121637950Y-117131839D01*
X121713364Y-117313907D01*
X121713371Y-117313920D01*
X121822860Y-117477781D01*
X121822863Y-117477785D01*
X121962214Y-117617136D01*
X121962218Y-117617139D01*
X122126079Y-117726628D01*
X122126092Y-117726635D01*
X122308160Y-117802049D01*
X122308165Y-117802051D01*
X122308169Y-117802051D01*
X122308170Y-117802052D01*
X122501456Y-117840500D01*
X122501459Y-117840500D01*
X123498543Y-117840500D01*
X123628582Y-117814632D01*
X123691835Y-117802051D01*
X123873914Y-117726632D01*
X124037782Y-117617139D01*
X124177139Y-117477782D01*
X124286632Y-117313914D01*
X124362051Y-117131835D01*
X124400500Y-116938541D01*
X124400500Y-116741459D01*
X124400500Y-116741456D01*
X124362052Y-116548170D01*
X124362051Y-116548169D01*
X124362051Y-116548165D01*
X124346964Y-116511741D01*
X124286635Y-116366092D01*
X124286628Y-116366079D01*
X124177139Y-116202218D01*
X124177136Y-116202214D01*
X124037785Y-116062863D01*
X124037781Y-116062860D01*
X123873920Y-115953371D01*
X123873907Y-115953364D01*
X123691839Y-115877950D01*
X123691829Y-115877947D01*
X123498543Y-115839500D01*
X123498541Y-115839500D01*
X122501459Y-115839500D01*
X122501457Y-115839500D01*
X122308170Y-115877947D01*
X122308160Y-115877950D01*
X122126092Y-115953364D01*
X122126079Y-115953371D01*
X121962218Y-116062860D01*
X121962214Y-116062863D01*
X121822863Y-116202214D01*
X121822860Y-116202218D01*
X121713371Y-116366079D01*
X121713364Y-116366092D01*
X121637950Y-116548160D01*
X121637947Y-116548170D01*
X121599500Y-116741456D01*
X121599500Y-116741459D01*
X121599500Y-116938541D01*
X121599500Y-116938543D01*
X121599499Y-116938543D01*
X118700500Y-116938543D01*
X118700500Y-114398543D01*
X121599499Y-114398543D01*
X121637947Y-114591829D01*
X121637950Y-114591839D01*
X121713364Y-114773907D01*
X121713371Y-114773920D01*
X121822860Y-114937781D01*
X121822863Y-114937785D01*
X121962214Y-115077136D01*
X121962218Y-115077139D01*
X122126079Y-115186628D01*
X122126092Y-115186635D01*
X122285814Y-115252793D01*
X122308165Y-115262051D01*
X122308169Y-115262051D01*
X122308170Y-115262052D01*
X122501456Y-115300500D01*
X122501459Y-115300500D01*
X123498543Y-115300500D01*
X123628582Y-115274632D01*
X123691835Y-115262051D01*
X123873914Y-115186632D01*
X124037782Y-115077139D01*
X124177139Y-114937782D01*
X124286632Y-114773914D01*
X124362051Y-114591835D01*
X124374632Y-114528582D01*
X124400500Y-114398543D01*
X124400500Y-114201456D01*
X124362052Y-114008170D01*
X124362051Y-114008169D01*
X124362051Y-114008165D01*
X124361144Y-114005975D01*
X124286635Y-113826092D01*
X124286628Y-113826079D01*
X124177139Y-113662218D01*
X124177136Y-113662214D01*
X124037785Y-113522863D01*
X124037781Y-113522860D01*
X123873920Y-113413371D01*
X123873907Y-113413364D01*
X123691839Y-113337950D01*
X123691829Y-113337947D01*
X123498543Y-113299500D01*
X123498541Y-113299500D01*
X122501459Y-113299500D01*
X122501457Y-113299500D01*
X122308170Y-113337947D01*
X122308160Y-113337950D01*
X122126092Y-113413364D01*
X122126079Y-113413371D01*
X121962218Y-113522860D01*
X121962214Y-113522863D01*
X121822863Y-113662214D01*
X121822860Y-113662218D01*
X121713371Y-113826079D01*
X121713364Y-113826092D01*
X121637950Y-114008160D01*
X121637947Y-114008170D01*
X121599500Y-114201456D01*
X121599500Y-114201459D01*
X121599500Y-114398541D01*
X121599500Y-114398543D01*
X121599499Y-114398543D01*
X118700500Y-114398543D01*
X118700500Y-106617553D01*
X118720185Y-106550514D01*
X118736819Y-106529872D01*
X120129872Y-105136819D01*
X120191195Y-105103334D01*
X120217553Y-105100500D01*
X121405681Y-105100500D01*
X121472720Y-105120185D01*
X121505999Y-105151615D01*
X121530490Y-105185324D01*
X121530494Y-105185329D01*
X121664670Y-105319505D01*
X121664675Y-105319509D01*
X121798567Y-105416786D01*
X121818180Y-105431036D01*
X121925907Y-105485925D01*
X121987243Y-105517179D01*
X121987245Y-105517179D01*
X121987248Y-105517181D01*
X122083980Y-105548611D01*
X122167710Y-105575817D01*
X122355120Y-105605500D01*
X122355125Y-105605500D01*
X122544879Y-105605500D01*
X122586036Y-105598981D01*
X122655330Y-105607935D01*
X122693116Y-105633773D01*
X126263181Y-109203838D01*
X126296666Y-109265161D01*
X126299500Y-109291519D01*
X126299500Y-120585876D01*
X126299500Y-120723864D01*
X126299500Y-120723866D01*
X126299499Y-120723866D01*
X126326418Y-120859192D01*
X126326421Y-120859202D01*
X126379222Y-120986677D01*
X126455887Y-121101415D01*
X126455888Y-121101416D01*
X129481134Y-124126661D01*
X129514619Y-124187984D01*
X129515043Y-124235335D01*
X129515097Y-124235341D01*
X129515047Y-124235839D01*
X129515072Y-124238523D01*
X129514500Y-124241396D01*
X129514500Y-124448339D01*
X129554868Y-124651282D01*
X129554870Y-124651290D01*
X129634058Y-124842466D01*
X129749024Y-125014527D01*
X129895342Y-125160845D01*
X129895345Y-125160847D01*
X130067402Y-125275811D01*
X130258580Y-125355000D01*
X130446614Y-125392402D01*
X130461530Y-125395369D01*
X130461534Y-125395370D01*
X130461535Y-125395370D01*
X130918466Y-125395370D01*
X130918467Y-125395369D01*
X131121420Y-125355000D01*
X131312598Y-125275811D01*
X131484655Y-125160847D01*
X131630977Y-125014525D01*
X131745941Y-124842468D01*
X131825130Y-124651290D01*
X131865500Y-124448335D01*
X131865500Y-124241405D01*
X131825130Y-124038450D01*
X131745941Y-123847272D01*
X131630977Y-123675215D01*
X131630975Y-123675212D01*
X131484657Y-123528894D01*
X131315437Y-123415826D01*
X131312598Y-123413929D01*
X131121420Y-123334740D01*
X131121412Y-123334738D01*
X130918469Y-123294370D01*
X130918465Y-123294370D01*
X130681519Y-123294370D01*
X130652078Y-123285725D01*
X130622092Y-123279202D01*
X130617076Y-123275447D01*
X130614480Y-123274685D01*
X130593838Y-123258051D01*
X130442838Y-123107051D01*
X130409353Y-123045728D01*
X130414337Y-122976036D01*
X130456209Y-122920103D01*
X130521673Y-122895686D01*
X130530519Y-122895370D01*
X130918466Y-122895370D01*
X130918467Y-122895369D01*
X131121420Y-122855000D01*
X131312598Y-122775811D01*
X131484655Y-122660847D01*
X131630977Y-122514525D01*
X131745941Y-122342468D01*
X131825130Y-122151290D01*
X131865500Y-121948335D01*
X131865500Y-121741405D01*
X131825130Y-121538450D01*
X131745941Y-121347272D01*
X131630977Y-121175215D01*
X131630975Y-121175212D01*
X131484657Y-121028894D01*
X131398626Y-120971411D01*
X131312598Y-120913929D01*
X131311487Y-120913469D01*
X131121420Y-120834740D01*
X131121412Y-120834738D01*
X130918469Y-120794370D01*
X130918465Y-120794370D01*
X130461535Y-120794370D01*
X130461530Y-120794370D01*
X130258587Y-120834738D01*
X130258579Y-120834740D01*
X130067403Y-120913928D01*
X129895342Y-121028894D01*
X129749024Y-121175212D01*
X129634058Y-121347273D01*
X129554870Y-121538449D01*
X129554868Y-121538457D01*
X129514500Y-121741400D01*
X129514500Y-121879351D01*
X129494815Y-121946390D01*
X129442011Y-121992145D01*
X129372853Y-122002089D01*
X129309297Y-121973064D01*
X129302819Y-121967032D01*
X127736819Y-120401032D01*
X127703334Y-120339709D01*
X127700500Y-120313351D01*
X127700500Y-119241400D01*
X129514500Y-119241400D01*
X129514500Y-119448339D01*
X129554868Y-119651282D01*
X129554870Y-119651290D01*
X129586936Y-119728705D01*
X129634059Y-119842468D01*
X129658508Y-119879059D01*
X129749024Y-120014527D01*
X129895342Y-120160845D01*
X129895345Y-120160847D01*
X130067402Y-120275811D01*
X130258580Y-120355000D01*
X130461530Y-120395369D01*
X130461534Y-120395370D01*
X130461535Y-120395370D01*
X130918466Y-120395370D01*
X130918467Y-120395369D01*
X131121420Y-120355000D01*
X131312598Y-120275811D01*
X131484655Y-120160847D01*
X131630977Y-120014525D01*
X131745941Y-119842468D01*
X131825130Y-119651290D01*
X131850074Y-119525888D01*
X131850075Y-119525883D01*
X137207694Y-119525883D01*
X137207694Y-121365388D01*
X137219325Y-121423865D01*
X137219326Y-121423866D01*
X137263641Y-121490188D01*
X137329963Y-121534503D01*
X137329964Y-121534504D01*
X137388441Y-121546135D01*
X137388444Y-121546136D01*
X137388446Y-121546136D01*
X139227944Y-121546136D01*
X139227945Y-121546135D01*
X139242762Y-121543188D01*
X139286423Y-121534504D01*
X139286423Y-121534503D01*
X139286425Y-121534503D01*
X139352746Y-121490188D01*
X139397061Y-121423867D01*
X139397061Y-121423865D01*
X139397062Y-121423865D01*
X139408693Y-121365388D01*
X139408694Y-121365386D01*
X139408694Y-120359025D01*
X139747694Y-120359025D01*
X139747694Y-120532247D01*
X139774792Y-120703337D01*
X139828321Y-120868081D01*
X139906962Y-121022424D01*
X140008780Y-121162564D01*
X140131266Y-121285050D01*
X140271406Y-121386868D01*
X140425749Y-121465509D01*
X140590493Y-121519038D01*
X140761583Y-121546136D01*
X140761584Y-121546136D01*
X140934804Y-121546136D01*
X140934805Y-121546136D01*
X141105895Y-121519038D01*
X141270639Y-121465509D01*
X141424982Y-121386868D01*
X141565122Y-121285050D01*
X141687608Y-121162564D01*
X141789426Y-121022424D01*
X141868067Y-120868081D01*
X141921596Y-120703337D01*
X141948694Y-120532247D01*
X141948694Y-120359025D01*
X141921596Y-120187935D01*
X141868067Y-120023191D01*
X141789426Y-119868848D01*
X141687608Y-119728708D01*
X141565122Y-119606222D01*
X141424982Y-119504404D01*
X141270639Y-119425763D01*
X141105895Y-119372234D01*
X141105893Y-119372233D01*
X141105892Y-119372233D01*
X140974465Y-119351417D01*
X140934805Y-119345136D01*
X140761583Y-119345136D01*
X140721922Y-119351417D01*
X140590496Y-119372233D01*
X140425746Y-119425764D01*
X140271405Y-119504404D01*
X140191450Y-119562495D01*
X140131266Y-119606222D01*
X140131264Y-119606224D01*
X140131263Y-119606224D01*
X140008782Y-119728705D01*
X140008782Y-119728706D01*
X140008780Y-119728708D01*
X139986408Y-119759500D01*
X139906962Y-119868847D01*
X139828322Y-120023188D01*
X139774791Y-120187938D01*
X139762327Y-120266635D01*
X139747694Y-120359025D01*
X139408694Y-120359025D01*
X139408694Y-119525885D01*
X139408693Y-119525883D01*
X139397062Y-119467406D01*
X139397061Y-119467405D01*
X139352746Y-119401083D01*
X139286424Y-119356768D01*
X139286423Y-119356767D01*
X139227946Y-119345136D01*
X139227942Y-119345136D01*
X137388446Y-119345136D01*
X137388441Y-119345136D01*
X137329964Y-119356767D01*
X137329963Y-119356768D01*
X137263641Y-119401083D01*
X137219326Y-119467405D01*
X137219325Y-119467406D01*
X137207694Y-119525883D01*
X131850075Y-119525883D01*
X131856098Y-119495605D01*
X131865499Y-119448339D01*
X131865500Y-119448336D01*
X131865500Y-119241404D01*
X131865499Y-119241400D01*
X131835018Y-119088160D01*
X131825130Y-119038450D01*
X131745941Y-118847272D01*
X131630977Y-118675215D01*
X131630975Y-118675212D01*
X131484657Y-118528894D01*
X131398626Y-118471411D01*
X131312598Y-118413929D01*
X131121420Y-118334740D01*
X131121412Y-118334738D01*
X130918469Y-118294370D01*
X130918465Y-118294370D01*
X130461535Y-118294370D01*
X130461530Y-118294370D01*
X130258587Y-118334738D01*
X130258579Y-118334740D01*
X130067403Y-118413928D01*
X129895342Y-118528894D01*
X129749024Y-118675212D01*
X129634058Y-118847273D01*
X129554870Y-119038449D01*
X129554868Y-119038457D01*
X129514500Y-119241400D01*
X127700500Y-119241400D01*
X127700500Y-116741400D01*
X129514500Y-116741400D01*
X129514500Y-116948339D01*
X129554868Y-117151282D01*
X129554870Y-117151290D01*
X129634058Y-117342466D01*
X129749024Y-117514527D01*
X129895342Y-117660845D01*
X129895345Y-117660847D01*
X130067402Y-117775811D01*
X130258580Y-117855000D01*
X130461530Y-117895369D01*
X130461534Y-117895370D01*
X130461535Y-117895370D01*
X130918466Y-117895370D01*
X130918467Y-117895369D01*
X131121420Y-117855000D01*
X131312598Y-117775811D01*
X131484655Y-117660847D01*
X131630977Y-117514525D01*
X131745941Y-117342468D01*
X131825130Y-117151290D01*
X131865500Y-116948335D01*
X131865500Y-116741405D01*
X131825130Y-116538450D01*
X131745941Y-116347272D01*
X131630977Y-116175215D01*
X131630975Y-116175212D01*
X131484657Y-116028894D01*
X131398626Y-115971411D01*
X131312598Y-115913929D01*
X131225730Y-115877947D01*
X131121420Y-115834740D01*
X131121412Y-115834738D01*
X130918469Y-115794370D01*
X130918465Y-115794370D01*
X130461535Y-115794370D01*
X130461530Y-115794370D01*
X130258587Y-115834738D01*
X130258579Y-115834740D01*
X130067403Y-115913928D01*
X129895342Y-116028894D01*
X129749024Y-116175212D01*
X129634058Y-116347273D01*
X129554870Y-116538449D01*
X129554868Y-116538457D01*
X129514500Y-116741400D01*
X127700500Y-116741400D01*
X127700500Y-113690600D01*
X129514500Y-113690600D01*
X129514500Y-114999139D01*
X129517353Y-115029569D01*
X129517353Y-115029571D01*
X129562206Y-115157750D01*
X129562207Y-115157752D01*
X129642850Y-115267020D01*
X129752118Y-115347663D01*
X129794845Y-115362614D01*
X129880299Y-115392516D01*
X129910730Y-115395370D01*
X129910734Y-115395370D01*
X131469270Y-115395370D01*
X131499699Y-115392516D01*
X131499701Y-115392516D01*
X131563790Y-115370089D01*
X131627882Y-115347663D01*
X131737150Y-115267020D01*
X131817793Y-115157752D01*
X131849253Y-115067845D01*
X131862646Y-115029571D01*
X131862646Y-115029569D01*
X131865500Y-114999139D01*
X131865500Y-113690600D01*
X131862646Y-113660171D01*
X131843751Y-113606173D01*
X131831550Y-113571304D01*
X137207694Y-113571304D01*
X137207694Y-115410809D01*
X137219325Y-115469286D01*
X137219326Y-115469287D01*
X137263641Y-115535609D01*
X137329963Y-115579924D01*
X137329964Y-115579925D01*
X137388441Y-115591556D01*
X137388444Y-115591557D01*
X137388446Y-115591557D01*
X139227944Y-115591557D01*
X139227945Y-115591556D01*
X139242762Y-115588609D01*
X139286423Y-115579925D01*
X139286423Y-115579924D01*
X139286425Y-115579924D01*
X139352746Y-115535609D01*
X139397061Y-115469288D01*
X139397061Y-115469286D01*
X139397062Y-115469286D01*
X139405746Y-115425625D01*
X139408694Y-115410805D01*
X139408694Y-114404446D01*
X139747694Y-114404446D01*
X139747694Y-114577668D01*
X139754068Y-114617913D01*
X139770216Y-114719870D01*
X139774792Y-114748758D01*
X139828321Y-114913502D01*
X139906962Y-115067845D01*
X140008780Y-115207985D01*
X140131266Y-115330471D01*
X140271406Y-115432289D01*
X140425749Y-115510930D01*
X140590493Y-115564459D01*
X140761583Y-115591557D01*
X140761584Y-115591557D01*
X140934804Y-115591557D01*
X140934805Y-115591557D01*
X141105895Y-115564459D01*
X141270639Y-115510930D01*
X141424982Y-115432289D01*
X141565122Y-115330471D01*
X141687608Y-115207985D01*
X141789426Y-115067845D01*
X141868067Y-114913502D01*
X141921596Y-114748758D01*
X141948694Y-114577668D01*
X141948694Y-114404446D01*
X141921596Y-114233356D01*
X141868067Y-114068612D01*
X141789426Y-113914269D01*
X141687608Y-113774129D01*
X141565122Y-113651643D01*
X141424982Y-113549825D01*
X141270639Y-113471184D01*
X141105895Y-113417655D01*
X141105893Y-113417654D01*
X141105892Y-113417654D01*
X140974465Y-113396838D01*
X140934805Y-113390557D01*
X140761583Y-113390557D01*
X140721922Y-113396838D01*
X140590496Y-113417654D01*
X140425746Y-113471185D01*
X140271405Y-113549825D01*
X140193853Y-113606171D01*
X140131266Y-113651643D01*
X140131264Y-113651645D01*
X140131263Y-113651645D01*
X140008782Y-113774126D01*
X140008782Y-113774127D01*
X140008780Y-113774129D01*
X139971036Y-113826079D01*
X139906962Y-113914268D01*
X139828322Y-114068609D01*
X139774791Y-114233359D01*
X139748629Y-114398541D01*
X139747694Y-114404446D01*
X139408694Y-114404446D01*
X139408694Y-113571309D01*
X139408694Y-113571306D01*
X139408693Y-113571304D01*
X139397062Y-113512827D01*
X139397061Y-113512826D01*
X139352746Y-113446504D01*
X139286424Y-113402189D01*
X139286423Y-113402188D01*
X139227946Y-113390557D01*
X139227942Y-113390557D01*
X137388446Y-113390557D01*
X137388441Y-113390557D01*
X137329964Y-113402188D01*
X137329963Y-113402189D01*
X137263641Y-113446504D01*
X137219326Y-113512826D01*
X137219325Y-113512827D01*
X137207694Y-113571304D01*
X131831550Y-113571304D01*
X131817793Y-113531988D01*
X131737150Y-113422720D01*
X131627882Y-113342077D01*
X131627880Y-113342076D01*
X131499700Y-113297223D01*
X131469270Y-113294370D01*
X131469266Y-113294370D01*
X129910734Y-113294370D01*
X129910730Y-113294370D01*
X129880300Y-113297223D01*
X129880298Y-113297223D01*
X129752119Y-113342076D01*
X129752117Y-113342077D01*
X129642850Y-113422720D01*
X129562207Y-113531987D01*
X129562206Y-113531989D01*
X129517353Y-113660168D01*
X129517353Y-113660170D01*
X129514500Y-113690600D01*
X127700500Y-113690600D01*
X127700500Y-108881004D01*
X127673581Y-108745677D01*
X127673580Y-108745676D01*
X127673580Y-108745672D01*
X127620775Y-108618189D01*
X127579584Y-108556542D01*
X127544114Y-108503457D01*
X127544111Y-108503453D01*
X124628591Y-105587934D01*
X124545776Y-105505119D01*
X126344500Y-105505119D01*
X126344500Y-105694880D01*
X126374182Y-105882289D01*
X126432820Y-106062756D01*
X126468133Y-106132060D01*
X126506337Y-106207039D01*
X126518966Y-106231823D01*
X126630490Y-106385324D01*
X126630494Y-106385329D01*
X126764670Y-106519505D01*
X126764675Y-106519509D01*
X126848115Y-106580131D01*
X126918180Y-106631036D01*
X127025907Y-106685925D01*
X127087243Y-106717179D01*
X127087245Y-106717179D01*
X127087248Y-106717181D01*
X127183980Y-106748611D01*
X127267710Y-106775817D01*
X127455120Y-106805500D01*
X127455125Y-106805500D01*
X127644880Y-106805500D01*
X127832289Y-106775817D01*
X128012752Y-106717181D01*
X128181820Y-106631036D01*
X128335331Y-106519504D01*
X128469504Y-106385331D01*
X128581036Y-106231820D01*
X128667181Y-106062752D01*
X128725817Y-105882289D01*
X128734180Y-105829488D01*
X128755500Y-105694880D01*
X128755500Y-105505119D01*
X128725817Y-105317710D01*
X128667179Y-105137243D01*
X128634140Y-105072402D01*
X128581036Y-104968180D01*
X128531749Y-104900342D01*
X128469509Y-104814675D01*
X128469505Y-104814670D01*
X128335329Y-104680494D01*
X128335324Y-104680490D01*
X128181823Y-104568966D01*
X128181822Y-104568965D01*
X128181820Y-104568964D01*
X128117196Y-104536036D01*
X128012756Y-104482820D01*
X127832289Y-104424182D01*
X127644880Y-104394500D01*
X127644875Y-104394500D01*
X127455125Y-104394500D01*
X127455120Y-104394500D01*
X127267710Y-104424182D01*
X127087243Y-104482820D01*
X126918176Y-104568966D01*
X126764675Y-104680490D01*
X126764670Y-104680494D01*
X126630494Y-104814670D01*
X126630490Y-104814675D01*
X126518966Y-104968176D01*
X126432820Y-105137243D01*
X126374182Y-105317710D01*
X126344500Y-105505119D01*
X124545776Y-105505119D01*
X123683773Y-104643116D01*
X123650288Y-104581793D01*
X123648981Y-104536036D01*
X123655500Y-104494879D01*
X123655500Y-104305119D01*
X123625817Y-104117710D01*
X123574879Y-103960941D01*
X123567181Y-103937248D01*
X123567179Y-103937245D01*
X123567179Y-103937243D01*
X123503234Y-103811746D01*
X123481036Y-103768180D01*
X123443489Y-103716501D01*
X123369509Y-103614675D01*
X123369505Y-103614670D01*
X123235329Y-103480494D01*
X123235324Y-103480490D01*
X123081823Y-103368966D01*
X123081822Y-103368965D01*
X123081820Y-103368964D01*
X123017934Y-103336412D01*
X122912756Y-103282820D01*
X122732289Y-103224182D01*
X122544880Y-103194500D01*
X122544875Y-103194500D01*
X122355125Y-103194500D01*
X122355120Y-103194500D01*
X122167710Y-103224182D01*
X121987243Y-103282820D01*
X121818176Y-103368966D01*
X121664675Y-103480490D01*
X121664670Y-103480494D01*
X121530494Y-103614670D01*
X121530490Y-103614675D01*
X121505999Y-103648385D01*
X121450669Y-103691051D01*
X121405681Y-103699500D01*
X120017020Y-103699500D01*
X119992827Y-103697117D01*
X119954948Y-103689582D01*
X119954947Y-103689582D01*
X119816959Y-103689582D01*
X119816954Y-103689582D01*
X119704075Y-103712035D01*
X119681631Y-103716500D01*
X119681628Y-103716501D01*
X119681627Y-103716501D01*
X119681624Y-103716502D01*
X119647831Y-103730500D01*
X119554149Y-103769303D01*
X119554138Y-103769309D01*
X119490627Y-103811746D01*
X119439410Y-103845968D01*
X119341839Y-103943539D01*
X119341837Y-103943541D01*
X117455888Y-105829488D01*
X117455885Y-105829491D01*
X117385935Y-105934181D01*
X117379229Y-105944217D01*
X117379223Y-105944227D01*
X117326420Y-106071706D01*
X117326418Y-106071712D01*
X117299500Y-106207039D01*
X117299500Y-106207042D01*
X117299500Y-127848860D01*
X117299500Y-127986848D01*
X117299500Y-127986850D01*
X117299499Y-127986850D01*
X115947162Y-127986850D01*
X116008582Y-127974632D01*
X116071835Y-127962051D01*
X116253914Y-127886632D01*
X116417782Y-127777139D01*
X116557139Y-127637782D01*
X116666632Y-127473914D01*
X116742051Y-127291835D01*
X116780500Y-127098541D01*
X116780500Y-126901459D01*
X116780500Y-126901456D01*
X116742052Y-126708170D01*
X116742051Y-126708169D01*
X116742051Y-126708165D01*
X116741144Y-126705975D01*
X116666635Y-126526092D01*
X116666628Y-126526079D01*
X116557139Y-126362218D01*
X116557136Y-126362214D01*
X116417785Y-126222863D01*
X116417781Y-126222860D01*
X116253920Y-126113371D01*
X116253907Y-126113364D01*
X116071839Y-126037950D01*
X116071829Y-126037947D01*
X115878543Y-125999500D01*
X115878541Y-125999500D01*
X114881459Y-125999500D01*
X114881457Y-125999500D01*
X114688170Y-126037947D01*
X114688160Y-126037950D01*
X114506092Y-126113364D01*
X114506079Y-126113371D01*
X114342218Y-126222860D01*
X114342214Y-126222863D01*
X114202863Y-126362214D01*
X114202860Y-126362218D01*
X114093371Y-126526079D01*
X114093364Y-126526092D01*
X114017950Y-126708160D01*
X114017947Y-126708170D01*
X113979500Y-126901456D01*
X113979500Y-126901459D01*
X113979500Y-127098541D01*
X113979500Y-127098543D01*
X113979499Y-127098543D01*
X102825877Y-127098543D01*
X102816086Y-125786530D01*
X104179500Y-125786530D01*
X104179500Y-125993469D01*
X104219868Y-126196412D01*
X104219870Y-126196420D01*
X104299058Y-126387596D01*
X104414024Y-126559657D01*
X104560342Y-126705975D01*
X104560345Y-126705977D01*
X104732402Y-126820941D01*
X104923580Y-126900130D01*
X105126530Y-126940499D01*
X105126534Y-126940500D01*
X105126535Y-126940500D01*
X105333466Y-126940500D01*
X105333467Y-126940499D01*
X105536420Y-126900130D01*
X105727598Y-126820941D01*
X105899655Y-126705977D01*
X106045977Y-126559655D01*
X106160941Y-126387598D01*
X106240130Y-126196420D01*
X106280500Y-125993465D01*
X106280500Y-125786535D01*
X106280499Y-125786530D01*
X106719500Y-125786530D01*
X106719500Y-125993469D01*
X106759868Y-126196412D01*
X106759870Y-126196420D01*
X106839058Y-126387596D01*
X106954024Y-126559657D01*
X107100342Y-126705975D01*
X107100345Y-126705977D01*
X107272402Y-126820941D01*
X107463580Y-126900130D01*
X107666530Y-126940499D01*
X107666534Y-126940500D01*
X107666535Y-126940500D01*
X107873466Y-126940500D01*
X107873467Y-126940499D01*
X108076420Y-126900130D01*
X108267598Y-126820941D01*
X108288563Y-126806932D01*
X108310511Y-126792268D01*
X108310516Y-126792264D01*
X108439655Y-126705977D01*
X108585977Y-126559655D01*
X108700941Y-126387598D01*
X108780130Y-126196420D01*
X108820500Y-125993465D01*
X108820500Y-125786535D01*
X108780130Y-125583580D01*
X108700941Y-125392402D01*
X108585977Y-125220345D01*
X108585975Y-125220342D01*
X108439657Y-125074024D01*
X108350609Y-125014525D01*
X108267598Y-124959059D01*
X108206907Y-124933920D01*
X108076420Y-124879870D01*
X108076412Y-124879868D01*
X107873469Y-124839500D01*
X107873465Y-124839500D01*
X107666535Y-124839500D01*
X107666530Y-124839500D01*
X107463587Y-124879868D01*
X107463579Y-124879870D01*
X107272403Y-124959058D01*
X107100342Y-125074024D01*
X106954024Y-125220342D01*
X106839058Y-125392403D01*
X106759870Y-125583579D01*
X106759868Y-125583587D01*
X106719500Y-125786530D01*
X106280499Y-125786530D01*
X106240130Y-125583580D01*
X106160941Y-125392402D01*
X106045977Y-125220345D01*
X106045975Y-125220342D01*
X105899657Y-125074024D01*
X105810609Y-125014525D01*
X105727598Y-124959059D01*
X105666907Y-124933920D01*
X105536420Y-124879870D01*
X105536412Y-124879868D01*
X105333469Y-124839500D01*
X105333465Y-124839500D01*
X105126535Y-124839500D01*
X105126530Y-124839500D01*
X104923587Y-124879868D01*
X104923579Y-124879870D01*
X104732403Y-124959058D01*
X104560342Y-125074024D01*
X104414024Y-125220342D01*
X104299058Y-125392403D01*
X104219870Y-125583579D01*
X104219868Y-125583587D01*
X104179500Y-125786530D01*
X102816086Y-125786530D01*
X102816047Y-125781368D01*
X102806921Y-124558543D01*
X113979499Y-124558543D01*
X114017947Y-124751829D01*
X114017950Y-124751839D01*
X114093364Y-124933907D01*
X114093371Y-124933920D01*
X114202860Y-125097781D01*
X114202863Y-125097785D01*
X114342214Y-125237136D01*
X114342218Y-125237139D01*
X114506079Y-125346628D01*
X114506092Y-125346635D01*
X114688160Y-125422049D01*
X114688165Y-125422051D01*
X114688169Y-125422051D01*
X114688170Y-125422052D01*
X114881456Y-125460500D01*
X114881459Y-125460500D01*
X115878543Y-125460500D01*
X116008582Y-125434632D01*
X116071835Y-125422051D01*
X116253914Y-125346632D01*
X116417782Y-125237139D01*
X116557139Y-125097782D01*
X116666632Y-124933914D01*
X116742051Y-124751835D01*
X116762051Y-124651290D01*
X116780500Y-124558543D01*
X116780500Y-124361456D01*
X116742052Y-124168170D01*
X116742051Y-124168169D01*
X116742051Y-124168165D01*
X116688322Y-124038450D01*
X116666635Y-123986092D01*
X116666628Y-123986079D01*
X116557139Y-123822218D01*
X116557136Y-123822214D01*
X116417785Y-123682863D01*
X116417781Y-123682860D01*
X116253920Y-123573371D01*
X116253907Y-123573364D01*
X116071839Y-123497950D01*
X116071829Y-123497947D01*
X115878543Y-123459500D01*
X115878541Y-123459500D01*
X114881459Y-123459500D01*
X114881457Y-123459500D01*
X114688170Y-123497947D01*
X114688160Y-123497950D01*
X114506092Y-123573364D01*
X114506079Y-123573371D01*
X114342218Y-123682860D01*
X114342214Y-123682863D01*
X114202863Y-123822214D01*
X114202860Y-123822218D01*
X114093371Y-123986079D01*
X114093364Y-123986092D01*
X114017950Y-124168160D01*
X114017947Y-124168170D01*
X113979500Y-124361456D01*
X113979500Y-124361459D01*
X113979500Y-124558541D01*
X113979500Y-124558543D01*
X113979499Y-124558543D01*
X102806921Y-124558543D01*
X102799498Y-123563862D01*
X102797422Y-123285725D01*
X102796036Y-123100000D01*
X104054638Y-123100000D01*
X104796988Y-123100000D01*
X104764075Y-123157007D01*
X104730000Y-123284174D01*
X104730000Y-123415826D01*
X104764075Y-123542993D01*
X104796988Y-123600000D01*
X104054638Y-123600000D01*
X104059548Y-123631002D01*
X104117914Y-123810637D01*
X104203670Y-123978940D01*
X104314685Y-124131741D01*
X104314689Y-124131746D01*
X104448253Y-124265310D01*
X104448258Y-124265314D01*
X104601059Y-124376329D01*
X104769362Y-124462085D01*
X104948997Y-124520451D01*
X104980000Y-124525362D01*
X104980000Y-123783012D01*
X105037007Y-123815925D01*
X105164174Y-123850000D01*
X105295826Y-123850000D01*
X105422993Y-123815925D01*
X105480000Y-123783012D01*
X105480000Y-124525361D01*
X105511002Y-124520451D01*
X105690637Y-124462085D01*
X105858940Y-124376329D01*
X106011741Y-124265314D01*
X106011746Y-124265310D01*
X106145310Y-124131746D01*
X106145314Y-124131741D01*
X106256329Y-123978940D01*
X106342085Y-123810637D01*
X106400451Y-123631002D01*
X106405362Y-123600000D01*
X105663012Y-123600000D01*
X105695925Y-123542993D01*
X105730000Y-123415826D01*
X105730000Y-123284174D01*
X105719913Y-123246530D01*
X106719500Y-123246530D01*
X106719500Y-123453469D01*
X106759868Y-123656412D01*
X106759870Y-123656420D01*
X106839058Y-123847596D01*
X106954024Y-124019657D01*
X107100342Y-124165975D01*
X107100345Y-124165977D01*
X107272402Y-124280941D01*
X107463580Y-124360130D01*
X107666530Y-124400499D01*
X107666534Y-124400500D01*
X107666535Y-124400500D01*
X107873466Y-124400500D01*
X107873467Y-124400499D01*
X108076420Y-124360130D01*
X108267598Y-124280941D01*
X108290992Y-124265310D01*
X108310511Y-124252268D01*
X108310516Y-124252264D01*
X108326768Y-124241405D01*
X108439655Y-124165977D01*
X108585977Y-124019655D01*
X108700941Y-123847598D01*
X108780130Y-123656420D01*
X108820500Y-123453465D01*
X108820500Y-123246535D01*
X108780130Y-123043580D01*
X108700941Y-122852402D01*
X108585977Y-122680345D01*
X108585975Y-122680342D01*
X108439657Y-122534024D01*
X108290984Y-122434685D01*
X108267598Y-122419059D01*
X108206907Y-122393920D01*
X108076420Y-122339870D01*
X108076412Y-122339868D01*
X107873469Y-122299500D01*
X107873465Y-122299500D01*
X107666535Y-122299500D01*
X107666530Y-122299500D01*
X107463587Y-122339868D01*
X107463579Y-122339870D01*
X107272403Y-122419058D01*
X107100342Y-122534024D01*
X106954024Y-122680342D01*
X106839058Y-122852403D01*
X106759870Y-123043579D01*
X106759868Y-123043587D01*
X106719500Y-123246530D01*
X105719913Y-123246530D01*
X105695925Y-123157007D01*
X105663012Y-123100000D01*
X106405362Y-123100000D01*
X106400451Y-123068997D01*
X106342085Y-122889362D01*
X106256329Y-122721059D01*
X106145314Y-122568258D01*
X106145310Y-122568253D01*
X106011746Y-122434689D01*
X106011741Y-122434685D01*
X105858940Y-122323670D01*
X105690635Y-122237913D01*
X105511004Y-122179549D01*
X105510995Y-122179547D01*
X105480000Y-122174637D01*
X105480000Y-122916988D01*
X105422993Y-122884075D01*
X105295826Y-122850000D01*
X105164174Y-122850000D01*
X105037007Y-122884075D01*
X104980000Y-122916988D01*
X104980000Y-122174637D01*
X104979999Y-122174637D01*
X104949004Y-122179547D01*
X104948995Y-122179549D01*
X104769364Y-122237913D01*
X104601059Y-122323670D01*
X104448258Y-122434685D01*
X104448253Y-122434689D01*
X104314689Y-122568253D01*
X104314685Y-122568258D01*
X104203670Y-122721059D01*
X104117914Y-122889362D01*
X104059548Y-123068997D01*
X104054638Y-123100000D01*
X102796036Y-123100000D01*
X102787966Y-122018543D01*
X113979499Y-122018543D01*
X114017947Y-122211829D01*
X114017950Y-122211839D01*
X114093364Y-122393907D01*
X114093371Y-122393920D01*
X114202860Y-122557781D01*
X114202863Y-122557785D01*
X114342214Y-122697136D01*
X114342218Y-122697139D01*
X114506079Y-122806628D01*
X114506092Y-122806635D01*
X114688160Y-122882049D01*
X114688165Y-122882051D01*
X114688169Y-122882051D01*
X114688170Y-122882052D01*
X114881456Y-122920500D01*
X114881459Y-122920500D01*
X115878543Y-122920500D01*
X116008582Y-122894632D01*
X116071835Y-122882051D01*
X116253914Y-122806632D01*
X116417782Y-122697139D01*
X116557139Y-122557782D01*
X116666632Y-122393914D01*
X116742051Y-122211835D01*
X116780500Y-122018541D01*
X116780500Y-121821459D01*
X116780500Y-121821456D01*
X116742052Y-121628170D01*
X116742051Y-121628169D01*
X116742051Y-121628165D01*
X116708074Y-121546136D01*
X116666635Y-121446092D01*
X116666628Y-121446079D01*
X116557139Y-121282218D01*
X116557136Y-121282214D01*
X116417785Y-121142863D01*
X116417781Y-121142860D01*
X116253920Y-121033371D01*
X116253907Y-121033364D01*
X116071839Y-120957950D01*
X116071829Y-120957947D01*
X115878543Y-120919500D01*
X115878541Y-120919500D01*
X114881459Y-120919500D01*
X114881457Y-120919500D01*
X114688170Y-120957947D01*
X114688160Y-120957950D01*
X114506092Y-121033364D01*
X114506079Y-121033371D01*
X114342218Y-121142860D01*
X114342214Y-121142863D01*
X114202863Y-121282214D01*
X114202860Y-121282218D01*
X114093371Y-121446079D01*
X114093364Y-121446092D01*
X114017950Y-121628160D01*
X114017947Y-121628170D01*
X113979500Y-121821456D01*
X113979500Y-121821459D01*
X113979500Y-122018541D01*
X113979500Y-122018543D01*
X113979499Y-122018543D01*
X102787966Y-122018543D01*
X102785053Y-121628170D01*
X102778175Y-120706530D01*
X104179500Y-120706530D01*
X104179500Y-120913469D01*
X104219868Y-121116412D01*
X104219870Y-121116420D01*
X104288544Y-121282214D01*
X104299059Y-121307598D01*
X104352025Y-121386868D01*
X104414024Y-121479657D01*
X104560342Y-121625975D01*
X104560345Y-121625977D01*
X104732402Y-121740941D01*
X104923580Y-121820130D01*
X105126530Y-121860499D01*
X105126534Y-121860500D01*
X105126535Y-121860500D01*
X105333466Y-121860500D01*
X105333467Y-121860499D01*
X105536420Y-121820130D01*
X105727598Y-121740941D01*
X105899655Y-121625977D01*
X106045977Y-121479655D01*
X106160941Y-121307598D01*
X106240130Y-121116420D01*
X106280500Y-120913465D01*
X106280500Y-120706535D01*
X106280499Y-120706530D01*
X106719500Y-120706530D01*
X106719500Y-120913469D01*
X106759868Y-121116412D01*
X106759870Y-121116420D01*
X106828544Y-121282214D01*
X106839059Y-121307598D01*
X106892025Y-121386868D01*
X106954024Y-121479657D01*
X107100342Y-121625975D01*
X107100345Y-121625977D01*
X107272402Y-121740941D01*
X107463580Y-121820130D01*
X107666530Y-121860499D01*
X107666534Y-121860500D01*
X107666535Y-121860500D01*
X107873466Y-121860500D01*
X107873467Y-121860499D01*
X108076420Y-121820130D01*
X108267598Y-121740941D01*
X108288563Y-121726932D01*
X108310511Y-121712268D01*
X108310516Y-121712264D01*
X108439655Y-121625977D01*
X108585977Y-121479655D01*
X108700941Y-121307598D01*
X108780130Y-121116420D01*
X108820500Y-120913465D01*
X108820500Y-120706535D01*
X108780130Y-120503580D01*
X108700941Y-120312402D01*
X108585977Y-120140345D01*
X108585975Y-120140342D01*
X108439657Y-119994024D01*
X108353626Y-119936541D01*
X108267598Y-119879059D01*
X108242944Y-119868847D01*
X108076420Y-119799870D01*
X108076412Y-119799868D01*
X107873469Y-119759500D01*
X107873465Y-119759500D01*
X107666535Y-119759500D01*
X107666530Y-119759500D01*
X107463587Y-119799868D01*
X107463579Y-119799870D01*
X107272403Y-119879058D01*
X107100342Y-119994024D01*
X106954024Y-120140342D01*
X106839058Y-120312403D01*
X106759870Y-120503579D01*
X106759868Y-120503587D01*
X106719500Y-120706530D01*
X106280499Y-120706530D01*
X106240130Y-120503580D01*
X106160941Y-120312402D01*
X106045977Y-120140345D01*
X106045975Y-120140342D01*
X105899657Y-119994024D01*
X105813626Y-119936541D01*
X105727598Y-119879059D01*
X105702944Y-119868847D01*
X105536420Y-119799870D01*
X105536412Y-119799868D01*
X105333469Y-119759500D01*
X105333465Y-119759500D01*
X105126535Y-119759500D01*
X105126530Y-119759500D01*
X104923587Y-119799868D01*
X104923579Y-119799870D01*
X104732403Y-119879058D01*
X104560342Y-119994024D01*
X104414024Y-120140342D01*
X104299058Y-120312403D01*
X104219870Y-120503579D01*
X104219868Y-120503587D01*
X104179500Y-120706530D01*
X102778175Y-120706530D01*
X102769011Y-119478543D01*
X113979499Y-119478543D01*
X114017947Y-119671829D01*
X114017950Y-119671839D01*
X114093364Y-119853907D01*
X114093371Y-119853920D01*
X114202860Y-120017781D01*
X114202863Y-120017785D01*
X114342214Y-120157136D01*
X114342218Y-120157139D01*
X114506079Y-120266628D01*
X114506092Y-120266635D01*
X114682511Y-120339709D01*
X114688165Y-120342051D01*
X114688169Y-120342051D01*
X114688170Y-120342052D01*
X114881456Y-120380500D01*
X114881459Y-120380500D01*
X115878543Y-120380500D01*
X116008582Y-120354632D01*
X116071835Y-120342051D01*
X116253914Y-120266632D01*
X116417782Y-120157139D01*
X116557139Y-120017782D01*
X116666632Y-119853914D01*
X116742051Y-119671835D01*
X116771083Y-119525883D01*
X116780500Y-119478543D01*
X116780500Y-119281456D01*
X116742052Y-119088170D01*
X116742051Y-119088169D01*
X116742051Y-119088165D01*
X116741144Y-119085975D01*
X116666635Y-118906092D01*
X116666628Y-118906079D01*
X116557139Y-118742218D01*
X116557136Y-118742214D01*
X116417785Y-118602863D01*
X116417781Y-118602860D01*
X116253920Y-118493371D01*
X116253907Y-118493364D01*
X116071839Y-118417950D01*
X116071829Y-118417947D01*
X115878543Y-118379500D01*
X115878541Y-118379500D01*
X114881459Y-118379500D01*
X114881457Y-118379500D01*
X114688170Y-118417947D01*
X114688160Y-118417950D01*
X114506092Y-118493364D01*
X114506079Y-118493371D01*
X114342218Y-118602860D01*
X114342214Y-118602863D01*
X114202863Y-118742214D01*
X114202860Y-118742218D01*
X114093371Y-118906079D01*
X114093364Y-118906092D01*
X114017950Y-119088160D01*
X114017947Y-119088170D01*
X113979500Y-119281456D01*
X113979500Y-119281459D01*
X113979500Y-119478541D01*
X113979500Y-119478543D01*
X113979499Y-119478543D01*
X102769011Y-119478543D01*
X102760475Y-118334738D01*
X102759220Y-118166530D01*
X104179500Y-118166530D01*
X104179500Y-118373469D01*
X104219868Y-118576412D01*
X104219870Y-118576420D01*
X104299058Y-118767596D01*
X104414024Y-118939657D01*
X104560342Y-119085975D01*
X104560345Y-119085977D01*
X104732402Y-119200941D01*
X104923580Y-119280130D01*
X105126530Y-119320499D01*
X105126534Y-119320500D01*
X105126535Y-119320500D01*
X105333466Y-119320500D01*
X105333467Y-119320499D01*
X105536420Y-119280130D01*
X105727598Y-119200941D01*
X105899655Y-119085977D01*
X106045977Y-118939655D01*
X106160941Y-118767598D01*
X106240130Y-118576420D01*
X106280500Y-118373465D01*
X106280500Y-118166535D01*
X106280499Y-118166530D01*
X106719500Y-118166530D01*
X106719500Y-118373469D01*
X106759868Y-118576412D01*
X106759870Y-118576420D01*
X106839058Y-118767596D01*
X106954024Y-118939657D01*
X107100342Y-119085975D01*
X107100345Y-119085977D01*
X107272402Y-119200941D01*
X107463580Y-119280130D01*
X107666530Y-119320499D01*
X107666534Y-119320500D01*
X107666535Y-119320500D01*
X107873466Y-119320500D01*
X107873467Y-119320499D01*
X108076420Y-119280130D01*
X108267598Y-119200941D01*
X108288563Y-119186932D01*
X108310511Y-119172268D01*
X108310516Y-119172264D01*
X108439655Y-119085977D01*
X108585977Y-118939655D01*
X108700941Y-118767598D01*
X108780130Y-118576420D01*
X108820500Y-118373465D01*
X108820500Y-118166535D01*
X108780130Y-117963580D01*
X108700941Y-117772402D01*
X108585977Y-117600345D01*
X108585975Y-117600342D01*
X108439657Y-117454024D01*
X108353626Y-117396541D01*
X108267598Y-117339059D01*
X108206907Y-117313920D01*
X108076420Y-117259870D01*
X108076412Y-117259868D01*
X107873469Y-117219500D01*
X107873465Y-117219500D01*
X107666535Y-117219500D01*
X107666530Y-117219500D01*
X107463587Y-117259868D01*
X107463579Y-117259870D01*
X107272403Y-117339058D01*
X107100342Y-117454024D01*
X106954024Y-117600342D01*
X106839058Y-117772403D01*
X106759870Y-117963579D01*
X106759868Y-117963587D01*
X106719500Y-118166530D01*
X106280499Y-118166530D01*
X106240130Y-117963580D01*
X106160941Y-117772402D01*
X106045977Y-117600345D01*
X106045975Y-117600342D01*
X105899657Y-117454024D01*
X105813626Y-117396541D01*
X105727598Y-117339059D01*
X105666907Y-117313920D01*
X105536420Y-117259870D01*
X105536412Y-117259868D01*
X105333469Y-117219500D01*
X105333465Y-117219500D01*
X105126535Y-117219500D01*
X105126530Y-117219500D01*
X104923587Y-117259868D01*
X104923579Y-117259870D01*
X104732403Y-117339058D01*
X104560342Y-117454024D01*
X104414024Y-117600342D01*
X104299058Y-117772403D01*
X104219870Y-117963579D01*
X104219868Y-117963587D01*
X104179500Y-118166530D01*
X102759220Y-118166530D01*
X102759181Y-118161368D01*
X102755446Y-117660845D01*
X102750055Y-116938543D01*
X113979499Y-116938543D01*
X114017947Y-117131829D01*
X114017950Y-117131839D01*
X114093364Y-117313907D01*
X114093371Y-117313920D01*
X114202860Y-117477781D01*
X114202863Y-117477785D01*
X114342214Y-117617136D01*
X114342218Y-117617139D01*
X114506079Y-117726628D01*
X114506092Y-117726635D01*
X114688160Y-117802049D01*
X114688165Y-117802051D01*
X114688169Y-117802051D01*
X114688170Y-117802052D01*
X114881456Y-117840500D01*
X114881459Y-117840500D01*
X115878543Y-117840500D01*
X116008582Y-117814632D01*
X116071835Y-117802051D01*
X116253914Y-117726632D01*
X116417782Y-117617139D01*
X116557139Y-117477782D01*
X116666632Y-117313914D01*
X116742051Y-117131835D01*
X116780500Y-116938541D01*
X116780500Y-116741459D01*
X116780500Y-116741456D01*
X116742052Y-116548170D01*
X116742051Y-116548169D01*
X116742051Y-116548165D01*
X116726964Y-116511741D01*
X116666635Y-116366092D01*
X116666628Y-116366079D01*
X116557139Y-116202218D01*
X116557136Y-116202214D01*
X116417785Y-116062863D01*
X116417781Y-116062860D01*
X116253920Y-115953371D01*
X116253907Y-115953364D01*
X116071839Y-115877950D01*
X116071829Y-115877947D01*
X115878543Y-115839500D01*
X115878541Y-115839500D01*
X114881459Y-115839500D01*
X114881457Y-115839500D01*
X114688170Y-115877947D01*
X114688160Y-115877950D01*
X114506092Y-115953364D01*
X114506079Y-115953371D01*
X114342218Y-116062860D01*
X114342214Y-116062863D01*
X114202863Y-116202214D01*
X114202860Y-116202218D01*
X114093371Y-116366079D01*
X114093364Y-116366092D01*
X114017950Y-116548160D01*
X114017947Y-116548170D01*
X113979500Y-116741456D01*
X113979500Y-116741459D01*
X113979500Y-116938541D01*
X113979500Y-116938543D01*
X113979499Y-116938543D01*
X102750055Y-116938543D01*
X102740264Y-115626530D01*
X104179500Y-115626530D01*
X104179500Y-115833469D01*
X104219868Y-116036412D01*
X104219870Y-116036420D01*
X104299058Y-116227596D01*
X104414024Y-116399657D01*
X104560342Y-116545975D01*
X104560345Y-116545977D01*
X104732402Y-116660941D01*
X104923580Y-116740130D01*
X105126530Y-116780499D01*
X105126534Y-116780500D01*
X105126535Y-116780500D01*
X105333466Y-116780500D01*
X105333467Y-116780499D01*
X105536420Y-116740130D01*
X105727598Y-116660941D01*
X105899655Y-116545977D01*
X106045977Y-116399655D01*
X106160941Y-116227598D01*
X106240130Y-116036420D01*
X106280500Y-115833465D01*
X106280500Y-115626535D01*
X106274090Y-115594313D01*
X106263537Y-115541254D01*
X106251352Y-115480000D01*
X106594638Y-115480000D01*
X107336988Y-115480000D01*
X107304075Y-115537007D01*
X107270000Y-115664174D01*
X107270000Y-115795826D01*
X107304075Y-115922993D01*
X107336988Y-115980000D01*
X106594638Y-115980000D01*
X106599548Y-116011002D01*
X106657914Y-116190637D01*
X106743670Y-116358940D01*
X106854685Y-116511741D01*
X106854689Y-116511746D01*
X106988253Y-116645310D01*
X106988258Y-116645314D01*
X107141059Y-116756329D01*
X107309362Y-116842085D01*
X107488997Y-116900451D01*
X107520000Y-116905362D01*
X107520000Y-116163012D01*
X107577007Y-116195925D01*
X107704174Y-116230000D01*
X107835826Y-116230000D01*
X107962993Y-116195925D01*
X108020000Y-116163012D01*
X108020000Y-116905361D01*
X108051002Y-116900451D01*
X108230637Y-116842085D01*
X108398940Y-116756329D01*
X108551741Y-116645314D01*
X108551746Y-116645310D01*
X108685310Y-116511746D01*
X108685314Y-116511741D01*
X108796329Y-116358940D01*
X108882085Y-116190637D01*
X108940451Y-116011002D01*
X108945362Y-115980000D01*
X108203012Y-115980000D01*
X108235925Y-115922993D01*
X108270000Y-115795826D01*
X108270000Y-115664174D01*
X108235925Y-115537007D01*
X108203012Y-115480000D01*
X108945362Y-115480000D01*
X108940451Y-115448997D01*
X108882085Y-115269362D01*
X108796329Y-115101059D01*
X108685314Y-114948258D01*
X108685310Y-114948253D01*
X108551746Y-114814689D01*
X108551741Y-114814685D01*
X108398940Y-114703670D01*
X108230635Y-114617913D01*
X108051004Y-114559549D01*
X108050995Y-114559547D01*
X108020000Y-114554637D01*
X108020000Y-115296988D01*
X107962993Y-115264075D01*
X107835826Y-115230000D01*
X107704174Y-115230000D01*
X107577007Y-115264075D01*
X107520000Y-115296988D01*
X107520000Y-114554637D01*
X107519999Y-114554637D01*
X107489004Y-114559547D01*
X107488995Y-114559549D01*
X107309364Y-114617913D01*
X107141059Y-114703670D01*
X106988258Y-114814685D01*
X106988253Y-114814689D01*
X106854689Y-114948253D01*
X106854685Y-114948258D01*
X106743670Y-115101059D01*
X106657914Y-115269362D01*
X106599548Y-115448997D01*
X106594638Y-115480000D01*
X106251352Y-115480000D01*
X106249221Y-115469286D01*
X106240130Y-115423580D01*
X106160941Y-115232402D01*
X106045977Y-115060345D01*
X106045975Y-115060342D01*
X105899657Y-114914024D01*
X105750984Y-114814685D01*
X105727598Y-114799059D01*
X105666907Y-114773920D01*
X105536420Y-114719870D01*
X105536412Y-114719868D01*
X105333469Y-114679500D01*
X105333465Y-114679500D01*
X105126535Y-114679500D01*
X105126530Y-114679500D01*
X104923587Y-114719868D01*
X104923579Y-114719870D01*
X104732403Y-114799058D01*
X104560342Y-114914024D01*
X104414024Y-115060342D01*
X104299058Y-115232403D01*
X104219870Y-115423579D01*
X104219868Y-115423587D01*
X104179500Y-115626530D01*
X102740264Y-115626530D01*
X102721309Y-113086530D01*
X104179500Y-113086530D01*
X104179500Y-113293469D01*
X104219868Y-113496412D01*
X104219870Y-113496420D01*
X104288544Y-113662214D01*
X104299059Y-113687598D01*
X104356541Y-113773626D01*
X104414024Y-113859657D01*
X104560342Y-114005975D01*
X104560345Y-114005977D01*
X104732402Y-114120941D01*
X104923580Y-114200130D01*
X105090635Y-114233359D01*
X105126530Y-114240499D01*
X105126534Y-114240500D01*
X105126535Y-114240500D01*
X105333466Y-114240500D01*
X105333467Y-114240499D01*
X105536420Y-114200130D01*
X105727598Y-114120941D01*
X105899655Y-114005977D01*
X106045977Y-113859655D01*
X106160941Y-113687598D01*
X106240130Y-113496420D01*
X106280500Y-113293465D01*
X106280500Y-113086535D01*
X106280499Y-113086530D01*
X106719500Y-113086530D01*
X106719500Y-113293469D01*
X106759868Y-113496412D01*
X106759870Y-113496420D01*
X106828544Y-113662214D01*
X106839059Y-113687598D01*
X106896541Y-113773626D01*
X106954024Y-113859657D01*
X107100342Y-114005975D01*
X107100345Y-114005977D01*
X107272402Y-114120941D01*
X107463580Y-114200130D01*
X107630635Y-114233359D01*
X107666530Y-114240499D01*
X107666534Y-114240500D01*
X107666535Y-114240500D01*
X107873466Y-114240500D01*
X107873467Y-114240499D01*
X108076420Y-114200130D01*
X108267598Y-114120941D01*
X108439655Y-114005977D01*
X108585977Y-113859655D01*
X108695507Y-113695730D01*
X113979500Y-113695730D01*
X113979500Y-114904269D01*
X113982353Y-114934699D01*
X113982353Y-114934701D01*
X114026318Y-115060342D01*
X114027207Y-115062882D01*
X114107850Y-115172150D01*
X114217118Y-115252793D01*
X114243576Y-115262051D01*
X114345299Y-115297646D01*
X114375730Y-115300500D01*
X114375734Y-115300500D01*
X116384270Y-115300500D01*
X116414699Y-115297646D01*
X116414701Y-115297646D01*
X116502226Y-115267019D01*
X116542882Y-115252793D01*
X116652150Y-115172150D01*
X116732793Y-115062882D01*
X116772902Y-114948258D01*
X116777646Y-114934701D01*
X116777646Y-114934699D01*
X116780500Y-114904269D01*
X116780500Y-113695730D01*
X116777646Y-113665300D01*
X116777646Y-113665298D01*
X116732793Y-113537119D01*
X116732792Y-113537117D01*
X116652150Y-113427850D01*
X116542882Y-113347207D01*
X116542880Y-113347206D01*
X116414700Y-113302353D01*
X116384270Y-113299500D01*
X116384266Y-113299500D01*
X114375734Y-113299500D01*
X114375730Y-113299500D01*
X114345300Y-113302353D01*
X114345298Y-113302353D01*
X114217119Y-113347206D01*
X114217117Y-113347207D01*
X114107850Y-113427850D01*
X114027207Y-113537117D01*
X114027206Y-113537119D01*
X113982353Y-113665298D01*
X113982353Y-113665300D01*
X113979500Y-113695730D01*
X108695507Y-113695730D01*
X108700941Y-113687598D01*
X108711454Y-113662218D01*
X108718428Y-113645382D01*
X108749112Y-113571304D01*
X108780130Y-113496420D01*
X108820500Y-113293465D01*
X108820500Y-113086535D01*
X108780130Y-112883580D01*
X108700941Y-112692402D01*
X108585977Y-112520345D01*
X108585975Y-112520342D01*
X108439657Y-112374024D01*
X108353626Y-112316541D01*
X108267598Y-112259059D01*
X108076420Y-112179870D01*
X108076412Y-112179868D01*
X107873469Y-112139500D01*
X107873465Y-112139500D01*
X107666535Y-112139500D01*
X107666530Y-112139500D01*
X107463587Y-112179868D01*
X107463579Y-112179870D01*
X107272403Y-112259058D01*
X107100342Y-112374024D01*
X106954024Y-112520342D01*
X106839058Y-112692403D01*
X106759870Y-112883579D01*
X106759868Y-112883587D01*
X106719500Y-113086530D01*
X106280499Y-113086530D01*
X106240130Y-112883580D01*
X106160941Y-112692402D01*
X106045977Y-112520345D01*
X106045975Y-112520342D01*
X105899657Y-112374024D01*
X105813626Y-112316541D01*
X105727598Y-112259059D01*
X105536420Y-112179870D01*
X105536412Y-112179868D01*
X105333469Y-112139500D01*
X105333465Y-112139500D01*
X105126535Y-112139500D01*
X105126530Y-112139500D01*
X104923587Y-112179868D01*
X104923579Y-112179870D01*
X104732403Y-112259058D01*
X104560342Y-112374024D01*
X104414024Y-112520342D01*
X104299058Y-112692403D01*
X104219870Y-112883579D01*
X104219868Y-112883587D01*
X104179500Y-113086530D01*
X102721309Y-113086530D01*
X102702354Y-110546530D01*
X104179500Y-110546530D01*
X104179500Y-110753469D01*
X104219868Y-110956412D01*
X104219870Y-110956420D01*
X104299058Y-111147596D01*
X104414024Y-111319657D01*
X104560342Y-111465975D01*
X104560345Y-111465977D01*
X104732402Y-111580941D01*
X104923580Y-111660130D01*
X105126530Y-111700499D01*
X105126534Y-111700500D01*
X105126535Y-111700500D01*
X105333466Y-111700500D01*
X105333467Y-111700499D01*
X105536420Y-111660130D01*
X105727598Y-111580941D01*
X105899655Y-111465977D01*
X106045977Y-111319655D01*
X106160941Y-111147598D01*
X106240130Y-110956420D01*
X106280500Y-110753465D01*
X106280500Y-110546535D01*
X106280499Y-110546530D01*
X106719500Y-110546530D01*
X106719500Y-110753469D01*
X106759868Y-110956412D01*
X106759870Y-110956420D01*
X106839058Y-111147596D01*
X106954024Y-111319657D01*
X107100342Y-111465975D01*
X107100345Y-111465977D01*
X107272402Y-111580941D01*
X107463580Y-111660130D01*
X107666530Y-111700499D01*
X107666534Y-111700500D01*
X107666535Y-111700500D01*
X107873466Y-111700500D01*
X107873467Y-111700499D01*
X108076420Y-111660130D01*
X108267598Y-111580941D01*
X108439655Y-111465977D01*
X108585977Y-111319655D01*
X108700941Y-111147598D01*
X108780130Y-110956420D01*
X108820500Y-110753465D01*
X108820500Y-110546535D01*
X108780130Y-110343580D01*
X108700941Y-110152402D01*
X108585977Y-109980345D01*
X108585975Y-109980342D01*
X108439657Y-109834024D01*
X108353626Y-109776541D01*
X108267598Y-109719059D01*
X108076420Y-109639870D01*
X108076412Y-109639868D01*
X107873469Y-109599500D01*
X107873465Y-109599500D01*
X107666535Y-109599500D01*
X107666530Y-109599500D01*
X107463587Y-109639868D01*
X107463579Y-109639870D01*
X107272403Y-109719058D01*
X107100342Y-109834024D01*
X106954024Y-109980342D01*
X106839058Y-110152403D01*
X106759870Y-110343579D01*
X106759868Y-110343587D01*
X106719500Y-110546530D01*
X106280499Y-110546530D01*
X106240130Y-110343580D01*
X106160941Y-110152402D01*
X106045977Y-109980345D01*
X106045975Y-109980342D01*
X105899657Y-109834024D01*
X105813626Y-109776541D01*
X105727598Y-109719059D01*
X105536420Y-109639870D01*
X105536412Y-109639868D01*
X105333469Y-109599500D01*
X105333465Y-109599500D01*
X105126535Y-109599500D01*
X105126530Y-109599500D01*
X104923587Y-109639868D01*
X104923579Y-109639870D01*
X104732403Y-109719058D01*
X104560342Y-109834024D01*
X104414024Y-109980342D01*
X104299058Y-110152403D01*
X104219870Y-110343579D01*
X104219868Y-110343587D01*
X104179500Y-110546530D01*
X102702354Y-110546530D01*
X102683399Y-108006530D01*
X104179500Y-108006530D01*
X104179500Y-108213469D01*
X104219868Y-108416412D01*
X104219870Y-108416420D01*
X104299058Y-108607596D01*
X104414024Y-108779657D01*
X104560342Y-108925975D01*
X104560345Y-108925977D01*
X104732402Y-109040941D01*
X104923580Y-109120130D01*
X105126530Y-109160499D01*
X105126534Y-109160500D01*
X105126535Y-109160500D01*
X105333466Y-109160500D01*
X105333467Y-109160499D01*
X105536420Y-109120130D01*
X105727598Y-109040941D01*
X105899655Y-108925977D01*
X106045977Y-108779655D01*
X106160941Y-108607598D01*
X106240130Y-108416420D01*
X106280500Y-108213465D01*
X106280500Y-108006535D01*
X106251353Y-107860000D01*
X106594638Y-107860000D01*
X107336988Y-107860000D01*
X107304075Y-107917007D01*
X107270000Y-108044174D01*
X107270000Y-108175826D01*
X107304075Y-108302993D01*
X107336988Y-108360000D01*
X106594638Y-108360000D01*
X106599548Y-108391002D01*
X106657914Y-108570637D01*
X106743670Y-108738940D01*
X106854685Y-108891741D01*
X106854689Y-108891746D01*
X106988253Y-109025310D01*
X106988258Y-109025314D01*
X107141059Y-109136329D01*
X107309362Y-109222085D01*
X107488997Y-109280451D01*
X107520000Y-109285362D01*
X107520000Y-108543012D01*
X107577007Y-108575925D01*
X107704174Y-108610000D01*
X107835826Y-108610000D01*
X107962993Y-108575925D01*
X108020000Y-108543012D01*
X108020000Y-109285361D01*
X108051002Y-109280451D01*
X108230637Y-109222085D01*
X108398940Y-109136329D01*
X108551741Y-109025314D01*
X108551746Y-109025310D01*
X108685310Y-108891746D01*
X108685314Y-108891741D01*
X108796329Y-108738940D01*
X108882085Y-108570637D01*
X108940451Y-108391002D01*
X108945362Y-108360000D01*
X108203012Y-108360000D01*
X108235925Y-108302993D01*
X108270000Y-108175826D01*
X108270000Y-108044174D01*
X108235925Y-107917007D01*
X108203012Y-107860000D01*
X108945362Y-107860000D01*
X108940451Y-107828997D01*
X108882085Y-107649362D01*
X108796329Y-107481059D01*
X108685314Y-107328258D01*
X108685310Y-107328253D01*
X108551746Y-107194689D01*
X108551741Y-107194685D01*
X108398940Y-107083670D01*
X108230635Y-106997913D01*
X108051004Y-106939549D01*
X108050995Y-106939547D01*
X108020000Y-106934637D01*
X108020000Y-107676988D01*
X107962993Y-107644075D01*
X107835826Y-107610000D01*
X107704174Y-107610000D01*
X107577007Y-107644075D01*
X107520000Y-107676988D01*
X107520000Y-106934637D01*
X107519999Y-106934637D01*
X107489004Y-106939547D01*
X107488995Y-106939549D01*
X107309364Y-106997913D01*
X107141059Y-107083670D01*
X106988258Y-107194685D01*
X106988253Y-107194689D01*
X106854689Y-107328253D01*
X106854685Y-107328258D01*
X106743670Y-107481059D01*
X106657914Y-107649362D01*
X106599548Y-107828997D01*
X106594638Y-107860000D01*
X106251353Y-107860000D01*
X106240130Y-107803580D01*
X106160941Y-107612402D01*
X106045977Y-107440345D01*
X106045975Y-107440342D01*
X105899657Y-107294024D01*
X105750984Y-107194685D01*
X105727598Y-107179059D01*
X105536420Y-107099870D01*
X105536412Y-107099868D01*
X105333469Y-107059500D01*
X105333465Y-107059500D01*
X105126535Y-107059500D01*
X105126530Y-107059500D01*
X104923587Y-107099868D01*
X104923579Y-107099870D01*
X104732403Y-107179058D01*
X104560342Y-107294024D01*
X104414024Y-107440342D01*
X104299058Y-107612403D01*
X104219870Y-107803579D01*
X104219868Y-107803587D01*
X104179500Y-108006530D01*
X102683399Y-108006530D01*
X102670213Y-106239655D01*
X102664444Y-105466530D01*
X104179500Y-105466530D01*
X104179500Y-105673469D01*
X104219868Y-105876412D01*
X104219870Y-105876420D01*
X104299058Y-106067596D01*
X104414024Y-106239657D01*
X104560342Y-106385975D01*
X104560345Y-106385977D01*
X104732402Y-106500941D01*
X104923580Y-106580130D01*
X105126530Y-106620499D01*
X105126534Y-106620500D01*
X105126535Y-106620500D01*
X105333466Y-106620500D01*
X105333467Y-106620499D01*
X105536420Y-106580130D01*
X105727598Y-106500941D01*
X105899655Y-106385977D01*
X106045977Y-106239655D01*
X106160941Y-106067598D01*
X106240130Y-105876420D01*
X106280500Y-105673465D01*
X106280500Y-105466535D01*
X106280499Y-105466530D01*
X106719500Y-105466530D01*
X106719500Y-105673469D01*
X106759868Y-105876412D01*
X106759870Y-105876420D01*
X106839058Y-106067596D01*
X106954024Y-106239657D01*
X107100342Y-106385975D01*
X107100345Y-106385977D01*
X107272402Y-106500941D01*
X107463580Y-106580130D01*
X107666530Y-106620499D01*
X107666534Y-106620500D01*
X107666535Y-106620500D01*
X107873466Y-106620500D01*
X107873467Y-106620499D01*
X108076420Y-106580130D01*
X108267598Y-106500941D01*
X108439655Y-106385977D01*
X108585977Y-106239655D01*
X108700941Y-106067598D01*
X108780130Y-105876420D01*
X108820500Y-105673465D01*
X108820500Y-105466535D01*
X108780130Y-105263580D01*
X108700941Y-105072402D01*
X108585977Y-104900345D01*
X108585975Y-104900342D01*
X108439657Y-104754024D01*
X108329604Y-104680490D01*
X108267598Y-104639059D01*
X108129346Y-104581793D01*
X108076420Y-104559870D01*
X108076412Y-104559868D01*
X107873469Y-104519500D01*
X107873465Y-104519500D01*
X107666535Y-104519500D01*
X107666530Y-104519500D01*
X107463587Y-104559868D01*
X107463579Y-104559870D01*
X107272403Y-104639058D01*
X107100342Y-104754024D01*
X106954024Y-104900342D01*
X106839058Y-105072403D01*
X106759870Y-105263579D01*
X106759868Y-105263587D01*
X106719500Y-105466530D01*
X106280499Y-105466530D01*
X106240130Y-105263580D01*
X106160941Y-105072402D01*
X106045977Y-104900345D01*
X106045975Y-104900342D01*
X105899657Y-104754024D01*
X105789604Y-104680490D01*
X105727598Y-104639059D01*
X105589346Y-104581793D01*
X105536420Y-104559870D01*
X105536412Y-104559868D01*
X105333469Y-104519500D01*
X105333465Y-104519500D01*
X105126535Y-104519500D01*
X105126530Y-104519500D01*
X104923587Y-104559868D01*
X104923579Y-104559870D01*
X104732403Y-104639058D01*
X104560342Y-104754024D01*
X104414024Y-104900342D01*
X104299058Y-105072403D01*
X104219870Y-105263579D01*
X104219868Y-105263587D01*
X104179500Y-105466530D01*
X102664444Y-105466530D01*
X102664405Y-105461368D01*
X102653919Y-104056329D01*
X102644394Y-102780000D01*
X104054638Y-102780000D01*
X104796988Y-102780000D01*
X104764075Y-102837007D01*
X104730000Y-102964174D01*
X104730000Y-103095826D01*
X104764075Y-103222993D01*
X104796988Y-103280000D01*
X104054638Y-103280000D01*
X104059548Y-103311002D01*
X104117914Y-103490637D01*
X104203670Y-103658940D01*
X104314685Y-103811741D01*
X104314689Y-103811746D01*
X104448253Y-103945310D01*
X104448258Y-103945314D01*
X104601059Y-104056329D01*
X104769362Y-104142085D01*
X104948997Y-104200451D01*
X104980000Y-104205362D01*
X104980000Y-103463012D01*
X105037007Y-103495925D01*
X105164174Y-103530000D01*
X105295826Y-103530000D01*
X105422993Y-103495925D01*
X105480000Y-103463012D01*
X105480000Y-104205361D01*
X105511002Y-104200451D01*
X105690637Y-104142085D01*
X105858940Y-104056329D01*
X106011741Y-103945314D01*
X106011746Y-103945310D01*
X106145310Y-103811746D01*
X106145314Y-103811741D01*
X106256329Y-103658940D01*
X106342085Y-103490637D01*
X106400451Y-103311002D01*
X106405362Y-103280000D01*
X105663012Y-103280000D01*
X105695925Y-103222993D01*
X105730000Y-103095826D01*
X105730000Y-102964174D01*
X105719913Y-102926530D01*
X106719500Y-102926530D01*
X106719500Y-103133469D01*
X106759868Y-103336412D01*
X106759870Y-103336420D01*
X106839058Y-103527596D01*
X106954024Y-103699657D01*
X107100342Y-103845975D01*
X107100345Y-103845977D01*
X107272402Y-103960941D01*
X107463580Y-104040130D01*
X107666530Y-104080499D01*
X107666534Y-104080500D01*
X107666535Y-104080500D01*
X107873466Y-104080500D01*
X107873467Y-104080499D01*
X108076420Y-104040130D01*
X108267598Y-103960941D01*
X108439655Y-103845977D01*
X108585977Y-103699655D01*
X108700941Y-103527598D01*
X108780130Y-103336420D01*
X108820500Y-103133465D01*
X108820500Y-102926535D01*
X108780130Y-102723580D01*
X108700941Y-102532402D01*
X108585977Y-102360345D01*
X108585975Y-102360342D01*
X108439657Y-102214024D01*
X108290984Y-102114685D01*
X108267598Y-102099059D01*
X108076420Y-102019870D01*
X108076412Y-102019868D01*
X107873469Y-101979500D01*
X107873465Y-101979500D01*
X107666535Y-101979500D01*
X107666530Y-101979500D01*
X107463587Y-102019868D01*
X107463579Y-102019870D01*
X107272403Y-102099058D01*
X107100342Y-102214024D01*
X106954024Y-102360342D01*
X106839058Y-102532403D01*
X106759870Y-102723579D01*
X106759868Y-102723587D01*
X106719500Y-102926530D01*
X105719913Y-102926530D01*
X105695925Y-102837007D01*
X105663012Y-102780000D01*
X106405362Y-102780000D01*
X106400451Y-102748997D01*
X106342085Y-102569362D01*
X106256329Y-102401059D01*
X106145314Y-102248258D01*
X106145310Y-102248253D01*
X106011746Y-102114689D01*
X106011741Y-102114685D01*
X105858940Y-102003670D01*
X105690635Y-101917913D01*
X105511004Y-101859549D01*
X105510995Y-101859547D01*
X105480000Y-101854637D01*
X105480000Y-102596988D01*
X105422993Y-102564075D01*
X105295826Y-102530000D01*
X105164174Y-102530000D01*
X105037007Y-102564075D01*
X104980000Y-102596988D01*
X104980000Y-101854637D01*
X104979999Y-101854637D01*
X104949004Y-101859547D01*
X104948995Y-101859549D01*
X104769364Y-101917913D01*
X104601059Y-102003670D01*
X104448258Y-102114685D01*
X104448253Y-102114689D01*
X104314689Y-102248253D01*
X104314685Y-102248258D01*
X104203670Y-102401059D01*
X104117914Y-102569362D01*
X104059548Y-102748997D01*
X104054638Y-102780000D01*
X102644394Y-102780000D01*
X102626533Y-100386530D01*
X104179500Y-100386530D01*
X104179500Y-100593469D01*
X104219868Y-100796412D01*
X104219870Y-100796420D01*
X104299058Y-100987596D01*
X104414024Y-101159657D01*
X104560342Y-101305975D01*
X104560345Y-101305977D01*
X104732402Y-101420941D01*
X104923580Y-101500130D01*
X105126530Y-101540499D01*
X105126534Y-101540500D01*
X105126535Y-101540500D01*
X105333466Y-101540500D01*
X105333467Y-101540499D01*
X105536420Y-101500130D01*
X105727598Y-101420941D01*
X105899655Y-101305977D01*
X106045977Y-101159655D01*
X106160941Y-100987598D01*
X106240130Y-100796420D01*
X106280500Y-100593465D01*
X106280500Y-100386535D01*
X106280499Y-100386530D01*
X106719500Y-100386530D01*
X106719500Y-100593469D01*
X106759868Y-100796412D01*
X106759870Y-100796420D01*
X106839058Y-100987596D01*
X106954024Y-101159657D01*
X107100342Y-101305975D01*
X107100345Y-101305977D01*
X107272402Y-101420941D01*
X107463580Y-101500130D01*
X107666530Y-101540499D01*
X107666534Y-101540500D01*
X107666535Y-101540500D01*
X107873466Y-101540500D01*
X107873467Y-101540499D01*
X108076420Y-101500130D01*
X108267598Y-101420941D01*
X108439655Y-101305977D01*
X108585977Y-101159655D01*
X108700941Y-100987598D01*
X108780130Y-100796420D01*
X108820500Y-100593465D01*
X108820500Y-100386535D01*
X108780130Y-100183580D01*
X108700941Y-99992402D01*
X108585977Y-99820345D01*
X108585975Y-99820342D01*
X108439657Y-99674024D01*
X108353626Y-99616541D01*
X108267598Y-99559059D01*
X108076420Y-99479870D01*
X108076412Y-99479868D01*
X107873469Y-99439500D01*
X107873465Y-99439500D01*
X107666535Y-99439500D01*
X107666530Y-99439500D01*
X107463587Y-99479868D01*
X107463579Y-99479870D01*
X107272403Y-99559058D01*
X107100342Y-99674024D01*
X106954024Y-99820342D01*
X106839058Y-99992403D01*
X106759870Y-100183579D01*
X106759868Y-100183587D01*
X106719500Y-100386530D01*
X106280499Y-100386530D01*
X106240130Y-100183580D01*
X106160941Y-99992402D01*
X106045977Y-99820345D01*
X106045975Y-99820342D01*
X105899657Y-99674024D01*
X105813626Y-99616541D01*
X105727598Y-99559059D01*
X105536420Y-99479870D01*
X105536412Y-99479868D01*
X105333469Y-99439500D01*
X105333465Y-99439500D01*
X105126535Y-99439500D01*
X105126530Y-99439500D01*
X104923587Y-99479868D01*
X104923579Y-99479870D01*
X104732403Y-99559058D01*
X104560342Y-99674024D01*
X104414024Y-99820342D01*
X104299058Y-99992403D01*
X104219870Y-100183579D01*
X104219868Y-100183587D01*
X104179500Y-100386530D01*
X102626533Y-100386530D01*
X102607578Y-97846530D01*
X104179500Y-97846530D01*
X104179500Y-98053469D01*
X104219868Y-98256412D01*
X104219870Y-98256420D01*
X104299058Y-98447596D01*
X104414024Y-98619657D01*
X104560342Y-98765975D01*
X104560345Y-98765977D01*
X104732402Y-98880941D01*
X104923580Y-98960130D01*
X105126530Y-99000499D01*
X105126534Y-99000500D01*
X105126535Y-99000500D01*
X105333466Y-99000500D01*
X105333467Y-99000499D01*
X105536420Y-98960130D01*
X105727598Y-98880941D01*
X105899655Y-98765977D01*
X106045977Y-98619655D01*
X106160941Y-98447598D01*
X106240130Y-98256420D01*
X106280500Y-98053465D01*
X106280500Y-97846535D01*
X106251353Y-97700000D01*
X106594638Y-97700000D01*
X107336988Y-97700000D01*
X107304075Y-97757007D01*
X107270000Y-97884174D01*
X107270000Y-98015826D01*
X107304075Y-98142993D01*
X107336988Y-98200000D01*
X106594638Y-98200000D01*
X106599548Y-98231002D01*
X106657914Y-98410637D01*
X106743670Y-98578940D01*
X106854685Y-98731741D01*
X106854689Y-98731746D01*
X106988253Y-98865310D01*
X106988258Y-98865314D01*
X107141059Y-98976329D01*
X107309362Y-99062085D01*
X107488997Y-99120451D01*
X107520000Y-99125362D01*
X107520000Y-98383012D01*
X107577007Y-98415925D01*
X107704174Y-98450000D01*
X107835826Y-98450000D01*
X107962993Y-98415925D01*
X108020000Y-98383012D01*
X108020000Y-99125361D01*
X108051002Y-99120451D01*
X108230637Y-99062085D01*
X108398940Y-98976329D01*
X108551741Y-98865314D01*
X108551746Y-98865310D01*
X108685310Y-98731746D01*
X108685314Y-98731741D01*
X108796329Y-98578940D01*
X108882085Y-98410637D01*
X108940451Y-98231002D01*
X108945362Y-98200000D01*
X108203012Y-98200000D01*
X108235925Y-98142993D01*
X108270000Y-98015826D01*
X108270000Y-97884174D01*
X108235925Y-97757007D01*
X108203012Y-97700000D01*
X108945362Y-97700000D01*
X108940451Y-97668997D01*
X108882085Y-97489362D01*
X108796329Y-97321059D01*
X108685314Y-97168258D01*
X108685310Y-97168253D01*
X108551746Y-97034689D01*
X108551741Y-97034685D01*
X108398940Y-96923670D01*
X108230635Y-96837913D01*
X108051004Y-96779549D01*
X108050995Y-96779547D01*
X108020000Y-96774637D01*
X108020000Y-97516988D01*
X107962993Y-97484075D01*
X107835826Y-97450000D01*
X107704174Y-97450000D01*
X107577007Y-97484075D01*
X107520000Y-97516988D01*
X107520000Y-96774637D01*
X107519999Y-96774637D01*
X107489004Y-96779547D01*
X107488995Y-96779549D01*
X107309364Y-96837913D01*
X107141059Y-96923670D01*
X106988258Y-97034685D01*
X106988253Y-97034689D01*
X106854689Y-97168253D01*
X106854685Y-97168258D01*
X106743670Y-97321059D01*
X106657914Y-97489362D01*
X106599548Y-97668997D01*
X106594638Y-97700000D01*
X106251353Y-97700000D01*
X106240130Y-97643580D01*
X106160941Y-97452402D01*
X106045977Y-97280345D01*
X106045975Y-97280342D01*
X105899657Y-97134024D01*
X105750984Y-97034685D01*
X105727598Y-97019059D01*
X105536420Y-96939870D01*
X105536412Y-96939868D01*
X105333469Y-96899500D01*
X105333465Y-96899500D01*
X105126535Y-96899500D01*
X105126530Y-96899500D01*
X104923587Y-96939868D01*
X104923579Y-96939870D01*
X104732403Y-97019058D01*
X104560342Y-97134024D01*
X104414024Y-97280342D01*
X104299058Y-97452403D01*
X104219870Y-97643579D01*
X104219868Y-97643587D01*
X104179500Y-97846530D01*
X102607578Y-97846530D01*
X102589407Y-95411627D01*
X102588623Y-95306530D01*
X104179500Y-95306530D01*
X104179500Y-95513469D01*
X104219868Y-95716412D01*
X104219870Y-95716420D01*
X104299058Y-95907596D01*
X104414024Y-96079657D01*
X104560342Y-96225975D01*
X104560345Y-96225977D01*
X104732402Y-96340941D01*
X104923580Y-96420130D01*
X105126530Y-96460499D01*
X105126534Y-96460500D01*
X105126535Y-96460500D01*
X105333466Y-96460500D01*
X105333467Y-96460499D01*
X105536420Y-96420130D01*
X105727598Y-96340941D01*
X105899655Y-96225977D01*
X106045977Y-96079655D01*
X106160941Y-95907598D01*
X106240130Y-95716420D01*
X106280500Y-95513465D01*
X106280500Y-95306535D01*
X106280499Y-95306530D01*
X106719500Y-95306530D01*
X106719500Y-95513469D01*
X106759868Y-95716412D01*
X106759870Y-95716420D01*
X106839058Y-95907596D01*
X106954024Y-96079657D01*
X107100342Y-96225975D01*
X107100345Y-96225977D01*
X107272402Y-96340941D01*
X107463580Y-96420130D01*
X107666530Y-96460499D01*
X107666534Y-96460500D01*
X107666535Y-96460500D01*
X107873466Y-96460500D01*
X107873467Y-96460499D01*
X108076420Y-96420130D01*
X108267598Y-96340941D01*
X108439655Y-96225977D01*
X108585977Y-96079655D01*
X108700941Y-95907598D01*
X108780130Y-95716420D01*
X108820500Y-95513465D01*
X108820500Y-95306535D01*
X108780130Y-95103580D01*
X108700941Y-94912402D01*
X108656062Y-94845236D01*
X120598505Y-94845236D01*
X120598505Y-94977019D01*
X120632613Y-95104315D01*
X120665559Y-95161378D01*
X120698505Y-95218442D01*
X120791691Y-95311628D01*
X120890526Y-95368691D01*
X120900430Y-95374409D01*
X120905819Y-95377520D01*
X121033113Y-95411628D01*
X121033115Y-95411628D01*
X121164895Y-95411628D01*
X121164897Y-95411628D01*
X121292191Y-95377520D01*
X121292199Y-95377515D01*
X121299701Y-95374409D01*
X121300254Y-95375746D01*
X121352942Y-95361628D01*
X125166971Y-95361628D01*
X125234010Y-95381313D01*
X125279765Y-95434117D01*
X125281532Y-95438175D01*
X125283606Y-95443183D01*
X125304493Y-95479360D01*
X125349500Y-95557314D01*
X125442686Y-95650500D01*
X125556814Y-95716392D01*
X125684108Y-95750500D01*
X125684110Y-95750500D01*
X125815890Y-95750500D01*
X125815892Y-95750500D01*
X125943186Y-95716392D01*
X126057314Y-95650500D01*
X126150500Y-95557314D01*
X126216392Y-95443186D01*
X126250500Y-95315892D01*
X126250500Y-95184108D01*
X126216392Y-95056814D01*
X126150500Y-94942686D01*
X126057314Y-94849500D01*
X125991421Y-94811456D01*
X125943185Y-94783607D01*
X125935680Y-94780499D01*
X125936233Y-94779163D01*
X125888990Y-94751887D01*
X125687744Y-94550641D01*
X125687742Y-94550639D01*
X125618442Y-94510628D01*
X125585016Y-94491329D01*
X125572908Y-94488085D01*
X125560801Y-94484841D01*
X125560798Y-94484840D01*
X125522606Y-94474606D01*
X125470437Y-94460628D01*
X125470436Y-94460628D01*
X121352942Y-94460628D01*
X121300254Y-94446509D01*
X121299701Y-94447847D01*
X121292193Y-94444737D01*
X121292191Y-94444736D01*
X121164897Y-94410628D01*
X121033113Y-94410628D01*
X120905817Y-94444736D01*
X120791691Y-94510628D01*
X120791688Y-94510630D01*
X120698507Y-94603811D01*
X120698505Y-94603814D01*
X120632613Y-94717940D01*
X120598505Y-94845236D01*
X108656062Y-94845236D01*
X108585977Y-94740345D01*
X108585975Y-94740342D01*
X108439657Y-94594024D01*
X108353626Y-94536541D01*
X108267598Y-94479059D01*
X108184735Y-94444736D01*
X108076420Y-94399870D01*
X108076412Y-94399868D01*
X107873469Y-94359500D01*
X107873465Y-94359500D01*
X107666535Y-94359500D01*
X107666530Y-94359500D01*
X107463587Y-94399868D01*
X107463579Y-94399870D01*
X107272403Y-94479058D01*
X107100342Y-94594024D01*
X106954024Y-94740342D01*
X106839058Y-94912403D01*
X106759870Y-95103579D01*
X106759868Y-95103587D01*
X106719500Y-95306530D01*
X106280499Y-95306530D01*
X106240130Y-95103580D01*
X106160941Y-94912402D01*
X106045977Y-94740345D01*
X106045975Y-94740342D01*
X105899657Y-94594024D01*
X105813626Y-94536541D01*
X105727598Y-94479059D01*
X105644735Y-94444736D01*
X105536420Y-94399870D01*
X105536412Y-94399868D01*
X105333469Y-94359500D01*
X105333465Y-94359500D01*
X105126535Y-94359500D01*
X105126530Y-94359500D01*
X104923587Y-94399868D01*
X104923579Y-94399870D01*
X104732403Y-94479058D01*
X104560342Y-94594024D01*
X104414024Y-94740342D01*
X104299058Y-94912403D01*
X104219870Y-95103579D01*
X104219868Y-95103587D01*
X104179500Y-95306530D01*
X102588623Y-95306530D01*
X102588584Y-95301368D01*
X102571840Y-93057628D01*
X102563949Y-92000247D01*
X104179500Y-92000247D01*
X104179500Y-93739752D01*
X104191131Y-93798229D01*
X104191132Y-93798230D01*
X104235447Y-93864552D01*
X104301769Y-93908867D01*
X104301770Y-93908868D01*
X104360247Y-93920499D01*
X104360250Y-93920500D01*
X104360252Y-93920500D01*
X106099750Y-93920500D01*
X106099751Y-93920499D01*
X106114568Y-93917552D01*
X106158229Y-93908868D01*
X106158229Y-93908867D01*
X106158231Y-93908867D01*
X106224552Y-93864552D01*
X106268867Y-93798231D01*
X106268867Y-93798229D01*
X106268868Y-93798229D01*
X106280499Y-93739752D01*
X106280500Y-93739750D01*
X106280500Y-92766530D01*
X106719500Y-92766530D01*
X106719500Y-92973469D01*
X106759868Y-93176412D01*
X106759870Y-93176420D01*
X106839058Y-93367596D01*
X106954024Y-93539657D01*
X107100342Y-93685975D01*
X107100345Y-93685977D01*
X107272402Y-93800941D01*
X107463580Y-93880130D01*
X107608052Y-93908867D01*
X107666530Y-93920499D01*
X107666534Y-93920500D01*
X107666535Y-93920500D01*
X107873466Y-93920500D01*
X107873467Y-93920499D01*
X108076420Y-93880130D01*
X108267598Y-93800941D01*
X108439655Y-93685977D01*
X108585977Y-93539655D01*
X108700941Y-93367598D01*
X108780130Y-93176420D01*
X108820500Y-92973465D01*
X108820500Y-92766535D01*
X108780130Y-92563580D01*
X108700941Y-92372402D01*
X108585977Y-92200345D01*
X108585974Y-92200341D01*
X108439657Y-92054024D01*
X108271655Y-91941770D01*
X108267598Y-91939059D01*
X108210439Y-91915383D01*
X108076420Y-91859870D01*
X108076412Y-91859868D01*
X107873469Y-91819500D01*
X107873465Y-91819500D01*
X107666535Y-91819500D01*
X107666530Y-91819500D01*
X107463587Y-91859868D01*
X107463579Y-91859870D01*
X107272403Y-91939058D01*
X107100342Y-92054024D01*
X106954024Y-92200342D01*
X106839058Y-92372403D01*
X106759870Y-92563579D01*
X106759868Y-92563587D01*
X106719500Y-92766530D01*
X106280500Y-92766530D01*
X106280500Y-92000249D01*
X106280499Y-92000247D01*
X106268868Y-91941770D01*
X106268867Y-91941769D01*
X106224552Y-91875447D01*
X106158230Y-91831132D01*
X106158229Y-91831131D01*
X106099752Y-91819500D01*
X106099748Y-91819500D01*
X104360252Y-91819500D01*
X104360247Y-91819500D01*
X104301770Y-91831131D01*
X104301769Y-91831132D01*
X104235447Y-91875447D01*
X104191132Y-91941769D01*
X104191131Y-91941770D01*
X104179500Y-92000247D01*
X102563949Y-92000247D01*
X102560001Y-91471277D01*
X118330000Y-91471277D01*
X118330000Y-91855000D01*
X118880000Y-91855000D01*
X118880000Y-92355000D01*
X118330000Y-92355000D01*
X118330000Y-92738722D01*
X118362663Y-92902928D01*
X118362665Y-92902936D01*
X118426740Y-93057627D01*
X118426740Y-93057628D01*
X118519758Y-93196839D01*
X118519764Y-93196847D01*
X118638152Y-93315235D01*
X118638160Y-93315241D01*
X118777372Y-93408259D01*
X118929999Y-93471479D01*
X118930000Y-93471479D01*
X118930000Y-92821988D01*
X118939940Y-92839205D01*
X118995795Y-92895060D01*
X119064204Y-92934556D01*
X119140504Y-92955000D01*
X119219496Y-92955000D01*
X119295796Y-92934556D01*
X119364205Y-92895060D01*
X119420060Y-92839205D01*
X119430000Y-92821988D01*
X119430000Y-93471479D01*
X119582627Y-93408259D01*
X119582628Y-93408259D01*
X119721839Y-93315241D01*
X119721847Y-93315235D01*
X119840235Y-93196847D01*
X119840241Y-93196839D01*
X119933259Y-93057628D01*
X119933259Y-93057627D01*
X119997334Y-92902936D01*
X119997336Y-92902928D01*
X120029999Y-92738722D01*
X120030000Y-92738720D01*
X120030000Y-92355000D01*
X119480000Y-92355000D01*
X119480000Y-91855000D01*
X120050870Y-91855000D01*
X120066208Y-91846624D01*
X120135900Y-91851605D01*
X120191836Y-91893474D01*
X120199958Y-91905787D01*
X120205499Y-91915384D01*
X120299616Y-92009501D01*
X120414884Y-92076051D01*
X120543450Y-92110500D01*
X120543452Y-92110500D01*
X120676548Y-92110500D01*
X120676550Y-92110500D01*
X120805116Y-92076051D01*
X120920384Y-92009501D01*
X121014501Y-91915384D01*
X121081051Y-91800116D01*
X121115500Y-91671550D01*
X121115500Y-91538450D01*
X125884500Y-91538450D01*
X125884500Y-91671549D01*
X125918949Y-91800115D01*
X125918950Y-91800118D01*
X125936856Y-91831132D01*
X125985499Y-91915384D01*
X126079616Y-92009501D01*
X126194884Y-92076051D01*
X126323450Y-92110500D01*
X126323452Y-92110500D01*
X126456548Y-92110500D01*
X126456550Y-92110500D01*
X126585116Y-92076051D01*
X126700384Y-92009501D01*
X126794501Y-91915384D01*
X126800040Y-91905789D01*
X126850604Y-91857575D01*
X126919210Y-91844350D01*
X126945815Y-91855000D01*
X127520000Y-91855000D01*
X127520000Y-92355000D01*
X126970000Y-92355000D01*
X126970000Y-92738722D01*
X127002663Y-92902928D01*
X127002665Y-92902936D01*
X127066740Y-93057627D01*
X127066740Y-93057628D01*
X127159758Y-93196839D01*
X127159764Y-93196847D01*
X127278152Y-93315235D01*
X127278160Y-93315241D01*
X127417372Y-93408259D01*
X127569999Y-93471479D01*
X127570000Y-93471479D01*
X127570000Y-92821988D01*
X127579940Y-92839205D01*
X127635795Y-92895060D01*
X127704204Y-92934556D01*
X127780504Y-92955000D01*
X127859496Y-92955000D01*
X127935796Y-92934556D01*
X128004205Y-92895060D01*
X128060060Y-92839205D01*
X128070000Y-92821988D01*
X128070000Y-93471479D01*
X128222627Y-93408259D01*
X128222628Y-93408259D01*
X128361839Y-93315241D01*
X128361847Y-93315235D01*
X128480235Y-93196847D01*
X128480241Y-93196839D01*
X128573259Y-93057628D01*
X128573259Y-93057627D01*
X128637334Y-92902936D01*
X128637336Y-92902928D01*
X128669999Y-92738722D01*
X128670000Y-92738720D01*
X128670000Y-92355000D01*
X128120000Y-92355000D01*
X128120000Y-91855000D01*
X128670000Y-91855000D01*
X128670000Y-91471279D01*
X128669999Y-91471277D01*
X128637336Y-91307071D01*
X128637334Y-91307063D01*
X128573259Y-91152372D01*
X128573259Y-91152371D01*
X128480241Y-91013160D01*
X128480235Y-91013152D01*
X128361844Y-90894761D01*
X128222632Y-90801743D01*
X128222622Y-90801738D01*
X128070000Y-90738519D01*
X128070000Y-91388011D01*
X128060060Y-91370795D01*
X128004205Y-91314940D01*
X127935796Y-91275444D01*
X127859496Y-91255000D01*
X127780504Y-91255000D01*
X127704204Y-91275444D01*
X127635795Y-91314940D01*
X127579940Y-91370795D01*
X127570000Y-91388011D01*
X127570000Y-90738519D01*
X127417377Y-90801738D01*
X127417367Y-90801743D01*
X127278155Y-90894761D01*
X127159764Y-91013152D01*
X127159758Y-91013160D01*
X127066741Y-91152370D01*
X127014933Y-91277445D01*
X126971091Y-91331848D01*
X126904797Y-91353912D01*
X126837098Y-91336632D01*
X126800873Y-91299971D01*
X126799449Y-91301065D01*
X126794503Y-91294619D01*
X126794501Y-91294616D01*
X126700384Y-91200499D01*
X126585116Y-91133949D01*
X126456550Y-91099500D01*
X126323450Y-91099500D01*
X126194884Y-91133949D01*
X126194881Y-91133950D01*
X126079619Y-91200497D01*
X126079613Y-91200501D01*
X125985501Y-91294613D01*
X125985497Y-91294619D01*
X125918950Y-91409881D01*
X125918949Y-91409884D01*
X125884500Y-91538450D01*
X121115500Y-91538450D01*
X121081051Y-91409884D01*
X121014501Y-91294616D01*
X120920384Y-91200499D01*
X120805116Y-91133949D01*
X120676550Y-91099500D01*
X120543450Y-91099500D01*
X120414884Y-91133949D01*
X120414881Y-91133950D01*
X120299619Y-91200497D01*
X120299613Y-91200501D01*
X120205501Y-91294613D01*
X120200551Y-91301065D01*
X120198861Y-91299768D01*
X120156436Y-91340212D01*
X120087828Y-91353428D01*
X120022966Y-91327454D01*
X119985066Y-91277444D01*
X119933259Y-91152372D01*
X119933259Y-91152371D01*
X119840241Y-91013160D01*
X119840235Y-91013152D01*
X119721844Y-90894761D01*
X119582632Y-90801743D01*
X119582622Y-90801738D01*
X119430000Y-90738519D01*
X119430000Y-91388011D01*
X119420060Y-91370795D01*
X119364205Y-91314940D01*
X119295796Y-91275444D01*
X119219496Y-91255000D01*
X119140504Y-91255000D01*
X119064204Y-91275444D01*
X118995795Y-91314940D01*
X118939940Y-91370795D01*
X118930000Y-91388011D01*
X118930000Y-90738519D01*
X118777377Y-90801738D01*
X118777367Y-90801743D01*
X118638155Y-90894761D01*
X118519764Y-91013152D01*
X118519758Y-91013160D01*
X118426740Y-91152371D01*
X118426740Y-91152372D01*
X118362665Y-91307063D01*
X118362663Y-91307071D01*
X118330000Y-91471277D01*
X102560001Y-91471277D01*
X102533182Y-87877573D01*
X104944500Y-87877573D01*
X104944500Y-88122426D01*
X104982800Y-88364243D01*
X104982801Y-88364247D01*
X105058462Y-88597105D01*
X105169617Y-88815260D01*
X105313531Y-89013340D01*
X105486660Y-89186469D01*
X105684740Y-89330383D01*
X105902895Y-89441538D01*
X106135753Y-89517199D01*
X106226437Y-89531561D01*
X106377574Y-89555500D01*
X106377579Y-89555500D01*
X106622426Y-89555500D01*
X106756768Y-89534221D01*
X106864247Y-89517199D01*
X107097105Y-89441538D01*
X107315260Y-89330383D01*
X107513340Y-89186469D01*
X107686469Y-89013340D01*
X107830383Y-88815260D01*
X107941538Y-88597105D01*
X108017199Y-88364247D01*
X108034221Y-88256768D01*
X108055500Y-88122426D01*
X108055500Y-87877573D01*
X108023415Y-87675000D01*
X108017199Y-87635753D01*
X107954009Y-87441277D01*
X118330000Y-87441277D01*
X118330000Y-87675000D01*
X118880000Y-87675000D01*
X118880000Y-88175000D01*
X118330000Y-88175000D01*
X118330000Y-88408722D01*
X118362663Y-88572928D01*
X118362665Y-88572936D01*
X118426740Y-88727627D01*
X118426740Y-88727628D01*
X118519758Y-88866839D01*
X118519764Y-88866847D01*
X118638152Y-88985235D01*
X118638160Y-88985241D01*
X118777372Y-89078259D01*
X118929999Y-89141479D01*
X118930000Y-89141479D01*
X118930000Y-88491988D01*
X118939940Y-88509205D01*
X118995795Y-88565060D01*
X119064204Y-88604556D01*
X119140504Y-88625000D01*
X119219496Y-88625000D01*
X119295796Y-88604556D01*
X119364205Y-88565060D01*
X119420060Y-88509205D01*
X119430000Y-88491988D01*
X119430000Y-89141479D01*
X119582627Y-89078259D01*
X119582628Y-89078259D01*
X119721839Y-88985241D01*
X119721847Y-88985235D01*
X119840235Y-88866847D01*
X119840241Y-88866839D01*
X119933259Y-88727628D01*
X119933259Y-88727627D01*
X119997334Y-88572936D01*
X119997336Y-88572928D01*
X120029999Y-88408722D01*
X120030000Y-88408720D01*
X120030000Y-88175000D01*
X119480000Y-88175000D01*
X119480000Y-87675000D01*
X120030000Y-87675000D01*
X120030000Y-87441279D01*
X120029999Y-87441277D01*
X126970000Y-87441277D01*
X126970000Y-87675000D01*
X127520000Y-87675000D01*
X127520000Y-88175000D01*
X126970000Y-88175000D01*
X126970000Y-88408722D01*
X127002663Y-88572928D01*
X127002665Y-88572936D01*
X127066740Y-88727627D01*
X127066740Y-88727628D01*
X127159758Y-88866839D01*
X127159764Y-88866847D01*
X127278152Y-88985235D01*
X127278160Y-88985241D01*
X127417372Y-89078259D01*
X127569999Y-89141479D01*
X127570000Y-89141479D01*
X127570000Y-88491988D01*
X127579940Y-88509205D01*
X127635795Y-88565060D01*
X127704204Y-88604556D01*
X127780504Y-88625000D01*
X127859496Y-88625000D01*
X127935796Y-88604556D01*
X128004205Y-88565060D01*
X128060060Y-88509205D01*
X128070000Y-88491988D01*
X128070000Y-89141479D01*
X128222627Y-89078259D01*
X128222628Y-89078259D01*
X128361839Y-88985241D01*
X128361847Y-88985235D01*
X128480235Y-88866847D01*
X128480241Y-88866839D01*
X128573259Y-88727628D01*
X128573259Y-88727627D01*
X128637334Y-88572936D01*
X128637336Y-88572928D01*
X128669999Y-88408722D01*
X128670000Y-88408720D01*
X128670000Y-88175000D01*
X128120000Y-88175000D01*
X128120000Y-87877573D01*
X139444500Y-87877573D01*
X139444500Y-88122426D01*
X139482800Y-88364243D01*
X139482801Y-88364247D01*
X139558462Y-88597105D01*
X139669617Y-88815260D01*
X139813531Y-89013340D01*
X139986660Y-89186469D01*
X140184740Y-89330383D01*
X140402895Y-89441538D01*
X140635753Y-89517199D01*
X140726437Y-89531561D01*
X140877574Y-89555500D01*
X140877579Y-89555500D01*
X141122426Y-89555500D01*
X141256768Y-89534221D01*
X141364247Y-89517199D01*
X141597105Y-89441538D01*
X141815260Y-89330383D01*
X142013340Y-89186469D01*
X142186469Y-89013340D01*
X142330383Y-88815260D01*
X142441538Y-88597105D01*
X142517199Y-88364247D01*
X142534221Y-88256768D01*
X142555500Y-88122426D01*
X142555500Y-87877573D01*
X142523415Y-87675000D01*
X142517199Y-87635753D01*
X142441538Y-87402895D01*
X142330383Y-87184740D01*
X142186469Y-86986660D01*
X142013340Y-86813531D01*
X141815260Y-86669617D01*
X141597105Y-86558462D01*
X141364247Y-86482801D01*
X141364245Y-86482800D01*
X141364243Y-86482800D01*
X141122426Y-86444500D01*
X141122421Y-86444500D01*
X140877579Y-86444500D01*
X140877574Y-86444500D01*
X140635756Y-86482800D01*
X140402892Y-86558463D01*
X140184739Y-86669617D01*
X140131196Y-86708519D01*
X139986660Y-86813531D01*
X139986658Y-86813533D01*
X139986657Y-86813533D01*
X139813533Y-86986657D01*
X139813533Y-86986658D01*
X139813531Y-86986660D01*
X139751725Y-87071727D01*
X139669617Y-87184739D01*
X139558463Y-87402892D01*
X139482800Y-87635756D01*
X139444500Y-87877573D01*
X128120000Y-87877573D01*
X128120000Y-87675000D01*
X128670000Y-87675000D01*
X128670000Y-87441279D01*
X128669999Y-87441277D01*
X128637336Y-87277071D01*
X128637334Y-87277063D01*
X128573259Y-87122372D01*
X128573259Y-87122371D01*
X128480241Y-86983160D01*
X128480235Y-86983152D01*
X128361844Y-86864761D01*
X128222632Y-86771743D01*
X128222622Y-86771738D01*
X128070000Y-86708519D01*
X128070000Y-87358011D01*
X128060060Y-87340795D01*
X128004205Y-87284940D01*
X127935796Y-87245444D01*
X127859496Y-87225000D01*
X127780504Y-87225000D01*
X127704204Y-87245444D01*
X127635795Y-87284940D01*
X127579940Y-87340795D01*
X127570000Y-87358011D01*
X127570000Y-86708519D01*
X127417377Y-86771738D01*
X127417367Y-86771743D01*
X127278155Y-86864761D01*
X127159764Y-86983152D01*
X127159758Y-86983160D01*
X127066740Y-87122371D01*
X127066740Y-87122372D01*
X127002665Y-87277063D01*
X127002663Y-87277071D01*
X126970000Y-87441277D01*
X120029999Y-87441277D01*
X119997336Y-87277071D01*
X119997334Y-87277063D01*
X119933259Y-87122372D01*
X119933259Y-87122371D01*
X119840241Y-86983160D01*
X119840235Y-86983152D01*
X119721844Y-86864761D01*
X119582632Y-86771743D01*
X119582622Y-86771738D01*
X119430000Y-86708519D01*
X119430000Y-87358011D01*
X119420060Y-87340795D01*
X119364205Y-87284940D01*
X119295796Y-87245444D01*
X119219496Y-87225000D01*
X119140504Y-87225000D01*
X119064204Y-87245444D01*
X118995795Y-87284940D01*
X118939940Y-87340795D01*
X118930000Y-87358011D01*
X118930000Y-86708519D01*
X118777377Y-86771738D01*
X118777367Y-86771743D01*
X118638155Y-86864761D01*
X118519764Y-86983152D01*
X118519758Y-86983160D01*
X118426740Y-87122371D01*
X118426740Y-87122372D01*
X118362665Y-87277063D01*
X118362663Y-87277071D01*
X118330000Y-87441277D01*
X107954009Y-87441277D01*
X107941538Y-87402895D01*
X107830383Y-87184740D01*
X107686469Y-86986660D01*
X107513340Y-86813531D01*
X107315260Y-86669617D01*
X107097105Y-86558462D01*
X106864247Y-86482801D01*
X106864245Y-86482800D01*
X106864243Y-86482800D01*
X106622426Y-86444500D01*
X106622421Y-86444500D01*
X106377579Y-86444500D01*
X106377574Y-86444500D01*
X106135756Y-86482800D01*
X105902892Y-86558463D01*
X105684739Y-86669617D01*
X105631196Y-86708519D01*
X105486660Y-86813531D01*
X105486658Y-86813533D01*
X105486657Y-86813533D01*
X105313533Y-86986657D01*
X105313533Y-86986658D01*
X105313531Y-86986660D01*
X105251725Y-87071727D01*
X105169617Y-87184739D01*
X105058463Y-87402892D01*
X104982800Y-87635756D01*
X104944500Y-87877573D01*
X102533182Y-87877573D01*
X102505181Y-84125424D01*
X102524365Y-84058241D01*
X102576826Y-84012093D01*
X102629178Y-84000500D01*
X144375500Y-84000500D01*
X144442539Y-84020185D01*
G37*
%TD.AperFunction*%
%TD*%
M02*
